<svg width="161" height="40" viewBox="0 0 161 40" fill="none" xmlns="http://www.w3.org/2000/svg">
<path fill-rule="evenodd" clip-rule="evenodd" d="M11.8068 0L2.50631 5.45039L11.8068 10.9008L21.2836 5.45039L11.8068 0ZM13.3365 29.0992V40L25.9723 32.7921V21.8898L13.3365 29.0992ZM22.8134 8.87873V19.7811L13.3365 25.2315V14.3291L22.8134 8.87873ZM0 19.7811L9.47685 25.2315V14.3291L0 8.87873V19.7811ZM0 34.5496L9.47685 40V29.0992L0 23.6488V34.5496ZM58.7003 14.9385V14.4077C58.7003 12.8138 57.828 11.9302 56.2566 11.9302H48.3993V17.4175H56.2566C57.828 17.4175 58.7003 16.5324 58.7003 14.9401V14.9385ZM64.4618 23.9663V26.2674C64.4618 30.5157 62.3676 32.6398 58.1792 32.6398H44.9132C44.7959 32.646 44.6787 32.6272 44.5692 32.5847C44.4597 32.5422 44.3605 32.477 44.278 32.3934C44.1956 32.3097 44.1318 32.2095 44.091 32.0994C44.0501 31.9893 44.033 31.8718 44.0409 31.7547V8.74243C44.033 8.62526 44.0501 8.50774 44.091 8.39765C44.1318 8.28755 44.1956 8.18738 44.278 8.10373C44.3605 8.02008 44.4597 7.95487 44.5692 7.91239C44.6787 7.86991 44.7959 7.85113 44.9132 7.85729H56.7793C60.9677 7.85729 63.0619 9.98143 63.0619 14.2297V14.9385C63.0619 18.3059 60.6182 19.0098 60.6182 19.0098V19.1862C60.6182 19.1862 64.4618 19.895 64.4618 23.9663ZM60.097 26.0894V23.9663C60.097 22.3724 59.2247 21.4889 57.6532 21.4889H48.4041V28.5701H57.6532C59.2247 28.5701 60.097 27.6849 60.097 26.0926V26.0894ZM76.8507 29.4568C78.5953 29.4568 79.8172 28.2173 79.8172 26.447V25.2075H74.0589C72.837 25.2075 72.1347 25.9162 72.1347 27.1541V27.5085C72.1347 28.748 72.8322 29.4552 74.0589 29.4552H76.8507V29.4568ZM83.6576 19.8982V31.7643C83.6655 31.8815 83.6484 31.999 83.6076 32.1091C83.5667 32.2192 83.5029 32.3193 83.4205 32.403C83.3381 32.4866 83.2388 32.5518 83.1293 32.5943C83.0198 32.6368 82.9026 32.6556 82.7853 32.6494H80.6911C80.5738 32.6556 80.4566 32.6368 80.3471 32.5943C80.2376 32.5518 80.1384 32.4866 80.0559 32.403C79.9735 32.3193 79.9098 32.2192 79.8689 32.1091C79.828 31.999 79.8109 31.8815 79.8188 31.7643V30.8791H79.644C79.644 30.8791 78.7717 33.0038 76.1531 33.0038H73.5346C70.0442 33.0038 68.299 31.2335 68.299 27.6929V27.1622C68.299 23.6216 70.0442 21.8513 73.5346 21.8513H79.8172V20.0874C79.8172 18.6715 78.9449 17.7863 77.5482 17.7863H75.106C73.8841 17.7863 73.1818 18.4951 73.1818 19.733C73.1897 19.8502 73.1726 19.9677 73.1317 20.0778C73.0908 20.1879 73.0271 20.2881 72.9446 20.3717C72.8622 20.4554 72.763 20.5206 72.6535 20.5631C72.544 20.6055 72.4268 20.6243 72.3095 20.6182H70.2185C70.1012 20.6243 69.9839 20.6055 69.8745 20.5631C69.765 20.5206 69.6657 20.4554 69.5833 20.3717C69.5009 20.2881 69.4371 20.1879 69.3962 20.0778C69.3554 19.9677 69.3383 19.8502 69.3462 19.733C69.3462 16.1924 71.2704 14.2457 74.9312 14.2457H78.0726C81.7382 14.2457 83.6576 16.1924 83.6576 19.911V19.8982ZM104.427 19.8982C104.427 16.1812 102.502 14.2329 98.8414 14.2329H96.0513C93.4327 14.2329 92.5604 16.3576 92.5604 16.3576H92.3856V15.4692C92.3935 15.3521 92.3764 15.2345 92.3356 15.1244C92.2947 15.0144 92.2309 14.9142 92.1485 14.8305C92.0661 14.7469 91.9668 14.6817 91.8573 14.6392C91.7479 14.5967 91.6306 14.5779 91.5133 14.5841H89.4159C89.2986 14.5779 89.1814 14.5967 89.0719 14.6392C88.9624 14.6817 88.8632 14.7469 88.7807 14.8305C88.6983 14.9142 88.6346 15.0144 88.5937 15.1244C88.5528 15.2345 88.5357 15.3521 88.5436 15.4692V31.7499C88.5357 31.867 88.5528 31.9845 88.5937 32.0946C88.6346 32.2047 88.6983 32.3049 88.7807 32.3886C88.8632 32.4722 88.9624 32.5374 89.0719 32.5799C89.1814 32.6224 89.2986 32.6412 89.4159 32.635H91.5101C91.6274 32.6412 91.7446 32.6224 91.8541 32.5799C91.9636 32.5374 92.0629 32.4722 92.1453 32.3886C92.2277 32.3049 92.2915 32.2047 92.3324 32.0946C92.3732 31.9845 92.3903 31.867 92.3824 31.7499V20.7801C92.3824 19.0162 93.6043 17.7703 95.349 17.7703H98.3155C99.7122 17.7703 100.584 18.6554 100.584 20.0714V31.7499C100.577 31.867 100.594 31.9845 100.635 32.0946C100.675 32.2047 100.739 32.3049 100.822 32.3886C100.904 32.4722 101.003 32.5374 101.113 32.5799C101.222 32.6224 101.34 32.6412 101.457 32.635H103.551C103.668 32.6412 103.786 32.6224 103.895 32.5799C104.005 32.5374 104.104 32.4722 104.186 32.3886C104.269 32.3049 104.332 32.2047 104.373 32.0946C104.414 31.9845 104.431 31.867 104.423 31.7499V19.8837L104.427 19.8982ZM121.18 27.1557C121.18 28.5717 120.308 29.4568 118.911 29.4568H115.246C113.849 29.4568 112.977 28.5717 112.977 27.1557V20.0714C112.977 18.6554 113.849 17.7703 115.246 17.7703H118.911C120.308 17.7703 121.18 18.6554 121.18 20.0714V20.6021C121.172 20.7193 121.189 20.8368 121.23 20.9469C121.271 21.057 121.335 21.1572 121.417 21.2408C121.5 21.3245 121.599 21.3897 121.708 21.4322C121.818 21.4747 121.935 21.4934 122.053 21.4873H124.147C124.264 21.4934 124.381 21.4747 124.491 21.4322C124.6 21.3897 124.699 21.3245 124.782 21.2408C124.864 21.1572 124.928 21.057 124.969 20.9469C125.01 20.8368 125.027 20.7193 125.019 20.6021V19.8934C125.019 16.1764 123.095 14.2281 119.434 14.2281H114.723C111.057 14.2281 109.138 16.1748 109.138 19.8934V27.3273C109.138 31.0443 111.062 32.9926 114.723 32.9926H119.436C123.101 32.9926 125.021 31.0459 125.021 27.3273V26.6186C125.029 26.5014 125.011 26.3839 124.971 26.2738C124.93 26.1637 124.866 26.0635 124.783 25.9799C124.701 25.8962 124.602 25.831 124.492 25.7885C124.383 25.746 124.266 25.7273 124.148 25.7334H122.053C121.935 25.7273 121.818 25.746 121.708 25.7885C121.599 25.831 121.5 25.8962 121.417 25.9799C121.335 26.0635 121.271 26.1637 121.23 26.2738C121.189 26.3839 121.172 26.5014 121.18 26.6186V27.1493V27.1557ZM133.046 20.0746V27.1557C133.046 28.5717 133.919 29.4568 135.315 29.4568H139.324C140.721 29.4568 141.593 28.5717 141.593 27.1557V20.0714C141.593 18.6554 140.721 17.7703 139.324 17.7703H135.315C133.919 17.7703 133.046 18.6554 133.046 20.0714V20.0746ZM129.207 27.3321V19.895C129.207 16.178 131.132 14.2297 134.793 14.2297H139.853C143.516 14.2297 145.44 16.1764 145.44 19.895V27.3289C145.44 31.0459 143.516 32.9942 139.855 32.9942H134.793C131.127 32.9942 129.207 31.0475 129.207 27.3289V27.3321ZM157.654 14.2329C155.035 14.2329 154.163 16.3576 154.163 16.3576H153.988V15.4692C153.996 15.3521 153.979 15.2345 153.938 15.1244C153.897 15.0144 153.834 14.9142 153.751 14.8305C153.669 14.7469 153.57 14.6817 153.46 14.6392C153.351 14.5967 153.233 14.5779 153.116 14.5841H151.023C150.906 14.5779 150.789 14.5967 150.679 14.6392C150.57 14.6817 150.471 14.7469 150.388 14.8305C150.306 14.9142 150.242 15.0144 150.201 15.1244C150.16 15.2345 150.143 15.3521 150.151 15.4692V31.7499C150.143 31.867 150.16 31.9845 150.201 32.0946C150.242 32.2047 150.306 32.3049 150.388 32.3886C150.471 32.4722 150.57 32.5374 150.679 32.5799C150.789 32.6224 150.906 32.6412 151.023 32.635H153.118C153.235 32.6412 153.352 32.6224 153.462 32.5799C153.571 32.5374 153.67 32.4722 153.753 32.3886C153.835 32.3049 153.899 32.2047 153.94 32.0946C153.981 31.9845 153.998 31.867 153.99 31.7499V20.9565C153.99 19.1926 155.212 17.9467 156.956 17.9467H159.4C159.518 17.9528 159.635 17.9341 159.744 17.8916C159.854 17.8491 159.953 17.7839 160.035 17.7002C160.118 17.6166 160.182 17.5164 160.223 17.4063C160.263 17.2962 160.28 17.1787 160.273 17.0615V15.1149C160.28 14.9977 160.263 14.8802 160.223 14.7701C160.182 14.66 160.118 14.5598 160.035 14.4762C159.953 14.3925 159.854 14.3273 159.744 14.2848C159.635 14.2423 159.518 14.2235 159.4 14.2297H157.656L157.654 14.2329Z" fill="#000D2B"/>
</svg>
