<svg width="399" height="399" viewBox="0 0 399 399" fill="none" xmlns="http://www.w3.org/2000/svg">
<path opacity="0.1" d="M213.395 114.043C196.735 118.722 180.049 116.204 163.986 112.715C147.923 109.225 131.898 104.769 115.202 105.642C104.469 106.208 92.5292 109.76 85.1021 120.66C77.9574 131.147 76.9353 145.485 77.003 158.452C77.0543 168.204 77.598 178.307 81.5204 186.149C84.2434 191.592 88.4061 195.544 91.5538 200.578C102.521 218.095 99.4103 245.231 92.4662 268.209C89.1995 278.991 85.2071 289.573 83.0161 300.626C80.8251 311.679 80.6081 323.585 84.7334 332.736C88.8261 341.809 96.6546 347.035 104.8 349.837C121.342 355.523 139.7 352.587 157.457 348.505C196.76 339.424 235.625 324.736 274.377 310.076C288.72 304.654 303.127 299.2 316.926 291.215C324.589 286.791 332.385 281.223 337.292 272.418C343.519 261.239 343.575 245.808 337.422 236.449C327.099 220.731 304.006 223.686 295.982 205.8C291.562 195.977 293.361 182.766 296.738 171.155C303.971 146.243 318.146 121.783 316.105 96.7497C314.705 79.5551 304.816 65.158 291.679 61.1777C277.912 57.0086 260.316 63.9714 252.53 81.0678C244.513 98.7183 228.104 109.917 213.395 114.043Z" fill="#1990F2"/>
<circle cx="199" cy="195" r="106" stroke="url(#paint0_linear)" stroke-width="4"/>
<circle cx="199" cy="195" r="89" transform="rotate(-180 199 195)" stroke="url(#paint1_linear)" stroke-width="2"/>
<circle cx="199" cy="195" r="65.5" stroke="url(#paint2_linear)"/>
<g filter="url(#filter0_dd)">
<circle cx="199" cy="87" r="71" fill="#0B3F9C"/>
<circle cx="199" cy="87" r="67" stroke="white" stroke-width="8"/>
</g>
<path d="M164.368 91.736C165.904 91.736 167.248 90.98 167.968 89.792L166.312 88.832C165.952 89.48 165.22 89.864 164.368 89.864C162.88 89.864 161.92 88.868 161.92 87.368C161.92 85.868 162.88 84.872 164.368 84.872C165.22 84.872 165.94 85.256 166.312 85.904L167.968 84.944C167.236 83.756 165.892 83 164.368 83C161.836 83 160 84.896 160 87.368C160 89.84 161.836 91.736 164.368 91.736Z" fill="white"/>
<path d="M173.759 91.736C176.171 91.736 178.127 89.84 178.127 87.368C178.127 84.896 176.171 83 173.759 83C171.347 83 169.391 84.896 169.391 87.368C169.391 89.84 171.347 91.736 173.759 91.736ZM173.759 89.864C172.391 89.864 171.311 88.868 171.311 87.368C171.311 85.868 172.391 84.872 173.759 84.872C175.127 84.872 176.207 85.868 176.207 87.368C176.207 88.868 175.127 89.864 173.759 89.864Z" fill="white"/>
<path d="M188.608 83.168H186.688L184.408 86.9L182.128 83.168H180.208V91.568H182.128V86.684L184.3 90.248H184.516L186.688 86.684V91.568H188.608V83.168Z" fill="white"/>
<path d="M199.451 83.168H197.531L195.251 86.9L192.971 83.168H191.051V91.568H192.971V86.684L195.143 90.248H195.359L197.531 86.684V91.568H199.451V83.168Z" fill="white"/>
<path d="M205.075 91.736C206.923 91.736 208.315 90.656 208.315 88.856V83.168H206.395V88.688C206.395 89.324 206.095 89.864 205.075 89.864C204.055 89.864 203.755 89.324 203.755 88.688V83.168H201.835V88.856C201.835 90.656 203.227 91.736 205.075 91.736Z" fill="white"/>
<path d="M215.38 83.168V87.728L212.14 83.168H210.7V91.568H212.62V87.008L215.86 91.568H217.3V83.168H215.38Z" fill="white"/>
<path d="M219.739 83.168V91.568H221.659V83.168H219.739Z" fill="white"/>
<path d="M229.742 83.168H223.502V85.016H225.662V91.568H227.582V85.016H229.742V83.168Z" fill="white"/>
<path d="M238.423 83.168H236.239L234.643 86.408L233.047 83.168H230.863L233.683 88.34V91.568H235.603V88.34L238.423 83.168Z" fill="white"/>
<g filter="url(#filter1_dd)">
<circle cx="308" cy="200" r="71" fill="#3CBCF7"/>
<circle cx="308" cy="200" r="67" stroke="white" stroke-width="8"/>
</g>
<path d="M271.24 196.168H265V198.016H267.16V204.568H269.08V198.016H271.24V196.168Z" fill="white"/>
<path d="M275 202.72V201.232H278V199.408H275V198.016H278.3V196.168H273.08V204.568H278.36V202.72H275Z" fill="white"/>
<path d="M284.393 204.736C285.929 204.736 287.273 203.98 287.993 202.792L286.337 201.832C285.977 202.48 285.245 202.864 284.393 202.864C282.905 202.864 281.945 201.868 281.945 200.368C281.945 198.868 282.905 197.872 284.393 197.872C285.245 197.872 285.965 198.256 286.337 198.904L287.993 197.944C287.261 196.756 285.917 196 284.393 196C281.861 196 280.025 197.896 280.025 200.368C280.025 202.84 281.861 204.736 284.393 204.736Z" fill="white"/>
<path d="M294.453 196.168V199.384H291.813V196.168H289.893V204.568H291.813V201.232H294.453V204.568H296.373V196.168H294.453Z" fill="white"/>
<path d="M303.495 196.168V200.728L300.255 196.168H298.815V204.568H300.735V200.008L303.975 204.568H305.415V196.168H303.495Z" fill="white"/>
<path d="M311.862 204.736C314.274 204.736 316.23 202.84 316.23 200.368C316.23 197.896 314.274 196 311.862 196C309.45 196 307.494 197.896 307.494 200.368C307.494 202.84 309.45 204.736 311.862 204.736ZM311.862 202.864C310.494 202.864 309.414 201.868 309.414 200.368C309.414 198.868 310.494 197.872 311.862 197.872C313.23 197.872 314.31 198.868 314.31 200.368C314.31 201.868 313.23 202.864 311.862 202.864Z" fill="white"/>
<path d="M320.231 202.72V196.168H318.311V204.568H323.231V202.72H320.231Z" fill="white"/>
<path d="M328.604 204.736C331.016 204.736 332.972 202.84 332.972 200.368C332.972 197.896 331.016 196 328.604 196C326.192 196 324.236 197.896 324.236 200.368C324.236 202.84 326.192 204.736 328.604 204.736ZM328.604 202.864C327.236 202.864 326.156 201.868 326.156 200.368C326.156 198.868 327.236 197.872 328.604 197.872C329.972 197.872 331.052 198.868 331.052 200.368C331.052 201.868 329.972 202.864 328.604 202.864Z" fill="white"/>
<path d="M343.369 199.888H339.157V201.568H341.401C341.101 202.372 340.369 202.864 339.253 202.864C337.621 202.864 336.613 201.82 336.613 200.392C336.613 198.916 337.669 197.872 339.085 197.872C340.033 197.872 340.789 198.304 341.137 198.856L342.769 197.92C342.061 196.792 340.705 196 339.097 196C336.625 196 334.693 197.944 334.693 200.38C334.693 202.792 336.589 204.736 339.229 204.736C341.581 204.736 343.369 203.176 343.369 200.608V199.888Z" fill="white"/>
<path d="M351.694 196.168H349.51L347.914 199.408L346.318 196.168H344.134L346.954 201.34V204.568H348.874V201.34L351.694 196.168Z" fill="white"/>
<g filter="url(#filter2_dd)">
<circle cx="91" cy="200" r="71" fill="#001358"/>
<circle cx="91" cy="200" r="67" stroke="white" stroke-width="8"/>
</g>
<path d="M77.24 196.168H71V198.016H73.16V204.568H75.08V198.016H77.24V196.168Z" fill="white"/>
<path d="M82.608 204.736C85.02 204.736 86.976 202.84 86.976 200.368C86.976 197.896 85.02 196 82.608 196C80.196 196 78.24 197.896 78.24 200.368C78.24 202.84 80.196 204.736 82.608 204.736ZM82.608 202.864C81.24 202.864 80.16 201.868 80.16 200.368C80.16 198.868 81.24 197.872 82.608 197.872C83.976 197.872 85.056 198.868 85.056 200.368C85.056 201.868 83.976 202.864 82.608 202.864Z" fill="white"/>
<path d="M95.849 204.568L92.897 200.26L95.729 196.168H93.545L90.977 199.816V196.168H89.057V204.568H90.977V200.68L93.665 204.568H95.849Z" fill="white"/>
<path d="M99.4888 202.72V201.232H102.489V199.408H99.4888V198.016H102.789V196.168H97.5688V204.568H102.849V202.72H99.4888Z" fill="white"/>
<path d="M109.612 196.168V200.728L106.372 196.168H104.932V204.568H106.852V200.008L110.092 204.568H111.532V196.168H109.612Z" fill="white"/>
<g filter="url(#filter3_dd)">
<circle cx="199" cy="304" r="71" fill="#2E58DB"/>
<circle cx="199" cy="304" r="67" stroke="white" stroke-width="8"/>
</g>
<path d="M163.676 303.888H159.464V305.568H161.708C161.408 306.372 160.676 306.864 159.56 306.864C157.928 306.864 156.92 305.82 156.92 304.392C156.92 302.916 157.976 301.872 159.392 301.872C160.34 301.872 161.096 302.304 161.444 302.856L163.076 301.92C162.368 300.792 161.012 300 159.404 300C156.932 300 155 301.944 155 304.38C155 306.792 156.896 308.736 159.536 308.736C161.888 308.736 163.676 307.176 163.676 304.608V303.888Z" fill="white"/>
<path d="M169.766 308.736C172.178 308.736 174.134 306.84 174.134 304.368C174.134 301.896 172.178 300 169.766 300C167.354 300 165.398 301.896 165.398 304.368C165.398 306.84 167.354 308.736 169.766 308.736ZM169.766 306.864C168.398 306.864 167.318 305.868 167.318 304.368C167.318 302.868 168.398 301.872 169.766 301.872C171.134 301.872 172.214 302.868 172.214 304.368C172.214 305.868 171.134 306.864 169.766 306.864Z" fill="white"/>
<path d="M177.868 308.568H180.316L183.052 300.168H180.952L179.092 306.348L177.232 300.168H175.132L177.868 308.568Z" fill="white"/>
<path d="M186.694 306.72V305.232H189.694V303.408H186.694V302.016H189.994V300.168H184.774V308.568H190.054V306.72H186.694Z" fill="white"/>
<path d="M196.553 308.568H198.617L196.829 305.484C197.753 305.016 198.377 304.08 198.377 303.048C198.377 301.452 197.093 300.168 195.497 300.168H192.137V308.568H194.057V305.808H194.969L196.553 308.568ZM194.057 301.968H195.497C196.025 301.968 196.457 302.436 196.457 303.048C196.457 303.66 196.025 304.128 195.497 304.128H194.057V301.968Z" fill="white"/>
<path d="M205.2 300.168V304.728L201.96 300.168H200.52V308.568H202.44V304.008L205.68 308.568H207.12V300.168H205.2Z" fill="white"/>
<path d="M214.899 308.568H216.999L214.143 300.168H211.695L208.839 308.568H210.939L211.359 307.248H214.479L214.899 308.568ZM211.935 305.448L212.919 302.364L213.903 305.448H211.935Z" fill="white"/>
<path d="M223.395 300.168V304.728L220.155 300.168H218.715V308.568H220.635V304.008L223.875 308.568H225.315V300.168H223.395Z" fill="white"/>
<path d="M231.763 308.736C233.299 308.736 234.643 307.98 235.363 306.792L233.707 305.832C233.347 306.48 232.615 306.864 231.763 306.864C230.275 306.864 229.315 305.868 229.315 304.368C229.315 302.868 230.275 301.872 231.763 301.872C232.615 301.872 233.335 302.256 233.707 302.904L235.363 301.944C234.631 300.756 233.287 300 231.763 300C229.231 300 227.395 301.896 227.395 304.368C227.395 306.84 229.231 308.736 231.763 308.736Z" fill="white"/>
<path d="M239.182 306.72V305.232H242.182V303.408H239.182V302.016H242.482V300.168H237.262V308.568H242.542V306.72H239.182Z" fill="white"/>
<defs>
<filter id="filter0_dd" x="108" y="0" width="182" height="182" filterUnits="userSpaceOnUse" color-interpolation-filters="sRGB">
<feFlood flood-opacity="0" result="BackgroundImageFix"/>
<feColorMatrix in="SourceAlpha" type="matrix" values="0 0 0 0 0 0 0 0 0 0 0 0 0 0 0 0 0 0 127 0"/>
<feOffset dy="1"/>
<feGaussianBlur stdDeviation="1"/>
<feColorMatrix type="matrix" values="0 0 0 0 0 0 0 0 0 0 0 0 0 0 0 0 0 0 0.12 0"/>
<feBlend mode="normal" in2="BackgroundImageFix" result="effect1_dropShadow"/>
<feColorMatrix in="SourceAlpha" type="matrix" values="0 0 0 0 0 0 0 0 0 0 0 0 0 0 0 0 0 0 127 0"/>
<feOffset dy="4"/>
<feGaussianBlur stdDeviation="10"/>
<feColorMatrix type="matrix" values="0 0 0 0 0 0 0 0 0 0 0 0 0 0 0 0 0 0 0.12 0"/>
<feBlend mode="normal" in2="effect1_dropShadow" result="effect2_dropShadow"/>
<feBlend mode="normal" in="SourceGraphic" in2="effect2_dropShadow" result="shape"/>
</filter>
<filter id="filter1_dd" x="217" y="113" width="182" height="182" filterUnits="userSpaceOnUse" color-interpolation-filters="sRGB">
<feFlood flood-opacity="0" result="BackgroundImageFix"/>
<feColorMatrix in="SourceAlpha" type="matrix" values="0 0 0 0 0 0 0 0 0 0 0 0 0 0 0 0 0 0 127 0"/>
<feOffset dy="1"/>
<feGaussianBlur stdDeviation="1"/>
<feColorMatrix type="matrix" values="0 0 0 0 0 0 0 0 0 0 0 0 0 0 0 0 0 0 0.12 0"/>
<feBlend mode="normal" in2="BackgroundImageFix" result="effect1_dropShadow"/>
<feColorMatrix in="SourceAlpha" type="matrix" values="0 0 0 0 0 0 0 0 0 0 0 0 0 0 0 0 0 0 127 0"/>
<feOffset dy="4"/>
<feGaussianBlur stdDeviation="10"/>
<feColorMatrix type="matrix" values="0 0 0 0 0 0 0 0 0 0 0 0 0 0 0 0 0 0 0.12 0"/>
<feBlend mode="normal" in2="effect1_dropShadow" result="effect2_dropShadow"/>
<feBlend mode="normal" in="SourceGraphic" in2="effect2_dropShadow" result="shape"/>
</filter>
<filter id="filter2_dd" x="0" y="113" width="182" height="182" filterUnits="userSpaceOnUse" color-interpolation-filters="sRGB">
<feFlood flood-opacity="0" result="BackgroundImageFix"/>
<feColorMatrix in="SourceAlpha" type="matrix" values="0 0 0 0 0 0 0 0 0 0 0 0 0 0 0 0 0 0 127 0"/>
<feOffset dy="1"/>
<feGaussianBlur stdDeviation="1"/>
<feColorMatrix type="matrix" values="0 0 0 0 0 0 0 0 0 0 0 0 0 0 0 0 0 0 0.12 0"/>
<feBlend mode="normal" in2="BackgroundImageFix" result="effect1_dropShadow"/>
<feColorMatrix in="SourceAlpha" type="matrix" values="0 0 0 0 0 0 0 0 0 0 0 0 0 0 0 0 0 0 127 0"/>
<feOffset dy="4"/>
<feGaussianBlur stdDeviation="10"/>
<feColorMatrix type="matrix" values="0 0 0 0 0 0 0 0 0 0 0 0 0 0 0 0 0 0 0.12 0"/>
<feBlend mode="normal" in2="effect1_dropShadow" result="effect2_dropShadow"/>
<feBlend mode="normal" in="SourceGraphic" in2="effect2_dropShadow" result="shape"/>
</filter>
<filter id="filter3_dd" x="108" y="217" width="182" height="182" filterUnits="userSpaceOnUse" color-interpolation-filters="sRGB">
<feFlood flood-opacity="0" result="BackgroundImageFix"/>
<feColorMatrix in="SourceAlpha" type="matrix" values="0 0 0 0 0 0 0 0 0 0 0 0 0 0 0 0 0 0 127 0"/>
<feOffset dy="1"/>
<feGaussianBlur stdDeviation="1"/>
<feColorMatrix type="matrix" values="0 0 0 0 0 0 0 0 0 0 0 0 0 0 0 0 0 0 0.12 0"/>
<feBlend mode="normal" in2="BackgroundImageFix" result="effect1_dropShadow"/>
<feColorMatrix in="SourceAlpha" type="matrix" values="0 0 0 0 0 0 0 0 0 0 0 0 0 0 0 0 0 0 127 0"/>
<feOffset dy="4"/>
<feGaussianBlur stdDeviation="10"/>
<feColorMatrix type="matrix" values="0 0 0 0 0 0 0 0 0 0 0 0 0 0 0 0 0 0 0.12 0"/>
<feBlend mode="normal" in2="effect1_dropShadow" result="effect2_dropShadow"/>
<feBlend mode="normal" in="SourceGraphic" in2="effect2_dropShadow" result="shape"/>
</filter>
<linearGradient id="paint0_linear" x1="307" y1="83.2759" x2="97.5173" y2="296.483" gradientUnits="userSpaceOnUse">
<stop stop-color="#273469"/>
<stop offset="0.512838" stop-color="#3CBCF7"/>
<stop offset="1" stop-color="#2E58DB"/>
</linearGradient>
<linearGradient id="paint1_linear" x1="289" y1="101.897" x2="114.431" y2="279.569" gradientUnits="userSpaceOnUse">
<stop stop-color="#273469"/>
<stop offset="0.512838" stop-color="#3CBCF7"/>
<stop offset="1" stop-color="#2E58DB"/>
</linearGradient>
<linearGradient id="paint2_linear" x1="265" y1="126.724" x2="136.983" y2="257.017" gradientUnits="userSpaceOnUse">
<stop stop-color="#273469"/>
<stop offset="0.512838" stop-color="#3CBCF7"/>
<stop offset="1" stop-color="#2E58DB"/>
</linearGradient>
</defs>
</svg>
