<svg width="132" height="100" viewBox="0 0 132 100" fill="none" xmlns="http://www.w3.org/2000/svg">
<g clip-path="url(#clip0)">
<path d="M79.0676 26.8791C79.0676 26.8791 77.4429 26.2201 72.2768 28.5897C67.1106 30.9594 66.4616 30.657 65.1268 30.2945C63.7919 29.9321 63.0483 29.8467 61.6095 27.8706C61.6095 27.8706 60.598 22.3903 59.6199 21.5408C58.6419 20.6913 54.4815 22.0244 54.4815 22.0244C54.4815 22.0244 49.4943 23.1683 48.5439 16.506C48.5439 16.506 49.2183 11.484 48.3003 9.94307C48.3003 9.94307 50.1478 10.743 53.2124 9.45252C56.2771 8.16209 58.7193 10.8376 58.7193 10.8376C58.7193 10.8376 59.4906 12.8344 59.4121 14.0244C59.3336 15.2145 59.8197 15.6611 61.2793 15.0863C61.2793 15.0863 61.9952 14.0671 60.9802 12.3831C59.9652 10.6991 59.2412 9.44328 59.5253 8.13554C59.8093 6.82779 60.6222 5.01911 63.2388 4.10726C65.8554 3.19542 69.4096 3.02459 71.1163 2.31474C72.8229 1.60488 73.2352 1.14319 73.2352 1.14319C73.2352 1.14319 72.1832 2.19816 74.6601 6.65466C77.137 11.1112 75.5573 13.0468 75.5573 13.0468C75.5573 13.0468 74.2409 16.1817 68.4327 15.9324C68.4327 15.9324 62.8358 16.1367 65.8924 18.5098C65.8924 18.5098 67.8473 18.1116 70.7687 17.1836C73.6901 16.2556 75.7998 20.0865 76.3229 22.7528C76.846 25.419 79.0676 26.8791 79.0676 26.8791Z" fill="#1990F2"/>
<path d="M71.5426 4.52578L71.5738 4.5177C71.7978 5.36837 69.2956 8.78837 67.1582 11.5043L67.1328 11.4847C70.1501 7.65145 71.717 5.18023 71.5426 4.52578Z" fill="#444053"/>
<path d="M67.1776 11.4281L67.1903 11.4627C65.4825 13.6338 63.3347 16.2239 61.6153 18.1423C61.4514 18.3258 61.2886 18.5174 61.1315 18.7136L61.083 18.6732C61.24 18.477 61.404 18.2843 61.568 18.0961C63.2862 16.1835 65.4709 13.5981 67.1776 11.4281Z" fill="#444053"/>
<path d="M61.1246 18.6224L61.1581 18.6801C58.0288 22.5849 57.8221 28.6481 57.8094 28.7012L57.1489 27.9394C57.1628 27.8863 57.9734 22.5538 61.1246 18.6224Z" fill="#444053"/>
<path d="M75.4384 24.7607C75.4384 24.7607 71.7433 22.8435 68.8738 23.5314C66.0043 24.2193 59.5206 21.1006 59.5206 21.1006C59.5206 21.1006 56.7713 19.9833 56.2193 18.7113C56.2193 18.7113 54.3337 16.7191 54.2263 15.6872C54.1189 14.6554 52.2829 12.0629 51.0854 11.9625" stroke="#444053" stroke-miterlimit="10"/>
<path d="M74.9051 26.6062C74.9051 26.6062 73.0437 25.355 73.2631 23.8972" stroke="#444053" stroke-miterlimit="10"/>
<path d="M72.0542 28.2234C72.0542 28.2234 69.3983 27.2585 69.1304 23.4784" stroke="#444053" stroke-miterlimit="10"/>
<path d="M67.767 29.2021C67.767 29.2021 65.2266 27.0956 66.0707 23.4159" stroke="#444053" stroke-miterlimit="10"/>
<path d="M62.6142 28.1726C62.6142 28.1726 60.9226 24.6279 62.4271 22.3218" stroke="#444053" stroke-miterlimit="10"/>
<path d="M75.4824 22.4244C75.4824 22.4244 73.5598 23.0339 73.972 24.0404" stroke="#444053" stroke-miterlimit="10"/>
<path d="M73.1591 18.9375C73.1591 18.9375 70.5876 19.7535 70.5264 23.3894" stroke="#444053" stroke-miterlimit="10"/>
<path d="M69.5798 18.0984C69.5798 18.0984 67.2403 20.984 67.4124 23.6099" stroke="#444053" stroke-miterlimit="10"/>
<path d="M65.4782 19.2306C65.4782 19.2306 63.1537 21.4513 63.4505 22.6875" stroke="#444053" stroke-miterlimit="10"/>
<path d="M64.0763 18.4459C64.0763 18.4459 61.8962 18.8374 61.5913 18.1215" stroke="#444053" stroke-miterlimit="10"/>
<path d="M61.2437 15.8153C61.2437 15.8153 62.3452 17.2737 62.6293 16.9469" stroke="#444053" stroke-miterlimit="10"/>
<path d="M72.1618 14.8937C72.1618 14.8937 66.6676 15.2898 65.4229 13.6362" stroke="#444053" stroke-miterlimit="10"/>
<path d="M60.0879 8.46851C60.0879 8.46851 62.6664 14.0008 64.5382 14.7014" stroke="#444053" stroke-miterlimit="10"/>
<path d="M62.792 5.8335C62.792 5.8335 64.3763 10.9225 66.3381 12.5107" stroke="#444053" stroke-miterlimit="10"/>
<path d="M74.4742 10.694C74.4742 10.694 70.2953 12.4873 67.7861 10.6732" stroke="#444053" stroke-width="0.75" stroke-miterlimit="10"/>
<path d="M66.5146 4.74854C66.5146 4.74854 67.4696 8.48941 68.7559 9.39317" stroke="#444053" stroke-width="0.75" stroke-miterlimit="10"/>
<path d="M73.8428 6.50403C73.8428 6.50403 71.4953 7.39316 70.6177 6.71188" stroke="#444053" stroke-width="0.75" stroke-miterlimit="10"/>
<path d="M59.2322 17.0376C59.2322 17.0376 59.2322 20.2983 58.3442 20.5303" stroke="#444053" stroke-miterlimit="10"/>
<path d="M51.9727 21.2622C51.9727 21.2622 55.4992 21.5646 57.1261 19.7455" stroke="#444053" stroke-miterlimit="10"/>
<path d="M58.3225 13.186C58.3225 13.186 57.4692 16.4929 55.1147 17.384" stroke="#444053" stroke-miterlimit="10"/>
<path d="M49.8569 17.7787C49.8569 17.7787 52.3534 18.6467 54.5 16.4375" stroke="#444053" stroke-miterlimit="10"/>
<path d="M55.5464 10.343C55.5464 10.343 55.3155 13.1513 53.7832 14.4659" stroke="#444053" stroke-miterlimit="10"/>
<path d="M49.9497 13.4991C49.9497 13.4991 52.0213 13.5141 52.5062 12.8386" stroke="#444053" stroke-miterlimit="10"/>
<path opacity="0.1" d="M68.3554 15.8661C60.1108 17.2408 51.8534 16.5009 43.9043 15.476C35.9553 14.451 28.0247 13.1421 19.7627 13.3983C14.4511 13.5645 8.54238 14.608 4.86693 17.8098C1.33119 20.8905 0.825427 25.1023 0.858914 28.9112C0.884318 31.776 1.15337 34.7436 3.09444 37.0474C4.44199 38.646 6.502 39.8072 8.05971 41.2858C13.4869 46.4314 11.9476 54.4025 8.5112 61.1524C6.8946 64.3197 4.91889 67.428 3.83461 70.6749C2.75034 73.9217 2.64295 77.4191 4.68448 80.1073C6.70985 82.7724 10.5839 84.3075 14.615 85.1305C22.8008 86.8007 31.8861 85.9385 40.6735 84.7392C60.1235 82.0718 79.3564 77.7573 98.5339 73.4508C105.632 71.858 112.761 70.2559 119.59 67.9105C123.382 66.6108 127.24 64.9753 129.668 62.3886C132.75 59.1048 132.778 54.5722 129.733 51.8228C124.625 47.2058 113.196 48.0738 109.225 42.8198C107.038 39.9342 107.929 36.0536 109.6 32.6429C113.179 25.325 120.194 18.1399 119.184 10.7863C118.491 5.73537 113.597 1.50626 107.096 0.337023C100.283 -0.887619 91.5756 1.15768 87.7223 6.17976C83.7547 11.3646 75.6347 14.6541 68.3554 15.8661Z" fill="#1990F2"/>
<path d="M117.103 17.3262H10.2513C9.45479 17.3262 8.80908 17.9716 8.80908 18.7678V78.0204C8.80908 78.8166 9.45479 79.4621 10.2513 79.4621H117.103C117.899 79.4621 118.545 78.8166 118.545 78.0204V18.7678C118.545 17.9716 117.899 17.3262 117.103 17.3262Z" fill="url(#paint0_linear)"/>
<path d="M116.942 18.2H10.4261C9.6296 18.2 8.98389 18.8454 8.98389 19.6416V77.8138C8.98389 78.61 9.6296 79.2555 10.4261 79.2555H116.942C117.738 79.2555 118.384 78.61 118.384 77.8138V19.6416C118.384 18.8454 117.738 18.2 116.942 18.2Z" fill="white"/>
<path d="M116.942 18.2H10.4261C9.6296 18.2 8.98389 18.8454 8.98389 19.6416V77.8138C8.98389 78.61 9.6296 79.2555 10.4261 79.2555H116.942C117.738 79.2555 118.384 78.61 118.384 77.8138V19.6416C118.384 18.8454 117.738 18.2 116.942 18.2Z" fill="white"/>
<path opacity="0.04" d="M116.942 18.2H10.4261C9.6296 18.2 8.98389 18.8454 8.98389 19.6416V77.8138C8.98389 78.61 9.6296 79.2555 10.4261 79.2555H116.942C117.738 79.2555 118.384 78.61 118.384 77.8138V19.6416C118.384 18.8454 117.738 18.2 116.942 18.2Z" fill="#5A5773"/>
<path d="M117.828 17.4993H9.53442C9.38712 17.4993 9.24584 17.5578 9.14168 17.6619C9.03752 17.766 8.979 17.9072 8.979 18.0545V20.4022H118.379V18.0591C118.38 17.9862 118.366 17.9138 118.338 17.8463C118.311 17.7787 118.271 17.7171 118.22 17.6651C118.168 17.6132 118.108 17.5718 118.04 17.5433C117.973 17.5148 117.901 17.4999 117.828 17.4993Z" fill="#5A5773"/>
<path d="M11.1685 19.7005C11.5831 19.7005 11.9191 19.3646 11.9191 18.9502C11.9191 18.5359 11.5831 18.2 11.1685 18.2C10.754 18.2 10.418 18.5359 10.418 18.9502C10.418 19.3646 10.754 19.7005 11.1685 19.7005Z" fill="white"/>
<path d="M13.189 19.7005C13.6036 19.7005 13.9396 19.3646 13.9396 18.9502C13.9396 18.5359 13.6036 18.2 13.189 18.2C12.7745 18.2 12.4385 18.5359 12.4385 18.9502C12.4385 19.3646 12.7745 19.7005 13.189 19.7005Z" fill="white"/>
<path d="M15.21 19.7005C15.6246 19.7005 15.9606 19.3646 15.9606 18.9502C15.9606 18.5359 15.6246 18.2 15.21 18.2C14.7955 18.2 14.4595 18.5359 14.4595 18.9502C14.4595 19.3646 14.7955 19.7005 15.21 19.7005Z" fill="white"/>
<path d="M106.352 33.9183H17.4833C16.8334 33.9183 16.3066 34.4449 16.3066 35.0945V78.0782C16.3066 78.7278 16.8334 79.2544 17.4833 79.2544H106.352C107.002 79.2544 107.529 78.7278 107.529 78.0782V35.0945C107.529 34.4449 107.002 33.9183 106.352 33.9183Z" fill="white"/>
<path opacity="0.2" d="M38.2325 23.4829H12.8842C12.638 23.4829 12.4385 23.6824 12.4385 23.9284V25.7902C12.4385 26.0363 12.638 26.2357 12.8842 26.2357H38.2325C38.4786 26.2357 38.6782 26.0363 38.6782 25.7902V23.9284C38.6782 23.6824 38.4786 23.4829 38.2325 23.4829Z" fill="#5A5773"/>
<path opacity="0.2" d="M87.712 39.1805H62.3637C62.1175 39.1805 61.918 39.38 61.918 39.6261V41.4879C61.918 41.7339 62.1175 41.9334 62.3637 41.9334H87.712C87.9581 41.9334 88.1577 41.7339 88.1577 41.4879V39.6261C88.1577 39.38 87.9581 39.1805 87.712 39.1805Z" fill="#1990F2"/>
<path opacity="0.2" d="M102.445 46.8884H62.3637C62.1175 46.8884 61.918 47.0879 61.918 47.334V49.1957C61.918 49.4418 62.1175 49.6413 62.3637 49.6413H102.445C102.691 49.6413 102.891 49.4418 102.891 49.1957V47.334C102.891 47.0879 102.691 46.8884 102.445 46.8884Z" fill="#1990F2"/>
<path opacity="0.2" d="M102.445 51.39H62.3637C62.1175 51.39 61.918 51.5895 61.918 51.8356V53.6974C61.918 53.9434 62.1175 54.1429 62.3637 54.1429H102.445C102.691 54.1429 102.891 53.9434 102.891 53.6974V51.8356C102.891 51.5895 102.691 51.39 102.445 51.39Z" fill="#1990F2"/>
<path opacity="0.2" d="M102.445 55.8915H62.3637C62.1175 55.8915 61.918 56.091 61.918 56.337V58.1988C61.918 58.4449 62.1175 58.6443 62.3637 58.6443H102.445C102.691 58.6443 102.891 58.4449 102.891 58.1988V56.337C102.891 56.091 102.691 55.8915 102.445 55.8915Z" fill="#1990F2"/>
<path opacity="0.2" d="M102.445 60.3929H62.3637C62.1175 60.3929 61.918 60.5924 61.918 60.8385V62.7003C61.918 62.9463 62.1175 63.1458 62.3637 63.1458H102.445C102.691 63.1458 102.891 62.9463 102.891 62.7003V60.8385C102.891 60.5924 102.691 60.3929 102.445 60.3929Z" fill="#1990F2"/>
<path opacity="0.2" d="M102.445 65.3562H21.6982C21.452 65.3562 21.2524 65.5557 21.2524 65.8017V67.6635C21.2524 67.9096 21.452 68.109 21.6982 68.109H102.445C102.691 68.109 102.891 67.9096 102.891 67.6635V65.8017C102.891 65.5557 102.691 65.3562 102.445 65.3562Z" fill="#1990F2"/>
<path opacity="0.2" d="M102.445 69.8577H21.6982C21.452 69.8577 21.2524 70.0571 21.2524 70.3032V72.165C21.2524 72.411 21.452 72.6105 21.6982 72.6105H102.445C102.691 72.6105 102.891 72.411 102.891 72.165V70.3032C102.891 70.0571 102.691 69.8577 102.445 69.8577Z" fill="#1990F2"/>
<path opacity="0.2" d="M102.445 74.3593H21.6982C21.452 74.3593 21.2524 74.5587 21.2524 74.8048V76.6666C21.2524 76.9126 21.452 77.1121 21.6982 77.1121H102.445C102.691 77.1121 102.891 76.9126 102.891 76.6666V74.8048C102.891 74.5587 102.691 74.3593 102.445 74.3593Z" fill="#1990F2"/>
<path d="M84.2132 76.1794C84.2132 76.1794 84.898 77.074 83.8968 78.4256C82.8957 79.7772 82.0712 80.9176 82.4049 81.7602C82.4049 81.7602 83.9142 79.2509 85.1439 79.2208C86.3737 79.1908 85.5654 77.688 84.2132 76.1794Z" fill="#1990F2"/>
<path opacity="0.1" d="M84.2134 76.1794C84.273 76.2658 84.3201 76.3603 84.3531 76.4599C85.5529 77.8681 86.1914 79.1828 85.039 79.2151C83.9651 79.2462 82.6765 81.1657 82.3682 81.6493C82.3778 81.6886 82.3902 81.7272 82.4051 81.7648C82.4051 81.7648 83.9143 79.2555 85.1441 79.2255C86.3739 79.1955 85.5656 77.688 84.2134 76.1794Z" fill="black"/>
<path d="M85.4856 77.3199C85.4856 77.6351 85.451 77.8903 85.4071 77.8903C85.3632 77.8903 85.3286 77.6351 85.3286 77.3199C85.3286 77.0046 85.3725 77.1536 85.4164 77.1536C85.4602 77.1536 85.4856 77.0046 85.4856 77.3199Z" fill="#FFD037"/>
<path d="M85.9235 77.6962C85.6464 77.8463 85.405 77.9375 85.3842 77.8994C85.3635 77.8613 85.5713 77.7077 85.8461 77.553C86.121 77.3982 86.0136 77.5114 86.0344 77.553C86.0552 77.5945 86.1995 77.5449 85.9235 77.6962Z" fill="#FFD037"/>
<path d="M80.5967 76.1794C80.5967 76.1794 79.9119 77.074 80.9119 78.4256C81.9119 79.7772 82.7387 80.9176 82.405 81.7602C82.405 81.7602 80.8946 79.2509 79.666 79.2208C78.4374 79.1908 79.2445 77.688 80.5967 76.1794Z" fill="#1990F2"/>
<path opacity="0.1" d="M80.5967 76.1794C80.5363 76.2656 80.4889 76.3601 80.4558 76.4599C79.2572 77.8681 78.6187 79.1828 79.7711 79.2151C80.8449 79.2462 82.1324 81.1657 82.4407 81.6493C82.4315 81.6886 82.4195 81.7272 82.4049 81.7648C82.4049 81.7648 80.8946 79.2555 79.666 79.2255C78.4374 79.1955 79.2445 77.688 80.5967 76.1794Z" fill="black"/>
<path d="M79.3228 77.3199C79.3228 77.6351 79.3585 77.8903 79.4024 77.8903C79.4463 77.8903 79.4809 77.6351 79.4809 77.3199C79.4809 77.0046 79.4371 77.1559 79.3943 77.1559C79.3516 77.1559 79.3228 77.0046 79.3228 77.3199Z" fill="#FFD037"/>
<path d="M78.8867 77.6962C79.1639 77.8463 79.4052 77.9375 79.426 77.8994C79.4468 77.8613 79.2389 77.7077 78.9641 77.553C78.6893 77.3982 78.7967 77.5114 78.7759 77.553C78.7551 77.5945 78.6096 77.5449 78.8867 77.6962Z" fill="#FFD037"/>
<path opacity="0.1" d="M82.4048 88.6059C86.3588 88.6059 89.5641 88.1144 89.5641 87.5082C89.5641 86.902 86.3588 86.4105 82.4048 86.4105C78.4509 86.4105 75.2456 86.902 75.2456 87.5082C75.2456 88.1144 78.4509 88.6059 82.4048 88.6059Z" fill="#1990F2"/>
<path d="M86.092 80.5539L86.0574 80.8333L86.01 81.228L85.9892 81.3931L85.9419 81.7878L85.9211 81.9529L85.8726 82.3465L85.3253 86.8364C85.2756 87.237 84.6209 87.5498 83.8242 87.5498H80.9813C80.1903 87.5498 79.5367 87.237 79.4882 86.8364L78.9386 82.3499L78.8912 81.9563L78.8704 81.7913L78.8219 81.3965L78.8023 81.2315L78.7538 80.8367L78.7192 80.5574C78.6926 80.3266 79.0471 80.1396 79.494 80.1396H85.3161C85.7629 80.1361 86.1174 80.3266 86.092 80.5539Z" fill="#65617D"/>
<path d="M86.0552 80.8333L86.0079 81.2282H78.8024L78.7539 80.8333H86.0552Z" fill="#9D9CB5"/>
<path d="M85.9868 81.392L85.9394 81.7869H78.8703L78.8218 81.392H85.9868Z" fill="#9D9CB5"/>
<path d="M85.9187 81.9518L85.8702 82.3467H78.9385L78.8911 81.9518H85.9187Z" fill="#9D9CB5"/>
<path opacity="0.2" d="M55.1433 37.6534H22.2339C21.6919 37.6534 21.2524 38.0927 21.2524 38.6345V62.2432C21.2524 62.7851 21.6919 63.2243 22.2339 63.2243H55.1433C55.6854 63.2243 56.1248 62.7851 56.1248 62.2432V38.6345C56.1248 38.0927 55.6854 37.6534 55.1433 37.6534Z" fill="#1990F2"/>
<g opacity="0.1">
<path opacity="0.1" d="M117.814 54.8967C117.893 54.6969 117.687 54.4994 117.661 54.2847C117.633 54.345 117.621 54.4113 117.626 54.4775C117.64 54.6403 117.76 54.7916 117.791 54.9394C117.8 54.9259 117.808 54.9116 117.814 54.8967Z" fill="black"/>
<path opacity="0.1" d="M121.362 57.1981C121.285 56.8611 121.309 56.5056 121.23 56.1674C121.151 55.8292 120.911 55.4749 120.583 55.4749C120.442 55.4749 120.277 55.5256 120.176 55.4206C120.113 55.3571 120.102 55.2567 120.06 55.1782C119.829 54.7996 119.113 54.9924 118.821 55.1863C118.385 55.476 117.782 56.0843 117.223 55.9458C117.197 56.0104 117.171 56.0762 117.15 56.1443C117.728 56.3221 118.342 55.6918 118.789 55.3941C119.081 55.2001 119.794 55.0085 120.028 55.3871C120.074 55.4645 120.087 55.5649 120.143 55.6295C120.245 55.7346 120.41 55.6803 120.551 55.6826C120.879 55.6884 121.119 56.0358 121.198 56.3752C121.276 56.7145 121.252 57.0815 121.334 57.4232C121.328 57.3471 121.338 57.2706 121.362 57.1981Z" fill="black"/>
<path opacity="0.1" d="M122.969 56.7974C122.911 56.9672 122.759 57.1231 122.594 57.0884C122.428 57.0538 122.349 56.8667 122.226 56.7489C122.15 56.6772 122.054 56.6309 121.951 56.6164C121.847 56.602 121.742 56.62 121.649 56.6681C121.56 56.7214 121.487 56.7976 121.437 56.8888C121.387 56.9799 121.362 57.0827 121.365 57.1866C121.408 57.0559 121.498 56.9457 121.617 56.8771C121.709 56.8287 121.815 56.8104 121.918 56.8246C122.022 56.8389 122.118 56.8851 122.194 56.9568C122.316 57.0722 122.401 57.2628 122.562 57.2963C122.724 57.3297 122.879 57.175 122.937 57.0053C122.968 56.9055 122.988 56.8024 122.995 56.6981C122.989 56.7318 122.98 56.765 122.969 56.7974Z" fill="black"/>
<path opacity="0.1" d="M123.473 55.3411C123.357 55.6575 123.134 55.9312 123.061 56.2649C123.048 56.3319 123.038 56.4012 123.03 56.4705C123.104 56.1379 123.32 55.8654 123.44 55.5467C123.494 55.4043 123.527 55.255 123.538 55.1033C123.523 55.1841 123.5 55.2636 123.473 55.3411Z" fill="black"/>
</g>
<path d="M108.025 63.0778C108.039 63.0778 108.051 63.0659 108.051 63.0512C108.051 63.0365 108.039 63.0247 108.025 63.0247C108.01 63.0247 107.998 63.0365 107.998 63.0512C107.998 63.0659 108.01 63.0778 108.025 63.0778Z" fill="#E6E8EC"/>
<path d="M118.207 63.6467H98.8121C98.3906 63.6467 98.0488 63.9883 98.0488 64.4097V86.9172C98.0488 87.3386 98.3906 87.6802 98.8121 87.6802H118.207C118.628 87.6802 118.97 87.3386 118.97 86.9172V64.4097C118.97 63.9883 118.628 63.6467 118.207 63.6467Z" fill="white"/>
<path opacity="0.1" d="M118.207 63.6467H98.8121C98.3906 63.6467 98.0488 63.9883 98.0488 64.4097V86.9172C98.0488 87.3386 98.3906 87.6802 98.8121 87.6802H118.207C118.628 87.6802 118.97 87.3386 118.97 86.9172V64.4097C118.97 63.9883 118.628 63.6467 118.207 63.6467Z" fill="#5A5773"/>
<path d="M117.14 64.8726H99.8795C99.4579 64.8726 99.1162 65.2141 99.1162 65.6355V85.6915C99.1162 86.1128 99.4579 86.4544 99.8795 86.4544H117.14C117.562 86.4544 117.903 86.1128 117.903 85.6915V65.6355C117.903 65.2141 117.562 64.8726 117.14 64.8726Z" fill="white"/>
<path d="M114.042 69.2009H102.545C102.161 69.2009 101.849 69.5125 101.849 69.8969V72.951C101.849 73.3354 102.161 73.647 102.545 73.647H114.042C114.426 73.647 114.738 73.3354 114.738 72.951V69.8969C114.738 69.5125 114.426 69.2009 114.042 69.2009Z" fill="#1990F2"/>
<path d="M114.266 75.2734H102.323V76.181H114.266V75.2734Z" fill="#1990F2"/>
<path d="M116.727 77.1882H100.293V78.0958H116.727V77.1882Z" fill="#1990F2"/>
<path d="M116.727 79.2035H100.293V80.1111H116.727V79.2035Z" fill="#1990F2"/>
<path d="M116.727 81.2189H100.293V82.1265H116.727V81.2189Z" fill="#1990F2"/>
<path d="M48.498 55.7021H0.763266C0.341726 55.7021 0 56.0437 0 56.4651V78.9727C0 79.394 0.341726 79.7356 0.763266 79.7356H48.498C48.9195 79.7356 49.2613 79.394 49.2613 78.9727V56.4651C49.2613 56.0437 48.9195 55.7021 48.498 55.7021Z" fill="white"/>
<path opacity="0.1" d="M48.498 55.7021H0.763266C0.341726 55.7021 0 56.0437 0 56.4651V78.9727C0 79.394 0.341726 79.7356 0.763266 79.7356H48.498C48.9195 79.7356 49.2613 79.394 49.2613 78.9727V56.4651C49.2613 56.0437 48.9195 55.7021 48.498 55.7021Z" fill="#5A5773"/>
<path d="M45.9842 56.928H3.27596C2.85442 56.928 2.5127 57.2696 2.5127 57.6909V77.7469C2.5127 78.1682 2.85442 78.5098 3.27596 78.5098H45.9842C46.4058 78.5098 46.7475 78.1682 46.7475 77.7469V57.6909C46.7475 57.2696 46.4058 56.928 45.9842 56.928Z" fill="white"/>
<path d="M38.6009 61.2574H9.64649C9.26194 61.2574 8.9502 61.5691 8.9502 61.9535V65.0076C8.9502 65.392 9.26194 65.7036 9.64649 65.7036H38.6009C38.9855 65.7036 39.2972 65.392 39.2972 65.0076V61.9535C39.2972 61.5691 38.9855 61.2574 38.6009 61.2574Z" fill="#1990F2"/>
<path d="M38.1842 67.3287H10.0635V68.2363H38.1842V67.3287Z" fill="#1990F2"/>
<path d="M43.9772 69.2437H5.28271V70.1513H43.9772V69.2437Z" fill="#1990F2"/>
<path d="M43.9772 71.2589H5.28271V72.1665H43.9772V71.2589Z" fill="#1990F2"/>
<path d="M43.9772 73.2742H5.28271V74.1818H43.9772V73.2742Z" fill="#1990F2"/>
</g>
<defs>
<linearGradient id="paint0_linear" x1="63.6776" y1="79.4621" x2="63.6776" y2="17.3262" gradientUnits="userSpaceOnUse">
<stop stop-color="#808080" stop-opacity="0.25"/>
<stop offset="0.54" stop-color="#808080" stop-opacity="0.12"/>
<stop offset="1" stop-color="#808080" stop-opacity="0.1"/>
</linearGradient>
<clipPath id="clip0">
<rect width="132" height="99.6" fill="white"/>
</clipPath>
</defs>
</svg>
