<svg width="166" height="70" viewBox="0 0 166 70" fill="none" xmlns="http://www.w3.org/2000/svg">
<path d="M117.142 14.5695L113.63 28.2574L89.5493 31.3794L117.142 14.5695Z" fill="#57BAE5"/>
<path d="M123.661 69.7836L129.645 44.9228L121.883 41.714L123.661 69.7836Z" fill="#005472"/>
<path d="M113.631 28.243L107.314 41.2515L89.6226 31.4228L113.631 28.243Z" fill="#34AFE4"/>
<path d="M123.662 69.7825L121.884 41.713L107.242 41.2071L123.662 69.7825Z" fill="#0076A7"/>
<path d="M113.63 28.243L121.956 41.6996L107.314 41.2082L113.63 28.243Z" fill="#009DE2"/>
<path d="M117.142 14.5695L137.074 17.0701L113.63 28.2574L117.142 14.5695Z" fill="#7ACDF2"/>
<path d="M158.87 8.33984L146.339 22.9094L147.221 9.43834L158.87 8.33984Z" fill="#7ACDF2"/>
<path d="M165.822 0L158.87 8.33992L164.305 9.00481L165.822 0Z" fill="#7ACDF2"/>
<path d="M152.121 15.9L164.305 8.99105L158.871 8.32617L152.121 15.9Z" fill="#00ABE7"/>
<path d="M129.645 44.9225L130.238 28.1993L121.883 41.7138L129.645 44.9225Z" fill="#0076A7"/>
<path d="M130.238 28.1993L121.884 41.7138L113.63 28.2572L130.238 28.1993Z" fill="#008DBE"/>
<path d="M137.075 17.0699L130.238 28.1994L113.63 28.2572L137.075 17.0699Z" fill="#57BAE5"/>
<path d="M130.238 28.1993L129.646 44.9225L144.938 60.5617L130.238 28.1993Z" fill="#00698D"/>
<path d="M152.93 51.8169L144.851 31.7982L144.937 60.576L152.93 51.8169Z" fill="#09A1CB"/>
<path d="M146.34 22.9099L144.851 31.7991L130.238 28.2L146.34 22.9099Z" fill="#09A1CB"/>
<path d="M153.74 34.9642L144.851 31.7988L146.296 22.9241L153.74 34.9642Z" fill="#8BDAFF"/>
<path d="M156.992 51.2682L147.308 35.7447H152.844L156.992 51.2682Z" fill="#7ACDF2"/>
<path d="M138.896 13.7595L146.34 22.9089L147.221 9.43781L138.896 13.7595Z" fill="#57BAE5"/>
<path d="M144.851 31.7984L130.238 28.1993L144.938 60.5617L144.851 31.7984Z" fill="#008DBE"/>
<path d="M152.93 51.817L156.154 53.6238L144.966 60.5617L152.93 51.817Z" fill="#0076A7"/>
<path d="M156.992 51.0798L144.851 31.7982L152.93 51.8314L156.992 51.0798Z" fill="#57BAE5"/>
<path d="M138.896 13.7603L130.223 28.2142L146.325 22.9241L138.896 13.7603Z" fill="#7ACDF2"/>
<path d="M23.5679 56.27L25.9094 57.4697L28.2654 56.27V69.7845H23.5679V56.27ZM23.2065 51.7026C23.2547 51.0326 23.566 50.4088 24.0723 49.9674C24.5787 49.5261 25.2391 49.3029 25.9094 49.3466C26.2498 49.2931 26.5976 49.314 26.9291 49.4078C27.2606 49.5016 27.5678 49.6661 27.8296 49.89C28.0914 50.1139 28.3016 50.3919 28.4458 50.7048C28.5899 51.0177 28.6645 51.3581 28.6645 51.7026C28.6645 52.0471 28.5899 52.3875 28.4458 52.7004C28.3016 53.0133 28.0914 53.2912 27.8296 53.5151C27.5678 53.739 27.2606 53.9035 26.9291 53.9974C26.5976 54.0912 26.2498 54.1121 25.9094 54.0586C25.5801 54.0843 25.2489 54.0448 24.9349 53.9425C24.6208 53.8401 24.3299 53.6769 24.0789 53.4622C23.8279 53.2474 23.6217 52.9853 23.472 52.6908C23.3223 52.3964 23.2321 52.0753 23.2065 51.7459V51.7026Z" fill="#004552"/>
<path d="M12.5395 49.1436V57.05H6.00634V49.1436H0.889648V69.7839H6.00634V61.8487H12.5395V69.7839H17.6562V49.1436H12.5395Z" fill="#004552"/>
<path d="M39.0621 69.7835H34.3356V59.5212H32.5V55.0839H34.3356V50.1406H39.0621V55.0839H40.8977V59.5212H39.0621V69.7835Z" fill="#004552"/>
<path d="M50.8135 65.043H54.9907C56.624 65.043 57.1298 64.0457 57.1298 63.1929C57.1298 62.3401 56.595 61.3717 54.9907 61.3717H50.8135V65.043ZM50.8135 57.0789H54.6293C54.8381 57.1095 55.051 57.0987 55.2556 57.047C55.4603 56.9953 55.6527 56.9037 55.8219 56.7775C55.991 56.6512 56.1337 56.4929 56.2415 56.3115C56.3494 56.13 56.4204 55.9291 56.4505 55.7202C56.4577 55.6433 56.4577 55.5658 56.4505 55.4889C56.4505 54.9397 56.147 53.899 54.6149 53.899H50.8135V57.0789ZM54.0656 49.1436C60.2953 49.1436 61.2926 52.8439 61.2926 54.7229C61.3419 55.6229 61.1204 56.517 60.6567 57.2899C60.1929 58.0628 59.5082 58.6791 58.6909 59.0591C59.676 59.3548 60.5315 59.9764 61.1171 60.822C61.7027 61.6676 61.9837 62.687 61.9141 63.7132C61.9141 66.9509 60.0495 69.7405 53.8777 69.7405H45.6968V49.1436H54.0656Z" fill="#42ACDB"/>
<path d="M75.1115 69.7839H69.9948V53.8845H64.6035V49.1436H80.5028V53.8412H75.1115V69.7839Z" fill="#42ACDB"/>
<path d="M101.807 52.4095L98.4975 55.4015C97.2171 54.2754 95.5627 53.6672 93.8578 53.6959C93.1391 53.6786 92.424 53.8034 91.7536 54.063C91.0832 54.3226 90.4706 54.712 89.9509 55.2088C89.4313 55.7056 89.0148 56.3002 88.7253 56.9582C88.4359 57.6163 88.2792 58.3251 88.2641 59.0439C88.2497 59.1881 88.2497 59.3333 88.2641 59.4775C88.2211 60.1941 88.3197 60.9122 88.5543 61.5906C88.789 62.2691 89.155 62.8947 89.6316 63.4317C90.1081 63.9686 90.6858 64.4064 91.3316 64.7199C91.9774 65.0335 92.6786 65.2167 93.3953 65.2591H93.8578C95.5577 65.3039 97.2128 64.711 98.4975 63.5969L101.807 66.5888C100.784 67.6679 99.5509 68.5269 98.1841 69.1134C96.8172 69.6999 95.3452 70.0016 93.8578 70C91.0748 70 88.4057 68.8944 86.4377 66.9265C84.4698 64.9585 83.3643 62.2895 83.3643 59.5064C83.3643 56.7233 84.4698 54.0543 86.4377 52.0863C88.4057 50.1184 91.0748 49.0128 93.8578 49.0128C95.3448 49.0051 96.8175 49.3026 98.1849 49.8868C99.5522 50.4711 100.785 51.3297 101.807 52.4095Z" fill="#42ACDB"/>
</svg>
