<svg width="104" height="104" viewBox="0 0 104 104" fill="none" xmlns="http://www.w3.org/2000/svg">
<g filter="url(#filter0_dd)">
<circle cx="52" cy="48" r="32" fill="white"/>
</g>
<path d="M65.2955 34.7045C65.0185 34.4274 64.5692 34.4274 64.2922 34.7045L61.2819 37.7147C61.0049 37.9918 61.0049 38.441 61.2819 38.7181C61.559 38.9952 62.0083 38.9952 62.2854 38.7181L65.2956 35.7079C65.5727 35.4308 65.5726 34.9816 65.2955 34.7045ZM59.3771 32.2038C59.2487 32.0754 59.0713 32 58.8753 32C58.4835 32 58.1698 32.3137 58.1698 32.7055L58.162 36.9621C58.162 37.354 58.4835 37.6755 58.8754 37.6755C59.2672 37.6755 59.5888 37.354 59.5888 36.9621L59.581 32.7055C59.581 32.5096 59.5054 32.3322 59.3771 32.2038ZM67.7962 40.623C67.6678 40.4946 67.4904 40.4191 67.2945 40.4191L63.0379 40.4113C62.646 40.4113 62.3245 40.7328 62.3245 41.1247C62.3245 41.5165 62.646 41.838 63.0379 41.838L67.2945 41.8302C67.6863 41.8302 68 41.5165 68 41.1247C68 40.9287 67.9246 40.7514 67.7962 40.623ZM58.7734 39.2198C58.5107 38.9571 58.0327 38.9571 57.7701 39.2198L36.197 60.7928C35.9344 61.0555 35.9343 61.5335 36.197 61.7962L38.2038 63.803C38.4665 64.0657 38.9445 64.0657 39.2072 63.803L60.7803 42.23C61.0429 41.9673 61.0429 41.4893 60.7802 41.2266L58.7734 39.2198ZM53.2548 34.2028C52.9777 33.9257 52.5284 33.9257 52.2514 34.2028C51.9743 34.4799 51.9743 34.9291 52.2514 35.2062L55.2615 38.2164C55.5387 38.4935 55.9879 38.4935 56.265 38.2164C56.542 37.9393 56.5421 37.4901 56.265 37.213L53.2548 34.2028ZM62.787 43.7351C62.5099 43.458 62.0607 43.458 61.7837 43.7351C61.5066 44.0122 61.5066 44.4614 61.7836 44.7385L64.7938 47.7486C65.0709 48.0257 65.5201 48.0257 65.7972 47.7486C66.0743 47.4716 66.0743 47.0223 65.7972 46.7453L62.787 43.7351ZM58.2717 40.7249L59.2751 41.7283L55.2615 45.7418L54.2581 44.7385L58.2717 40.7249ZM54.6501 39.9723C54.5217 39.8439 54.3522 39.7607 54.1563 39.7607L49.8996 39.7685C49.5078 39.7685 49.1941 40.0822 49.1941 40.474C49.1941 40.8659 49.5078 41.1795 49.8997 41.1796L54.1563 41.1874C54.5481 41.1874 54.8696 40.8659 54.8696 40.4741C54.8696 40.2781 54.7785 40.1007 54.6501 39.9723ZM60.0277 45.3499C59.8993 45.2215 59.722 45.1304 59.526 45.1304C59.1341 45.1304 58.8126 45.4519 58.8127 45.8437L58.8205 50.1003C58.8204 50.4922 59.1341 50.8058 59.526 50.8059C59.9179 50.8059 60.2315 50.4922 60.2315 50.1004L60.2393 45.8438C60.2393 45.6479 60.156 45.4783 60.0277 45.3499Z" fill="#1890FF"/>
<defs>
<filter id="filter0_dd" x="0" y="0" width="104" height="104" filterUnits="userSpaceOnUse" color-interpolation-filters="sRGB">
<feFlood flood-opacity="0" result="BackgroundImageFix"/>
<feColorMatrix in="SourceAlpha" type="matrix" values="0 0 0 0 0 0 0 0 0 0 0 0 0 0 0 0 0 0 127 0"/>
<feOffset dy="1"/>
<feGaussianBlur stdDeviation="1"/>
<feColorMatrix type="matrix" values="0 0 0 0 0 0 0 0 0 0 0 0 0 0 0 0 0 0 0.12 0"/>
<feBlend mode="normal" in2="BackgroundImageFix" result="effect1_dropShadow"/>
<feColorMatrix in="SourceAlpha" type="matrix" values="0 0 0 0 0 0 0 0 0 0 0 0 0 0 0 0 0 0 127 0"/>
<feOffset dy="4"/>
<feGaussianBlur stdDeviation="10"/>
<feColorMatrix type="matrix" values="0 0 0 0 0 0 0 0 0 0 0 0 0 0 0 0 0 0 0.12 0"/>
<feBlend mode="normal" in2="effect1_dropShadow" result="effect2_dropShadow"/>
<feBlend mode="normal" in="SourceGraphic" in2="effect2_dropShadow" result="shape"/>
</filter>
</defs>
</svg>
