<svg width="149" height="201" viewBox="0 0 149 187" fill="none" xmlns="http://www.w3.org/2000/svg">
<path fill-rule="evenodd" clip-rule="evenodd" d="M81.1354 38.8918C83.9286 40.859 86.7357 41.9135 88.1065 41.6625C91.544 41.0331 92.7348 28.7068 90.4702 23.6525C88.2055 18.5982 74.9302 15.519 73.5658 25.1161C73.0922 28.4469 74.2848 31.5345 76.1878 34.1204L71.2264 51.2114L82.0433 51.9827L81.1354 38.8918Z" fill="#B28B67"/>
<path fill-rule="evenodd" clip-rule="evenodd" d="M95.7434 17.2456C95.5756 16.4422 95.0211 15.7251 94.2234 15.4673C94.03 15.4047 93.828 15.3706 93.6249 15.3643C93.552 15.3621 93.5301 15.3816 93.4998 15.3283C93.4773 15.2888 93.4833 15.1968 93.476 15.1517C93.4536 15.0117 93.4229 14.8729 93.3826 14.7369C93.2449 14.273 92.9879 13.8528 92.6678 13.4915C92.0689 12.8155 91.2301 12.3186 90.332 12.1755C89.8405 12.0972 89.3437 12.1425 88.8646 12.2701C88.6166 12.3361 88.3745 12.4231 88.1377 12.5215C88.0664 12.5511 87.831 12.7042 87.7627 12.6883C87.6872 12.6708 87.5474 12.4703 87.4888 12.4182C86.7639 11.7752 85.8334 11.4764 84.8778 11.4154C83.7991 11.3465 82.7572 11.3263 81.8112 11.9194C81.6109 12.045 81.4188 12.1844 81.2348 12.3325C81.1379 12.4105 81.0436 12.4918 80.9531 12.5771C80.8985 12.6285 80.8452 12.6813 80.7936 12.7357C80.706 12.8281 80.7166 12.8612 80.6087 12.7847C80.1948 12.491 79.7021 12.3323 79.1926 12.3583C78.8901 12.3738 78.5918 12.4431 78.3063 12.5418C78.2091 12.5754 77.9793 12.7208 77.8786 12.7152C77.7788 12.7096 77.5741 12.5451 77.4741 12.4999C76.9338 12.2554 76.3393 12.1623 75.7492 12.2154C75.1406 12.2701 74.5325 12.468 73.9991 12.7634C73.7425 12.9055 73.516 13.067 73.3272 13.292C73.2457 13.3892 73.171 13.4928 73.0801 13.5818C73.0269 13.6339 72.9254 13.684 72.8939 13.7525C72.9127 13.7115 72.2575 13.4037 72.1951 13.3825C71.8626 13.2699 71.5164 13.2632 71.1769 13.3488C70.5386 13.5096 69.9693 13.9316 69.4948 14.3721C69.2511 14.5984 69.0339 14.8522 68.8453 15.1257C68.7549 15.2567 68.6712 15.3921 68.5935 15.5309C68.5559 15.5982 68.528 15.6837 68.4805 15.7433C68.4192 15.8201 68.3818 15.819 68.2788 15.8471C67.7556 15.9895 67.2686 16.259 66.8851 16.6428C66.4972 17.0311 66.2283 17.5241 66.0925 18.0538C66.0845 18.085 66.0717 18.2157 66.052 18.2315C66.0249 18.2533 65.923 18.2355 65.8839 18.2373C65.7483 18.2435 65.6131 18.2575 65.4791 18.2793C65.2322 18.3194 64.9897 18.3872 64.7582 18.4819C63.8558 18.851 63.1748 19.6151 62.8049 20.5032C62.4167 21.4351 62.3444 22.5294 62.6601 23.4937C62.7112 23.6494 62.7742 23.8015 62.8507 23.9467C62.8976 24.0357 62.9147 24.0372 62.8739 24.1242C62.8284 24.2211 62.7514 24.3128 62.6989 24.4069C62.5275 24.7138 62.3996 25.0431 62.3094 25.3823C62.1614 25.9388 62.0658 26.5279 62.1315 27.104C62.162 27.3715 62.2296 27.6356 62.344 27.8801C62.4024 28.0047 62.4725 28.124 62.5534 28.2355C62.5954 28.2933 62.6404 28.349 62.6878 28.4026C62.7149 28.4332 62.7513 28.4609 62.7738 28.4945C62.8288 28.5766 62.846 28.5136 62.8067 28.6255C62.7517 28.7819 62.6416 28.9323 62.57 29.0833C62.4962 29.2388 62.4282 29.397 62.365 29.5571C62.2369 29.8814 62.1244 30.2128 62.0447 30.5523C61.8916 31.2042 61.8602 31.9083 62.1289 32.5358C62.2439 32.8042 62.419 33.0449 62.6385 33.2381C62.7459 33.3327 62.8636 33.4159 62.9883 33.4863C63.0524 33.5225 63.1361 33.5421 63.1618 33.6084C63.1894 33.6797 63.1313 33.8132 63.1148 33.8895C62.9711 34.5534 62.8728 35.2543 63.0253 35.9258C63.1658 36.5443 63.532 37.1077 64.0317 37.4991C65.0012 38.2582 66.3768 38.3174 67.4861 37.8441C67.7752 37.7207 68.0488 37.5614 68.2966 37.3681C68.8325 38.2084 70.0541 38.2701 70.9367 38.1045C72.0362 37.8982 72.9558 37.2094 73.5251 36.2589C74.1482 37.1382 75.5994 36.9708 76.1368 36.1034C76.2684 35.8911 76.3544 35.653 76.4057 35.4094C76.4328 35.2813 76.4307 35.1501 76.4532 35.0227C76.4819 34.8604 76.6025 34.7093 76.6766 34.5556C76.8208 34.2565 76.9194 33.944 76.9463 33.6122C76.9603 33.4389 76.9504 33.2684 76.9462 33.0953C76.9424 32.9394 76.9956 32.7982 77.0309 32.6472C76.7509 32.673 76.4189 32.5743 76.1638 32.4755C75.9135 32.3784 75.6886 32.1539 75.5215 31.9516C75.1334 31.4817 74.9183 30.8867 74.784 30.3002C74.4891 29.0129 74.7546 27.5127 76.071 26.9116C76.6843 26.6316 78.4527 26.7587 79.1445 26.9681C79.8718 27.1882 80.5936 28.8791 80.6239 29.0354C80.6426 29.1321 80.6214 29.2486 80.7041 29.3181C80.8857 29.4707 81.2189 29.252 81.3687 29.143C81.6272 28.9549 81.8206 28.6939 81.991 28.4274C82.3623 27.847 82.6731 27.2184 82.9071 26.5707C83.0876 26.0713 83.2172 25.5524 83.4409 25.0692C83.6636 24.5883 83.9905 24.1677 84.4699 23.9205C84.9913 23.6516 85.5755 23.5321 86.1378 23.3798C86.6951 23.2289 87.246 23.0352 87.6962 22.6628C87.7952 22.5809 87.8919 22.4933 87.974 22.3944C88.0387 22.3164 88.1081 22.163 88.2016 22.1173C88.3469 22.0461 88.5354 22.2716 88.6506 22.3568C89.2187 22.7772 89.6777 23.3398 90.0371 23.9442C90.3945 24.5453 90.6819 25.1197 90.9019 25.7782C91.065 26.2665 91.1446 26.8827 91.4633 27.2962C91.6056 27.4808 92.7476 27.6677 93.1308 27.5427C93.5139 27.4178 93.9593 27.054 94.1018 26.8164C94.2478 26.5731 94.2981 26.298 94.2631 26.0178C94.2426 25.853 94.1877 25.6965 94.1632 25.5342C94.1425 25.398 94.1241 25.2692 94.0676 25.1417C93.9605 24.9001 93.761 24.7177 93.5111 24.6295C93.7938 24.4039 94.0345 24.127 94.2099 23.8107C94.3922 23.4822 94.5556 23.0785 94.6202 22.7083C94.6727 22.4076 94.6474 22.0904 94.5001 21.8182C94.3456 21.5327 94.0501 21.3326 93.7956 21.1433C94.2257 20.8536 94.6019 20.491 94.919 20.0823C95.5358 19.2877 95.9555 18.2605 95.7434 17.2456Z" fill="#191847"/>
<path fill-rule="evenodd" clip-rule="evenodd" d="M60.3825 86.6782C60.4043 97.8278 110.43 134.216 110.67 135.154C110.83 135.779 91.6206 172.609 91.6206 172.609L96.0703 174.714C96.0703 174.714 124.247 136.267 123.253 131.885C121.83 125.612 85.5134 88.5886 85.5134 88.5886L60.3825 86.6782Z" fill="#B28B67"/>
<path fill-rule="evenodd" clip-rule="evenodd" d="M93.2328 166.973L100.511 170.225C117.534 153.572 124.755 139.345 124.162 131.791C123.569 124.237 86.5575 88.5717 86.5575 88.5717L59.8447 86.6671C58.9247 112.419 106.092 134.926 106.663 136.067C107.234 137.207 100.082 147.473 93.2328 166.973Z" fill="#2F3676"/>
<path fill-rule="evenodd" clip-rule="evenodd" d="M92.1791 172.521C91.3305 171.715 89.9737 171.611 89.2036 172.493C88.7252 173.04 88.2688 173.628 88.0708 174.071C87.5722 175.187 86.9873 177.494 86.9873 177.494C88.2818 178.073 110.255 187.892 110.255 187.892C110.255 187.892 112.502 185.299 110.654 184.186C108.807 183.074 107.601 182.304 107.601 182.304L99.3173 173.07C98.9411 172.65 98.2929 172.624 97.8844 173.012L96.8446 174C96.8446 174 94.6585 174.035 93.5275 173.53C93.1159 173.346 92.6303 172.95 92.1791 172.521Z" fill="#E4E4E4"/>
<path fill-rule="evenodd" clip-rule="evenodd" d="M66.4023 87.1073L39.0881 141.434L12.7911 187.134L18.1992 187.52L84.7341 88.4144L66.4023 87.1073Z" fill="#997659"/>
<path fill-rule="evenodd" clip-rule="evenodd" d="M14.982 185.032C13.9087 184.564 12.5981 184.93 12.1761 186.022C11.9139 186.701 11.6861 187.409 11.6516 187.893C11.5647 189.112 11.8041 191.48 11.8041 191.48C13.2184 191.581 37.2246 193.293 37.2246 193.293C37.2246 193.293 38.4491 190.088 36.3328 189.674C34.2166 189.261 32.8195 188.95 32.8195 188.95L21.8773 183.105C21.3803 182.84 20.7623 183.037 20.5111 183.542L19.8717 184.825C19.8717 184.825 17.8296 185.606 16.594 185.518C16.1443 185.486 15.5527 185.28 14.982 185.032Z" fill="#E4E4E4"/>
<path fill-rule="evenodd" clip-rule="evenodd" d="M15.5621 177.449L27.4181 180.559C37.6834 167.561 80.5615 114.323 86.6839 88.5534L59.9319 86.646C44.3506 104.48 25.4087 164.194 15.5621 177.449Z" fill="#5C63AB"/>
<path fill-rule="evenodd" clip-rule="evenodd" d="M123.69 72.9382L106.848 78.9458L111.586 85.9981L124.486 77.4926C130.675 76.8061 133.577 76.0441 133.192 75.2067C132.867 74.5006 132.175 74.4127 131.538 74.3318C131.041 74.2688 130.578 74.21 130.347 73.8664C129.82 73.0817 131.416 70.8875 133.019 68.87C134.623 66.8526 133.256 66.8322 132.441 67.029C129.671 68.3217 126.754 70.2914 123.69 72.9382ZM49.7875 78.7046L40.6825 76.2136C33.2418 92.2761 28.8625 101.057 27.5447 102.555C26.5783 103.654 20.9162 106.259 17.1142 107.595C15.5881 108.131 15.8167 109.404 16.2224 109.835C18.781 112.555 21.3901 111.852 24.2302 111.086C25.0525 110.865 25.894 110.638 26.7594 110.487C28.9991 110.098 29.5881 111.277 30.1448 112.392C30.6377 113.379 31.1051 114.315 32.6704 114.066C32.622 113.759 32.5601 113.414 32.4932 113.042C32.0614 110.637 31.4246 107.091 32.8821 105.161C33.6302 104.171 39.2653 95.3518 49.7875 78.7046Z" fill="#B28B67"/>
<path fill-rule="evenodd" clip-rule="evenodd" d="M77.484 44.1075L81.429 43.7169C89.3305 52.5565 91.384 72.5865 96.8544 75.6085C102.026 78.4656 109.779 76.6104 119.022 74.0181L121.343 80.3814C112.522 88.6566 94.5438 94.8973 87.7773 90.1203C76.9591 82.483 76.0889 57.8976 77.484 44.1075Z" fill="#3CBCF7"/>
<path fill-rule="evenodd" clip-rule="evenodd" d="M57.0026 91.8732C57.0026 91.8732 80.4426 93.5445 91.4866 94.3319C93.0623 94.4443 92.9277 92.1478 92.7817 90.9834C91.0976 77.5451 81.8539 62.5295 83.1988 43.6672L73.3632 41.3982C64.1924 54.0436 60.1857 70.1319 57.0026 91.8732Z" fill="#DDE3E9"/>
<path fill-rule="evenodd" clip-rule="evenodd" d="M79.7065 103.005L48.6655 100.792C49.6848 93.4188 51.818 85.6969 54.5193 78.2122C46.5855 90.3913 40.0257 99.0991 34.84 104.336L27.7128 102.405C34.4277 73.861 49.4305 53.5102 72.7213 41.3525L72.8348 41.3606C72.8348 41.3606 72.8348 41.3606 72.8348 41.3606L76.6596 41.6333C76.6596 41.6333 86.7985 88.2471 79.7065 103.005Z" fill="#3CBCF7"/>
</svg>
