<svg width="288" height="211" viewBox="0 0 288 211" fill="none" xmlns="http://www.w3.org/2000/svg">
<g clip-path="url(#clip0)">
<path opacity="0.1" d="M164.872 211C182.594 211 196.961 207.934 196.961 204.153C196.961 200.371 182.594 197.305 164.872 197.305C147.15 197.305 132.784 200.371 132.784 204.153C132.784 207.934 147.15 211 164.872 211Z" fill="#1990F2"/>
<path opacity="0.1" d="M280.289 178.856C273.914 184.139 264.842 186.325 256.069 187.706L254.592 187.931C239.257 190.217 223.614 190.683 208.043 191.143C164.616 192.427 121.075 193.709 77.7626 190.748C58.608 189.44 38.9795 187.149 22.1917 179.319L21.7544 179.112C21.5371 179.01 21.3198 178.908 21.1025 178.801C18.1218 177.379 15.2666 175.709 12.5672 173.808C7.77334 170.392 3.81466 166.223 1.72273 161.277C-1.55523 153.52 0.178002 144.8 3.922 137.215C7.666 129.63 13.2951 122.798 18.1492 115.656C19.5735 113.563 20.9245 111.392 22.1812 109.167C30.0357 95.2079 33.9316 79.0548 25.6974 65.6034C24.6105 63.8884 23.437 62.2298 22.1812 60.6341C20.1731 58.0186 18.1309 55.4031 16.7511 52.5078C13.5333 45.7704 14.2245 38.1934 15.3975 30.9956C16.9684 21.4256 19.8615 11.1181 28.8497 5.13913C38.1888 -1.06998 51.4446 -0.756126 63.0353 1.47748C81.0562 4.92728 97.6896 12.1486 114.48 18.6611C131.27 25.1736 148.87 31.1055 167.331 31.7436C183.631 32.3112 202.647 28.082 213.471 17.0761C223.983 6.39194 243.737 5.58376 257.98 12.0361C271.571 18.1929 280.36 31.2232 279.711 44.2377C278.883 60.4798 265.329 73.4865 254.602 87.3144C252.819 89.6134 251.112 91.9386 249.555 94.3029C244.47 102.026 240.875 111.303 244.376 119.642C246.339 124.31 250.086 127.872 254.602 130.982C264.722 137.947 278.69 142.634 284.973 152.385C290.385 160.796 288.38 172.147 280.289 178.856Z" fill="#1990F2"/>
<path d="M254.618 187.218C262.862 187.218 269.544 185.934 269.544 184.351C269.544 182.768 262.862 181.484 254.618 181.484C246.375 181.484 239.692 182.768 239.692 184.351C239.692 185.934 246.375 187.218 254.618 187.218Z" fill="#1990F2"/>
<path d="M254.369 185.405C255.329 185.405 256.108 184.387 256.108 183.132C256.108 181.877 255.329 180.859 254.369 180.859C253.409 180.859 252.631 181.877 252.631 183.132C252.631 184.387 253.409 185.405 254.369 185.405Z" fill="#3F3D56"/>
<path d="M254.369 182.627C255.329 182.627 256.108 181.61 256.108 180.355C256.108 179.099 255.329 178.082 254.369 178.082C253.409 178.082 252.631 179.099 252.631 180.355C252.631 181.61 253.409 182.627 254.369 182.627Z" fill="#3F3D56"/>
<path d="M254.369 179.847C255.329 179.847 256.108 178.83 256.108 177.574C256.108 176.319 255.329 175.302 254.369 175.302C253.409 175.302 252.631 176.319 252.631 177.574C252.631 178.83 253.409 179.847 254.369 179.847Z" fill="#3F3D56"/>
<path d="M254.369 177.07C255.329 177.07 256.108 176.052 256.108 174.797C256.108 173.542 255.329 172.524 254.369 172.524C253.409 172.524 252.631 173.542 252.631 174.797C252.631 176.052 253.409 177.07 254.369 177.07Z" fill="#3F3D56"/>
<path d="M254.369 174.292C255.329 174.292 256.108 173.274 256.108 172.019C256.108 170.764 255.329 169.746 254.369 169.746C253.409 169.746 252.631 170.764 252.631 172.019C252.631 173.274 253.409 174.292 254.369 174.292Z" fill="#3F3D56"/>
<path d="M254.369 171.514C255.329 171.514 256.108 170.497 256.108 169.241C256.108 167.986 255.329 166.969 254.369 166.969C253.409 166.969 252.631 167.986 252.631 169.241C252.631 170.497 253.409 171.514 254.369 171.514Z" fill="#3F3D56"/>
<path d="M254.369 168.737C255.329 168.737 256.108 167.719 256.108 166.464C256.108 165.209 255.329 164.191 254.369 164.191C253.409 164.191 252.631 165.209 252.631 166.464C252.631 167.719 253.409 168.737 254.369 168.737Z" fill="#3F3D56"/>
<path d="M260.876 147.455C261.114 147.153 261.33 146.835 261.522 146.503L256.956 145.755L261.894 145.791C262.369 144.762 262.629 143.646 262.656 142.512C262.684 141.379 262.479 140.252 262.054 139.2L255.427 142.64L261.538 138.154C260.967 137.163 260.198 136.3 259.278 135.619C258.358 134.939 257.308 134.455 256.192 134.198C255.077 133.941 253.92 133.917 252.795 134.126C251.669 134.336 250.599 134.776 249.652 135.417C248.704 136.058 247.899 136.888 247.287 137.855C246.674 138.821 246.268 139.903 246.094 141.033C245.919 142.163 245.979 143.317 246.271 144.423C246.563 145.529 247.08 146.563 247.79 147.46C247.419 147.93 247.101 148.438 246.84 148.977L252.767 152.055L246.447 149.937C246.003 151.247 245.893 152.648 246.127 154.012C246.362 155.376 246.933 156.659 247.79 157.747C246.825 158.973 246.224 160.447 246.057 161.999C245.891 163.55 246.164 165.118 246.847 166.522C247.53 167.925 248.594 169.109 249.918 169.937C251.243 170.765 252.773 171.204 254.336 171.204C255.898 171.204 257.429 170.765 258.753 169.937C260.077 169.109 261.141 167.925 261.824 166.522C262.507 165.118 262.781 163.55 262.614 161.999C262.447 160.447 261.847 158.973 260.881 157.747C262.036 156.281 262.664 154.47 262.664 152.605C262.664 150.739 262.036 148.928 260.881 147.463L260.876 147.455Z" fill="#1990F2"/>
<path opacity="0.1" d="M246.007 152.597C246.005 154.462 246.633 156.274 247.79 157.739C246.824 158.966 246.224 160.439 246.057 161.991C245.89 163.543 246.164 165.11 246.847 166.514C247.529 167.917 248.594 169.101 249.918 169.929C251.242 170.757 252.773 171.196 254.335 171.196C255.898 171.196 257.428 170.757 258.753 169.929C260.077 169.101 261.141 167.917 261.824 166.514C262.507 165.11 262.78 163.543 262.614 161.991C262.447 160.439 261.846 158.966 260.881 157.739C261.991 156.324 246.007 151.663 246.007 152.597Z" fill="black"/>
<path d="M35.2749 176.259C35.2749 177.721 29.5646 178.929 22.184 179.102H21.7467C21.5294 179 21.3121 178.898 21.0948 178.791C18.1172 177.372 15.2646 175.705 12.5674 173.808C14.3608 173.599 16.4004 173.458 18.5892 173.411H18.8851C19.3616 173.411 19.8459 173.395 20.3355 173.395C20.6549 173.395 20.9717 173.395 21.2833 173.395H21.5923C21.7912 173.395 21.9876 173.395 22.1813 173.395C29.5646 173.586 35.2749 174.81 35.2749 176.259Z" fill="#1990F2"/>
<path d="M20.0974 177.313C21.0575 177.313 21.8358 176.295 21.8358 175.04C21.8358 173.785 21.0575 172.767 20.0974 172.767C19.1372 172.767 18.3589 173.785 18.3589 175.04C18.3589 176.295 19.1372 177.313 20.0974 177.313Z" fill="#3F3D56"/>
<path d="M20.0974 174.535C21.0575 174.535 21.8358 173.518 21.8358 172.262C21.8358 171.007 21.0575 169.99 20.0974 169.99C19.1372 169.99 18.3589 171.007 18.3589 172.262C18.3589 173.518 19.1372 174.535 20.0974 174.535Z" fill="#3F3D56"/>
<path d="M20.0974 171.758C21.0575 171.758 21.8358 170.74 21.8358 169.485C21.8358 168.23 21.0575 167.212 20.0974 167.212C19.1372 167.212 18.3589 168.23 18.3589 169.485C18.3589 170.74 19.1372 171.758 20.0974 171.758Z" fill="#3F3D56"/>
<path d="M20.0974 168.98C21.0575 168.98 21.8358 167.962 21.8358 166.707C21.8358 165.452 21.0575 164.434 20.0974 164.434C19.1372 164.434 18.3589 165.452 18.3589 166.707C18.3589 167.962 19.1372 168.98 20.0974 168.98Z" fill="#3F3D56"/>
<path d="M20.0974 166.202C21.0575 166.202 21.8358 165.185 21.8358 163.93C21.8358 162.674 21.0575 161.657 20.0974 161.657C19.1372 161.657 18.3589 162.674 18.3589 163.93C18.3589 165.185 19.1372 166.202 20.0974 166.202Z" fill="#3F3D56"/>
<path d="M20.0974 163.425C21.0575 163.425 21.8358 162.407 21.8358 161.152C21.8358 159.897 21.0575 158.879 20.0974 158.879C19.1372 158.879 18.3589 159.897 18.3589 161.152C18.3589 162.407 19.1372 163.425 20.0974 163.425Z" fill="#3F3D56"/>
<path d="M20.0974 160.645C21.0575 160.645 21.8358 159.627 21.8358 158.372C21.8358 157.116 21.0575 156.099 20.0974 156.099C19.1372 156.099 18.3589 157.116 18.3589 158.372C18.3589 159.627 19.1372 160.645 20.0974 160.645Z" fill="#3F3D56"/>
<path d="M26.6034 139.362C26.8412 139.061 27.0581 138.744 27.2527 138.413L22.684 137.67L27.6245 137.707C28.0986 136.677 28.3571 135.562 28.3841 134.429C28.4111 133.296 28.2061 132.169 27.7816 131.119L21.1576 134.553L27.2684 130.064C26.6964 129.075 25.9265 128.215 25.0068 127.536C24.0871 126.857 23.0373 126.375 21.9228 126.119C20.8083 125.863 19.653 125.84 18.529 126.05C17.4049 126.26 16.3362 126.699 15.3895 127.339C14.4428 127.98 13.6384 128.809 13.0263 129.774C12.4143 130.738 12.0078 131.819 11.8322 132.948C11.6566 134.077 11.7156 135.229 12.0056 136.334C12.2956 137.439 12.8103 138.473 13.5177 139.37C13.1483 139.841 12.8297 140.35 12.5673 140.887L18.4949 143.947L12.1746 141.837C11.7321 143.148 11.6233 144.548 11.8577 145.911C12.0922 147.275 12.6627 148.558 13.5177 149.646C12.5522 150.873 11.9517 152.347 11.7849 153.899C11.6181 155.45 11.8918 157.018 12.5745 158.421C13.2573 159.825 14.3216 161.009 15.6459 161.837C16.9701 162.665 18.5009 163.104 20.0632 163.104C21.6254 163.104 23.1562 162.665 24.4805 161.837C25.8047 161.009 26.8691 159.825 27.5518 158.421C28.2346 157.018 28.5082 155.45 28.3414 153.899C28.1746 152.347 27.5741 150.873 26.6086 149.646C27.7638 148.181 28.3919 146.37 28.3919 144.504C28.3919 142.639 27.7638 140.828 26.6086 139.362H26.6034Z" fill="#1990F2"/>
<path opacity="0.1" d="M11.7373 144.504C11.7343 146.37 12.3616 148.182 13.5177 149.646C12.5522 150.873 11.9517 152.347 11.7849 153.899C11.6181 155.45 11.8917 157.018 12.5745 158.421C13.2572 159.825 14.3216 161.009 15.6458 161.837C16.9701 162.665 18.5009 163.104 20.0631 163.104C21.6254 163.104 23.1562 162.665 24.4804 161.837C25.8047 161.009 26.869 159.825 27.5518 158.421C28.2345 157.018 28.5082 155.45 28.3414 153.899C28.1746 152.347 27.5741 150.873 26.6086 149.646C27.7187 148.231 11.7373 143.571 11.7373 144.504Z" fill="black"/>
<g opacity="0.2">
<path opacity="0.2" d="M80.0745 145.234C80.0745 145.48 80.0483 145.721 80.0221 145.956C77.9904 145.14 75.9901 144.274 74.0213 143.359C72.9738 143.221 71.9996 142.746 71.246 142.007C70.6726 141.719 70.1018 141.421 69.5337 141.12C69.6617 140.85 69.8068 140.587 69.9683 140.335C71.0679 138.594 72.7436 137.503 74.5894 137.563C76.4352 137.623 78.0323 138.813 79.022 140.613C79.7804 142.031 80.1438 143.627 80.0745 145.234Z" fill="#3F3D56"/>
<path opacity="0.2" d="M80.3778 136.101C80.3401 137.703 79.8765 139.267 79.0347 140.631C77.9325 142.368 76.2594 143.458 74.4136 143.398C74.2853 143.398 74.1518 143.382 74.034 143.372C72.9865 143.234 72.0124 142.759 71.2587 142.02C70.7467 141.536 70.3154 140.973 69.981 140.354C69.2408 138.931 68.8785 137.342 68.9289 135.739C68.9794 134.136 69.4408 132.573 70.269 131.2C71.3713 129.458 73.0443 128.367 74.8901 128.427C76.736 128.487 78.333 129.677 79.3227 131.477C80.0813 132.896 80.4456 134.493 80.3778 136.101Z" fill="#3F3D56"/>
<path opacity="0.2" d="M80.6561 126.949C80.7869 122.816 78.3306 119.384 75.1698 119.284C72.009 119.184 69.3407 122.454 69.2099 126.588C69.0791 130.721 71.5355 134.153 74.6963 134.253C77.857 134.353 80.5254 131.083 80.6561 126.949Z" fill="#3F3D56"/>
<path opacity="0.2" d="M80.9447 117.802C81.0754 113.668 78.6191 110.237 75.4583 110.137C72.2976 110.037 69.6292 113.307 69.4985 117.44C69.3677 121.574 71.824 125.006 74.9848 125.105C78.1456 125.205 80.8139 121.935 80.9447 117.802Z" fill="#3F3D56"/>
<path opacity="0.2" d="M81.2333 108.655C81.364 104.521 78.9077 101.089 75.7469 100.99C72.5861 100.89 69.9178 104.16 69.7871 108.293C69.6563 112.427 72.1126 115.858 75.2734 115.958C78.4342 116.058 81.1025 112.788 81.2333 108.655Z" fill="#3F3D56"/>
<path opacity="0.2" d="M56.0603 45.2031C55.3106 44.1836 54.6318 43.114 54.0286 42.0018L69.1408 40.0088L52.8871 39.6165C51.4348 36.1772 50.7001 32.4782 50.728 28.7456C50.7559 25.013 51.5458 21.3253 53.0494 17.9081L74.5185 29.9L54.8429 14.4818C56.8337 11.293 59.4601 8.54749 62.5585 6.41597C65.6569 4.28444 69.1612 2.81252 72.8535 2.09173C76.5457 1.37095 80.3469 1.41672 84.0207 2.22621C87.6944 3.03569 91.1622 4.59157 94.2083 6.79708C97.2544 9.0026 99.8137 11.8106 101.727 15.0464C103.64 18.2822 104.867 21.8767 105.33 25.6063C105.793 29.3358 105.484 33.1207 104.42 36.7256C103.356 40.3304 101.562 43.6781 99.1478 46.5605C100.314 48.1463 101.307 49.8527 102.109 51.6502L82.271 61.1653L103.303 54.8437C104.626 59.2054 104.84 63.8278 103.926 68.293C103.012 72.7582 100.998 76.9254 98.0664 80.4177C101.12 84.5569 102.946 89.471 103.336 94.5981C103.726 99.7253 102.663 104.858 100.27 109.411C97.8768 113.963 94.2495 117.751 89.8028 120.34C85.3561 122.93 80.2696 124.218 75.1249 124.056C69.9802 123.894 64.985 122.288 60.7105 119.424C56.4361 116.559 53.0548 112.551 50.9535 107.857C48.8522 103.163 48.1155 97.9732 48.8279 92.8808C49.5402 87.7884 51.6728 82.999 54.9816 79.0603C51.3332 74.1147 49.4549 68.0874 49.6486 61.947C49.8424 55.8065 52.0969 49.9094 56.0499 45.2031H56.0603Z" fill="#1990F2"/>
<path opacity="0.1" d="M104.478 63.6735C104.293 69.8138 102.038 75.7118 98.0793 80.4125C101.132 84.5517 102.956 89.4653 103.345 94.5916C103.734 99.7179 102.671 104.85 100.278 109.401C97.885 113.953 94.2582 117.74 89.8124 120.329C85.3666 122.919 80.2811 124.206 75.1373 124.045C69.9935 123.884 64.9989 122.28 60.7245 119.417C56.4501 116.553 53.0684 112.547 50.9659 107.854C48.8634 103.162 48.125 97.9732 48.8351 92.8813C49.5452 87.7895 51.6751 83 54.9814 79.0603C51.4652 74.2871 104.575 60.6003 104.478 63.6735Z" fill="black"/>
</g>
<g opacity="0.2">
<path opacity="0.2" d="M208.978 125.676C208.978 125.851 208.96 126.021 208.941 126.199C207.491 125.625 206.068 125.01 204.671 124.352C203.926 124.253 203.232 123.915 202.694 123.39C202.289 123.183 201.88 122.971 201.477 122.76C201.568 122.568 201.672 122.382 201.786 122.202C202.571 120.963 203.76 120.189 205.074 120.23C206.389 120.272 207.525 121.12 208.229 122.401C208.766 123.407 209.024 124.537 208.978 125.676Z" fill="#3F3D56"/>
<path opacity="0.2" d="M209.193 119.166C209.166 120.307 208.836 121.42 208.237 122.391C207.451 123.625 206.263 124.402 204.948 124.36L204.687 124.342C203.941 124.243 203.248 123.905 202.71 123.379C202.347 123.033 202.04 122.633 201.801 122.192C201.276 121.18 201.019 120.051 201.055 118.912C201.091 117.773 201.418 116.662 202.006 115.685C202.791 114.445 203.982 113.668 205.294 113.71C206.606 113.752 207.747 114.599 208.449 115.881C208.985 116.89 209.242 118.024 209.193 119.166Z" fill="#3F3D56"/>
<path opacity="0.2" d="M209.403 112.664C209.496 109.723 207.748 107.281 205.499 107.21C203.25 107.139 201.352 109.466 201.259 112.407C201.166 115.348 202.913 117.789 205.162 117.86C207.411 117.931 209.309 115.605 209.403 112.664Z" fill="#3F3D56"/>
<path opacity="0.2" d="M209.606 106.155C209.699 103.214 207.952 100.772 205.703 100.701C203.454 100.63 201.555 102.957 201.462 105.898C201.369 108.839 203.117 111.28 205.366 111.351C207.615 111.422 209.513 109.096 209.606 106.155Z" fill="#3F3D56"/>
<path opacity="0.2" d="M209.812 99.6461C209.905 96.7052 208.158 94.2636 205.909 94.1926C203.66 94.1216 201.761 96.4481 201.668 99.3891C201.575 102.33 203.323 104.772 205.572 104.843C207.821 104.914 209.719 102.587 209.812 99.6461Z" fill="#3F3D56"/>
<path opacity="0.2" d="M191.889 54.4985C191.355 53.7738 190.872 53.0126 190.444 52.2204L201.199 50.8028L189.624 50.523C188.59 48.0755 188.067 45.4431 188.086 42.7866C188.106 40.1302 188.667 37.5056 189.737 35.0734L205.004 43.5972L191.023 32.6306C192.434 30.3495 194.3 28.3837 196.506 26.856C198.712 25.3283 201.21 24.2715 203.843 23.7518C206.477 23.232 209.189 23.2604 211.811 23.8352C214.433 24.41 216.908 25.5188 219.081 27.0924C221.254 28.6659 223.08 30.6704 224.442 32.9805C225.805 35.2906 226.676 37.8567 227.002 40.5183C227.327 43.18 227.099 45.8801 226.332 48.4498C225.565 51.0195 224.276 53.4036 222.545 55.4531C223.377 56.5824 224.085 57.7977 224.656 59.0782L210.546 65.8496L225.515 61.351C226.458 64.4544 226.612 67.7439 225.962 70.9215C225.312 74.0992 223.878 77.0647 221.791 79.5494C223.964 82.4949 225.263 85.9916 225.54 89.6398C225.816 93.288 225.06 96.9403 223.357 100.179C221.654 103.418 219.073 106.113 215.909 107.956C212.745 109.799 209.125 110.715 205.465 110.599C201.804 110.484 198.25 109.342 195.208 107.304C192.167 105.266 189.761 102.415 188.265 99.0749C186.769 95.7352 186.245 92.0425 186.751 88.419C187.257 84.7955 188.774 81.3874 191.127 78.5843C188.534 75.065 187.199 70.7775 187.338 66.4097C187.476 62.042 189.079 57.8472 191.889 54.4985Z" fill="#1990F2"/>
<path opacity="0.1" d="M226.347 67.6333C226.216 72.0046 224.611 76.2036 221.791 79.5494C223.964 82.4949 225.263 85.9916 225.54 89.6398C225.816 93.2879 225.06 96.9403 223.357 100.179C221.654 103.418 219.073 106.113 215.909 107.956C212.745 109.798 209.125 110.715 205.465 110.599C201.804 110.484 198.25 109.342 195.208 107.304C192.167 105.266 189.761 102.414 188.265 99.0748C186.769 95.7351 186.245 92.0425 186.751 88.4189C187.257 84.7954 188.774 81.3873 191.127 78.5842C188.619 75.1841 226.415 65.4468 226.347 67.6333Z" fill="black"/>
</g>
<g opacity="0.2">
<path opacity="0.2" d="M153.164 105.262C153.164 105.437 153.143 105.607 153.124 105.785C151.674 105.212 150.251 104.596 148.854 103.939C148.109 103.839 147.417 103.502 146.88 102.976C146.472 102.77 146.066 102.558 145.663 102.346C145.753 102.154 145.855 101.968 145.969 101.789C146.754 100.552 147.946 99.7748 149.257 99.8167C150.569 99.8585 151.708 100.706 152.412 101.988C152.95 102.993 153.209 104.123 153.164 105.262Z" fill="#3F3D56"/>
<path opacity="0.2" d="M153.357 98.7521C153.331 99.8928 153.001 101.006 152.401 101.977C151.616 103.212 150.427 103.988 149.113 103.946C149.021 103.946 148.935 103.946 148.851 103.928C148.106 103.829 147.414 103.491 146.877 102.966C146.512 102.621 146.205 102.22 145.966 101.778C145.44 100.766 145.183 99.6369 145.22 98.4977C145.256 97.3584 145.584 96.2474 146.173 95.271C146.958 94.0312 148.147 93.2544 149.461 93.2963C150.775 93.3381 151.912 94.1856 152.603 95.4671C153.143 96.4755 153.403 97.6096 153.357 98.7521Z" fill="#3F3D56"/>
<path opacity="0.2" d="M153.367 91.9968C153.456 89.0544 151.703 86.6144 149.453 86.547C147.204 86.4796 145.308 88.8102 145.22 91.7526C145.131 94.695 146.884 97.135 149.133 97.2024C151.383 97.2698 153.279 94.9392 153.367 91.9968Z" fill="#3F3D56"/>
<path opacity="0.2" d="M153.775 85.7409C153.868 82.7999 152.12 80.3583 149.871 80.2873C147.622 80.2163 145.724 82.5429 145.631 85.4838C145.538 88.4247 147.285 90.8664 149.534 90.9374C151.783 91.0084 153.682 88.6818 153.775 85.7409Z" fill="#3F3D56"/>
<path opacity="0.2" d="M153.983 79.2295C154.076 76.2886 152.328 73.8469 150.08 73.7759C147.831 73.7049 145.932 76.0315 145.839 78.9724C145.746 81.9134 147.494 84.355 149.743 84.426C151.992 84.497 153.89 82.1705 153.983 79.2295Z" fill="#3F3D56"/>
<path opacity="0.2" d="M136.061 34.0743C135.528 33.349 135.045 32.5879 134.616 31.7962L145.372 30.3787L133.789 30.0988C132.754 27.6514 132.231 25.0187 132.251 22.3622C132.271 19.7056 132.833 17.081 133.904 14.6492L149.176 23.1835L135.197 12.2169C136.613 9.94546 138.481 7.98941 140.686 6.47046C142.891 4.95151 145.385 3.90217 148.013 3.38777C150.642 2.87336 153.348 2.9049 155.963 3.48042C158.579 4.05594 161.048 5.16312 163.217 6.73305C165.386 8.30297 167.208 10.302 168.57 12.6058C169.932 14.9096 170.804 17.4687 171.133 20.124C171.463 22.7792 171.241 25.4737 170.483 28.0398C169.724 30.6058 168.445 32.9885 166.725 35.0394C167.558 36.1686 168.266 37.3839 168.838 38.6644L154.734 45.4359L169.7 40.9373C170.643 44.0407 170.797 47.3301 170.147 50.5078C169.497 53.6855 168.063 56.651 165.977 59.1357C168.146 62.0823 169.442 65.5792 169.717 69.2268C169.991 72.8744 169.233 76.5256 167.528 79.7629C165.824 83.0003 163.242 85.6934 160.077 87.5343C156.913 89.3752 153.294 90.2897 149.635 90.1733C145.975 90.0569 142.422 88.9143 139.381 86.876C136.341 84.8378 133.935 81.9862 132.44 78.647C130.945 75.3079 130.421 71.616 130.927 67.9932C131.433 64.3704 132.949 60.9629 135.302 58.1601C132.707 54.6398 131.371 50.3505 131.508 45.9808C131.646 41.611 133.25 37.4141 136.061 34.0638V34.0743Z" fill="#1990F2"/>
<path opacity="0.1" d="M170.519 47.2197C170.388 51.591 168.783 55.7899 165.964 59.1357C168.135 62.0819 169.434 65.5791 169.709 69.2275C169.985 72.8759 169.228 76.5282 167.524 79.7668C165.819 83.0054 163.237 85.6996 160.073 87.5414C156.908 89.3831 153.288 90.2981 149.628 90.1816C145.967 90.0651 142.413 88.9219 139.372 86.8827C136.331 84.8436 133.926 81.9907 132.431 78.6503C130.937 75.3099 130.414 71.6168 130.921 67.9934C131.429 64.3699 132.947 60.9623 135.302 58.1601C132.791 54.7731 170.587 45.0331 170.519 47.2197Z" fill="black"/>
</g>
<path d="M254.592 130.985V187.932C239.257 190.218 223.614 190.683 208.043 191.143C164.616 192.428 121.075 193.709 77.7627 190.748C58.608 189.441 38.9795 187.15 22.1917 179.319V109.162C22.2546 60.7756 21.9928 109.162 22.1917 60.6291V43.2127C22.1917 42.2346 22.5807 41.2966 23.273 40.605C23.9653 39.9134 24.9043 39.5249 25.8834 39.5249H250.9C251.879 39.5249 252.818 39.9134 253.511 40.605C254.203 41.2966 254.592 42.2346 254.592 43.2127V87.3173C254.749 130.87 254.487 87.4533 254.592 130.985Z" fill="#0B3F9C"/>
<path opacity="0.3" d="M185.312 56.9518H91.4712C90.7164 56.9518 90.1045 57.563 90.1045 58.3171V63.0563C90.1045 63.8103 90.7164 64.4216 91.4712 64.4216H185.312C186.067 64.4216 186.679 63.8103 186.679 63.0563V58.3171C186.679 57.563 186.067 56.9518 185.312 56.9518Z" fill="#1990F2"/>
<path d="M180.115 60.9978H179.955L179.895 60.9481C180.095 60.7097 180.205 60.4091 180.207 60.0981C180.204 59.843 180.125 59.5946 179.981 59.3841C179.837 59.1736 179.633 59.0104 179.396 58.9152C179.159 58.82 178.9 58.7969 178.65 58.8489C178.4 58.901 178.171 59.0258 177.992 59.2076C177.813 59.3894 177.691 59.6201 177.643 59.8707C177.595 60.1212 177.622 60.3804 177.722 60.6154C177.821 60.8505 177.987 61.051 178.2 61.1917C178.413 61.3323 178.663 61.4069 178.919 61.4059C179.229 61.4047 179.529 61.2956 179.767 61.0972L179.825 61.1469V61.2986L180.822 62.2977L181.12 61.9996L180.115 60.9978ZM178.919 60.9978C178.74 60.9984 178.566 60.946 178.418 60.8475C178.269 60.7489 178.153 60.6086 178.085 60.4442C178.016 60.2799 177.998 60.0989 178.032 59.9242C178.067 59.7495 178.152 59.5889 178.278 59.4628C178.404 59.3368 178.565 59.2508 178.739 59.2159C178.914 59.1809 179.095 59.1986 179.26 59.2666C179.425 59.3347 179.566 59.45 179.665 59.598C179.764 59.746 179.817 59.9201 179.817 60.0981C179.817 60.2162 179.795 60.3333 179.75 60.4426C179.705 60.5519 179.639 60.6513 179.555 60.7349C179.472 60.8186 179.373 60.8849 179.263 60.93C179.154 60.9751 179.037 60.9982 178.919 60.9978Z" fill="#444053"/>
<path opacity="0.7" d="M66.046 128.995H59.6524C58.9294 128.995 58.3433 129.58 58.3433 130.302V130.799C58.3433 131.522 58.9294 132.107 59.6524 132.107H66.046C66.7689 132.107 67.355 131.522 67.355 130.799V130.302C67.355 129.58 66.7689 128.995 66.046 128.995Z" fill="#1990F2"/>
<path opacity="0.3" d="M71.0519 136.776H59.6524C58.9294 136.776 58.3433 137.361 58.3433 138.083V138.58C58.3433 139.303 58.9294 139.888 59.6524 139.888H71.0519C71.7749 139.888 72.361 139.303 72.361 138.58V138.083C72.361 137.361 71.7749 136.776 71.0519 136.776Z" fill="#1990F2"/>
<path opacity="0.3" d="M85.0723 132.887H59.6524C58.9294 132.887 58.3433 133.472 58.3433 134.194V134.691C58.3433 135.413 58.9294 135.999 59.6524 135.999H85.0723C85.7953 135.999 86.3814 135.413 86.3814 134.691V134.194C86.3814 133.472 85.7953 132.887 85.0723 132.887Z" fill="#1990F2"/>
<path d="M43.0874 136.679C42.8899 136.677 42.6938 136.714 42.5105 136.787C42.3272 136.861 42.1603 136.97 42.0192 137.108C41.8782 137.247 41.7658 137.411 41.6885 137.593C41.6113 137.775 41.5706 137.97 41.5689 138.167C41.5628 138.432 41.4534 138.683 41.2641 138.869C41.0748 139.054 40.8206 139.158 40.5557 139.158C40.7976 139.464 41.1048 139.712 41.455 139.884C41.8051 140.056 42.1894 140.148 42.5795 140.152C42.8432 140.155 43.1049 140.106 43.3496 140.008C43.5943 139.909 43.8172 139.764 44.0057 139.579C44.1941 139.395 44.3443 139.176 44.4478 138.933C44.5512 138.691 44.6059 138.431 44.6086 138.167C44.6066 137.97 44.5656 137.774 44.488 137.593C44.4105 137.411 44.2978 137.246 44.1566 137.108C44.0153 136.97 43.8482 136.861 43.6648 136.787C43.4813 136.714 43.2852 136.677 43.0874 136.679ZM50.0335 132.034L49.3528 131.367C49.2578 131.274 49.1299 131.221 48.9967 131.221C48.8635 131.221 48.7356 131.274 48.6406 131.367L44.1007 135.813L45.4936 137.178L50.0282 132.732C50.0754 132.687 50.113 132.633 50.1388 132.573C50.1647 132.514 50.1783 132.449 50.1788 132.384C50.1793 132.319 50.1666 132.254 50.1417 132.194C50.1167 132.134 50.0799 132.08 50.0335 132.034Z" fill="#1990F2"/>
<path opacity="0.7" d="M66.046 90.4061H59.6524C58.9294 90.4061 58.3433 90.9916 58.3433 91.7139V92.2108C58.3433 92.933 58.9294 93.5185 59.6524 93.5185H66.046C66.7689 93.5185 67.355 92.933 67.355 92.2108V91.7139C67.355 90.9916 66.7689 90.4061 66.046 90.4061Z" fill="#1990F2"/>
<path opacity="0.3" d="M71.0519 98.1871H59.6524C58.9294 98.1871 58.3433 98.7726 58.3433 99.4949V99.9918C58.3433 100.714 58.9294 101.3 59.6524 101.3H71.0519C71.7749 101.3 72.361 100.714 72.361 99.9918V99.4949C72.361 98.7726 71.7749 98.1871 71.0519 98.1871Z" fill="#1990F2"/>
<path opacity="0.3" d="M85.0723 94.2953H59.6524C58.9294 94.2953 58.3433 94.8808 58.3433 95.603V96.1C58.3433 96.8222 58.9294 97.4077 59.6524 97.4077H85.0723C85.7953 97.4077 86.3814 96.8222 86.3814 96.1V95.603C86.3814 94.8808 85.7953 94.2953 85.0723 94.2953Z" fill="#1990F2"/>
<path d="M50.0544 98.9037L46.08 94.9073C46.2772 94.3933 46.32 93.8331 46.2033 93.2951C46.0866 92.7572 45.8154 92.2649 45.4228 91.8786C45.0062 91.4658 44.4733 91.19 43.8954 91.0881C43.3176 90.9862 42.7223 91.0631 42.1894 91.3084L44.0692 93.1968L42.7602 94.5045L40.8436 92.6266C40.5888 93.1595 40.5066 93.7585 40.6084 94.3402C40.7102 94.922 40.9911 95.4575 41.4118 95.8724C41.7936 96.266 42.2831 96.5385 42.8191 96.6557C43.3551 96.7729 43.9138 96.7297 44.4253 96.5315L48.3919 100.531C48.4313 100.572 48.4787 100.605 48.5314 100.628C48.5841 100.651 48.6408 100.662 48.6982 100.662C48.7555 100.662 48.8123 100.651 48.865 100.628C48.9176 100.605 48.9651 100.572 49.0045 100.531L50.0099 99.521C50.0586 99.4874 50.0992 99.4433 50.1286 99.392C50.158 99.3406 50.1755 99.2833 50.1798 99.2243C50.1841 99.1653 50.175 99.1061 50.1533 99.0511C50.1316 98.9961 50.0978 98.9466 50.0544 98.9064V98.9037Z" fill="#1990F2"/>
<path opacity="0.7" d="M141.125 128.995H134.731C134.008 128.995 133.422 129.58 133.422 130.302V130.799C133.422 131.522 134.008 132.107 134.731 132.107H141.125C141.848 132.107 142.434 131.522 142.434 130.799V130.302C142.434 129.58 141.848 128.995 141.125 128.995Z" fill="#1990F2"/>
<path opacity="0.3" d="M146.131 136.776H134.731C134.008 136.776 133.422 137.361 133.422 138.083V138.58C133.422 139.303 134.008 139.888 134.731 139.888H146.131C146.854 139.888 147.44 139.303 147.44 138.58V138.083C147.44 137.361 146.854 136.776 146.131 136.776Z" fill="#1990F2"/>
<path opacity="0.3" d="M160.151 132.887H134.731C134.008 132.887 133.422 133.472 133.422 134.194V134.691C133.422 135.413 134.008 135.999 134.731 135.999H160.151C160.874 135.999 161.46 135.413 161.46 134.691V134.194C161.46 133.472 160.874 132.887 160.151 132.887Z" fill="#1990F2"/>
<path d="M120.29 137.573C119.895 137.798 119.449 137.916 118.995 137.916C118.541 137.916 118.095 137.798 117.701 137.573C116.687 137.885 116.067 138.905 115.836 139.807H122.151C121.924 138.905 121.306 137.885 120.29 137.573ZM118.997 132.769C118.546 132.769 118.106 132.902 117.732 133.152C117.358 133.402 117.066 133.757 116.894 134.172C116.722 134.588 116.677 135.045 116.765 135.486C116.853 135.927 117.07 136.332 117.389 136.65C117.707 136.967 118.113 137.184 118.554 137.271C118.996 137.359 119.453 137.313 119.869 137.141C120.285 136.968 120.64 136.677 120.89 136.302C121.139 135.928 121.272 135.489 121.272 135.039C121.271 134.437 121.031 133.859 120.604 133.434C120.178 133.008 119.6 132.769 118.997 132.769ZM118.997 136.77C118.655 136.764 118.323 136.658 118.04 136.466C117.758 136.273 117.538 136.003 117.407 135.688H120.586C120.455 136.003 120.235 136.273 119.953 136.466C119.67 136.658 119.338 136.764 118.997 136.77Z" fill="#1990F2"/>
<path d="M123.602 136.363C123.27 136.55 122.901 136.663 122.522 136.694C122.142 136.725 121.76 136.673 121.402 136.543C121.241 136.822 121.038 137.074 120.8 137.291C121.331 137.533 121.777 137.927 122.083 138.424H125.463C125.359 137.948 125.132 137.508 124.806 137.147C124.479 136.785 124.064 136.515 123.602 136.363ZM122.308 131.555C121.926 131.555 121.55 131.651 121.215 131.834C120.88 132.016 120.596 132.281 120.389 132.602C120.733 132.8 121.031 133.07 121.263 133.391C121.495 133.713 121.657 134.08 121.738 134.469H123.898C123.766 134.783 123.545 135.052 123.263 135.243C122.981 135.435 122.649 135.54 122.308 135.547C122.122 135.546 121.938 135.512 121.764 135.447C121.733 135.632 121.686 135.813 121.622 135.989C121.844 136.06 122.076 136.095 122.308 136.093C122.912 136.093 123.49 135.854 123.917 135.427C124.344 135.001 124.583 134.423 124.583 133.82C124.583 133.218 124.344 132.639 123.917 132.213C123.49 131.787 122.912 131.547 122.308 131.547V131.555Z" fill="#1990F2"/>
<path opacity="0.7" d="M66.046 157.938H59.6524C58.9294 157.938 58.3433 158.523 58.3433 159.245V159.742C58.3433 160.464 58.9294 161.05 59.6524 161.05H66.046C66.7689 161.05 67.355 160.464 67.355 159.742V159.245C67.355 158.523 66.7689 157.938 66.046 157.938Z" fill="#1990F2"/>
<path opacity="0.3" d="M71.0519 165.719H59.6524C58.9294 165.719 58.3433 166.304 58.3433 167.026V167.523C58.3433 168.245 58.9294 168.831 59.6524 168.831H71.0519C71.7749 168.831 72.361 168.245 72.361 167.523V167.026C72.361 166.304 71.7749 165.719 71.0519 165.719Z" fill="#1990F2"/>
<path opacity="0.3" d="M85.0723 161.829H59.6524C58.9294 161.829 58.3433 162.415 58.3433 163.137V163.634C58.3433 164.356 58.9294 164.942 59.6524 164.942H85.0723C85.7953 164.942 86.3814 164.356 86.3814 163.634V163.137C86.3814 162.415 85.7953 161.829 85.0723 161.829Z" fill="#1990F2"/>
<path d="M46.2292 158.921H43.6581C43.5453 158.92 43.4334 158.94 43.3287 158.982C43.224 159.024 43.1285 159.086 43.0478 159.165C42.9671 159.243 42.9027 159.337 42.8582 159.441C42.8138 159.544 42.7903 159.656 42.7889 159.768V159.951H42.6266C42.5138 159.95 42.4018 159.971 42.2971 160.013C42.1924 160.055 42.097 160.117 42.0162 160.195C41.9355 160.274 41.8711 160.368 41.8267 160.471C41.7823 160.575 41.7587 160.686 41.7573 160.799V166.979C41.7587 167.209 41.8507 167.429 42.0134 167.592C42.1762 167.754 42.3964 167.846 42.6266 167.848H47.0984C47.2111 167.846 47.3224 167.823 47.4259 167.778C47.5294 167.734 47.6231 167.669 47.7017 167.589C47.7803 167.508 47.8421 167.413 47.8837 167.308C47.9253 167.203 47.9458 167.092 47.9441 166.979V166.817H48.13C48.2426 166.816 48.3539 166.792 48.4574 166.748C48.561 166.703 48.6547 166.639 48.7333 166.558C48.8118 166.478 48.8737 166.382 48.9153 166.278C48.9569 166.173 48.9774 166.061 48.9756 165.949V161.667L46.2292 158.921ZM46.2292 159.878L48.02 161.667H46.2292V159.878ZM47.2607 166.979C47.2629 167.025 47.2472 167.07 47.2168 167.104C47.1865 167.138 47.144 167.159 47.0984 167.162H42.6266C42.579 167.16 42.5342 167.14 42.5008 167.106C42.4674 167.072 42.4478 167.027 42.4459 166.979V160.799C42.4493 160.754 42.4699 160.712 42.5036 160.681C42.5373 160.651 42.5813 160.635 42.6266 160.637H42.7889V166.129C42.7889 166.605 43.0141 166.825 43.4879 166.825H47.2607V166.979ZM48.2897 165.949C48.2926 165.994 48.2774 166.039 48.2475 166.073C48.2176 166.107 48.1754 166.128 48.13 166.132H43.6581C43.6106 166.129 43.5657 166.109 43.5323 166.075C43.4989 166.041 43.4794 165.996 43.4775 165.949V159.768C43.4808 159.723 43.5015 159.681 43.5352 159.651C43.5688 159.621 43.6129 159.605 43.6581 159.606H45.5406V162.355H48.2897V165.949Z" fill="#1990F2"/>
<path opacity="0.7" d="M141.125 90.4061H134.731C134.008 90.4061 133.422 90.9916 133.422 91.7139V92.2108C133.422 92.933 134.008 93.5185 134.731 93.5185H141.125C141.848 93.5185 142.434 92.933 142.434 92.2108V91.7139C142.434 90.9916 141.848 90.4061 141.125 90.4061Z" fill="#1990F2"/>
<path opacity="0.3" d="M146.131 98.1871H134.731C134.008 98.1871 133.422 98.7726 133.422 99.4949V99.9918C133.422 100.714 134.008 101.3 134.731 101.3H146.131C146.854 101.3 147.44 100.714 147.44 99.9918V99.4949C147.44 98.7726 146.854 98.1871 146.131 98.1871Z" fill="#1990F2"/>
<path opacity="0.3" d="M160.151 94.2953H134.731C134.008 94.2953 133.422 94.8808 133.422 95.603V96.1C133.422 96.8222 134.008 97.4077 134.731 97.4077H160.151C160.874 97.4077 161.46 96.8222 161.46 96.1V95.603C161.46 94.8808 160.874 94.2953 160.151 94.2953Z" fill="#1990F2"/>
<path d="M119.735 92.4227H116.755C116.512 92.4234 116.279 92.5204 116.107 92.6925C115.935 92.8646 115.839 93.0977 115.839 93.3407V98.3755C115.839 98.6183 115.935 98.8511 116.107 99.0228C116.279 99.1945 116.512 99.2909 116.755 99.2909H124.547C124.79 99.2909 125.023 99.1945 125.195 99.0228C125.367 98.8511 125.463 98.6183 125.463 98.3755V94.3634C125.463 94.1208 125.366 93.8884 125.194 93.7168C125.022 93.5453 124.79 93.4487 124.547 93.448H120.651L119.735 92.4175V92.4227Z" fill="#1990F2"/>
<path opacity="0.7" d="M215.27 128.995H208.876C208.153 128.995 207.567 129.58 207.567 130.302V130.799C207.567 131.522 208.153 132.107 208.876 132.107H215.27C215.993 132.107 216.579 131.522 216.579 130.799V130.302C216.579 129.58 215.993 128.995 215.27 128.995Z" fill="#1990F2"/>
<path opacity="0.3" d="M220.276 136.776H208.876C208.153 136.776 207.567 137.361 207.567 138.083V138.58C207.567 139.303 208.153 139.888 208.876 139.888H220.276C220.999 139.888 221.585 139.303 221.585 138.58V138.083C221.585 137.361 220.999 136.776 220.276 136.776Z" fill="#1990F2"/>
<path opacity="0.3" d="M234.296 132.887H208.876C208.153 132.887 207.567 133.472 207.567 134.194V134.691C207.567 135.413 208.153 135.999 208.876 135.999H234.296C235.019 135.999 235.605 135.413 235.605 134.691V134.194C235.605 133.472 235.019 132.887 234.296 132.887Z" fill="#1990F2"/>
<path d="M199.749 133.2L197.977 133.117L197.872 131.963C197.866 131.905 197.849 131.848 197.821 131.796C197.793 131.745 197.755 131.699 197.709 131.662C197.663 131.625 197.61 131.597 197.554 131.581C197.497 131.564 197.438 131.559 197.38 131.566L191.025 132.089C190.967 132.091 190.91 132.106 190.857 132.131C190.804 132.156 190.757 132.191 190.718 132.235C190.679 132.279 190.65 132.33 190.631 132.385C190.612 132.44 190.605 132.499 190.609 132.557L191.062 137.618C191.076 137.735 191.135 137.841 191.228 137.914C191.32 137.987 191.437 138.021 191.554 138.008L191.876 137.984L191.827 138.967C191.824 139.032 191.835 139.097 191.858 139.157C191.881 139.218 191.916 139.273 191.961 139.32C192.005 139.367 192.059 139.404 192.118 139.431C192.177 139.457 192.241 139.471 192.306 139.472L199.398 139.807C199.528 139.816 199.656 139.773 199.754 139.687C199.852 139.602 199.913 139.482 199.922 139.352L200.22 133.703C200.222 133.639 200.212 133.575 200.189 133.515C200.167 133.455 200.133 133.401 200.089 133.354C200.045 133.307 199.993 133.27 199.934 133.243C199.876 133.217 199.813 133.202 199.749 133.2ZM192.125 133.315L191.973 136.208L191.596 136.731L191.251 132.91V132.887C191.257 132.835 191.281 132.787 191.318 132.751C191.355 132.714 191.403 132.691 191.455 132.685L197.063 132.227C197.115 132.222 197.167 132.237 197.209 132.268C197.251 132.299 197.28 132.344 197.291 132.395L197.346 133.054L192.633 132.829C192.568 132.828 192.503 132.839 192.442 132.863C192.381 132.886 192.325 132.922 192.278 132.967C192.231 133.012 192.193 133.066 192.167 133.126C192.141 133.186 192.126 133.25 192.125 133.315ZM199.299 138.4L197.466 136.263L196.662 137.001L195.178 135.267L192.541 138.07L192.766 133.799C192.779 133.741 192.813 133.689 192.861 133.653C192.909 133.617 192.969 133.601 193.028 133.606L199.286 133.909C199.343 133.91 199.399 133.934 199.44 133.974C199.481 134.014 199.506 134.069 199.508 134.126L199.299 138.4Z" fill="#1990F2"/>
<path d="M198.167 135.688C198.304 135.688 198.437 135.648 198.551 135.573C198.664 135.498 198.753 135.391 198.805 135.265C198.858 135.139 198.872 135.001 198.846 134.867C198.819 134.734 198.754 134.611 198.658 134.514C198.562 134.418 198.439 134.352 198.305 134.325C198.172 134.299 198.033 134.312 197.907 134.364C197.781 134.416 197.673 134.504 197.598 134.617C197.522 134.731 197.481 134.864 197.481 135C197.482 135.182 197.555 135.356 197.683 135.485C197.811 135.613 197.985 135.686 198.167 135.688Z" fill="#1990F2"/>
<path opacity="0.7" d="M215.893 90.4061H209.499C208.776 90.4061 208.19 90.9916 208.19 91.7139V92.2108C208.19 92.933 208.776 93.5185 209.499 93.5185H215.893C216.616 93.5185 217.202 92.933 217.202 92.2108V91.7139C217.202 90.9916 216.616 90.4061 215.893 90.4061Z" fill="#1990F2"/>
<path opacity="0.3" d="M220.899 98.1871H209.499C208.776 98.1871 208.19 98.7726 208.19 99.4949V99.9918C208.19 100.714 208.776 101.3 209.499 101.3H220.899C221.622 101.3 222.208 100.714 222.208 99.9918V99.4949C222.208 98.7726 221.622 98.1871 220.899 98.1871Z" fill="#1990F2"/>
<path opacity="0.3" d="M234.919 94.2953H209.499C208.776 94.2953 208.19 94.8808 208.19 95.603V96.1C208.19 96.8222 208.776 97.4077 209.499 97.4077H234.919C235.642 97.4077 236.228 96.8222 236.228 96.1V95.603C236.228 94.8808 235.642 94.2953 234.919 94.2953Z" fill="#1990F2"/>
<path d="M199.652 94.6485C200.411 94.6485 201.026 94.0337 201.026 93.2753C201.026 92.517 200.411 91.9022 199.652 91.9022C198.893 91.9022 198.277 92.517 198.277 93.2753C198.277 94.0337 198.893 94.6485 199.652 94.6485Z" fill="#1990F2"/>
<path d="M198.597 94.8943L195.869 96.7094L192.088 94.1933V93.2753L195.869 95.794L198.042 94.3476C197.837 94.0382 197.726 93.6763 197.721 93.3053C197.716 92.9343 197.819 92.5697 198.016 92.2552H191.976C191.732 92.2559 191.499 92.3529 191.327 92.5249C191.154 92.6969 191.057 92.93 191.057 93.1733V98.8959C191.057 99.1392 191.154 99.3723 191.327 99.5443C191.499 99.7163 191.732 99.8133 191.976 99.8139H199.767C200.011 99.8132 200.244 99.7162 200.415 99.5441C200.587 99.372 200.684 99.1389 200.684 98.8959V94.9204C200.37 95.1195 200.006 95.224 199.634 95.2212C199.263 95.2184 198.9 95.1085 198.589 94.9047L198.597 94.8943Z" fill="#1990F2"/>
<path d="M133.433 196.429C137.204 196.429 140.261 195.843 140.261 195.119C140.261 194.395 137.204 193.809 133.433 193.809C129.662 193.809 126.605 194.395 126.605 195.119C126.605 195.843 129.662 196.429 133.433 196.429Z" fill="#1990F2"/>
<path d="M133.32 195.6C133.76 195.6 134.116 195.135 134.116 194.562C134.116 193.988 133.76 193.524 133.32 193.524C132.881 193.524 132.524 193.988 132.524 194.562C132.524 195.135 132.881 195.6 133.32 195.6Z" fill="#3F3D56"/>
<path d="M133.32 194.329C133.76 194.329 134.116 193.864 134.116 193.291C134.116 192.717 133.76 192.252 133.32 192.252C132.881 192.252 132.524 192.717 132.524 193.291C132.524 193.864 132.881 194.329 133.32 194.329Z" fill="#3F3D56"/>
<path d="M133.32 193.058C133.76 193.058 134.116 192.593 134.116 192.02C134.116 191.446 133.76 190.981 133.32 190.981C132.881 190.981 132.524 191.446 132.524 192.02C132.524 192.593 132.881 193.058 133.32 193.058Z" fill="#3F3D56"/>
<path d="M133.32 191.787C133.76 191.787 134.116 191.322 134.116 190.749C134.116 190.175 133.76 189.71 133.32 189.71C132.881 189.71 132.524 190.175 132.524 190.749C132.524 191.322 132.881 191.787 133.32 191.787Z" fill="#3F3D56"/>
<path d="M133.32 190.518C133.76 190.518 134.116 190.053 134.116 189.48C134.116 188.907 133.76 188.442 133.32 188.442C132.881 188.442 132.524 188.907 132.524 189.48C132.524 190.053 132.881 190.518 133.32 190.518Z" fill="#3F3D56"/>
<path d="M133.32 189.247C133.76 189.247 134.116 188.782 134.116 188.209C134.116 187.635 133.76 187.17 133.32 187.17C132.881 187.17 132.524 187.635 132.524 188.209C132.524 188.782 132.881 189.247 133.32 189.247Z" fill="#3F3D56"/>
<path d="M133.32 187.976C133.76 187.976 134.116 187.511 134.116 186.938C134.116 186.364 133.76 185.899 133.32 185.899C132.881 185.899 132.524 186.364 132.524 186.938C132.524 187.511 132.881 187.976 133.32 187.976Z" fill="#3F3D56"/>
<path d="M136.295 178.244C136.404 178.106 136.503 177.96 136.591 177.807L134.496 177.465L136.753 177.483C136.969 177.012 137.088 176.502 137.1 175.984C137.113 175.466 137.02 174.951 136.826 174.47L133.797 176.039L136.591 173.986C136.33 173.533 135.978 173.138 135.557 172.827C135.136 172.515 134.656 172.294 134.145 172.177C133.635 172.059 133.106 172.048 132.591 172.145C132.077 172.241 131.587 172.442 131.154 172.736C130.721 173.029 130.353 173.409 130.073 173.851C129.793 174.293 129.608 174.788 129.529 175.305C129.449 175.822 129.477 176.35 129.611 176.856C129.745 177.361 129.982 177.834 130.307 178.244C130.139 178.459 129.993 178.692 129.873 178.937L132.585 180.344L129.705 179.377C129.502 179.976 129.451 180.616 129.558 181.239C129.665 181.863 129.926 182.449 130.318 182.947C129.876 183.508 129.601 184.181 129.525 184.891C129.449 185.6 129.574 186.317 129.886 186.959C130.198 187.601 130.685 188.142 131.29 188.521C131.896 188.899 132.596 189.1 133.31 189.1C134.025 189.1 134.724 188.899 135.33 188.521C135.936 188.142 136.422 187.601 136.734 186.959C137.046 186.317 137.172 185.6 137.095 184.891C137.019 184.181 136.744 183.508 136.303 182.947C136.832 182.276 137.119 181.447 137.119 180.593C137.119 179.739 136.832 178.91 136.303 178.239L136.295 178.244Z" fill="#1990F2"/>
<path opacity="0.1" d="M129.495 180.595C129.493 181.449 129.78 182.279 130.309 182.949C129.868 183.51 129.593 184.184 129.517 184.893C129.441 185.603 129.566 186.32 129.878 186.961C130.19 187.603 130.677 188.145 131.282 188.523C131.888 188.902 132.588 189.103 133.302 189.103C134.016 189.103 134.716 188.902 135.322 188.523C135.927 188.145 136.414 187.603 136.726 186.961C137.038 186.32 137.163 185.603 137.087 184.893C137.011 184.184 136.736 183.51 136.295 182.949C136.805 182.3 129.495 180.169 129.495 180.595Z" fill="black"/>
<path d="M196.887 102.063C196.775 101.838 196.687 101.601 196.625 101.357C196.599 101.077 196.709 100.709 196.46 100.573C196.322 100.497 196.128 100.554 196.005 100.455C195.929 100.367 195.882 100.257 195.871 100.141C195.81 99.9217 195.681 99.7274 195.502 99.5863C195.323 99.4453 195.104 99.3647 194.876 99.3564C195.138 98.6476 196.102 98.475 196.526 97.8499C196.738 97.5386 196.67 96.9658 196.295 96.9632C196.205 96.9665 196.115 96.9888 196.034 97.0286L194.638 97.604C194.369 97.7093 194.107 97.8307 193.853 97.9676C193.086 98.4044 192.512 99.1131 191.996 99.8324C191.508 100.468 191.119 101.173 190.842 101.925C190.686 102.388 190.603 102.872 190.596 103.361C190.596 103.41 190.596 103.46 190.596 103.507C190.368 103.546 190.182 103.646 189.944 103.693L189.402 105.123C189.33 105.363 189.21 105.584 189.048 105.775C188.928 105.884 188.801 105.985 188.666 106.076C188.391 106.31 188.178 106.609 188.045 106.945C187.912 107.281 187.864 107.644 187.904 108.003C187.414 108.195 187.015 108.567 186.789 109.042C186.562 109.516 186.525 110.06 186.684 110.561C186.278 110.649 185.9 110.839 185.588 111.114C185.276 111.389 185.04 111.739 184.901 112.13C184.864 112.31 184.784 112.479 184.668 112.622C184.491 112.758 184.271 112.826 184.048 112.813C183.435 112.852 182.901 113.336 182.348 113.075C181.719 112.78 181.016 112.681 180.33 112.792C180.188 112.826 180.043 112.839 179.898 112.831C179.774 112.81 179.655 112.768 179.544 112.708C179.296 112.561 179.025 112.454 178.743 112.392C178.602 112.362 178.455 112.373 178.32 112.425C178.185 112.477 178.068 112.568 177.984 112.685C177.79 112.473 177.675 112.198 177.499 111.971C177.421 111.85 177.31 111.753 177.18 111.691C177.05 111.628 176.905 111.603 176.761 111.618C176.944 111.453 176.761 111.123 176.518 111.066C176.272 111.045 176.025 111.053 175.782 111.092C175.143 111.092 174.651 110.506 174.03 110.352C173.46 110.213 172.698 110.381 172.404 109.868C172.313 109.703 172.287 109.489 172.143 109.366C172.11 109.227 172.046 109.097 171.957 108.987C171.721 108.725 171.326 108.683 170.972 108.694C170.584 108.705 170.198 108.771 169.828 108.89C169.828 108.845 169.805 108.796 169.789 108.743C169.565 108.091 169.115 107.541 168.522 107.19C168.061 106.918 167.561 106.719 167.04 106.599C167.04 106.552 167.04 106.507 167.04 106.46C167.031 105.8 167.134 105.143 167.344 104.517C167.364 104.449 167.391 104.381 167.414 104.313C168.603 104.002 169.689 103.383 170.561 102.518C171.433 101.653 172.06 100.573 172.379 99.388C172.698 98.2025 172.698 96.9538 172.378 95.7686C172.057 94.5834 171.429 93.504 170.556 92.6399C170.554 92.4987 170.536 92.3582 170.501 92.2214C170.425 91.9214 170.282 91.6424 170.082 91.4054C169.763 90.694 169.265 90.3801 168.629 90.0819C168.446 89.9956 168.252 89.9119 168.048 89.8204C167.035 89.3653 166.055 88.6958 164.906 88.6984C163.859 88.6984 162.848 89.2764 161.811 89.2555H161.733H161.657H161.563C161.272 89.2215 160.924 89.1535 160.733 89.3758C160.671 89.4637 160.622 89.5596 160.586 89.6609C160.571 89.6945 160.554 89.7268 160.534 89.7576C160.495 89.822 160.45 89.8824 160.4 89.9381C160.065 90.3043 159.502 90.4612 159.039 90.707C157.991 91.2432 157.305 92.3365 157.033 93.4821C156.761 94.6276 156.855 95.836 157.059 96.9972C157.164 97.5779 157.389 98.237 157.803 98.6031C157.803 98.6031 154.302 101.09 154.941 101.444C155.289 101.637 156.74 100.719 157.989 99.8429C158.002 99.8952 158.012 99.9501 158.028 100.002C158.177 100.561 158.368 101.107 158.599 101.637C158.861 102.262 159.238 102.945 159.89 103.125C160.033 103.165 160.183 103.182 160.332 103.175H160.447C160.48 104.132 160.378 105.089 160.146 106.018C159.766 105.996 159.39 106.1 159.075 106.314C158.956 106.431 158.805 106.511 158.641 106.544C158.471 106.523 158.313 106.446 158.193 106.324C157.723 105.986 157.152 105.818 156.574 105.849C155.996 105.879 155.446 106.106 155.015 106.491C153.747 107.687 153.891 110.02 152.396 110.925C151.988 111.173 151.464 111.306 151.223 111.722C151.166 111.855 151.098 111.984 151.022 112.107C150.923 112.218 150.802 112.307 150.666 112.368C150.234 112.561 149.824 112.798 149.44 113.075C149.249 113.215 149.088 113.392 148.967 113.596C148.846 113.8 148.767 114.027 148.736 114.262C148.731 114.606 148.804 114.947 148.951 115.258C149.174 115.806 149.447 116.331 149.768 116.828C149.594 117.053 149.48 117.318 149.438 117.599C149.333 118.334 149.684 119.059 149.723 119.801C149.757 120.45 149.55 121.083 149.435 121.721C148.974 124.216 149.857 126.743 150.744 129.113C150.916 129.498 151.022 129.909 151.058 130.329C151.082 131.113 150.64 131.812 150.517 132.575C150.255 134.181 151.441 135.693 151.467 137.317C151.467 138.068 151.242 138.829 151.43 139.553C151.553 140.037 151.854 140.453 152.069 140.906C152.446 141.706 152.548 142.614 152.91 143.422C153.341 144.301 153.981 145.062 154.774 145.64C155.227 147.076 154.583 148.81 154.774 150.347C155.02 150.25 155.268 150.163 155.52 150.086C155.364 152.372 155.942 154.648 157.169 156.583C157.575 157.216 158.052 157.807 158.358 158.495C158.557 158.985 158.712 159.492 158.821 160.009C159.259 161.835 159.696 163.658 160.13 165.481C160.487 166.958 160.845 168.462 160.738 169.979C160.665 171.025 160.398 172.221 161.047 173.058C161.203 173.217 161.335 173.398 161.437 173.596C161.5 173.829 161.5 174.075 161.437 174.308C161.119 176.072 160.903 177.852 160.788 179.641C160.641 179.837 160.494 180.036 160.361 180.232C159.285 181.801 158.766 183.687 158.347 185.546C157.575 189.2 157.123 192.914 156.997 196.646C156.458 197.135 155.994 197.7 155.619 198.323C155.056 199.369 154.983 200.598 154.923 201.786C154.899 201.978 154.92 202.174 154.986 202.356C155.129 202.561 155.335 202.715 155.572 202.795L155.897 202.95C155.826 203.211 155.763 203.473 155.708 203.747C155.295 203.282 154.559 202.544 154.433 203.083C154.019 204.886 153.795 206.726 153.763 208.576C153.748 208.647 153.751 208.72 153.769 208.79C153.788 208.86 153.823 208.924 153.872 208.978C153.92 209.032 153.981 209.074 154.048 209.1C154.116 209.127 154.188 209.137 154.26 209.13C156.059 209.448 157.882 209.604 159.709 209.596C161.188 209.596 162.665 209.475 164.139 209.363L165.65 209.248C167.203 209.165 168.749 208.973 170.276 208.675C170.944 208.529 171.632 208.322 172.135 207.854C172.638 207.386 172.884 206.585 172.538 205.992C172.116 205.275 171.132 205.223 170.31 205.107C169.495 204.993 168.705 204.742 167.975 204.365C167.81 204.281 167.65 204.187 167.49 204.103C167.532 204.103 167.577 204.082 167.616 204.067C168.323 203.829 168.886 203.282 169.551 202.955C170.336 202.576 171.203 202.489 172.056 202.382C172.91 202.275 173.79 202.121 174.499 201.634C175.164 201.179 175.635 200.35 175.481 199.571C175.47 199.516 175.456 199.462 175.439 199.408C175.177 198.564 174.261 198.101 173.407 197.891C172.554 197.682 171.627 197.557 170.936 197.007L170.834 196.926C170.776 196.877 170.716 196.83 170.653 196.78C170.805 196.523 170.876 196.225 170.855 195.927C170.818 195.459 170.546 195.046 170.36 194.619C169.996 193.769 169.967 192.82 169.867 191.902C169.621 189.593 168.912 187.364 168.378 185.102C168.318 184.84 168.26 184.579 168.202 184.317C168.724 183.236 169.362 182.215 170.106 181.273C170.957 180.21 171.581 178.984 171.938 177.671C172.048 177.268 172.13 176.86 172.213 176.45C173.159 171.726 174.053 166.995 174.894 162.256C175.034 161.58 175.113 160.894 175.133 160.205C175.353 159.58 175.472 158.924 175.486 158.262C175.732 157.302 175.981 156.295 175.779 155.667C175.638 155.223 175.567 153.703 175.489 152.246C175.511 151.465 175.464 150.683 175.347 149.911C175.324 149.777 175.298 149.649 175.269 149.516C175.253 149.437 175.237 149.372 175.222 149.32C175.111 148.882 174.957 148.456 174.761 148.048C174.661 147.805 174.545 147.568 174.415 147.34C174.337 147.205 174.25 147.075 174.153 146.953C174.698 146.976 175.242 147.026 175.782 147.104C175.913 147.123 176.075 147.133 176.156 147.026C176.19 146.964 176.206 146.895 176.203 146.824C176.229 146.207 176.082 145.595 175.779 145.056C175.57 144.685 175.279 144.324 175.287 143.898C175.301 143.699 175.35 143.504 175.431 143.322L176.156 141.376C176.772 139.731 176.478 137.825 176.798 136.098C177.047 134.75 177.206 133.386 177.274 132.016C177.335 130.847 177.298 129.578 176.594 128.642C176.39 128.416 176.215 128.166 176.07 127.899C175.968 127.615 175.925 127.313 175.944 127.012C175.932 125.18 175.969 123.349 176.054 121.52C179.137 121.433 182.208 121.083 185.231 120.474C185.588 120.413 185.939 120.318 186.278 120.191C186.652 120.012 187.004 119.79 187.326 119.529C188.354 118.787 189.399 118.031 190.182 117.032C191.112 115.82 191.696 114.379 191.873 112.863C192.617 112.175 193.012 111.197 193.384 110.247C193.568 109.846 193.685 109.418 193.73 108.979C193.748 108.529 193.452 108.058 193.536 107.616C193.679 106.855 194.063 106.159 194.633 105.634C194.754 105.547 194.846 105.426 194.895 105.286C194.911 105.169 194.89 105.05 194.834 104.946L194.811 104.906C194.884 104.862 194.952 104.815 195.023 104.768C195.266 104.595 195.499 104.404 195.727 104.219C196.076 103.956 196.383 103.644 196.641 103.293C196.768 103.118 196.856 102.917 196.898 102.705C196.941 102.493 196.937 102.274 196.887 102.063ZM163.293 202.312C163.23 202.312 163.168 202.312 163.107 202.327C162.878 202.36 162.654 202.424 162.442 202.518L162.393 202.544C162.681 201.922 162.953 201.289 163.199 200.646C163.228 200.57 163.254 200.494 163.283 200.415L163.251 200.844C163.197 201.333 163.211 201.827 163.293 202.312Z" fill="url(#paint0_linear)"/>
<path d="M167.04 106.999C167.066 108.013 167.411 108.997 167.464 110.012C164.471 110.161 161.515 108.704 158.562 109.154C159.392 108.618 159.834 107.652 160.096 106.703C160.428 105.476 160.527 104.198 160.387 102.934C160.379 102.865 160.367 102.796 160.35 102.728C160.24 102.231 159.955 101.527 160.031 101.137C160.133 100.614 160.62 100.721 161.06 100.75C162.4 100.856 163.733 101.031 165.055 101.273C165.401 101.334 168.755 102.17 168.807 102.084C168.217 103.026 167.73 104.028 167.354 105.074C167.142 105.693 167.036 106.344 167.04 106.999Z" fill="#EE8E9E"/>
<path d="M196.638 103.86C196.381 104.211 196.073 104.521 195.725 104.781C195.497 104.967 195.264 105.157 195.02 105.327C194.586 105.663 194.068 105.874 193.523 105.937C192.811 105.984 191.295 105.565 190.852 104.956C190.663 104.65 190.571 104.293 190.59 103.933C190.598 103.447 190.681 102.966 190.836 102.505C191.114 101.754 191.503 101.048 191.991 100.413C192.515 99.6963 193.08 98.9928 193.847 98.5586C194.102 98.4217 194.364 98.3003 194.633 98.1951L196.028 97.6249C196.11 97.5843 196.199 97.5611 196.29 97.5569C196.664 97.5569 196.733 98.1323 196.52 98.4409C196.096 99.0634 195.141 99.2255 194.871 99.9396C195.097 99.9467 195.315 100.025 195.494 100.164C195.673 100.302 195.803 100.494 195.866 100.711C195.877 100.826 195.923 100.935 195.999 101.022C196.123 101.119 196.316 101.064 196.455 101.14C196.704 101.271 196.594 101.64 196.62 101.925C196.682 102.167 196.77 102.402 196.882 102.626C196.934 102.837 196.939 103.057 196.897 103.27C196.855 103.483 196.767 103.685 196.638 103.86Z" fill="#EE8E9E"/>
<path d="M155.363 205.693C155.593 205.463 155.97 205.502 156.292 205.552C158.02 205.824 159.766 205.965 161.516 205.973C161.735 204.906 161.099 203.881 160.895 202.798C160.866 202.521 160.795 202.249 160.686 201.992C160.439 201.522 159.884 201.304 159.363 201.208C158.423 201.009 156.952 200.661 156.426 201.61C155.795 202.738 155.593 204.422 155.363 205.693Z" fill="#65617D"/>
<path d="M174.499 201.658C173.79 202.141 172.91 202.291 172.057 202.4C171.203 202.51 170.326 202.594 169.551 202.973C168.886 203.303 168.323 203.841 167.616 204.077C166.96 204.257 166.269 204.268 165.608 204.108C164.823 203.959 163.969 203.671 163.542 202.986C163.16 202.379 163.199 201.608 163.252 200.894C163.314 200.086 163.375 199.272 163.432 198.461C163.43 198.256 163.482 198.054 163.584 197.876C164.158 197.039 165.553 198.223 166.299 198.223C167.483 198.223 168.752 197.58 169.603 196.798C169.68 196.72 169.768 196.655 169.865 196.605C170.203 196.453 170.541 196.733 170.839 196.976L170.941 197.057C171.632 197.604 172.559 197.716 173.413 197.938C174.266 198.161 175.18 198.605 175.444 199.448C175.462 199.5 175.476 199.553 175.486 199.607C175.636 200.379 175.156 201.202 174.499 201.658Z" fill="#3F3D56"/>
<path d="M174.499 201.658C173.79 202.141 172.91 202.291 172.057 202.4C171.203 202.51 170.326 202.594 169.551 202.973C168.886 203.303 168.323 203.841 167.616 204.077C166.96 204.257 166.269 204.268 165.608 204.108C164.823 203.959 163.969 203.671 163.542 202.986C163.16 202.379 163.199 201.608 163.252 200.894C163.314 200.086 163.375 199.272 163.432 198.461C163.43 198.256 163.482 198.054 163.584 197.876C164.158 197.039 165.553 198.223 166.299 198.223C167.483 198.223 168.752 197.58 169.603 196.798C169.68 196.72 169.768 196.655 169.865 196.605C170.203 196.453 170.541 196.733 170.839 196.976L170.941 197.057C171.632 197.604 172.559 197.716 173.413 197.938C174.266 198.161 175.18 198.605 175.444 199.448C175.462 199.5 175.476 199.553 175.486 199.607C175.636 200.379 175.156 201.202 174.499 201.658Z" fill="#434175"/>
<path d="M174.499 201.93C173.79 202.413 172.91 202.565 172.057 202.675C171.203 202.785 170.326 202.866 169.551 203.245C168.886 203.575 168.323 204.114 167.616 204.349C166.96 204.529 166.269 204.54 165.608 204.38C164.763 204.203 164.022 203.703 163.542 202.986C163.16 202.379 163.199 201.608 163.252 200.894C163.314 200.086 163.375 199.272 163.432 198.461C163.43 198.256 163.482 198.054 163.584 197.876C164.158 197.039 165.553 198.223 166.299 198.223C167.483 198.223 168.752 197.58 169.603 196.798C169.68 196.72 169.768 196.655 169.865 196.605C170.203 196.453 170.541 196.733 170.839 196.976C170.643 197.583 170.364 198.161 170.009 198.692C169.722 199.141 169.338 199.521 168.885 199.802C168.432 200.084 167.921 200.26 167.391 200.318C166.867 200.358 166.32 200.253 165.82 200.389C165.32 200.525 164.833 201.048 165.014 201.545C165.194 202.042 165.815 202.134 166.323 202.162C167.042 202.245 167.771 202.194 168.472 202.011C168.891 201.872 169.276 201.642 169.682 201.472C171.415 200.755 173.609 201.155 175.039 199.942C175.175 199.819 175.321 199.707 175.476 199.607C175.856 200.389 175.156 201.488 174.499 201.93Z" fill="#E8EAF2"/>
<path opacity="0.05" d="M174.499 201.93C173.79 202.413 172.91 202.565 172.057 202.675C171.203 202.785 170.326 202.866 169.551 203.245C168.886 203.575 168.323 204.114 167.616 204.349C166.96 204.529 166.269 204.54 165.608 204.38C164.763 204.203 164.022 203.703 163.542 202.986C163.16 202.379 163.199 201.608 163.252 200.894C163.314 200.086 163.375 199.272 163.432 198.461C163.43 198.256 163.482 198.054 163.584 197.876C164.158 197.039 165.553 198.223 166.299 198.223C167.483 198.223 168.752 197.58 169.603 196.798C169.68 196.72 169.768 196.655 169.865 196.605C170.203 196.453 170.541 196.733 170.839 196.976C170.643 197.583 170.364 198.161 170.009 198.692C169.722 199.141 169.338 199.521 168.885 199.802C168.432 200.084 167.921 200.26 167.391 200.318C166.867 200.358 166.32 200.253 165.82 200.389C165.32 200.525 164.833 201.048 165.014 201.545C165.194 202.042 165.815 202.134 166.323 202.162C167.042 202.245 167.771 202.194 168.472 202.011C168.891 201.872 169.276 201.642 169.682 201.472C171.415 200.755 173.609 201.155 175.039 199.942C175.175 199.819 175.321 199.707 175.476 199.607C175.856 200.389 175.156 201.488 174.499 201.93Z" fill="black"/>
<path d="M155.688 148.935C155.14 151.641 155.663 154.454 157.149 156.782C157.554 157.409 158.031 158 158.337 158.683C158.537 159.171 158.692 159.676 158.801 160.192L160.11 165.632C160.466 167.102 160.825 168.598 160.717 170.107C160.644 171.153 160.377 172.338 161.026 173.17C161.182 173.328 161.314 173.509 161.416 173.706C161.479 173.937 161.479 174.181 161.416 174.412C160.751 178.364 160.256 182.494 161.458 186.315C162.55 189.781 162.613 193.62 163.54 197.13C163.615 197.576 163.813 197.992 164.113 198.331C164.362 198.538 164.659 198.678 164.977 198.739C166.344 199.066 167.786 198.684 169.059 198.095C169.954 197.68 170.918 196.952 170.842 195.972C170.805 195.503 170.533 195.093 170.347 194.664C169.983 193.819 169.954 192.878 169.855 191.962C169.609 189.666 168.899 187.448 168.365 185.204C167.831 182.96 167.464 180.608 167.917 178.343C168.845 173.659 170.327 169.103 172.334 164.769C172.422 164.539 172.561 164.332 172.74 164.162C172.941 164.048 173.133 163.917 173.313 163.773C173.452 163.558 173.541 163.315 173.575 163.061C173.774 162.345 174.361 161.814 174.761 161.186C175.764 159.596 175.447 157.558 175.41 155.68C175.374 153.85 175.636 152.019 175.337 150.209C175.039 148.399 174.018 146.563 172.277 146.008C171.415 145.729 170.483 145.794 169.582 145.883C164.809 146.354 160.17 147.219 155.688 148.935Z" fill="#696791"/>
<path opacity="0.1" d="M155.688 149.197C155.14 151.902 155.663 154.715 157.149 157.043C157.554 157.671 158.031 158.262 158.337 158.944C158.537 159.433 158.692 159.938 158.801 160.454L160.11 165.894C160.466 167.364 160.825 168.86 160.717 170.369C160.644 171.415 160.377 172.6 161.026 173.431C161.182 173.59 161.314 173.77 161.416 173.968C161.479 174.199 161.479 174.443 161.416 174.674C160.751 178.626 160.256 182.756 161.458 186.577C162.55 190.042 162.613 193.882 163.54 197.392C163.615 197.838 163.813 198.254 164.113 198.592C164.362 198.799 164.659 198.94 164.977 199C166.344 199.327 167.786 198.945 169.059 198.357C169.954 197.941 170.918 197.214 170.842 196.233C170.805 195.765 170.533 195.354 170.347 194.925C169.983 194.081 169.954 193.139 169.855 192.224C169.609 189.927 168.899 187.709 168.365 185.465C167.831 183.221 167.464 180.87 167.917 178.605C168.845 173.921 170.327 169.364 172.334 165.031C172.422 164.8 172.561 164.593 172.74 164.424C172.941 164.309 173.133 164.179 173.313 164.034C173.452 163.819 173.541 163.576 173.575 163.323C173.774 162.606 174.361 162.075 174.761 161.447C175.764 159.857 175.447 157.82 175.41 155.942C175.374 154.111 175.636 152.28 175.337 150.47C175.039 148.66 174.018 146.824 172.277 146.27C171.415 145.99 170.483 146.055 169.582 146.144C164.809 146.615 160.17 147.481 155.688 149.197Z" fill="black"/>
<path d="M175.135 160.388C175.121 161.097 175.041 161.804 174.897 162.499C174.054 167.207 173.157 171.914 172.206 176.622C172.122 177.03 172.041 177.438 171.931 177.838C171.572 179.146 170.948 180.365 170.098 181.422C166.131 186.362 165.788 193.536 163.636 199.494C163.49 199.897 163.346 200.303 163.191 200.7C162.802 201.709 162.359 202.697 161.864 203.658C161.809 203.797 161.719 203.919 161.602 204.011C161.469 204.08 161.319 204.11 161.17 204.098C159.233 204.107 157.32 203.672 155.578 202.827C155.329 202.734 155.12 202.559 154.983 202.332C154.918 202.151 154.896 201.956 154.92 201.765C154.981 200.585 155.054 199.361 155.617 198.323C155.991 197.702 156.455 197.14 156.994 196.654C157.119 192.941 157.572 189.246 158.345 185.612C158.764 183.76 159.282 181.89 160.358 180.326C161.144 179.17 162.291 178.029 162.149 176.635C162.089 176.023 161.832 175.262 162.33 174.904C162.547 174.744 162.869 174.723 163.018 174.498C163.077 174.392 163.11 174.274 163.115 174.153C163.217 173.197 163.157 172.231 162.937 171.295C162.756 170.682 162.614 170.06 162.51 169.43C162.462 169.114 162.479 168.791 162.559 168.482C162.64 168.172 162.783 167.883 162.979 167.63C163.005 166.357 162.979 165.036 162.997 163.765C163.048 163.04 162.987 162.313 162.817 161.607C162.723 161.275 162.573 160.956 162.5 160.616C162.238 159.394 162.898 157.93 162.107 156.954C161.777 156.551 161.269 156.35 160.837 156.059C159.99 155.446 159.376 154.563 159.094 153.556C158.812 152.555 158.645 151.525 158.596 150.486C158.571 150.266 158.571 150.044 158.596 149.824C158.609 149.71 158.639 149.598 158.685 149.492C158.931 148.94 159.591 148.726 160.18 148.584C163.92 147.689 167.753 147.241 171.598 147.251C173.022 146.283 173.821 146.631 174.426 147.653C174.758 148.28 175.027 148.938 175.23 149.618C175.491 150.449 175.523 155.11 175.79 155.939C176.13 157.025 175.122 159.248 175.135 160.388Z" fill="#696791"/>
<path d="M149.415 118.033C149.31 118.766 149.661 119.485 149.7 120.225C149.734 120.871 149.527 121.501 149.412 122.137C148.951 124.616 149.834 127.13 150.721 129.489C150.892 129.872 150.999 130.28 151.035 130.697C151.059 131.466 150.616 132.173 150.493 132.934C150.232 134.532 151.418 136.033 151.444 137.641C151.444 138.387 151.219 139.145 151.407 139.865C151.53 140.346 151.831 140.762 152.043 141.209C152.423 141.994 152.525 142.909 152.886 143.712C153.538 145.164 154.939 146.113 156.274 146.984C157.031 146.722 157.845 146.432 158.269 145.749C158.453 145.414 158.571 145.046 158.618 144.667C158.906 143.011 158.895 141.321 158.879 139.642C158.908 138.197 158.835 136.751 158.662 135.316C158.4 133.485 157.801 131.733 157.374 129.936C156.85 127.674 156.565 125.336 155.73 123.162C154.994 121.256 153.852 119.542 152.648 117.9C152.19 117.275 151.826 116.38 150.936 116.524C150.558 116.589 150.209 116.769 149.937 117.039C149.665 117.309 149.482 117.656 149.415 118.033Z" fill="#434175"/>
<path opacity="0.05" d="M149.415 117.51C149.31 118.243 149.661 118.962 149.7 119.702C149.734 120.348 149.527 120.978 149.412 121.614C148.951 124.093 149.834 126.607 150.721 128.966C150.892 129.348 150.999 129.757 151.035 130.174C151.059 130.943 150.616 131.649 150.493 132.411C150.232 134.009 151.418 135.51 151.444 137.118C151.444 137.864 151.219 138.622 151.407 139.342C151.53 139.823 151.831 140.239 152.043 140.686C152.423 141.471 152.525 142.386 152.886 143.189C153.538 144.64 154.939 145.59 156.274 146.461C157.031 146.199 157.845 145.909 158.269 145.226C158.453 144.89 158.571 144.523 158.618 144.144C158.906 142.488 158.895 140.798 158.879 139.119C158.908 137.674 158.835 136.228 158.662 134.793C158.4 132.962 157.801 131.21 157.374 129.413C156.85 127.151 156.565 124.813 155.73 122.639C154.994 120.733 153.852 119.019 152.648 117.377C152.19 116.752 151.826 115.857 150.936 116.001C150.558 116.066 150.209 116.246 149.937 116.516C149.665 116.786 149.482 117.133 149.415 117.51Z" fill="black"/>
<path opacity="0.1" d="M168.784 102.076C168.194 103.018 167.707 104.02 167.331 105.066C166.791 105.199 166.237 105.265 165.681 105.265C163.521 105.265 161.995 104.038 160.725 102.487C160.615 101.99 159.94 101.527 160.008 101.137C160.11 100.614 160.597 100.721 161.037 100.75C162.377 100.856 163.71 101.031 165.032 101.273C165.378 101.315 168.732 102.163 168.784 102.076Z" fill="black"/>
<path d="M165.681 105.076C169.5 105.076 172.596 101.984 172.596 98.1688C172.596 94.3539 169.5 91.2614 165.681 91.2614C161.862 91.2614 158.767 94.3539 158.767 98.1688C158.767 101.984 161.862 105.076 165.681 105.076Z" fill="#EE8E9E"/>
<path opacity="0.1" d="M174.418 147.659C173.221 147.588 172.014 147.638 170.815 147.685C170.064 147.693 169.314 147.77 168.577 147.915C167.668 148.122 166.82 148.535 165.925 148.794C164.49 149.21 162.976 149.228 161.492 149.374C160.516 149.468 159.546 149.62 158.588 149.83C158.601 149.715 158.631 149.603 158.677 149.497C158.924 148.946 159.583 148.731 160.172 148.59C163.912 147.694 167.745 147.247 171.59 147.256C173.015 146.301 173.813 146.636 174.418 147.659Z" fill="black"/>
<path d="M169.705 109.478C169.404 109.826 168.999 110.21 168.553 110.098C168.391 110.042 168.239 109.961 168.103 109.857C167.318 109.334 166.328 109.224 165.391 109.073C163.501 108.788 161.633 108.369 159.803 107.817C159.271 107.625 158.714 107.512 158.149 107.482C156.978 107.482 155.939 108.267 155.206 109.177C154.473 110.087 153.949 111.157 153.229 112.08C152.706 112.74 152.103 113.32 151.624 114.003C150.415 115.726 150.153 117.976 150.467 120.058C150.781 122.139 151.611 124.104 152.439 126.042C152.877 127.173 153.415 128.264 154.046 129.301C153.769 130.87 153.915 132.701 154.669 134.113C154.913 134.576 155.214 135.026 155.295 135.544C155.332 135.893 155.318 136.245 155.253 136.59L154.9 139.09C154.792 139.851 154.685 140.613 154.546 141.371C154.284 142.755 153.949 144.248 154.591 145.509C155.358 147.01 154.551 148.932 154.753 150.606C156.917 149.771 159.184 149.233 161.492 149.008C162.977 148.862 164.49 148.843 165.925 148.428C166.82 148.166 167.669 147.755 168.577 147.546C169.315 147.402 170.064 147.326 170.816 147.319C172.473 147.253 174.141 147.185 175.79 147.428C175.921 147.449 176.083 147.46 176.165 147.353C176.198 147.293 176.216 147.225 176.214 147.156C176.239 146.543 176.092 145.934 175.79 145.399C175.581 145.03 175.29 144.669 175.298 144.245C175.312 144.048 175.361 143.854 175.442 143.673L176.167 141.737C176.782 140.103 176.489 138.204 176.809 136.488C177.058 135.146 177.217 133.789 177.285 132.426C177.345 131.262 177.309 130.002 176.604 129.07C176.401 128.845 176.225 128.597 176.081 128.33C175.979 128.048 175.936 127.748 175.955 127.449C175.939 125.119 176.003 122.79 176.146 120.46C175.534 119.359 174.892 118.235 174.279 117.133C173.565 115.852 172.842 114.544 172.554 113.106C172.363 112.156 172.368 111.175 172.232 110.216C172.217 109.971 172.133 109.736 171.989 109.538C171.855 109.422 171.698 109.335 171.528 109.285C171.358 109.235 171.179 109.222 171.004 109.248C170.562 109.257 170.124 109.335 169.705 109.478Z" fill="#434175"/>
<path opacity="0.1" d="M195.02 105.327C194.586 105.663 194.068 105.874 193.523 105.937C192.811 105.984 191.295 105.565 190.852 104.956C190.663 104.65 190.571 104.293 190.59 103.933C190.687 103.903 190.787 103.883 190.889 103.876C191.662 103.792 192.444 103.824 193.209 103.97C193.963 104.153 194.69 104.611 195.007 105.32L195.02 105.327Z" fill="black"/>
<path d="M172.015 120.267C172.436 120.79 172.874 121.329 173.47 121.64C174.159 121.996 174.968 122.004 175.74 121.988C178.927 121.917 182.101 121.567 185.226 120.942C185.583 120.88 185.933 120.787 186.273 120.662C186.647 120.483 186.998 120.262 187.321 120.003C188.35 119.265 189.394 118.512 190.177 117.515C191.107 116.312 191.691 114.879 191.868 113.37C192.612 112.687 193.007 111.712 193.379 110.773C193.563 110.374 193.68 109.948 193.725 109.512C193.743 109.065 193.447 108.597 193.531 108.157C193.673 107.399 194.058 106.707 194.628 106.185C194.749 106.099 194.841 105.978 194.89 105.837C194.906 105.721 194.885 105.603 194.83 105.5C194.51 104.791 193.782 104.336 193.028 104.15C192.263 104.003 191.48 103.971 190.706 104.056C190.448 104.105 190.194 104.173 189.947 104.26L189.405 105.68C189.333 105.919 189.213 106.14 189.051 106.329C188.931 106.439 188.804 106.539 188.669 106.63C188.394 106.862 188.181 107.159 188.048 107.493C187.915 107.828 187.867 108.19 187.907 108.547C187.418 108.737 187.02 109.105 186.794 109.577C186.567 110.049 186.529 110.59 186.687 111.089C186.28 111.177 185.903 111.367 185.591 111.642C185.279 111.917 185.042 112.267 184.904 112.659C184.866 112.838 184.786 113.005 184.671 113.148C184.496 113.283 184.279 113.353 184.058 113.346C183.446 113.383 182.912 113.869 182.359 113.608C181.73 113.315 181.027 113.216 180.341 113.325C180.199 113.359 180.054 113.372 179.909 113.365C179.785 113.343 179.665 113.302 179.555 113.242C179.306 113.097 179.036 112.991 178.754 112.928C178.613 112.898 178.465 112.909 178.331 112.961C178.196 113.013 178.079 113.104 177.995 113.221C177.801 113.009 177.686 112.737 177.51 112.509C177.432 112.388 177.321 112.292 177.191 112.229C177.061 112.167 176.916 112.142 176.772 112.156C176.955 111.994 176.772 111.667 176.528 111.607C176.283 111.589 176.036 111.597 175.793 111.633C175.154 111.633 174.662 111.05 174.041 110.898C173.47 110.76 172.709 110.927 172.415 110.417C172.313 110.237 172.292 109.991 172.117 109.894C171.997 109.835 171.86 109.819 171.729 109.85C171.324 109.903 170.931 110.022 170.564 110.203C169.965 112.557 170.279 114.973 170.734 117.343C170.903 118.411 171.344 119.418 172.015 120.267Z" fill="#434175"/>
<path opacity="0.1" d="M171.996 128.649L169.02 134.649C169.342 134.092 170.02 133.865 170.556 133.522C171.234 133.03 171.743 132.342 172.015 131.55C172.284 130.761 172.473 129.947 172.578 129.12C172.638 128.741 172.764 128.207 172.578 127.862C172.248 127.933 172.138 128.37 171.996 128.649Z" fill="black"/>
<path opacity="0.1" d="M163.43 133.747C162.757 134.411 161.935 134.9 161.196 135.489C159.468 136.865 158.238 138.748 157.036 140.597C156.696 141.08 156.411 141.6 156.185 142.145C156.326 142.266 156.536 142.145 156.677 142.017L159.015 139.967C159.304 139.733 159.567 139.47 159.801 139.182C160.207 138.635 160.387 137.955 160.756 137.383C161.158 136.834 161.637 136.347 162.178 135.936C162.715 135.476 165.181 133.391 164.582 132.581C164.139 132.79 163.783 133.391 163.43 133.747Z" fill="black"/>
<path d="M168.537 107.744C167.771 107.321 166.932 107.045 166.063 106.931C165.548 106.814 165.019 106.776 164.492 106.818C164.005 106.878 163.537 107.067 163.047 107.08C162.359 107.119 161.701 106.839 161.036 106.659C160.371 106.478 159.604 106.397 159.047 106.808C158.927 106.925 158.776 107.005 158.612 107.038C158.443 107.015 158.286 106.938 158.164 106.818C157.694 106.482 157.123 106.315 156.546 106.346C155.968 106.376 155.418 106.602 154.986 106.986C153.719 108.173 153.863 110.493 152.368 111.395C151.959 111.657 151.435 111.774 151.195 112.18C151.136 112.312 151.069 112.439 150.993 112.562C150.894 112.673 150.773 112.762 150.637 112.823C150.206 113.015 149.795 113.251 149.412 113.527C149.22 113.666 149.059 113.842 148.938 114.044C148.817 114.247 148.739 114.472 148.707 114.706C148.702 115.049 148.775 115.388 148.922 115.698C149.649 117.479 150.911 118.992 152.533 120.028C154.156 121.064 156.06 121.574 157.984 121.486C158.326 121.505 158.663 121.4 158.934 121.19C159.076 121.029 159.189 120.844 159.266 120.644C159.966 119.181 161.277 118.101 162.11 116.72C162.605 115.891 162.924 114.963 163.442 114.147C164.228 112.91 165.417 111.994 166.584 111.108C167.244 110.608 167.975 110.082 168.802 110.116C169.538 110.148 170.074 110.187 169.802 109.287C169.578 108.639 169.13 108.091 168.537 107.744Z" fill="#434175"/>
<path opacity="0.05" d="M168.537 107.744C167.771 107.321 166.932 107.045 166.063 106.931C165.548 106.814 165.019 106.776 164.492 106.818C164.005 106.878 163.537 107.067 163.047 107.08C162.359 107.119 161.701 106.839 161.036 106.659C160.371 106.478 159.604 106.397 159.047 106.808C158.927 106.925 158.776 107.005 158.612 107.038C158.443 107.015 158.286 106.938 158.164 106.818C157.694 106.482 157.123 106.315 156.546 106.346C155.968 106.376 155.418 106.602 154.986 106.986C153.719 108.173 153.863 110.493 152.368 111.395C151.959 111.657 151.435 111.774 151.195 112.18C151.136 112.312 151.069 112.439 150.993 112.562C150.894 112.673 150.773 112.762 150.637 112.823C150.206 113.015 149.795 113.251 149.412 113.527C149.22 113.666 149.059 113.842 148.938 114.044C148.817 114.247 148.739 114.472 148.707 114.706C148.702 115.049 148.775 115.388 148.922 115.698C149.649 117.479 150.911 118.992 152.533 120.028C154.156 121.064 156.06 121.574 157.984 121.486C158.326 121.505 158.663 121.4 158.934 121.19C159.076 121.029 159.189 120.844 159.266 120.644C159.966 119.181 161.277 118.101 162.11 116.72C162.605 115.891 162.924 114.963 163.442 114.147C164.228 112.91 165.417 111.994 166.584 111.108C167.244 110.608 167.975 110.082 168.802 110.116C169.538 110.148 170.074 110.187 169.802 109.287C169.578 108.639 169.13 108.091 168.537 107.744Z" fill="black"/>
<path d="M172.138 207.859C171.635 208.327 170.946 208.531 170.279 208.675C168.752 208.973 167.206 209.164 165.652 209.248L164.142 209.363C162.668 209.475 161.191 209.588 159.712 209.593C157.884 209.598 156.06 209.441 154.261 209.122C154.178 209.119 154.097 209.099 154.023 209.063C153.948 209.027 153.882 208.976 153.829 208.913C153.772 208.808 153.75 208.688 153.763 208.57C153.795 206.73 154.019 204.898 154.433 203.104C154.604 202.369 155.926 204.019 155.986 204.09C156.122 204.282 156.302 204.44 156.511 204.551C156.72 204.661 156.952 204.721 157.188 204.725C158.709 204.809 160.413 203.886 161.62 203.065C161.88 202.872 162.155 202.701 162.442 202.555C162.654 202.46 162.878 202.397 163.107 202.366C163.89 202.294 164.677 202.453 165.369 202.824C166.278 203.274 167.074 203.92 167.988 204.393C168.719 204.768 169.509 205.017 170.323 205.131C171.145 205.243 172.13 205.298 172.551 206.01C172.886 206.598 172.635 207.393 172.138 207.859Z" fill="#434175"/>
<path d="M172.137 208.131C171.635 208.599 170.946 208.803 170.279 208.947C168.752 209.245 167.206 209.436 165.652 209.52L164.141 209.635C162.667 209.747 161.191 209.86 159.712 209.865C157.884 209.872 156.06 209.714 154.26 209.394C154.178 209.391 154.097 209.372 154.023 209.336C153.948 209.301 153.882 209.25 153.828 209.187C153.686 208.999 153.573 208.791 153.491 208.57C153.522 206.739 154.014 204.895 154.433 203.104C154.603 202.369 155.926 204.019 155.986 204.09C156.122 204.282 156.302 204.44 156.511 204.551C156.72 204.661 156.951 204.721 157.188 204.725C158.709 204.809 160.413 203.886 161.62 203.065C161.88 202.872 162.155 202.702 162.442 202.555C162.654 202.46 162.878 202.397 163.107 202.366C162.911 203.46 161.343 204.78 160.531 205.183C158.892 205.997 156.944 205.589 155.117 205.685C154.983 205.683 154.85 205.714 154.732 205.777C154.514 205.923 154.501 206.235 154.507 206.496C154.522 206.93 154.577 207.443 154.957 207.663C155.146 207.754 155.354 207.798 155.564 207.791C160.07 207.988 164.585 207.829 169.066 207.317C169.82 207.268 170.562 207.103 171.266 206.828C171.726 206.613 172.155 206.337 172.541 206.007C173.117 206.457 172.635 207.665 172.137 208.131Z" fill="#E8EAF2"/>
<path d="M168.373 98.0956C168.346 98.8097 168.833 100.188 167.496 99.8088C166.71 99.5786 166.474 98.6344 165.464 98.8437C164.453 99.0529 164.218 100.3 163.877 101.114C163.599 101.76 163.168 102.33 162.62 102.772C162.073 103.215 161.426 103.519 160.735 103.656C160.45 103.723 160.154 103.723 159.869 103.656C159.217 103.47 158.845 102.798 158.578 102.176C158.347 101.648 158.157 101.105 158.007 100.549C157.902 100.159 157.833 99.7593 157.8 99.3563C157.778 99.0821 157.778 98.8066 157.8 98.5324C157.921 96.9082 158.848 95.4279 160.031 94.3084C161.214 93.189 162.649 92.3782 164.076 91.5805C164.541 91.2921 165.043 91.0686 165.569 90.9162C166.086 90.8131 166.616 90.792 167.139 90.8534C167.832 90.8818 168.512 91.0415 169.145 91.3242C169.404 91.4518 169.641 91.6185 169.849 91.8185C170.146 92.0925 170.359 92.4455 170.462 92.8359C170.724 93.8821 170.048 94.8315 169.504 95.6606C169.006 96.3956 168.407 97.175 168.373 98.0956Z" fill="#434175"/>
<path opacity="0.1" d="M190.865 113.425C190.58 112.706 189.381 110.715 189.727 110.025C190.088 110.535 190.394 111.082 190.64 111.657C190.865 112.219 190.687 112.967 190.865 113.425Z" fill="black"/>
<path opacity="0.1" d="M169.519 95.658C170.064 94.8289 170.734 93.8821 170.478 92.8333C170.351 92.3705 170.074 91.9624 169.692 91.672C169.781 91.825 169.848 91.9896 169.891 92.1611C170.153 93.2073 169.477 94.1541 168.933 94.9858C168.448 95.7234 167.849 96.5054 167.812 97.4234C167.786 98.1374 168.276 99.5158 166.938 99.1365C166.152 98.9064 165.917 97.9622 164.903 98.1714C163.89 98.3807 163.66 99.6256 163.317 100.442C163.039 101.088 162.608 101.658 162.06 102.101C161.513 102.544 160.866 102.847 160.175 102.984C159.89 103.051 159.593 103.051 159.308 102.984C159.162 102.941 159.023 102.873 158.9 102.783C159.104 103.19 159.458 103.503 159.887 103.656C160.173 103.721 160.47 103.721 160.756 103.656C161.447 103.517 162.094 103.213 162.641 102.77C163.188 102.327 163.62 101.758 163.898 101.111C164.241 100.295 164.464 99.0555 165.485 98.8436C166.506 98.6318 166.72 99.5759 167.519 99.8061C168.857 100.193 168.367 98.807 168.393 98.093C168.435 97.1776 169.038 96.3955 169.519 95.658Z" fill="black"/>
<path opacity="0.1" d="M169.815 94.2378C169.692 94.4414 169.555 94.6371 169.407 94.8237C169.125 95.1798 168.808 95.5074 168.462 95.8019C168.255 95.9797 168.043 96.1445 167.823 96.3014C167.413 96.5904 166.981 96.8483 166.532 97.073C165.203 97.6908 163.82 98.1855 162.401 98.5507L159.641 99.3537C159.301 99.6152 158.68 100.07 157.997 100.549C157.892 100.159 157.822 99.7593 157.79 99.3563C157.768 99.0821 157.768 98.8066 157.79 98.5324C157.911 96.9082 158.837 95.4279 160.021 94.3084C161.204 93.189 162.639 92.3782 164.066 91.5805C164.531 91.2921 165.033 91.0686 165.558 90.9162C166.075 90.8131 166.605 90.792 167.129 90.8534C167.822 90.8818 168.502 91.0415 169.135 91.3242C169.394 91.4518 169.631 91.6185 169.839 91.8185C169.995 92.0479 170.114 92.3003 170.192 92.5665C170.365 93.1289 170.124 93.7304 169.815 94.2378Z" fill="black"/>
<path d="M169.815 94.0521C169.691 94.2557 169.555 94.4514 169.407 94.638C169.124 94.9941 168.808 95.3217 168.462 95.6162C168.255 95.794 168.043 95.9588 167.823 96.1157C167.412 96.4038 166.98 96.6616 166.532 96.8873C165.203 97.5051 163.82 97.9998 162.401 98.365L159.641 99.1654C158.677 99.8951 155.452 102.28 154.91 101.982C154.271 101.632 157.772 99.1549 157.772 99.1549L157.931 99.2778C157.408 98.9561 157.146 98.2107 157.036 97.5647C156.832 96.4087 156.735 95.2108 157.01 94.0678C157.285 92.9249 157.971 91.8421 159.015 91.3085C159.479 91.0679 160.042 90.9083 160.377 90.5422C160.427 90.4865 160.472 90.4261 160.51 90.3617C160.531 90.3321 160.548 90.3006 160.563 90.2676C160.598 90.1661 160.647 90.0701 160.709 89.9825C160.9 89.7628 161.249 89.8282 161.539 89.8648H161.633C161.685 89.8675 161.736 89.8675 161.788 89.8648C162.835 89.8883 163.833 89.3103 164.883 89.3103C166.032 89.3103 167.011 89.9746 168.024 90.4297C168.229 90.5213 168.422 90.605 168.606 90.6913C169.339 91.0313 169.889 91.3948 170.177 92.3599C170.365 92.9458 170.124 93.55 169.815 94.0521Z" fill="#1990F2"/>
<path opacity="0.1" d="M161.788 89.8805C161.846 89.978 161.867 90.0931 161.846 90.2047C161.826 90.3162 161.767 90.4168 161.678 90.4879C161.551 90.579 161.4 90.6325 161.244 90.6423C161.131 90.6577 161.017 90.6664 160.903 90.6685C160.75 90.6803 160.596 90.6542 160.455 90.5926C160.428 90.5782 160.402 90.5615 160.377 90.5428C160.427 90.4871 160.472 90.4266 160.51 90.3622C160.537 90.3831 160.563 90.3779 160.665 90.3622C160.855 90.3532 161.043 90.3215 161.225 90.2679C161.301 90.2474 161.372 90.2127 161.435 90.1658C161.528 90.0863 161.597 89.9819 161.634 89.8647L161.788 89.8805Z" fill="black"/>
<path opacity="0.1" d="M157.84 99.1288C157.986 99.2199 158.149 99.2804 158.319 99.3068C158.44 99.3375 158.564 99.3576 158.688 99.3671C159.005 99.3509 159.315 99.2612 159.591 99.1052" fill="black"/>
</g>
<defs>
<linearGradient id="paint0_linear" x1="172.818" y1="209.593" x2="172.818" y2="88.6958" gradientUnits="userSpaceOnUse">
<stop stop-color="#808080" stop-opacity="0.25"/>
<stop offset="0.54" stop-color="#808080" stop-opacity="0.12"/>
<stop offset="1" stop-color="#808080" stop-opacity="0.1"/>
</linearGradient>
<clipPath id="clip0">
<rect width="288" height="211" fill="white"/>
</clipPath>
</defs>
</svg>
