<svg width="134" height="188" viewBox="0 0 134 125" fill="none" xmlns="http://www.w3.org/2000/svg">
<path fill-rule="evenodd" clip-rule="evenodd" d="M65.3886 33.0393C62.5393 34.7532 59.7398 35.5812 58.4256 35.2432C55.1304 34.3955 54.8274 22.3653 57.3771 17.6226C59.9268 12.8799 73.0345 10.8127 73.6952 20.2095C73.9245 23.4709 72.5522 26.3814 70.5248 28.7563L74.1602 45.6658H63.6002L65.3886 33.0393Z" fill="#B28B67"/>
<path fill-rule="evenodd" clip-rule="evenodd" d="M61.5481 12.457C62.9911 12.018 65.0857 11.869 65.9669 11.9698C65.4656 10.7713 65.2667 9.43607 65.4289 8.13597C65.5865 6.87269 66.1521 5.79705 66.6753 4.6699C66.9164 4.15036 67.1897 3.63365 67.5971 3.23626C68.0122 2.8314 68.5376 2.56416 69.0885 2.43666C69.6523 2.30616 70.2418 2.31703 70.8065 2.43546C71.0563 2.48785 71.2804 2.60182 71.5254 2.66518C71.7763 2.7301 71.898 2.5734 72.0801 2.41592C72.5189 2.03648 73.1622 1.84916 73.7174 1.78212C74.3403 1.70694 74.9866 1.80071 75.5806 2.00505C76.1589 2.20397 76.7143 2.52699 77.1324 2.99758C77.3185 3.20706 77.4875 3.44548 77.5973 3.70872C77.6423 3.81675 77.6498 3.88075 77.7578 3.92032C77.8577 3.95695 77.9745 3.95802 78.0776 3.99288C79.0746 4.32985 79.927 5.09858 80.3911 6.0856C80.6619 6.66142 80.7902 7.67523 80.7551 8.81156C80.7199 9.94788 79.6918 12.9129 78.7301 13.9944C77.8718 14.9597 76.6101 15.5967 75.3925 15.8755C76.2007 16.7974 76.7387 17.9494 77.1365 19.121C77.5686 20.3937 77.8361 21.716 77.9348 23.0634C78.0286 24.3435 78.0373 25.6973 77.7366 26.9501C77.4553 28.1216 76.8537 29.0828 75.8493 29.6925C75.3893 29.9718 74.8943 30.1816 74.3964 30.3734C73.9058 30.5624 73.4137 30.7461 72.8997 30.8522C71.9271 31.0528 70.8063 31.0183 70.057 30.2457C69.787 29.9672 69.49 29.6172 69.293 29.2769C69.2222 29.1546 69.1795 29.0745 69.2655 28.9549C69.3686 28.8117 69.5354 28.7019 69.6678 28.5899C70.4231 27.9509 70.8906 27.098 71.0085 26.0843C71.1281 25.0558 70.8512 23.7283 69.8492 23.2794C68.6123 22.7253 67.2502 23.3613 66.1508 23.9542C65.6836 22.3085 64.7242 20.8268 63.2202 20.072C61.5562 19.2369 59.6467 19.1392 57.9367 18.4226C57.4911 18.2359 57.0373 18.024 56.7092 17.6435C56.5721 17.4845 56.4113 17.2783 56.3565 17.068C56.2846 16.7918 56.4631 16.5602 56.601 16.3448C57.3322 15.203 60.1052 12.8961 61.5481 12.457Z" fill="#191847"/>
<path fill-rule="evenodd" clip-rule="evenodd" d="M25.6686 114.898C26.4873 123.83 25.669 143.028 25.2286 148.567C24.9518 152.047 20.1984 151.136 19.7547 148.35C19.6795 147.878 19.3733 146.221 18.9162 143.747C16.6753 131.617 10.8103 99.87 10.7999 92.1506C10.7952 88.611 18.6919 85.7805 21.8511 90.0562C24.4485 88.2356 28.1351 87.7475 30.408 91.4246C32.1288 94.2083 36.2173 102.111 40.5776 111.339C44.3974 119.424 50.3662 139.049 50.3662 139.049L45.2989 141.359C45.2989 141.359 32.7819 121.276 24.9006 107.195C25.1623 109.618 25.4223 112.212 25.6686 114.898Z" fill="#B28B67"/>
<path fill-rule="evenodd" clip-rule="evenodd" d="M50.0041 131.783L32.612 90.6672C28.4455 83.9787 16.7638 92.0282 18.1846 95.9075C21.4104 104.715 37.8162 133.227 38.7773 135.851L50.0041 131.783Z" fill="#273469"/>
<path fill-rule="evenodd" clip-rule="evenodd" d="M10.3602 95.3608C10.3602 107.015 15.479 134.409 15.4826 136.975L27.8827 136.558C27.8827 136.558 24.6314 100.832 25.1405 100.589C25.9041 100.226 56.4449 104.808 65.6045 105.154C78.8128 105.652 84.2768 97.566 84.7202 82.2205L59.1352 82.2205C59.1352 82.2205 26.3191 86.1296 15.999 87.6582C11.5808 88.3126 10.3602 92.1504 10.3602 95.3608Z" fill="#2B44FF"/>
<path fill-rule="evenodd" clip-rule="evenodd" d="M48.7615 138.283C49.7402 137.644 51.092 137.777 51.6925 138.78C52.0455 139.369 52.3671 139.986 52.4779 140.431C52.7649 141.582 52.9308 143.886 52.9308 143.886C51.5915 144.22 28.8583 149.888 28.8583 149.888C28.8583 149.888 27.1488 147.029 29.109 146.278C31.0691 145.527 32.3568 144.995 32.3568 144.995L41.8528 137.586C42.2963 137.24 42.9379 137.327 43.2722 137.78L44.0833 138.877C44.0833 138.877 46.1719 139.281 47.342 138.99C47.7552 138.887 48.2693 138.605 48.7615 138.283Z" fill="#E4E4E4"/>
<path fill-rule="evenodd" clip-rule="evenodd" d="M23.5521 141.961C24.6569 141.577 25.9372 142.033 26.2771 143.152C26.4772 143.811 26.6401 144.488 26.6401 144.947C26.6401 146.135 26.2436 148.414 26.2436 148.414C24.8629 148.414 1.42679 148.414 1.42679 148.414C1.42679 148.414 0.459444 145.222 2.54362 144.968C4.62779 144.713 6.00633 144.508 6.00633 144.508L17.0158 139.61C17.53 139.381 18.1317 139.622 18.3466 140.142L18.8683 141.405C18.8683 141.405 20.7977 142.303 22.004 142.303C22.4299 142.303 22.9969 142.154 23.5521 141.961Z" fill="#E4E4E4"/>
<rect width="23.32" height="3.07365" rx="1.53682" transform="matrix(-1 0 0 1 26.2002 148.414)" fill="#2F3676"/>
<path d="M90.4399 94.745C90.4399 89.2222 85.9628 84.745 80.4399 84.745H44.5599C39.0371 84.745 34.5599 89.2221 34.5599 94.745V110.652H86.4399C88.6491 110.652 90.4399 108.861 90.4399 106.652V94.745Z" fill="#2F3676"/>
<path fill-rule="evenodd" clip-rule="evenodd" d="M38.96 84.745C36.2482 84.745 33.9352 86.7085 33.495 89.3843L24 147.096H28.7017" fill="#2F3676"/>
<path fill-rule="evenodd" clip-rule="evenodd" d="M26.2001 155.878C21.826 155.878 18.2801 152.34 18.2801 147.974C18.2801 143.609 21.826 140.071 26.2001 140.071C30.5742 140.071 34.1201 143.609 34.1201 147.974C34.1201 152.34 30.5742 155.878 26.2001 155.878Z" fill="#191847"/>
<path fill-rule="evenodd" clip-rule="evenodd" d="M51.2802 121.629C51.2802 140.059 66.2518 155 84.7202 155C103.189 155 118.16 140.059 118.16 121.629C118.16 103.199 103.189 88.2578 84.7202 88.2578C66.2518 88.2578 51.2802 103.199 51.2802 121.629ZM57.4402 121.629C57.4402 136.664 69.6538 148.853 84.7202 148.853C99.7865 148.853 112 136.664 112 121.629C112 106.594 99.7865 94.4051 84.7202 94.4051C69.6538 94.4051 57.4402 106.594 57.4402 121.629Z" fill="#191847"/>
<rect width="3.52" height="57.9603" transform="matrix(-1 0 0 1 86.48 92.6488)" fill="#191847"/>
<rect width="3.51638" height="58.0202" rx="1.75819" transform="matrix(-0.707835 0.706377 0.707835 0.706377 65.4302 99.8949)" fill="#191847"/>
<rect width="3.51275" height="58.08" rx="1.75637" transform="matrix(0 1 1 0 55.6802 119.873)" fill="#191847"/>
<rect width="3.51637" height="58.0202" rx="1.75819" transform="matrix(0.707836 0.706377 0.707836 -0.706377 62.9414 140.879)" fill="#191847"/>
<path fill-rule="evenodd" clip-rule="evenodd" d="M23.4012 32.0373L40.0789 37.0335L35.8209 44.1124L22.8537 36.4967C16.8005 36.137 13.9405 35.5412 14.2735 34.7094C14.5544 34.008 15.2228 33.8885 15.8385 33.7785C16.3181 33.6927 16.7658 33.6127 16.9732 33.2678C17.447 32.4801 15.7862 30.4297 14.1268 28.5511C12.4674 26.6726 13.7953 26.5851 14.5974 26.7357C17.3554 27.8531 20.29 29.6203 23.4012 32.0373ZM27.5174 76.6621L41.5526 66.3769L44.6553 74.0307L30.7567 79.7822C26.826 84.3901 24.628 86.3109 24.1627 85.5449C23.7704 84.899 24.0771 84.2943 24.3595 83.7374C24.5795 83.3035 24.7849 82.8986 24.6337 82.5257C24.2885 81.674 21.648 81.7637 19.146 81.9557C16.644 82.1477 17.3731 81.0367 17.9764 80.4881C20.5304 78.9625 23.7108 77.6871 27.5174 76.6621Z" fill="#B28B67"/>
<path fill-rule="evenodd" clip-rule="evenodd" d="M63.3532 38.6783C55.7101 52.9004 44.6579 63.8026 28.6351 75.1359L34.702 81.9624C52.5921 75.3277 62.034 71.3247 66.6707 57.8878C67.8345 54.5154 68.6478 43.7648 69.3455 38.1084L63.3532 38.6783Z" fill="#2026A2"/>
<path fill-rule="evenodd" clip-rule="evenodd" d="M84.7197 86.0623H50.8397C50.8397 86.0623 62.3513 51.0262 62.6008 37.969C62.6093 37.5253 63.4306 36.7433 63.794 36.8457C67.7797 37.969 72.3241 36.0056 72.3241 36.0056C80.356 48.8967 83.1336 64.7682 84.7197 86.0623Z" fill="#F2F2F2"/>
<path fill-rule="evenodd" clip-rule="evenodd" d="M63.826 55.6729C58.5345 78.3241 58.7784 96.8666 70.4606 96.8666H88.5254C91.3945 77.6246 83.854 50.9451 76.8633 37.4882C76.5964 36.9743 76.028 36.0056 74.6893 36.0056H69.4402C69.4379 36.0125 69.4355 36.0194 69.4332 36.0264C67.8537 36.0393 66.1142 36.0969 64.2304 36.1593C54.5323 36.4806 41.0098 36.9286 25.794 32.0537L24 40.9996C37.7337 49.8143 51.6403 56.6425 63.826 55.6729Z" fill="#1990F2"/>
</svg>
