<svg width="170" height="120" viewBox="0 0 170 120" fill="none" xmlns="http://www.w3.org/2000/svg">
<path opacity="0.1" d="M144.228 1.39514H113.284C110.999 14.0733 110.999 27.0579 113.284 39.7361C122.345 38.1462 132.874 38.4244 144.228 39.7361C141.925 26.6755 141.819 13.8813 144.228 1.39514Z" fill="black"/>
<path d="M8.66525 118.032C9.26146 116.937 8.58575 115.595 7.81266 114.617C7.03957 113.64 6.10153 112.63 6.1214 111.38C6.15121 109.591 8.04916 108.536 9.56553 107.588C10.6915 106.885 11.7296 106.051 12.6579 105.102C13.0463 104.737 13.3678 104.306 13.6079 103.83C13.9219 103.131 13.9139 102.336 13.894 101.569C13.8265 99.0171 13.6999 96.468 13.5145 93.9216" stroke="#3F3D56" stroke-width="4" stroke-miterlimit="10"/>
<path d="M16.3961 93.7727C16.375 93.3055 16.2365 92.8512 15.9933 92.4518C15.7502 92.0523 15.4102 91.7206 15.005 91.4872L14.3809 92.7214L14.4008 91.2269C13.8355 91.059 13.2314 91.075 12.6758 91.2727C12.1202 91.4704 11.6418 91.8395 11.3096 92.3268C10.9774 92.814 10.8086 93.3942 10.8276 93.9837C10.8466 94.5731 11.0524 95.1412 11.4153 95.6061C11.7782 96.071 12.2794 96.4085 12.8466 96.57C13.4138 96.7315 14.0176 96.7086 14.571 96.5046C15.1243 96.3006 15.5985 95.926 15.9251 95.435C16.2517 94.944 16.4139 94.3619 16.3882 93.7727H16.3961Z" fill="#57B894"/>
<path d="M11.4273 112.65C11.1347 113.217 10.6562 113.666 10.0717 113.923C9.48734 114.179 8.83263 114.226 8.21736 114.057C7.60208 113.888 7.06362 113.513 6.69222 112.994C6.32083 112.475 6.13906 111.844 6.17739 111.207C6.21572 110.57 6.47181 109.966 6.90275 109.495C7.33369 109.025 7.91329 108.717 8.5444 108.622C9.17552 108.528 9.8198 108.654 10.3693 108.978C10.9187 109.303 11.34 109.806 11.5625 110.404L9.81953 111.821L11.7374 111.378C11.7366 111.821 11.6304 112.257 11.4273 112.65Z" fill="#57B894"/>
<path d="M10.046 107.235C9.35128 107.286 8.66235 107.076 8.11544 106.644C7.56852 106.213 7.20341 105.592 7.09228 104.904C6.98114 104.216 7.13208 103.512 7.51524 102.93C7.89841 102.348 8.48592 101.931 9.16165 101.761L9.14575 102.912L9.77774 101.662C10.1445 101.643 10.5114 101.697 10.8573 101.82C11.2031 101.944 11.5211 102.135 11.7929 102.382C12.0647 102.629 12.2848 102.927 12.4407 103.26C12.5966 103.592 12.6851 103.952 12.7012 104.319C12.7175 104.641 12.6771 104.963 12.5819 105.271C12.4135 105.82 12.0794 106.303 11.6254 106.655C11.1713 107.007 10.6197 107.209 10.046 107.235Z" fill="#57B894"/>
<path d="M16.8171 102.73C16.389 102.745 15.963 102.662 15.5724 102.486C15.1817 102.31 14.837 102.046 14.565 101.715C14.2931 101.384 14.1012 100.995 14.0045 100.577C13.9077 100.16 13.9087 99.726 14.0072 99.309C14.1058 98.8921 14.2993 98.5035 14.5727 98.1736C14.8461 97.8438 15.192 97.5815 15.5834 97.4072C15.9748 97.233 16.4011 97.1515 16.8292 97.1691C17.2573 97.1867 17.6755 97.3029 18.0513 97.5087L17.5584 98.8601L18.572 97.8863C19.1152 98.3838 19.4389 99.0763 19.4723 99.8121C19.4856 100.07 19.4622 100.328 19.4027 100.579C19.2639 101.17 18.9365 101.699 18.47 102.087C18.0034 102.475 17.4232 102.701 16.8171 102.73Z" fill="#57B894"/>
<path opacity="0.1" d="M16.0224 94.5139C15.3785 94.5854 14.7525 94.7861 14.1066 94.8259C13.4607 94.8656 12.7512 94.7106 12.3418 94.2098C12.1232 93.9375 12.0119 93.5957 11.827 93.3016C11.6505 93.0265 11.4089 92.7992 11.1235 92.6398C10.9552 92.9916 10.8627 93.3748 10.8521 93.7646C10.8415 94.1544 10.9129 94.5421 11.0617 94.9026C11.2106 95.263 11.4336 95.5881 11.7162 95.8568C11.9988 96.1255 12.3347 96.3318 12.7022 96.4624C13.0696 96.5929 13.4604 96.6447 13.8492 96.6144C14.238 96.5842 14.6161 96.4726 14.959 96.2868C15.3018 96.101 15.6018 95.8452 15.8394 95.536C16.0771 95.2268 16.2471 94.8711 16.3384 94.492C16.2331 94.496 16.1277 94.5039 16.0224 94.5139Z" fill="black"/>
<path opacity="0.1" d="M16.8174 102.729C16.3363 102.754 15.8572 102.653 15.4268 102.437C14.9965 102.22 14.6296 101.896 14.3622 101.495C14.0948 101.095 13.936 100.632 13.9013 100.151C13.8666 99.6707 13.9572 99.1895 14.1642 98.7546C14.3856 98.9041 14.5759 99.0951 14.7247 99.3171C14.9234 99.6172 15.0446 99.963 15.2771 100.239C15.7124 100.75 16.4537 100.917 17.1274 100.885C17.8011 100.853 18.451 100.664 19.1148 100.603C19.2082 100.603 19.3016 100.589 19.397 100.585C19.2573 101.174 18.9303 101.701 18.4651 102.088C17.9999 102.474 17.4216 102.7 16.8174 102.729Z" fill="black"/>
<path opacity="0.1" d="M10.0461 107.235C9.5695 107.259 9.09473 107.16 8.66739 106.948C8.24005 106.735 7.87449 106.417 7.60585 106.022C7.33721 105.628 7.17452 105.171 7.1334 104.696C7.09228 104.22 7.17412 103.742 7.37105 103.308C7.60246 103.459 7.80448 103.651 7.96727 103.874C8.18389 104.18 8.31904 104.532 8.56348 104.814C9.03449 105.339 9.82547 105.524 10.537 105.506C11.2484 105.488 11.8943 105.321 12.58 105.269C12.412 105.818 12.0783 106.302 11.6247 106.654C11.171 107.006 10.6196 107.209 10.0461 107.235Z" fill="black"/>
<path opacity="0.1" d="M11.4273 112.65C11.1255 113.324 10.5682 113.851 9.87796 114.115C9.18771 114.378 8.42105 114.357 7.74665 114.055C7.07224 113.753 6.54533 113.196 6.28183 112.506C6.01832 111.816 6.03981 111.049 6.34157 110.375C6.57172 110.524 6.77806 110.708 6.95368 110.919C7.21999 111.243 7.39488 111.609 7.70094 111.913C8.27132 112.473 9.19147 112.708 10.0123 112.726C10.485 112.728 10.9574 112.702 11.4273 112.65Z" fill="black"/>
<path d="M4.45752 117.557C4.45752 117.557 6.65954 116.694 7.32332 116.221C7.98711 115.748 10.7019 115.184 10.8728 115.943C11.0437 116.702 14.1818 119.719 11.6975 119.731C9.21332 119.743 5.92222 120.138 5.25844 119.731C4.59465 119.323 4.45752 117.557 4.45752 117.557Z" fill="#656380"/>
<path opacity="0.2" d="M11.7413 119.466C9.25506 119.486 5.96594 119.864 5.30415 119.466C4.79935 119.16 4.59863 118.057 4.53105 117.549H4.45752C4.45752 117.549 4.59664 119.323 5.25247 119.735C5.90831 120.146 9.20537 119.751 11.6916 119.735C12.409 119.735 12.6555 119.474 12.6416 119.095C12.5481 119.319 12.2759 119.462 11.7413 119.466Z" fill="black"/>
<path d="M162.422 117.155C161.48 115.41 162.55 113.272 163.778 111.716C165.006 110.16 166.506 108.536 166.475 106.549C166.429 103.697 163.404 102.016 160.985 100.504C159.193 99.3824 157.539 98.0529 156.059 96.5429C155.463 95.9467 154.892 95.2889 154.544 94.5158C154.044 93.4009 154.057 92.1311 154.089 90.9129C154.194 86.8442 154.393 82.7808 154.685 78.7228" stroke="#3F3D56" stroke-width="4" stroke-miterlimit="10"/>
<path d="M150.099 78.5084C150.133 77.7641 150.354 77.0403 150.741 76.4039C151.129 75.7676 151.671 75.2392 152.316 74.8676L153.31 76.8351L153.28 74.4502C154.184 74.1828 155.15 74.2096 156.038 74.5268C156.925 74.844 157.689 75.4352 158.219 76.2149C158.749 76.9946 159.017 77.9226 158.985 78.8647C158.953 79.8068 158.622 80.7143 158.04 81.4562C157.459 82.198 156.656 82.7359 155.749 82.9919C154.842 83.248 153.877 83.2091 152.993 82.8808C152.11 82.5525 151.353 81.9519 150.833 81.1656C150.313 80.3793 150.057 79.4481 150.101 78.5064L150.099 78.5084Z" fill="#57B894"/>
<path d="M158.025 108.594C158.491 109.501 159.255 110.22 160.188 110.63C161.122 111.04 162.168 111.117 163.151 110.848C164.135 110.578 164.995 109.979 165.589 109.15C166.183 108.321 166.474 107.313 166.413 106.296C166.352 105.278 165.942 104.312 165.254 103.56C164.565 102.808 163.639 102.316 162.63 102.166C161.622 102.016 160.593 102.218 159.715 102.737C158.837 103.256 158.165 104.061 157.81 105.017L160.593 107.276L157.538 106.567C157.537 107.272 157.703 107.967 158.025 108.594Z" fill="#57B894"/>
<path d="M160.221 99.9634C161.311 100.014 162.382 99.6611 163.229 98.9729C164.076 98.2847 164.64 97.3089 164.814 96.2315C164.988 95.154 164.76 94.0501 164.173 93.1302C163.586 92.2102 162.68 91.5384 161.63 91.2428L161.654 93.0751L160.648 91.0878H160.636C160.05 91.0562 159.464 91.1407 158.911 91.3367C158.359 91.5326 157.85 91.8359 157.415 92.2293C156.98 92.6226 156.627 93.0982 156.376 93.6285C156.126 94.1588 155.983 94.7335 155.956 95.3194C155.928 95.9053 156.017 96.4908 156.217 97.0422C156.417 97.5936 156.724 98.1 157.12 98.5322C157.517 98.9644 157.995 99.3139 158.527 99.5606C159.059 99.8072 159.635 99.9462 160.221 99.9693V99.9634Z" fill="#57B894"/>
<path d="M149.429 92.7932C150.117 92.8254 150.803 92.6975 151.432 92.4196C152.062 92.1417 152.619 91.7213 153.058 91.1917C153.498 90.6621 153.809 90.0376 153.966 89.3675C154.123 88.6974 154.122 87.9999 153.964 87.33C153.806 86.6602 153.494 86.0362 153.054 85.5073C152.613 84.9784 152.056 84.559 151.426 84.2821C150.796 84.0052 150.11 83.8784 149.422 83.9117C148.735 83.945 148.064 84.1375 147.464 84.474L148.259 86.6263L146.643 85.0762C145.997 85.6689 145.54 86.4397 145.331 87.2914C145.121 88.1431 145.169 89.0377 145.466 89.8626C145.764 90.6875 146.299 91.4059 147.005 91.9274C147.71 92.4488 148.553 92.7501 149.429 92.7932Z" fill="#57B894"/>
<path opacity="0.1" d="M150.695 79.6928C151.722 79.8061 152.72 80.126 153.749 80.1896C154.779 80.2532 155.91 80.0068 156.559 79.1959C156.911 78.7647 157.086 78.2201 157.382 77.7491C157.664 77.3121 158.048 76.9505 158.501 76.6958C158.787 77.2593 158.95 77.8774 158.979 78.5088C159.008 79.1403 158.901 79.7705 158.667 80.3576C158.433 80.9447 158.076 81.475 157.62 81.9133C157.165 82.3516 156.621 82.6877 156.026 82.8993C155.43 83.1108 154.796 83.193 154.166 83.1402C153.536 83.0873 152.925 82.9008 152.373 82.5931C151.821 82.2853 151.341 81.8633 150.965 81.3553C150.589 80.8473 150.325 80.2649 150.192 79.6471C150.361 79.663 150.528 79.6769 150.695 79.6928Z" fill="black"/>
<path opacity="0.1" d="M149.429 92.7931C150.198 92.8299 150.963 92.6667 151.65 92.3195C152.336 91.9724 152.921 91.4531 153.347 90.8124C153.773 90.1717 154.026 89.4315 154.081 88.664C154.135 87.8965 153.99 87.128 153.659 86.4335C153.305 86.6713 153.001 86.9758 152.764 87.3298C152.448 87.8068 152.256 88.3593 151.884 88.7985C151.192 89.6113 150.008 89.8776 148.935 89.8299C147.861 89.7822 146.828 89.4762 145.755 89.3768C145.606 89.3649 145.457 89.3549 145.306 89.3509C145.524 90.296 146.044 91.1438 146.789 91.7653C147.533 92.3867 148.461 92.7477 149.429 92.7931Z" fill="black"/>
<path opacity="0.1" d="M160.221 99.9633C160.98 99.9988 161.735 99.8393 162.414 99.5002C163.093 99.1611 163.675 98.6536 164.102 98.026C164.53 97.3985 164.79 96.6719 164.857 95.9155C164.924 95.1591 164.796 94.3981 164.486 93.7051C164.119 93.9457 163.801 94.2523 163.546 94.6093C163.2 95.0962 162.985 95.6567 162.58 96.1078C161.831 96.9425 160.571 97.2366 159.434 97.2088C158.333 97.185 157.274 96.9147 156.179 96.8312C156.448 97.706 156.981 98.4764 157.704 99.037C158.428 99.5976 159.307 99.9211 160.221 99.9633Z" fill="black"/>
<path opacity="0.1" d="M158.025 108.594C158.544 109.607 159.432 110.382 160.506 110.76C161.58 111.138 162.758 111.089 163.797 110.624C164.836 110.159 165.657 109.313 166.091 108.261C166.525 107.208 166.539 106.029 166.129 104.967C165.763 105.207 165.434 105.501 165.154 105.838C164.73 106.352 164.452 106.937 163.961 107.416C163.053 108.308 161.586 108.676 160.281 108.709C159.527 108.715 158.774 108.676 158.025 108.594Z" fill="black"/>
<path d="M169.126 115.941C169.126 115.941 165.618 115.039 164.555 114.285C163.492 113.532 159.157 112.634 158.895 113.84C158.633 115.047 153.622 119.846 157.583 119.878C161.544 119.91 166.787 120.057 167.842 119.413C168.897 118.769 169.126 115.941 169.126 115.941Z" fill="#656380"/>
<path opacity="0.2" d="M157.52 119.458C161.481 119.49 166.723 119.635 167.779 118.993C168.574 118.503 168.902 116.748 169.009 115.937H169.126C169.126 115.937 168.904 118.767 167.848 119.409C166.793 120.051 161.55 119.906 157.589 119.874C156.447 119.874 156.051 119.459 156.073 118.856C156.232 119.224 156.667 119.451 157.52 119.458Z" fill="black"/>
<path opacity="0.1" d="M48.3708 2.35901H17.4272C19.8379 14.8452 19.7306 27.6394 17.4272 40.6999C28.7812 39.3883 39.3123 39.1101 48.3708 40.6999C50.6563 28.0218 50.6563 15.0371 48.3708 2.35901Z" fill="black"/>
<path d="M78.5058 18.9397C75.485 19.1543 72.651 21.2649 72.4443 24.0014C72.331 25.4898 72.953 27.0081 72.7007 28.4768C72.3688 30.4203 70.5881 31.8552 68.7259 32.8309C66.8637 33.8067 64.8048 34.542 63.2566 35.8854C61.7084 37.2288 60.8022 39.4625 61.8953 41.2133C62.3146 41.8851 62.9764 42.4057 63.513 43.0019C64.9717 44.6375 65.4646 46.9248 64.777 48.8664C64.1509 50.6252 62.6246 52.1753 62.7896 54.0433C62.9486 55.8319 64.6955 57.2826 66.5875 57.849C68.4795 58.4154 70.5026 58.2822 72.4602 58.1411C74.7198 57.9802 77.2537 57.6861 78.5674 56.0485C79.9785 54.2898 79.3484 51.756 80.0997 49.6772C81.5982 45.5357 87.7968 44.5282 90.2731 40.8218C91.4655 39.0333 91.6464 36.8294 91.6285 34.7069C91.5768 27.9859 87.9717 18.27 78.5058 18.9397Z" fill="#3F3D56"/>
<path d="M78.0046 33.4344C78.0046 33.4344 78.9983 36.6142 75.6197 38.4028C72.2412 40.1915 78.4021 44.5637 78.4021 44.5637L83.1718 46.3524L88.5377 43.9675L87.544 35.8193C87.544 35.8193 82.973 37.4092 82.973 31.6458L78.0046 33.4344Z" fill="#A0616A"/>
<path opacity="0.1" d="M78.0046 33.4344C78.0046 33.4344 78.9983 36.6142 75.6197 38.4028C72.2412 40.1915 78.4021 44.5637 78.4021 44.5637L83.1718 46.3524L88.5377 43.9675L87.544 35.8193C87.544 35.8193 82.973 37.4092 82.973 31.6458L78.0046 33.4344Z" fill="black"/>
<path d="M85.358 104.977C85.358 104.977 84.3643 111.734 84.9605 112.529C85.5567 113.324 88.339 112.926 88.339 112.926C88.339 112.926 88.9352 106.169 89.134 105.374C89.3327 104.579 85.358 104.977 85.358 104.977Z" fill="#A0616A"/>
<path d="M88.4408 111.797C88.4408 111.797 85.5571 111.336 85.5571 112.131C85.5571 112.131 84.3647 112.727 84.3647 112.131C84.3647 111.535 83.2716 118.392 84.0666 119.385C84.8615 120.379 87.8982 119.29 88.6375 119.783C89.2338 120.18 93.7053 120.081 93.9041 119.087C94.1028 118.093 94.1028 117.298 92.3142 116.305C90.5255 115.311 88.4408 111.797 88.4408 111.797Z" fill="#3F3D56"/>
<path opacity="0.1" d="M88.4408 111.797C88.4408 111.797 85.5571 111.336 85.5571 112.131C85.5571 112.131 84.3647 112.727 84.3647 112.131C84.3647 111.535 83.2716 118.392 84.0666 119.385C84.8615 120.379 87.8982 119.29 88.6375 119.783C89.2338 120.18 93.7053 120.081 93.9041 119.087C94.1028 118.093 94.1028 117.298 92.3142 116.305C90.5255 115.311 88.4408 111.797 88.4408 111.797Z" fill="black"/>
<path d="M78.4023 104.381C78.4023 104.381 79.7935 110.343 79.1973 113.125L83.3708 111.933C83.3708 111.933 80.7872 104.977 80.9859 104.381C81.1847 103.784 78.4023 104.381 78.4023 104.381Z" fill="#A0616A"/>
<path d="M79.9922 111.933C79.9922 111.933 82.5758 110.541 83.3708 111.933C84.1657 113.324 86.5506 118.888 85.1594 119.485C83.7683 120.081 79.396 119.882 79.1973 117.696C78.9985 115.51 78.7998 112.33 78.7998 112.33C78.7998 112.33 79.7935 112.727 79.9922 111.933Z" fill="#3F3D56"/>
<path d="M72.8374 61.0577C72.8374 61.0577 69.0614 68.8082 73.8311 81.1294C73.8311 81.1294 76.216 88.2837 75.0235 92.457C73.8311 96.6304 77.6071 106.368 77.6071 106.368L82.1781 105.573C82.1781 105.573 80.3895 92.457 80.9857 91.0659C81.5819 89.6748 81.1844 74.7701 81.1844 74.7701C81.1844 74.7701 86.5503 84.9053 85.7554 93.0532C84.9604 101.201 84.7617 105.772 84.7617 105.772L89.9289 105.573C90.3173 102.832 90.848 100.112 91.5188 97.4253C92.5125 93.6494 93.1087 75.7637 90.5251 70.398L89.9289 63.84L72.8374 61.0577Z" fill="#3F3D56"/>
<path d="M79.197 35.2213C81.8312 35.2213 83.9667 33.0858 83.9667 30.4516C83.9667 27.8174 81.8312 25.6819 79.197 25.6819C76.5627 25.6819 74.4272 27.8174 74.4272 30.4516C74.4272 33.0858 76.5627 35.2213 79.197 35.2213Z" fill="#A0616A"/>
<path d="M79.4788 30.5243C82.5272 30.1338 84.8288 28.4934 84.6196 26.8603C84.4104 25.2273 81.7696 24.22 78.7212 24.6105C75.6729 25.001 73.3713 26.6414 73.5805 28.2744C73.7897 29.9075 76.4305 30.9148 79.4788 30.5243Z" fill="#3F3D56"/>
<path opacity="0.1" d="M84.6009 26.7769C84.3386 28.2296 82.216 29.583 79.4774 29.9328C76.4844 30.3164 73.885 29.3505 73.5948 27.7705C73.5627 27.9382 73.5573 28.11 73.5789 28.2793C73.7776 29.911 76.4288 30.9186 79.4774 30.529C82.5261 30.1395 84.8275 28.4979 84.6168 26.8643C84.6128 26.8345 84.6069 26.8146 84.6009 26.7769Z" fill="black"/>
<path d="M72.5909 39.1855C71.9509 38.9212 71.2156 39.3306 70.7863 39.8731C70.357 40.4157 70.1106 41.0854 69.6873 41.632C69.2103 42.2441 68.5366 42.6654 67.9086 43.1245C67.0885 43.7255 66.3314 44.408 65.6489 45.1616C65.2872 45.559 64.9355 45.9923 64.4565 46.2586C63.6953 46.6859 62.7334 46.6104 61.9305 46.2586C61.1276 45.9068 60.4539 45.3384 59.7961 44.7661C57.8405 43.0609 55.9114 41.3166 54.0089 39.5333C52.6555 38.2693 50.7058 37.6334 48.8655 37.4307C48.4164 37.381 47.9096 37.379 47.5757 37.683C47.3557 37.9035 47.232 38.2023 47.2319 38.5138C47.1902 39.5492 48.0706 40.4117 49.0205 40.8311C49.9705 41.2504 51.0238 41.3776 51.9797 41.7751C52.8878 42.1571 53.6833 42.7645 54.2911 43.5399C54.9588 44.3905 55.7677 45.086 56.4036 45.9585C56.6938 46.356 56.9502 46.7753 57.2284 47.1807C57.9035 48.1231 58.6391 49.0206 59.4304 49.8677C60.3506 50.8912 61.4754 52.0001 62.8467 51.8968C63.4191 51.855 63.9477 51.5987 64.4625 51.3463C66.0703 50.5513 67.692 49.7564 69.101 48.6534C69.9258 48.0075 70.671 47.2622 71.5356 46.666C72.3623 46.0996 73.3063 45.6723 73.976 44.9231C74.3569 44.4893 74.6288 43.9709 74.7691 43.4109C74.9095 42.851 74.9142 42.2657 74.7829 41.7035C74.636 41.1434 74.3617 40.6248 73.9815 40.188C73.6013 39.7513 73.1254 39.4082 72.5909 39.1855Z" fill="#A0616A"/>
<path d="M90.7715 37.1982C91.4115 36.9339 92.1468 37.3433 92.5761 37.8858C93.0053 38.4284 93.2518 39.0981 93.6751 39.6447C94.1521 40.2568 94.8258 40.6781 95.4538 41.1372C96.2739 41.7382 97.031 42.4207 97.7134 43.1743C98.0751 43.5717 98.4269 44.005 98.9059 44.2713C99.667 44.6986 100.629 44.6231 101.432 44.2713C102.235 43.9195 102.908 43.3511 103.566 42.7788C105.527 41.067 107.459 39.3227 109.361 37.546C110.715 36.282 112.665 35.6461 114.505 35.4433C114.954 35.3937 115.461 35.3917 115.795 35.6957C116.015 35.9162 116.138 36.215 116.138 36.5265C116.18 37.5619 115.3 38.4244 114.35 38.8438C113.4 39.2631 112.347 39.3903 111.391 39.7878C110.483 40.1698 109.687 40.7772 109.079 41.5526C108.412 42.4031 107.603 43.0987 106.967 43.9712C106.677 44.3687 106.42 44.788 106.142 45.1934C105.464 46.136 104.726 47.0336 103.932 47.8804C103.012 48.9039 101.887 50.0128 100.516 49.9095C99.9433 49.8677 99.4146 49.6114 98.8999 49.359C97.2921 48.564 95.6704 47.7691 94.2614 46.6661C93.4366 46.0202 92.6913 45.2749 91.8268 44.6787C91.0001 44.1123 90.0561 43.685 89.3863 42.9358C89.0055 42.502 88.7336 41.9836 88.5932 41.4236C88.4529 40.8637 88.4482 40.2784 88.5795 39.7162C88.7264 39.1561 89.0007 38.6375 89.3809 38.2007C89.7611 37.764 90.237 37.4209 90.7715 37.1982Z" fill="#A0616A"/>
<path d="M82.7744 43.172C81.6836 42.4512 80.5559 41.7878 79.3958 41.1847C77.8059 40.3898 76.0173 37.8063 76.0173 37.8063C76.0173 37.8063 70.4526 38.8 70.4526 40.1911C70.4526 41.5822 72.8375 46.5504 73.6324 46.9479C74.4274 47.3454 75.6198 47.3454 75.4211 48.1403C75.2223 48.9352 76.0173 50.525 76.0173 50.525C76.0173 50.525 77.6072 52.9098 76.6135 53.506C75.6198 54.1022 71.2476 61.2565 71.8438 62.2501C72.44 63.2437 78.0047 64.2374 80.787 66.6222C83.5693 69.0069 91.3201 66.4234 91.3201 65.8272C91.3201 65.231 90.5252 64.0387 90.5252 64.0387C90.5252 64.0387 90.3264 54.1022 91.3201 50.9225C92.3138 47.7428 91.5189 43.172 91.1214 42.5758C91.1214 42.5758 93.5062 38.4025 92.5125 37.2101C91.5189 36.0178 86.7491 35.4216 86.3517 35.6203L85.976 37.7845C85.7118 39.2957 85.2501 40.7656 84.6028 42.1565C84.404 42.5878 84.2311 42.9733 84.1656 43.1681C83.9668 43.7682 82.7744 43.172 82.7744 43.172Z" fill="#1990F2"/>
<path d="M112.092 38.3409C121.153 36.7511 131.682 37.0293 143.036 38.3409C140.732 25.2804 140.627 12.4862 143.036 0H112.092C109.807 12.6781 109.807 25.6628 112.092 38.3409Z" fill="#F2F2F2"/>
<path d="M136.235 6.44897H117.156V9.03257H136.235V6.44897Z" fill="#1990F2"/>
<path d="M136.235 11.8149H117.156V14.3985H136.235V11.8149Z" fill="#1990F2"/>
<path d="M49.7619 39.1101C40.7034 37.5203 30.1723 37.7985 18.8184 39.1101C21.1217 26.0496 21.2291 13.2554 18.8184 0.769165H49.7619C52.0474 13.4473 52.0474 26.4319 49.7619 39.1101Z" fill="#F2F2F2"/>
<path d="M44.6164 7.84009H25.5376V10.4237H44.6164V7.84009Z" fill="#1990F2"/>
<path d="M150.047 119.582H19.4766V119.979H150.047V119.582Z" fill="#3F3D56"/>
<path d="M169.524 119.582H153.625V119.979H169.524V119.582Z" fill="#3F3D56"/>
<path d="M15.899 119.582H0V119.979H15.899V119.582Z" fill="#3F3D56"/>
<path d="M44.5473 64.7582C44.5262 64.291 44.3876 63.8367 44.1445 63.4373C43.9013 63.0378 43.5614 62.7061 43.1562 62.4727L42.5321 63.7069L42.55 62.2124C42.2524 62.1238 41.942 62.0862 41.6318 62.1011C41.0829 62.1283 40.5543 62.3175 40.1128 62.6448C39.6712 62.9721 39.3365 63.4228 39.1509 63.9401C38.9652 64.4574 38.9369 65.0181 39.0695 65.5515C39.2022 66.0848 39.4898 66.567 39.8962 66.937C40.3025 67.3071 40.8093 67.5486 41.3527 67.6309C41.8962 67.7133 42.4518 67.6328 42.9495 67.3998C43.4473 67.1667 43.8648 66.7914 44.1496 66.3213C44.4343 65.8512 44.5734 65.3073 44.5493 64.7582H44.5473Z" fill="#F2F2F2"/>
<path opacity="0.03" d="M44.1713 65.4993C43.5274 65.5709 42.9014 65.7716 42.2555 65.8114C41.6096 65.8511 40.9001 65.6961 40.4907 65.1953C40.2721 64.923 40.1608 64.5812 39.976 64.287C39.7994 64.0119 39.5578 63.7846 39.2724 63.6252C39.1041 63.977 39.0117 64.3602 39.001 64.7501C38.9904 65.1399 39.0618 65.5276 39.2107 65.888C39.3595 66.2484 39.5825 66.5736 39.8651 66.8423C40.1477 67.111 40.4836 67.3173 40.8511 67.4478C41.2186 67.5783 41.6094 67.6301 41.9981 67.5999C42.3869 67.5696 42.765 67.458 43.1079 67.2722C43.4507 67.0864 43.7507 66.8307 43.9884 66.5215C44.226 66.2123 44.396 65.8566 44.4873 65.4775C44.382 65.4814 44.2766 65.4894 44.1713 65.4993Z" fill="black"/>
<path d="M112.617 91.7357C112.187 91.5517 111.717 91.4792 111.251 91.5251C110.785 91.571 110.338 91.7336 109.952 91.998L110.791 93.099L109.453 92.4292C109.244 92.6583 109.076 92.9211 108.954 93.2063C108.739 93.7121 108.678 94.2703 108.78 94.8105C108.882 95.3507 109.141 95.8487 109.525 96.2417C109.91 96.6346 110.402 96.9049 110.94 97.0184C111.478 97.132 112.037 97.0836 112.547 96.8795C113.058 96.6754 113.496 96.3247 113.808 95.8716C114.119 95.4185 114.289 94.8834 114.296 94.3338C114.304 93.7841 114.148 93.2446 113.849 92.7833C113.55 92.3219 113.122 91.9595 112.617 91.7416V91.7357Z" fill="#F2F2F2"/>
<path opacity="0.03" d="M113.122 92.3954C112.903 93.0055 112.812 93.6554 112.565 94.2556C112.319 94.8558 111.87 95.4242 111.24 95.5732C110.9 95.6527 110.544 95.603 110.198 95.6408C109.874 95.6795 109.564 95.7976 109.296 95.9846C109.587 96.3701 109.974 96.6723 110.419 96.861C111.046 97.1557 111.76 97.2061 112.422 97.0022C113.084 96.7983 113.646 96.3548 113.998 95.7585C114.35 95.1621 114.468 94.4558 114.327 93.7776C114.186 93.0994 113.797 92.4981 113.237 92.0913C113.195 92.1966 113.157 92.298 113.122 92.3954Z" fill="black"/>
<path d="M102.74 5.41555C102.331 5.18709 101.872 5.06532 101.404 5.06149C100.936 5.05767 100.475 5.17193 100.063 5.39369L100.784 6.57618L99.522 5.78123C99.0833 6.17468 98.7807 6.69728 98.6581 7.27372C98.5354 7.85016 98.599 8.45066 98.8396 8.98865C99.0802 9.52664 99.4854 9.97434 99.9969 10.2672C100.508 10.5601 101.099 10.683 101.685 10.6182C102.271 10.5535 102.821 10.3044 103.256 9.90685C103.691 9.50933 103.989 8.98392 104.106 8.40637C104.223 7.82881 104.154 7.22893 103.909 6.69321C103.663 6.15748 103.254 5.71358 102.74 5.42549V5.41555Z" fill="#F2F2F2"/>
<path opacity="0.03" d="M103.173 6.12699C102.895 6.70929 102.734 7.34724 102.428 7.91563C102.122 8.48402 101.617 9.0067 100.975 9.09017C100.629 9.13389 100.279 9.04844 99.9316 9.05042C99.6046 9.0551 99.2837 9.14043 98.9976 9.29885C99.2468 9.7146 99.6012 10.0573 100.025 10.2925C100.617 10.6392 101.316 10.7551 101.988 10.6178C102.66 10.4806 103.258 10.1 103.666 9.54899C104.075 8.99801 104.265 8.31554 104.202 7.6326C104.138 6.94966 103.824 6.31439 103.32 5.84875C103.268 5.94812 103.219 6.03159 103.173 6.12699Z" fill="black"/>
</svg>
