<svg width="168" height="120" viewBox="0 0 168 120" fill="none" xmlns="http://www.w3.org/2000/svg">
<g clip-path="url(#clip0)">
<path opacity="0.1" d="M83.5555 120C129.702 120 167.111 115.453 167.111 109.843C167.111 104.234 129.702 99.6866 83.5555 99.6866C37.4091 99.6866 0 104.234 0 109.843C0 115.453 37.4091 120 83.5555 120Z" fill="#1990F2"/>
<path d="M142.97 114.822C142.97 114.822 147.327 109.277 146.974 103.775C146.812 101.468 147.402 99.1707 148.656 97.2277C149.259 96.3107 149.945 95.4502 150.703 94.6567" stroke="#535461" stroke-width="2" stroke-miterlimit="10"/>
<path d="M150.503 91.1891C150.195 91.9589 150.699 94.7481 150.699 94.7481C150.699 94.7481 152.984 93.0725 153.291 92.3012C153.364 92.1182 153.4 91.9225 153.397 91.7255C153.395 91.5284 153.353 91.3338 153.276 91.1527C153.198 90.9717 153.085 90.8077 152.944 90.6702C152.803 90.5327 152.636 90.4243 152.453 90.3513C152.27 90.2783 152.074 90.2421 151.877 90.2446C151.68 90.2472 151.486 90.2886 151.304 90.3664C151.123 90.4442 150.959 90.5569 150.822 90.698C150.684 90.8392 150.576 91.0061 150.503 91.1891Z" fill="#1990F2"/>
<path d="M146.495 94.5358C146.655 95.3489 148.588 97.4161 148.588 97.4161C148.588 97.4161 149.596 94.7675 149.436 93.9528C149.358 93.5622 149.129 93.2182 148.798 92.9966C148.467 92.775 148.062 92.6939 147.671 92.7712C147.28 92.8485 146.936 93.0779 146.715 93.4088C146.493 93.7397 146.412 94.1451 146.49 94.5358H146.495Z" fill="#1990F2"/>
<path d="M143.687 101.864C144.237 102.486 146.955 103.292 146.955 103.292C146.955 103.292 146.487 100.497 145.937 99.875C145.673 99.5767 145.302 99.3954 144.904 99.371C144.507 99.3466 144.116 99.4811 143.817 99.7449C143.519 100.009 143.338 100.38 143.313 100.778C143.289 101.175 143.423 101.566 143.687 101.864Z" fill="#1990F2"/>
<path d="M142.813 107.888C143.249 108.594 145.79 109.848 145.79 109.848C145.79 109.848 145.802 107.008 145.366 106.308C145.156 105.97 144.821 105.728 144.433 105.637C144.046 105.546 143.638 105.612 143.299 105.822C142.961 106.031 142.719 106.367 142.628 106.754C142.537 107.142 142.603 107.55 142.813 107.888Z" fill="#1990F2"/>
<path d="M151.462 98.7345C150.696 99.0499 147.9 98.585 147.9 98.585C147.9 98.585 149.545 96.2801 150.317 95.9648C150.685 95.8129 151.099 95.8135 151.466 95.9664C151.834 96.1194 152.126 96.412 152.278 96.7801C152.43 97.1482 152.429 97.5615 152.276 97.9292C152.123 98.2968 151.83 98.5886 151.462 98.7405V98.7345Z" fill="#1990F2"/>
<path d="M150.349 105.766C149.524 105.839 146.998 104.553 146.998 104.553C146.998 104.553 149.261 102.848 150.088 102.775C150.484 102.74 150.878 102.864 151.183 103.12C151.488 103.376 151.678 103.742 151.713 104.139C151.748 104.535 151.624 104.929 151.368 105.234C151.112 105.539 150.746 105.729 150.349 105.764V105.766Z" fill="#1990F2"/>
<path d="M148.33 112.453C147.527 112.664 144.82 111.824 144.82 111.824C144.82 111.824 146.763 109.76 147.566 109.549C147.951 109.448 148.361 109.503 148.705 109.704C149.049 109.905 149.299 110.234 149.4 110.619C149.501 111.004 149.446 111.414 149.245 111.758C149.044 112.102 148.715 112.352 148.33 112.453Z" fill="#1990F2"/>
<path opacity="0.25" d="M150.503 91.1891C150.195 91.9589 150.699 94.7481 150.699 94.7481C150.699 94.7481 152.984 93.0725 153.291 92.3012C153.364 92.1182 153.4 91.9225 153.397 91.7255C153.395 91.5284 153.353 91.3338 153.276 91.1527C153.198 90.9717 153.085 90.8077 152.944 90.6702C152.803 90.5327 152.636 90.4243 152.453 90.3513C152.27 90.2783 152.074 90.2421 151.877 90.2446C151.68 90.2472 151.486 90.2886 151.304 90.3664C151.123 90.4442 150.959 90.5569 150.822 90.698C150.684 90.8392 150.576 91.0061 150.503 91.1891Z" fill="black"/>
<path opacity="0.25" d="M146.495 94.5358C146.655 95.3489 148.588 97.4161 148.588 97.4161C148.588 97.4161 149.596 94.7675 149.436 93.9528C149.358 93.5622 149.129 93.2182 148.798 92.9966C148.467 92.775 148.062 92.6939 147.671 92.7712C147.28 92.8485 146.936 93.0779 146.715 93.4088C146.493 93.7397 146.412 94.1451 146.49 94.5358H146.495Z" fill="black"/>
<path opacity="0.25" d="M143.687 101.864C144.237 102.486 146.955 103.292 146.955 103.292C146.955 103.292 146.487 100.497 145.937 99.875C145.673 99.5767 145.302 99.3954 144.904 99.371C144.507 99.3466 144.116 99.4811 143.817 99.7449C143.519 100.009 143.338 100.38 143.313 100.778C143.289 101.175 143.423 101.566 143.687 101.864Z" fill="black"/>
<path opacity="0.25" d="M142.813 107.888C143.249 108.594 145.79 109.848 145.79 109.848C145.79 109.848 145.802 107.008 145.366 106.308C145.156 105.97 144.821 105.728 144.433 105.637C144.046 105.546 143.638 105.612 143.299 105.822C142.961 106.031 142.719 106.367 142.628 106.754C142.537 107.142 142.603 107.55 142.813 107.888Z" fill="black"/>
<path opacity="0.25" d="M151.462 98.7345C150.696 99.0499 147.9 98.585 147.9 98.585C147.9 98.585 149.545 96.2801 150.317 95.9648C150.685 95.8129 151.099 95.8135 151.466 95.9664C151.834 96.1194 152.126 96.412 152.278 96.7801C152.43 97.1482 152.429 97.5615 152.276 97.9292C152.123 98.2968 151.83 98.5886 151.462 98.7405V98.7345Z" fill="black"/>
<path opacity="0.25" d="M150.349 105.766C149.524 105.839 146.998 104.553 146.998 104.553C146.998 104.553 149.261 102.848 150.088 102.775C150.484 102.74 150.878 102.864 151.183 103.12C151.488 103.376 151.678 103.742 151.713 104.139C151.748 104.535 151.624 104.929 151.368 105.234C151.112 105.539 150.746 105.729 150.349 105.764V105.766Z" fill="black"/>
<path opacity="0.25" d="M148.33 112.453C147.527 112.664 144.82 111.824 144.82 111.824C144.82 111.824 146.763 109.76 147.566 109.549C147.951 109.448 148.361 109.503 148.705 109.704C149.049 109.905 149.299 110.234 149.4 110.619C149.501 111.004 149.446 111.414 149.245 111.758C149.044 112.102 148.715 112.352 148.33 112.453Z" fill="black"/>
<path d="M143.005 114.59C143.005 114.59 149.236 111.287 151.144 106.115C151.929 103.941 153.397 102.08 155.329 100.811C156.252 100.216 157.228 99.7071 158.244 99.2904" stroke="#535461" stroke-width="2" stroke-miterlimit="10"/>
<path d="M159.47 96.038C158.872 96.6179 158.207 99.3712 158.207 99.3712C158.207 99.3712 160.975 98.7644 161.569 98.1859C161.71 98.0485 161.822 97.8847 161.9 97.7037C161.978 97.5228 162.019 97.3284 162.022 97.1315C162.024 96.9346 161.988 96.7391 161.915 96.5563C161.842 96.3734 161.734 96.2067 161.596 96.0656C161.459 95.9246 161.295 95.812 161.114 95.7343C160.933 95.6566 160.739 95.6152 160.542 95.6127C160.144 95.6075 159.761 95.7605 159.476 96.038H159.47Z" fill="#1990F2"/>
<path d="M154.45 97.4728C154.268 98.2815 155.198 100.959 155.198 100.959C155.198 100.959 157.192 98.9437 157.374 98.135C157.462 97.7467 157.392 97.3394 157.179 97.0028C156.967 96.6661 156.629 96.4276 156.241 96.3398C155.853 96.252 155.446 96.3221 155.109 96.5345C154.772 96.747 154.534 97.0845 154.446 97.4728H154.45Z" fill="#1990F2"/>
<path d="M148.914 103.036C149.164 103.827 151.322 105.665 151.322 105.665C151.322 105.665 152.026 102.92 151.77 102.129C151.711 101.941 151.615 101.767 151.488 101.616C151.361 101.465 151.206 101.341 151.03 101.25C150.855 101.159 150.664 101.104 150.468 101.087C150.271 101.07 150.074 101.092 149.886 101.151C149.698 101.211 149.523 101.307 149.372 101.434C149.222 101.561 149.097 101.716 149.006 101.891C148.916 102.066 148.86 102.258 148.843 102.454C148.827 102.65 148.848 102.848 148.908 103.036H148.914Z" fill="#1990F2"/>
<path d="M145.672 108.189C145.785 109.011 147.601 111.187 147.601 111.187C147.601 111.187 148.76 108.6 148.648 107.779C148.621 107.584 148.556 107.396 148.456 107.225C148.357 107.055 148.224 106.906 148.067 106.787C147.91 106.668 147.731 106.581 147.54 106.531C147.35 106.482 147.151 106.47 146.956 106.497C146.76 106.523 146.572 106.589 146.402 106.688C146.232 106.788 146.083 106.92 145.964 107.077C145.845 107.234 145.758 107.413 145.708 107.604C145.658 107.795 145.646 107.993 145.673 108.189H145.672Z" fill="#1990F2"/>
<path d="M157.291 103.325C156.461 103.304 154.097 101.74 154.097 101.74C154.097 101.74 156.541 100.302 157.369 100.323C157.767 100.334 158.144 100.502 158.418 100.79C158.693 101.079 158.841 101.465 158.83 101.863C158.82 102.261 158.652 102.639 158.363 102.913C158.075 103.187 157.689 103.335 157.291 103.325Z" fill="#1990F2"/>
<path d="M153.424 109.302C152.639 109.035 150.85 106.836 150.85 106.836C150.85 106.836 153.61 106.193 154.395 106.462C154.582 106.526 154.754 106.626 154.902 106.756C155.049 106.886 155.17 107.045 155.257 107.222C155.344 107.399 155.395 107.591 155.407 107.788C155.42 107.984 155.393 108.181 155.329 108.368C155.266 108.554 155.166 108.727 155.035 108.874C154.905 109.022 154.747 109.143 154.57 109.23C154.393 109.317 154.201 109.368 154.004 109.38C153.807 109.392 153.61 109.366 153.424 109.302Z" fill="#1990F2"/>
<path d="M148.866 114.597C148.049 114.465 145.914 112.6 145.914 112.6C145.914 112.6 148.527 111.501 149.352 111.633C149.745 111.696 150.097 111.913 150.33 112.236C150.563 112.558 150.658 112.961 150.595 113.354C150.531 113.747 150.314 114.099 149.992 114.332C149.669 114.565 149.267 114.66 148.874 114.597H148.866Z" fill="#1990F2"/>
<path opacity="0.1" d="M95.2354 14.2119C86.9785 13.9249 79.1148 11.2598 71.6067 8.34355C64.0987 5.42733 56.6594 2.19572 48.5998 0.659137C43.4176 -0.334859 37.4895 -0.475364 33.3132 2.30334C29.2969 4.96994 27.9964 9.58567 27.2984 13.8696C26.7723 17.0922 26.4629 20.4838 27.8963 23.5001C28.8963 25.5927 30.6705 27.3565 31.8977 29.3625C36.1666 36.3429 33.1488 44.951 28.5226 51.7685C26.3522 54.9657 23.8351 58.015 22.1595 61.42C20.4839 64.825 19.7112 68.7232 21.176 72.1955C22.6289 75.6334 26.0892 78.2222 29.838 80.0398C37.4521 83.7333 46.4295 84.7901 55.1751 85.388C74.5439 86.7138 94.0157 86.1353 113.435 85.5644C120.623 85.3521 127.841 85.1369 134.912 84.0263C138.838 83.409 142.892 82.4284 145.741 80.0637C149.36 77.0623 150.256 71.9787 147.834 68.215C143.766 61.9013 132.521 60.3333 129.679 53.5577C128.115 49.8283 129.722 45.6745 131.995 42.2157C136.873 34.7943 145.049 28.2848 145.481 19.8037C145.78 13.9742 141.846 8.14475 135.765 5.38847C129.395 2.50065 120.561 2.86387 115.861 7.64551C111.03 12.5706 102.525 14.4645 95.2354 14.2119Z" fill="#1990F2"/>
<path d="M88.6373 47.3127H84.9199C84.9224 47.0259 84.9403 46.7395 84.9737 46.4547C85.0903 45.4413 85.4491 43.7971 86.5611 43.0258C87.6 42.3053 88.9527 43.392 88.4221 44.5415L88.4086 44.5728C88.2098 44.9884 88.2038 45.5056 88.2696 45.9794C88.3394 46.4367 88.4628 46.8842 88.6373 47.3127Z" fill="#1990F2"/>
<path opacity="0.1" d="M88.6373 47.3128H84.9199C84.9224 47.0261 84.9403 46.7397 84.9737 46.4549C86.0229 46.0615 87.1446 45.8994 88.2621 45.9795C88.3343 46.4372 88.4603 46.8847 88.6373 47.3128Z" fill="black"/>
<path d="M91.0486 51.2484C90.0845 52.0332 88.7363 52.0451 87.3567 51.7088C84.5316 51.0182 81.5825 48.8569 81.5825 48.8569C81.7833 48.6342 81.999 48.4254 82.2282 48.2321C83.3911 47.2336 86.0562 45.4683 89.6242 46.3457C90.4967 46.5461 91.2653 47.0599 91.7841 47.7896C92.3745 48.6536 92.6824 49.9196 91.0486 51.2484Z" fill="#1990F2"/>
<path opacity="0.1" d="M89.9127 49.6743C89.9127 49.6743 87.7633 47.8433 84.8022 50.2722L89.9127 49.6743Z" fill="black"/>
<path d="M29.4673 65.1001C29.4673 65.1001 22.5407 59.7699 22.1924 64.6023C21.8441 69.4348 23.587 73.9698 25.0817 74.3674C26.5765 74.765 29.4673 65.1001 29.4673 65.1001Z" fill="#1990F2"/>
<path opacity="0.2" d="M29.4673 65.1001C29.4673 65.1001 22.5407 59.7699 22.1924 64.6023C21.8441 69.4348 23.587 73.9698 25.0817 74.3674C26.5765 74.765 29.4673 65.1001 29.4673 65.1001Z" fill="black"/>
<path opacity="0.1" d="M24.9321 66.795C24.9321 66.795 25.0951 71.2419 26.4777 70.5319C27.8603 69.8219 25.829 66.9938 24.9321 66.795Z" fill="black"/>
<path d="M46.4864 102.996C46.3235 103.681 46.0722 104.341 45.739 104.962C45.6538 105.123 45.5611 105.289 45.4595 105.458C43.8287 108.169 40.059 109.295 40.059 108.697C40.059 108.099 39.6868 106.553 38.7392 107.002C37.7915 107.45 36.3476 107.352 36.3476 107.352C33.7393 107.153 34.1802 104.582 35.0442 102.404C35.3315 101.688 35.6599 100.989 36.0277 100.311C36.3536 99.7135 36.5972 99.3219 36.5972 99.3219L46.5626 100.917C46.5626 100.917 46.7853 101.703 46.4864 102.996Z" fill="#1990F2"/>
<path opacity="0.1" d="M87.3567 51.7087C84.5316 51.0181 81.5825 48.8567 81.5825 48.8567C81.7833 48.634 81.999 48.4253 82.2282 48.2319C82.6587 48.4591 83.0912 48.7008 83.5257 48.9569C84.8877 49.7496 86.1705 50.6711 87.3567 51.7087Z" fill="black"/>
<path opacity="0.1" d="M46.4861 102.996C43.7821 102.754 39.8659 102.089 36.0229 100.319C36.3488 99.721 36.5924 99.3293 36.5924 99.3293L46.5578 100.924C46.5578 100.924 46.785 101.703 46.4861 102.996Z" fill="black"/>
<path d="M88.4582 90.0619C88.4582 90.0619 88.2788 93.2561 86.4762 96.8659C85.0881 99.7049 82.947 102.108 80.2865 103.813C80.2865 103.813 78.6931 105.109 78.593 101.522C78.593 101.522 77.8949 100.775 73.1118 104.041C73.1118 104.041 70.2255 105.804 71.0192 98.4459C71.0192 98.4459 71.0192 98.4369 71.0192 98.4324C71.0192 98.4279 70.9474 98.4787 70.8159 98.558H70.8069C70.4661 98.7672 69.7427 99.1962 68.8817 99.6282C67.3048 100.42 65.2615 101.226 64.248 100.718C64.0153 102.58 63.4407 104.384 62.553 106.038C61.5486 107.866 59.9641 109.653 57.4829 110.461C56.8572 110.661 56.1883 110.685 55.55 110.529C54.9117 110.374 54.3288 110.045 53.8656 109.579L53.5816 109.295C53.5816 109.295 51.3889 110.789 50.2932 110.29C49.1976 109.791 48.2993 108.398 49.794 105.806C49.794 105.806 49.8732 105.591 49.9704 105.275C50.214 104.476 50.5683 103.033 49.9943 102.816C49.9943 102.816 26.7751 104.012 23.687 83.3849C20.5989 62.7577 41.0259 55.1853 46.8045 55.982C46.8045 55.982 62.1509 36.6507 83.3761 49.1063C104.601 61.5619 88.4582 90.0619 88.4582 90.0619Z" fill="#1990F2"/>
<path opacity="0.1" d="M46.8047 55.9822C46.8047 55.9822 72.0985 55.8835 70.3632 88.6675" stroke="black" stroke-miterlimit="10"/>
<path opacity="0.2" d="M45.739 104.962C45.6538 105.123 45.5611 105.289 45.4595 105.458C43.8287 108.169 40.059 109.295 40.059 108.697C40.059 108.099 39.6868 106.553 38.7392 107.002C37.7915 107.45 36.3476 107.352 36.3476 107.352C33.7393 107.153 34.1802 104.582 35.0442 102.404C37.4896 103.631 41.9125 105.459 45.739 104.962Z" fill="black"/>
<path opacity="0.2" d="M62.5527 106.038C61.5483 107.866 59.9638 109.653 57.4826 110.461C56.8569 110.661 56.188 110.685 55.5497 110.529C54.9114 110.374 54.3285 110.045 53.8653 109.579L53.5813 109.295C53.5813 109.295 51.3886 110.789 50.2929 110.29C49.1973 109.791 48.299 108.398 49.7937 105.806C49.7937 105.806 49.8729 105.591 49.9701 105.275C51.9237 105.964 57.0984 107.431 62.5527 106.038Z" fill="black"/>
<path opacity="0.1" d="M71.019 98.4325C80.0368 93.7495 81.5823 90.0127 81.5823 90.0127L71.019 98.4325Z" fill="black"/>
<path opacity="0.2" d="M86.4765 96.866C85.0884 99.7049 82.9474 102.108 80.2868 103.813C80.2868 103.813 78.6934 105.109 78.5933 101.522C78.5933 101.522 77.8952 100.775 73.1121 104.041C73.1121 104.041 70.2258 105.804 71.0195 98.4459L73.411 97.1201C78.5649 99.9855 83.7426 98.2381 86.4765 96.866Z" fill="black"/>
<path d="M49.4966 58.873C49.4966 58.873 54.5787 51.1004 58.4141 53.5413C62.2496 55.9822 57.7176 65.1 57.7176 65.1C57.7176 65.1 50.1931 64.9506 49.4966 58.873Z" fill="#1990F2"/>
<path opacity="0.2" d="M49.4966 58.873C49.4966 58.873 54.5787 51.1004 58.4141 53.5413C62.2496 55.9822 57.7176 65.1 57.7176 65.1C57.7176 65.1 50.1931 64.9506 49.4966 58.873Z" fill="black"/>
<path opacity="0.1" d="M57.767 56.7295C57.767 56.7295 51.0901 59.9686 53.1334 61.8624C55.1767 63.7562 57.767 56.7295 57.767 56.7295Z" fill="black"/>
<path opacity="0.1" d="M41.6731 88.271C46.6915 87.1124 49.9819 82.804 49.0224 78.6478C48.0629 74.4917 43.2168 72.0617 38.1984 73.2203C33.18 74.3789 29.8897 78.6873 30.8492 82.8435C31.8087 86.9996 36.6547 89.4296 41.6731 88.271Z" fill="black"/>
<path d="M41.6731 87.9723C46.6915 86.8137 49.9819 82.5053 49.0224 78.3491C48.0629 74.193 43.2168 71.763 38.1984 72.9216C33.18 74.0802 29.8897 78.3886 30.8492 82.5447C31.8087 86.7009 36.6547 89.1309 41.6731 87.9723Z" fill="#1990F2"/>
<path opacity="0.2" d="M41.6731 87.9723C46.6915 86.8137 49.9819 82.5053 49.0224 78.3491C48.0629 74.193 43.2168 71.763 38.1984 72.9216C33.18 74.0802 29.8897 78.3886 30.8492 82.5447C31.8087 86.7009 36.6547 89.1309 41.6731 87.9723Z" fill="black"/>
<path opacity="0.1" d="M35.9932 80.445C35.9932 80.445 36.0933 83.3358 36.9408 82.4897C37.7883 81.6437 36.9901 80.442 35.9932 80.445Z" fill="black"/>
<path opacity="0.1" d="M40.8271 78.2447C40.8271 78.2447 40.9258 81.1355 41.7733 80.2895C42.6208 79.4434 41.8226 78.2357 40.8271 78.2447Z" fill="black"/>
<path opacity="0.1" d="M49.0063 94.7958C49.0063 94.7958 51.09 96.8391 53.631 93.9991L49.0063 94.7958Z" fill="black"/>
<path opacity="0.15" d="M58.1646 50.9493C59.311 50.6504 63.5456 52.444 63.5456 52.444C65.3707 50.619 68.0298 49.5248 70.3631 48.8746L70.8503 46.6654C61.5965 46.7715 58.1646 50.9493 58.1646 50.9493Z" fill="black"/>
<path opacity="0.3" d="M70.8696 46.6654L70.4092 48.8612C72.0595 48.4073 73.7483 48.107 75.4539 47.9643C73.2611 46.8642 70.8696 46.6654 70.8696 46.6654Z" fill="black"/>
<path opacity="0.15" d="M70.85 46.6654L70.3657 48.8746L70.4121 48.8612L70.8724 46.6654H70.85Z" fill="black"/>
<g opacity="0.1">
<path opacity="0.1" d="M50.8399 106.742C50.8399 106.742 50.9192 106.527 51.0163 106.211C51.26 105.411 51.6142 103.969 51.0402 103.752C51.0402 103.752 50.7742 103.766 50.2929 103.764C50.2405 104.291 50.1317 104.811 49.9685 105.314C49.8713 105.63 49.7921 105.845 49.7921 105.845C48.2974 108.437 49.1942 109.831 50.2914 110.329L50.3497 110.35C49.9087 109.595 49.8728 108.419 50.8399 106.742Z" fill="white"/>
<path opacity="0.1" d="M24.7331 84.3209C21.6435 63.6936 42.7297 55.3111 48.5083 56.1138L46.8043 56.0271C41.0257 55.2304 20.5972 62.8027 23.6868 83.43C24.6584 89.9156 27.6209 94.2429 31.2247 97.1292C28.1007 94.2593 25.609 90.1668 24.7331 84.3209Z" fill="white"/>
<path opacity="0.1" d="M72.0641 99.3818C72.0641 99.3818 72.0641 99.3728 72.0641 99.3683C72.0641 99.3638 71.9923 99.4146 71.8608 99.4939H71.8518C71.65 99.6164 71.3137 99.8182 70.8952 100.051C70.7457 103.452 71.6261 104.189 72.3182 104.253C71.9669 103.459 71.7831 102.002 72.0641 99.3818Z" fill="white"/>
<path opacity="0.1" d="M79.6391 102.458C79.6391 102.458 79.4597 102.268 78.6675 102.503C78.8738 103.986 79.4447 104.147 79.8513 104.059C79.7119 103.537 79.6406 102.999 79.6391 102.458Z" fill="white"/>
</g>
<path opacity="0.1" d="M49.9941 102.817C49.9941 102.817 62.949 102.02 64.2434 100.724L49.9941 102.817Z" fill="black"/>
<path d="M81.0981 105.289C84.1987 105.289 86.7123 102.621 86.7123 99.3294C86.7123 96.038 84.1987 93.3699 81.0981 93.3699C77.9975 93.3699 75.4839 96.038 75.4839 99.3294C75.4839 102.621 77.9975 105.289 81.0981 105.289Z" fill="#FBD56F"/>
<path opacity="0.1" d="M81.0981 105.289C84.1987 105.289 86.7123 102.621 86.7123 99.3294C86.7123 96.038 84.1987 93.3699 81.0981 93.3699C77.9975 93.3699 75.4839 96.038 75.4839 99.3294C75.4839 102.621 77.9975 105.289 81.0981 105.289Z" fill="black"/>
<path d="M82.0668 105.289C85.1675 105.289 87.681 102.68 87.681 99.4624C87.681 96.2446 85.1675 93.636 82.0668 93.636C78.9662 93.636 76.4526 96.2446 76.4526 99.4624C76.4526 102.68 78.9662 105.289 82.0668 105.289Z" fill="#FBD56F"/>
<path d="M84.3415 104.742L83.7571 104.417C83.7571 104.417 83.4835 105.556 83.5732 106.37C83.5817 106.451 83.6148 106.529 83.6682 106.591C83.7216 106.654 83.7928 106.698 83.8722 106.719C85.2174 107.053 91.6179 108.474 96.0214 106.471C96.0852 106.442 96.1403 106.397 96.1813 106.34C96.2222 106.283 96.2475 106.217 96.2545 106.147C96.3098 105.648 96.1185 104.618 96.0423 104.417C95.8823 103.985 84.3415 104.742 84.3415 104.742Z" fill="#FBD56F"/>
<path opacity="0.1" d="M84.3415 104.742L83.7571 104.417C83.7571 104.417 83.4835 105.556 83.5732 106.37C83.5817 106.451 83.6148 106.529 83.6682 106.591C83.7216 106.654 83.7928 106.698 83.8722 106.719C85.2174 107.053 91.6179 108.474 96.0214 106.471C96.0852 106.442 96.1403 106.397 96.1813 106.34C96.2222 106.283 96.2475 106.217 96.2545 106.147C96.3098 105.648 96.1185 104.618 96.0423 104.417C95.8823 103.985 84.3415 104.742 84.3415 104.742Z" fill="black"/>
<path d="M89.9022 105.803C93.2959 105.803 96.047 105.183 96.047 104.417C96.047 103.652 93.2959 103.032 89.9022 103.032C86.5085 103.032 83.7573 103.652 83.7573 104.417C83.7573 105.183 86.5085 105.803 89.9022 105.803Z" fill="#FBD56F"/>
<path d="M86.6945 102.698L86.1116 102.374C86.1116 102.374 85.838 103.513 85.9277 104.326C85.9361 104.408 85.9692 104.485 86.0226 104.547C86.0761 104.609 86.1473 104.654 86.2267 104.675C87.5719 105.009 93.9724 106.431 98.3758 104.428C98.4395 104.399 98.4945 104.353 98.5354 104.297C98.5763 104.24 98.6016 104.173 98.609 104.104C98.6628 103.604 98.4715 102.574 98.3953 102.374C98.2294 101.942 86.6945 102.698 86.6945 102.698Z" fill="#FBD56F"/>
<path opacity="0.1" d="M86.6945 102.698L86.1116 102.374C86.1116 102.374 85.838 103.513 85.9277 104.326C85.9361 104.408 85.9692 104.485 86.0226 104.547C86.0761 104.609 86.1473 104.654 86.2267 104.675C87.5719 105.009 93.9724 106.431 98.3758 104.428C98.4395 104.399 98.4945 104.353 98.5354 104.297C98.5763 104.24 98.6016 104.173 98.609 104.104C98.6628 103.604 98.4715 102.574 98.3953 102.374C98.2294 101.942 86.6945 102.698 86.6945 102.698Z" fill="black"/>
<path d="M92.2488 103.76C95.6425 103.76 98.3937 103.139 98.3937 102.374C98.3937 101.609 95.6425 100.989 92.2488 100.989C88.8551 100.989 86.104 101.609 86.104 102.374C86.104 103.139 88.8551 103.76 92.2488 103.76Z" fill="#FBD56F"/>
<path d="M88.7649 100.012L88.1804 99.6881C88.1804 99.6881 87.9069 100.827 87.9966 101.64C88.005 101.722 88.0382 101.799 88.0916 101.862C88.145 101.924 88.2161 101.969 88.2955 101.99C89.6408 102.323 96.0427 103.745 100.445 101.742C100.509 101.713 100.564 101.668 100.605 101.611C100.646 101.554 100.672 101.487 100.679 101.417C100.733 100.918 100.542 99.8884 100.466 99.6881C100.306 99.2561 88.7649 100.012 88.7649 100.012Z" fill="#FBD56F"/>
<path opacity="0.1" d="M88.7649 100.012L88.1804 99.6881C88.1804 99.6881 87.9069 100.827 87.9966 101.64C88.005 101.722 88.0382 101.799 88.0916 101.862C88.145 101.924 88.2161 101.969 88.2955 101.99C89.6408 102.323 96.0427 103.745 100.445 101.742C100.509 101.713 100.564 101.668 100.605 101.611C100.646 101.554 100.672 101.487 100.679 101.417C100.733 100.918 100.542 99.8884 100.466 99.6881C100.306 99.2561 88.7649 100.012 88.7649 100.012Z" fill="black"/>
<path d="M94.3245 101.074C97.7182 101.074 100.469 100.453 100.469 99.6881C100.469 98.9229 97.7182 98.3025 94.3245 98.3025C90.9308 98.3025 88.1797 98.9229 88.1797 99.6881C88.1797 100.453 90.9308 101.074 94.3245 101.074Z" fill="#FBD56F"/>
<path d="M86.4661 97.2188L85.8816 96.893C85.8816 96.893 85.6096 98.0334 85.6978 98.8451C85.7064 98.9268 85.7396 99.0039 85.793 99.0663C85.8464 99.1288 85.9174 99.1736 85.9967 99.1948C87.342 99.5282 93.7424 100.95 98.1444 98.9482C98.2083 98.9192 98.2636 98.8741 98.3048 98.8172C98.3459 98.7603 98.3715 98.6937 98.3791 98.6239C98.4329 98.1246 98.2415 97.0948 98.1653 96.893C98.0069 96.4595 86.4661 97.2188 86.4661 97.2188Z" fill="#FBD56F"/>
<path opacity="0.1" d="M86.4661 97.2188L85.8816 96.893C85.8816 96.893 85.6096 98.0334 85.6978 98.8451C85.7064 98.9268 85.7396 99.0039 85.793 99.0663C85.8464 99.1288 85.9174 99.1736 85.9967 99.1948C87.342 99.5282 93.7424 100.95 98.1444 98.9482C98.2083 98.9192 98.2636 98.8741 98.3048 98.8172C98.3459 98.7603 98.3715 98.6937 98.3791 98.6239C98.4329 98.1246 98.2415 97.0948 98.1653 96.893C98.0069 96.4595 86.4661 97.2188 86.4661 97.2188Z" fill="black"/>
<path d="M92.0262 98.2771C95.4199 98.2771 98.1711 97.6567 98.1711 96.8915C98.1711 96.1262 95.4199 95.5059 92.0262 95.5059C88.6325 95.5059 85.8813 96.1262 85.8813 96.8915C85.8813 97.6567 88.6325 98.2771 92.0262 98.2771Z" fill="#FBD56F"/>
<path d="M91.6354 94.9767L91.0525 94.6509C91.0525 94.6509 90.779 95.7914 90.8686 96.603C90.8769 96.6848 90.91 96.7622 90.9634 96.8247C91.0168 96.8872 91.0881 96.9319 91.1676 96.9528C92.5128 97.2861 98.9133 98.7076 103.315 96.7062C103.379 96.6769 103.434 96.6317 103.475 96.5749C103.516 96.518 103.542 96.4515 103.55 96.3818C103.604 95.8826 103.412 94.8512 103.336 94.6509C103.176 94.2159 91.6354 94.9767 91.6354 94.9767Z" fill="#FBD56F"/>
<path opacity="0.1" d="M91.6354 94.9767L91.0525 94.6509C91.0525 94.6509 90.779 95.7914 90.8686 96.603C90.8769 96.6848 90.91 96.7622 90.9634 96.8247C91.0168 96.8872 91.0881 96.9319 91.1676 96.9528C92.5128 97.2861 98.9133 98.7076 103.315 96.7062C103.379 96.6769 103.434 96.6317 103.475 96.5749C103.516 96.518 103.542 96.4515 103.55 96.3818C103.604 95.8826 103.412 94.8512 103.336 94.6509C103.176 94.2159 91.6354 94.9767 91.6354 94.9767Z" fill="black"/>
<path d="M97.1966 96.0334C100.59 96.0334 103.341 95.4131 103.341 94.6478C103.341 93.8826 100.59 93.2622 97.1966 93.2622C93.8029 93.2622 91.0518 93.8826 91.0518 94.6478C91.0518 95.4131 93.8029 96.0334 97.1966 96.0334Z" fill="#FBD56F"/>
<path d="M88.1433 93.4655L87.5589 93.1397C87.5589 93.1397 87.2868 94.2802 87.375 95.0918C87.3837 95.1735 87.4169 95.2506 87.4703 95.313C87.5236 95.3755 87.5946 95.4203 87.674 95.4416C89.0192 95.7749 95.4197 97.1964 99.8217 95.1949C99.8856 95.166 99.9409 95.1208 99.982 95.0639C100.023 95.007 100.049 94.9404 100.056 94.8706C100.11 94.3713 99.9188 93.34 99.8426 93.1397C99.6841 92.7077 88.1433 93.4655 88.1433 93.4655Z" fill="#FBD56F"/>
<path opacity="0.1" d="M88.1433 93.4655L87.5589 93.1397C87.5589 93.1397 87.2868 94.2802 87.375 95.0918C87.3837 95.1735 87.4169 95.2506 87.4703 95.313C87.5236 95.3755 87.5946 95.4203 87.674 95.4416C89.0192 95.7749 95.4197 97.1964 99.8217 95.1949C99.8856 95.166 99.9409 95.1208 99.982 95.0639C100.023 95.007 100.049 94.9404 100.056 94.8706C100.11 94.3713 99.9188 93.34 99.8426 93.1397C99.6841 92.7077 88.1433 93.4655 88.1433 93.4655Z" fill="black"/>
<path d="M93.7034 94.5253C97.0971 94.5253 99.8483 93.9049 99.8483 93.1396C99.8483 92.3744 97.0971 91.754 93.7034 91.754C90.3097 91.754 87.5586 92.3744 87.5586 93.1396C87.5586 93.9049 90.3097 94.5253 93.7034 94.5253Z" fill="#FBD56F"/>
<path d="M90.4743 90.5538L89.8914 90.2279C89.8914 90.2279 89.6178 91.3684 89.7075 92.1801C89.7158 92.2619 89.7488 92.3392 89.8023 92.4017C89.8557 92.4642 89.9269 92.5089 90.0065 92.5298C91.3517 92.8632 97.7522 94.2847 102.156 92.2832C102.219 92.2541 102.274 92.2089 102.315 92.152C102.356 92.0951 102.382 92.0285 102.389 91.9588C102.443 91.4596 102.251 90.4297 102.175 90.2279C102.017 89.796 90.4743 90.5538 90.4743 90.5538Z" fill="#FBD56F"/>
<path opacity="0.1" d="M90.4743 90.5538L89.8914 90.2279C89.8914 90.2279 89.6178 91.3684 89.7075 92.1801C89.7158 92.2619 89.7488 92.3392 89.8023 92.4017C89.8557 92.4642 89.9269 92.5089 90.0065 92.5298C91.3517 92.8632 97.7522 94.2847 102.156 92.2832C102.219 92.2541 102.274 92.2089 102.315 92.152C102.356 92.0951 102.382 92.0285 102.389 91.9588C102.443 91.4596 102.251 90.4297 102.175 90.2279C102.017 89.796 90.4743 90.5538 90.4743 90.5538Z" fill="black"/>
<path d="M96.0364 91.6135C99.4301 91.6135 102.181 90.9932 102.181 90.2279C102.181 89.4627 99.4301 88.8423 96.0364 88.8423C92.6427 88.8423 89.8916 89.4627 89.8916 90.2279C89.8916 90.9932 92.6427 91.6135 96.0364 91.6135Z" fill="#FBD56F"/>
<path d="M91.6267 87.098L91.0423 86.7721C91.0423 86.7721 90.7702 87.9126 90.8584 88.7243C90.8671 88.8059 90.9003 88.8831 90.9536 88.9455C91.007 89.0079 91.078 89.0527 91.1574 89.074C92.5026 89.4073 98.9031 90.8288 103.305 88.8274C103.369 88.7984 103.424 88.7532 103.465 88.6964C103.507 88.6395 103.532 88.5728 103.54 88.503C103.594 88.0038 103.402 86.9739 103.326 86.7721C103.166 86.3402 91.6267 87.098 91.6267 87.098Z" fill="#FBD56F"/>
<path opacity="0.1" d="M91.6267 87.098L91.0423 86.7721C91.0423 86.7721 90.7702 87.9126 90.8584 88.7243C90.8671 88.8059 90.9003 88.8831 90.9536 88.9455C91.007 89.0079 91.078 89.0527 91.1574 89.074C92.5026 89.4073 98.9031 90.8288 103.305 88.8274C103.369 88.7984 103.424 88.7532 103.465 88.6964C103.507 88.6395 103.532 88.5728 103.54 88.503C103.594 88.0038 103.402 86.9739 103.326 86.7721C103.166 86.3402 91.6267 87.098 91.6267 87.098Z" fill="black"/>
<path d="M97.1859 88.1578C100.58 88.1578 103.331 87.5375 103.331 86.7722C103.331 86.007 100.58 85.3866 97.1859 85.3866C93.7922 85.3866 91.041 86.007 91.041 86.7722C91.041 87.5375 93.7922 88.1578 97.1859 88.1578Z" fill="#FBD56F"/>
<path d="M101.999 105.545L101.415 105.219C101.415 105.219 101.141 106.359 101.231 107.171C101.239 107.253 101.273 107.33 101.326 107.392C101.379 107.455 101.45 107.499 101.53 107.521C102.875 107.854 109.276 109.275 113.679 107.274C113.743 107.244 113.798 107.199 113.839 107.142C113.88 107.085 113.905 107.018 113.912 106.948C113.968 106.449 113.776 105.419 113.7 105.219C113.54 104.787 101.999 105.545 101.999 105.545Z" fill="#FBD56F"/>
<path opacity="0.1" d="M101.999 105.545L101.415 105.219C101.415 105.219 101.141 106.359 101.231 107.171C101.239 107.253 101.273 107.33 101.326 107.392C101.379 107.455 101.45 107.499 101.53 107.521C102.875 107.854 109.276 109.275 113.679 107.274C113.743 107.244 113.798 107.199 113.839 107.142C113.88 107.085 113.905 107.018 113.912 106.948C113.968 106.449 113.776 105.419 113.7 105.219C113.54 104.787 101.999 105.545 101.999 105.545Z" fill="black"/>
<path d="M107.559 106.604C110.953 106.604 113.704 105.984 113.704 105.219C113.704 104.453 110.953 103.833 107.559 103.833C104.165 103.833 101.414 104.453 101.414 105.219C101.414 105.984 104.165 106.604 107.559 106.604Z" fill="#FBD56F"/>
<path d="M104.073 102.858L103.489 102.533C103.489 102.533 103.217 103.673 103.305 104.485C103.313 104.566 103.347 104.643 103.4 104.706C103.453 104.768 103.524 104.813 103.604 104.834C104.949 105.168 111.349 106.589 115.751 104.588C115.815 104.559 115.871 104.514 115.912 104.457C115.953 104.4 115.978 104.333 115.986 104.263C116.04 103.764 115.848 102.733 115.772 102.533C115.614 102.101 104.073 102.858 104.073 102.858Z" fill="#FBD56F"/>
<path opacity="0.1" d="M104.073 102.858L103.489 102.533C103.489 102.533 103.217 103.673 103.305 104.485C103.313 104.566 103.347 104.643 103.4 104.706C103.453 104.768 103.524 104.813 103.604 104.834C104.949 105.168 111.349 106.589 115.751 104.588C115.815 104.559 115.871 104.514 115.912 104.457C115.953 104.4 115.978 104.333 115.986 104.263C116.04 103.764 115.848 102.733 115.772 102.533C115.614 102.101 104.073 102.858 104.073 102.858Z" fill="black"/>
<path d="M109.634 103.918C113.028 103.918 115.779 103.298 115.779 102.533C115.779 101.767 113.028 101.147 109.634 101.147C106.24 101.147 103.489 101.767 103.489 102.533C103.489 103.298 106.24 103.918 109.634 103.918Z" fill="#FBD56F"/>
<path d="M101.775 100.059L101.192 99.7344C101.192 99.7344 100.919 100.873 101.008 101.687C101.017 101.768 101.05 101.845 101.103 101.908C101.157 101.97 101.228 102.014 101.307 102.035C102.652 102.37 109.053 103.791 113.456 101.788C113.52 101.759 113.575 101.714 113.616 101.657C113.657 101.6 113.683 101.534 113.69 101.464C113.743 100.965 113.552 99.9347 113.476 99.7344C113.317 99.3114 101.775 100.059 101.775 100.059Z" fill="#FBD56F"/>
<path opacity="0.1" d="M101.775 100.059L101.192 99.7344C101.192 99.7344 100.919 100.873 101.008 101.687C101.017 101.768 101.05 101.845 101.103 101.908C101.157 101.97 101.228 102.014 101.307 102.035C102.652 102.37 109.053 103.791 113.456 101.788C113.52 101.759 113.575 101.714 113.616 101.657C113.657 101.6 113.683 101.534 113.69 101.464C113.743 100.965 113.552 99.9347 113.476 99.7344C113.317 99.3114 101.775 100.059 101.775 100.059Z" fill="black"/>
<path d="M107.336 101.123C110.73 101.123 113.481 100.503 113.481 99.7374C113.481 98.9722 110.73 98.3518 107.336 98.3518C103.943 98.3518 101.191 98.9722 101.191 99.7374C101.191 100.503 103.943 101.123 107.336 101.123Z" fill="#FBD56F"/>
<path d="M106.947 97.8167L106.362 97.4924C106.362 97.4924 106.089 98.6313 106.178 99.4355C106.186 99.5173 106.22 99.5947 106.273 99.6572C106.326 99.7197 106.398 99.7644 106.477 99.7853C107.822 100.12 114.223 101.54 118.626 99.5387C118.69 99.5097 118.745 99.4645 118.786 99.4076C118.827 99.3507 118.852 99.284 118.86 99.2143C118.913 98.715 118.723 97.6852 118.647 97.4849C118.487 97.0693 106.947 97.8167 106.947 97.8167Z" fill="#FBD56F"/>
<path opacity="0.1" d="M106.947 97.8167L106.362 97.4924C106.362 97.4924 106.089 98.6313 106.178 99.4355C106.186 99.5173 106.22 99.5947 106.273 99.6572C106.326 99.7197 106.398 99.7644 106.477 99.7853C107.822 100.12 114.223 101.54 118.626 99.5387C118.69 99.5097 118.745 99.4645 118.786 99.4076C118.827 99.3507 118.852 99.284 118.86 99.2143C118.913 98.715 118.723 97.6852 118.647 97.4849C118.487 97.0693 106.947 97.8167 106.947 97.8167Z" fill="black"/>
<path d="M112.507 98.8794C115.901 98.8794 118.652 98.259 118.652 97.4938C118.652 96.7285 115.901 96.1082 112.507 96.1082C109.113 96.1082 106.362 96.7285 106.362 97.4938C106.362 98.259 109.113 98.8794 112.507 98.8794Z" fill="#FBD56F"/>
<path d="M103.452 96.31L102.869 95.9857C102.869 95.9857 102.595 97.1247 102.685 97.9378C102.694 98.0194 102.727 98.0964 102.78 98.1586C102.834 98.2208 102.905 98.2653 102.984 98.2861C104.329 98.6209 110.73 100.041 115.133 98.0394C115.197 98.0105 115.252 97.9653 115.293 97.9084C115.334 97.8515 115.359 97.7848 115.366 97.7151C115.42 97.2159 115.229 96.186 115.153 95.9857C114.994 95.5537 103.452 96.31 103.452 96.31Z" fill="#FBD56F"/>
<path opacity="0.1" d="M103.452 96.31L102.869 95.9857C102.869 95.9857 102.595 97.1247 102.685 97.9378C102.694 98.0194 102.727 98.0964 102.78 98.1586C102.834 98.2208 102.905 98.2653 102.984 98.2861C104.329 98.6209 110.73 100.041 115.133 98.0394C115.197 98.0105 115.252 97.9653 115.293 97.9084C115.334 97.8515 115.359 97.7848 115.366 97.7151C115.42 97.2159 115.229 96.186 115.153 95.9857C114.994 95.5537 103.452 96.31 103.452 96.31Z" fill="black"/>
<path d="M109.014 97.3712C112.408 97.3712 115.159 96.7508 115.159 95.9856C115.159 95.2203 112.408 94.6 109.014 94.6C105.62 94.6 102.869 95.2203 102.869 95.9856C102.869 96.7508 105.62 97.3712 109.014 97.3712Z" fill="#FBD56F"/>
<path d="M105.785 93.3983L105.201 93.074C105.201 93.074 104.927 94.2129 105.017 95.0261C105.026 95.1078 105.059 95.1851 105.112 95.2475C105.165 95.31 105.237 95.3548 105.316 95.3758C106.661 95.7092 113.062 97.1307 117.464 95.1277C117.528 95.0986 117.583 95.0534 117.624 94.9966C117.665 94.9397 117.691 94.8731 117.698 94.8034C117.752 94.3041 117.561 93.2742 117.485 93.074C117.326 92.642 105.785 93.3983 105.785 93.3983Z" fill="#FBD56F"/>
<path opacity="0.1" d="M105.785 93.3983L105.201 93.074C105.201 93.074 104.927 94.2129 105.017 95.0261C105.026 95.1078 105.059 95.1851 105.112 95.2475C105.165 95.31 105.237 95.3548 105.316 95.3758C106.661 95.7092 113.062 97.1307 117.464 95.1277C117.528 95.0986 117.583 95.0534 117.624 94.9966C117.665 94.9397 117.691 94.8731 117.698 94.8034C117.752 94.3041 117.561 93.2742 117.485 93.074C117.326 92.642 105.785 93.3983 105.785 93.3983Z" fill="black"/>
<path d="M111.345 94.4595C114.739 94.4595 117.49 93.8391 117.49 93.0738C117.49 92.3086 114.739 91.6882 111.345 91.6882C107.951 91.6882 105.2 92.3086 105.2 93.0738C105.2 93.8391 107.951 94.4595 111.345 94.4595Z" fill="#FBD56F"/>
<path d="M106.934 89.9424L106.351 89.618C106.351 89.618 106.078 90.757 106.167 91.5701C106.176 91.6519 106.209 91.7291 106.262 91.7916C106.316 91.8541 106.387 91.8988 106.466 91.9199C107.812 92.2532 114.212 93.6747 118.616 91.6718C118.679 91.6428 118.735 91.5977 118.775 91.5407C118.816 91.4838 118.842 91.4172 118.849 91.3474C118.903 90.8482 118.711 89.8183 118.635 89.618C118.477 89.186 106.934 89.9424 106.934 89.9424Z" fill="#FBD56F"/>
<path opacity="0.1" d="M106.934 89.9424L106.351 89.618C106.351 89.618 106.078 90.757 106.167 91.5701C106.176 91.6519 106.209 91.7291 106.262 91.7916C106.316 91.8541 106.387 91.8988 106.466 91.9199C107.812 92.2532 114.212 93.6747 118.616 91.6718C118.679 91.6428 118.735 91.5977 118.775 91.5407C118.816 91.4838 118.842 91.4172 118.849 91.3474C118.903 90.8482 118.711 89.8183 118.635 89.618C118.477 89.186 106.934 89.9424 106.934 89.9424Z" fill="black"/>
<path d="M112.496 91.0038C115.89 91.0038 118.641 90.3834 118.641 89.6182C118.641 88.8529 115.89 88.2325 112.496 88.2325C109.103 88.2325 106.352 88.8529 106.352 89.6182C106.352 90.3834 109.103 91.0038 112.496 91.0038Z" fill="#FBD56F"/>
<path d="M61.0745 46.9959C61.0745 43.7792 63.5872 41.1665 66.6888 41.1665C66.9928 41.1668 67.2963 41.1923 67.5961 41.2427C66.9961 41.0161 66.36 40.9002 65.7187 40.9004C62.6186 40.9004 60.106 43.5685 60.106 46.8599C60.106 49.3322 61.5245 51.4517 63.5438 52.3545C63.641 52.2693 63.7621 52.1677 63.9056 52.0556C63.0357 51.5298 62.3175 50.787 61.8212 49.9C61.3249 49.013 61.0676 48.0123 61.0745 46.9959Z" fill="#FBD56F"/>
<path opacity="0.1" d="M61.0745 46.9959C61.0745 43.7792 63.5872 41.1665 66.6888 41.1665C66.9928 41.1668 67.2963 41.1923 67.5961 41.2427C66.9961 41.0161 66.36 40.9002 65.7187 40.9004C62.6186 40.9004 60.106 43.5685 60.106 46.8599C60.106 49.3322 61.5245 51.4517 63.5438 52.3545C63.641 52.2693 63.7621 52.1677 63.9056 52.0556C63.0357 51.5298 62.3175 50.787 61.8212 49.9C61.3249 49.013 61.0676 48.0123 61.0745 46.9959Z" fill="black"/>
<path d="M71.333 46.8687C71.3326 47.5186 71.2318 48.1645 71.0341 48.7835C71.3749 48.7013 71.7306 48.634 72.0968 48.5563C72.2328 48.0473 72.3016 47.5227 72.3016 46.9958C72.3016 44.099 70.2643 41.6985 67.5962 41.2471C69.774 42.0722 71.333 44.2754 71.333 46.8687Z" fill="#FBD56F"/>
<path d="M61.0748 46.9959C61.0678 48.0126 61.3252 49.0138 61.8218 49.9011C62.3183 50.7883 63.037 51.5313 63.9074 52.057C64.9641 51.217 67.2944 49.6729 71.0357 48.7791C71.2334 48.16 71.3343 47.5142 71.3347 46.8643C71.3347 44.271 69.7757 42.0677 67.5979 41.2471C67.298 41.1967 66.9946 41.1712 66.6906 41.1709C63.5875 41.1754 61.0748 43.7837 61.0748 46.9959Z" fill="#FBD56F"/>
<path d="M143.971 113.695C143.116 113.665 143.084 113.334 141.986 112.761C141.364 112.438 140.422 111.499 139.72 110.745L139.555 110.567H139.854C139.854 110.567 139.579 108.156 139.824 107.577C140.07 106.999 139.886 103.598 139.886 103.598C139.886 103.598 140.035 101.005 139.763 100.403C139.491 99.8002 139.854 95.9423 139.854 95.9423C139.854 95.9423 140.099 93.6509 140.153 88.9784C140.207 84.3058 137.463 84.1564 137.463 84.1564C137.463 84.1564 137.097 84.128 136.54 84.0741L136.373 84.0577C136.733 83.3103 136.944 82.7394 136.944 82.7394C136.944 82.7394 136.485 78.3688 136.363 77.6154C136.24 76.8621 135.509 73.7515 135.509 73.7515C135.509 73.7515 134.99 72.4257 134.684 71.4915C134.378 70.5573 133.463 69.4721 133.463 69.4721C133.463 69.4721 131.819 66.2166 131.355 65.7353C131.143 65.5126 130.844 65.2301 130.585 64.9879L130.451 64.8654C130.521 64.5259 130.558 64.1805 130.562 63.834C130.562 63.834 128.85 62.1449 128.728 61.7234C128.605 61.3019 126.988 59.7339 126.988 59.7339C126.988 59.7339 126.07 58.0464 125.033 58.0165C124.541 57.9882 124.049 58.0027 123.56 58.0598C123.774 57.2706 124.027 56.444 124.252 55.734C124.278 55.6548 124.303 55.5846 124.327 55.5024C125.157 54.9406 125.809 54.1526 126.204 53.2319C126.225 53.1825 126.245 53.1332 126.264 53.0824H126.297C126.34 53.0814 126.383 53.0774 126.426 53.0704C126.768 53.0121 127.058 52.622 126.899 52.3231C126.91 52.3403 126.924 52.3545 126.942 52.3642C126.96 52.374 126.98 52.3788 127 52.3784C127.113 52.3784 127.252 52.2095 127.279 52.0645C127.279 52.0391 127.287 52.0137 127.29 51.9882C127.293 51.9628 127.3 51.9255 127.305 51.8941C127.309 51.8627 127.305 51.8343 127.305 51.8044C127.305 51.7745 127.305 51.7431 127.305 51.7132C127.305 51.6833 127.305 51.6549 127.305 51.6265C127.305 51.5981 127.305 51.5593 127.305 51.5264C127.305 51.4935 127.305 51.4741 127.305 51.4472C127.305 51.4202 127.305 51.3664 127.296 51.3261C127.296 51.3096 127.296 51.2932 127.296 51.2768C127.278 51.1121 127.245 50.9495 127.197 50.791C127.03 50.2304 126.675 49.6744 126.811 49.1064V49.0885C126.925 48.64 127.308 48.3262 127.541 47.9315C127.563 47.8942 127.583 47.8553 127.602 47.8165C127.602 47.809 127.609 47.8015 127.612 47.7955C127.627 47.7656 127.639 47.7357 127.651 47.7058L127.675 47.6475C127.686 47.6221 127.693 47.5952 127.702 47.5683C127.711 47.5414 127.719 47.5205 127.725 47.4951C127.731 47.4697 127.737 47.4473 127.742 47.4233C127.748 47.3994 127.756 47.3665 127.762 47.3366C127.768 47.3067 127.762 47.2948 127.772 47.2739C127.783 47.2529 127.781 47.2081 127.784 47.1752C127.787 47.1423 127.784 47.1393 127.784 47.1214C127.784 47.1035 127.784 47.0482 127.784 47.0108V46.9659C127.784 46.9256 127.784 46.8837 127.784 46.8434C127.784 46.8314 127.784 46.8195 127.784 46.8075C127.784 46.7642 127.784 46.7208 127.772 46.6775C127.772 46.6775 127.772 46.6655 127.772 46.6595C127.721 46.2807 127.57 45.9222 127.334 45.6207C127.067 45.3021 126.729 45.0502 126.348 44.8849C125.966 44.7196 125.551 44.6455 125.136 44.6685C124.906 44.6947 124.675 44.6992 124.445 44.682C124.061 44.6252 123.737 44.3831 123.432 44.1469L120.873 42.1753C120.587 41.9281 120.26 41.7337 119.906 41.6014C119.544 41.4908 119.11 41.5281 118.843 41.7927C118.363 42.265 118.668 43.0782 118.477 43.7194C118.309 44.2754 117.773 44.6521 117.218 44.8389C116.664 45.0258 116.069 45.0676 115.498 45.2037C115.328 45.2308 115.17 45.3036 115.039 45.4144C114.891 45.5941 114.82 45.824 114.838 46.0557C114.835 46.6237 114.971 47.1839 115.236 47.6864C115.344 47.8897 115.474 48.0975 115.589 48.3067L115.617 48.359L115.655 48.4308C115.674 48.4711 115.693 48.51 115.711 48.5489L115.734 48.5997L115.768 48.6849C115.768 48.7028 115.782 48.7208 115.788 48.7372C115.794 48.7536 115.809 48.8045 115.819 48.8374C115.879 49.0314 115.885 49.2382 115.835 49.4352C115.747 49.7596 115.495 50.0092 115.27 50.2618C115.089 50.4602 114.96 50.7006 114.894 50.9614C114.883 51.0227 114.883 51.0854 114.894 51.1467C114.894 51.1542 114.894 51.1617 114.894 51.1691C114.897 51.1828 114.901 51.1963 114.906 51.2095C114.909 51.2192 114.913 51.2287 114.918 51.2379C114.922 51.2486 114.927 51.2591 114.933 51.2693C114.944 51.2856 114.957 51.3006 114.972 51.3141L114.994 51.3306C115.006 51.3397 115.019 51.3477 115.033 51.3545L115.058 51.3664L115.121 51.3829H115.139C115.172 51.3852 115.205 51.3852 115.238 51.3829H115.267C115.299 51.3808 115.33 51.3768 115.36 51.3709H115.395C115.445 51.3614 115.495 51.349 115.544 51.3336C115.716 51.2821 115.883 51.2161 116.043 51.1363C116.043 51.1542 116.043 51.1736 116.043 51.1916C116.043 51.2095 116.043 51.2558 116.043 51.2872C116.052 51.8785 116.164 52.4638 116.374 53.0166C116.701 53.8779 117.25 54.6374 117.965 55.2184C117.956 55.2692 117.948 55.3215 117.937 55.3753C117.788 56.0973 117.481 56.8222 117.291 56.7669C117.105 56.7249 116.915 56.7038 116.725 56.7041H116.559C116.386 56.6845 116.212 56.6845 116.039 56.7041C115.962 56.7098 115.884 56.6991 115.812 56.6727C115.318 56.517 114.793 56.4877 114.285 56.5875C113.23 56.8043 111.623 57.2004 111.182 57.6742C110.51 58.3977 109.538 59.0912 108.434 62.1046C108.434 62.1046 107.884 63.9431 107.456 64.1853C107.55 64.1361 107.647 64.0922 107.746 64.0537C107.689 64.1532 107.611 64.2389 107.517 64.3048C107.672 64.2259 107.832 64.1589 107.997 64.1045C107.664 66.0686 108.159 71.6858 108.159 71.6858C108.159 71.6858 107.761 72.6544 108.28 73.2284C108.589 73.5677 108.756 74.0983 108.843 74.475L108.767 74.5916C108.492 75.0176 108.124 75.5736 107.884 75.88C107.456 76.4226 107.577 78.1416 107.577 78.1416C107.577 78.1416 107.486 78.9547 107.181 79.2566C106.876 79.5586 106.936 80.6736 106.936 80.6736L106.154 83.6168C106.154 83.6168 105.42 84.2789 105.42 84.5809C105.42 84.8828 104.84 85.7258 104.84 85.7258C104.84 85.7258 103.954 87.1727 104.84 86.962C105.164 86.8683 105.468 86.7163 105.737 86.5135V86.536C105.737 86.5883 105.737 86.6421 105.737 86.6974C105.712 88.2728 105.887 90.491 107.046 90.491C108.84 90.491 113.492 92.63 113.492 92.63C114.438 93.3534 115.72 93.1128 115.72 93.1128C115.72 93.1128 113.45 95.3683 113.516 96.304C113.581 97.2397 112.233 98.7748 112.233 98.7748L108.078 106.884C108.101 107.449 108.202 108.008 108.377 108.546L108.317 108.597C106.721 110.056 106.582 112.942 106.582 112.942L106.215 114.419L111.774 116.861C111.774 116.861 118.983 117.011 120.236 116.68C121.489 116.35 121.214 114.961 119.563 114.691C117.913 114.42 117.517 113.695 116.967 113.365C116.596 113.141 115.279 111.695 114.462 110.779C114.45 110.764 114.438 110.752 114.426 110.739L114.616 109.692C114.982 109.511 115.532 107.703 115.532 107.703C115.532 107.703 115.532 106.979 115.898 106.769C116.264 106.558 117.028 104.388 117.028 104.388C117.028 104.388 118.672 101.645 118.587 101.283C118.502 100.921 119.783 99.0827 119.783 99.0827C119.783 99.0827 121.952 96.9722 121.859 96.5955C121.767 96.2188 123.601 94.2891 123.601 94.2891C124.263 93.784 124.815 93.1487 125.222 92.4222L125.752 92.3355C128.151 91.9424 132.136 91.2324 132.581 91.0336C133.192 90.7631 133.07 91.9693 132.826 92.9932C132.582 94.0171 132.399 98.9318 132.677 99.57C132.955 100.208 132.826 101.229 132.826 101.229L132.46 106.745L132.704 107.921C132.704 107.921 131.878 108.583 132.215 108.975C132.551 109.366 132.246 111.056 132.246 111.056C132.275 111.045 132.309 111.035 132.346 111.024C132.318 111.09 132.289 111.159 132.264 111.229C131.79 112.574 132.062 114.792 132.062 114.792V116.541C132.062 116.541 140.524 116.691 142.386 116.691C144.249 116.691 146.817 115.786 146.969 115.063C147.122 114.339 144.826 113.727 143.971 113.695ZM119.906 82.3163L119.353 82.3627C119.535 82.3356 119.719 82.3201 119.904 82.3163H119.906ZM123.285 59.1794C123.363 58.8296 123.457 58.4559 123.562 58.0703L123.285 59.1794ZM124.332 83.1609C123.803 83.3691 123.216 83.3691 122.687 83.1609C122.687 83.1609 122.717 81.0518 122.962 80.1714C123.207 79.291 123.542 77.6991 123.542 77.6991C123.542 77.6991 123.817 75.4989 124.092 74.5034C124.367 73.5079 125.438 67.9624 125.986 67.6007C126.535 67.239 126.841 67.8728 126.841 67.8728C126.841 67.8728 126.923 67.8728 127.061 67.8563C127.088 67.9131 127.116 67.9759 127.149 68.0402C127.801 69.357 129.713 72.0625 129.713 72.0625C130.28 72.4124 130.76 72.8867 131.118 73.4496C131.638 74.3225 131.79 76.3733 131.79 76.3733C131.79 76.3733 132.952 80.9247 133.5 81.557C133.775 81.8739 133.65 82.0622 133.463 82.1714C133.073 82.3863 132.741 82.6944 132.499 83.0682C132.421 83.1923 132.337 83.3283 132.254 83.4748C132.043 83.4254 131.856 83.3746 131.699 83.3253C130.191 82.8186 125.154 82.7991 124.33 83.1683L124.332 83.1609Z" fill="url(#paint0_linear)"/>
<path d="M131.857 114.798V116.532C131.857 116.532 140.137 116.682 141.96 116.682C143.784 116.682 146.295 115.785 146.444 115.067C146.594 114.35 144.352 113.752 143.515 113.722C142.678 113.692 142.648 113.363 141.572 112.795C140.965 112.475 140.042 111.544 139.355 110.795C138.824 110.217 138.433 109.749 138.433 109.749C138.433 109.749 133.98 109.659 132.694 110.377C132.395 110.541 132.194 110.866 132.055 111.274C131.591 112.604 131.857 114.798 131.857 114.798Z" fill="#434175"/>
<path opacity="0.1" d="M132.055 111.269C132.989 110.945 138.455 110.821 139.355 110.8C138.824 110.221 138.433 109.754 138.433 109.754C138.433 109.754 133.98 109.664 132.694 110.381C132.398 110.54 132.194 110.864 132.055 111.269Z" fill="black"/>
<path d="M108.035 83.6167L108.518 83.9157L108.699 84.0248L109.401 84.4493C113.159 86.7123 123.405 92.8497 123.967 92.8004C124.117 92.7884 124.556 92.7212 125.163 92.6225L125.682 92.5373C128.029 92.1472 131.928 91.4432 132.365 91.2459C132.963 90.9768 132.843 92.1726 132.604 93.189C132.365 94.2054 132.186 99.0783 132.455 99.706C132.724 100.334 132.604 101.35 132.604 101.35L132.245 106.821L132.484 107.987C132.484 107.987 131.677 108.645 132.006 109.033C132.335 109.422 132.036 111.096 132.036 111.096C132.993 110.737 139.478 110.618 139.478 110.618C139.478 110.618 139.209 108.226 139.448 107.658C139.688 107.09 139.508 103.712 139.508 103.712C139.508 103.712 139.658 101.141 139.389 100.543C139.12 99.9452 139.478 96.1202 139.478 96.1202C139.478 96.1202 139.717 93.8482 139.777 89.216C139.837 84.5838 137.147 84.4329 137.147 84.4329C137.147 84.4329 136.788 84.4045 136.25 84.3522C135.184 84.2505 133.41 84.0532 132.223 83.7961C131.98 83.7466 131.74 83.6832 131.504 83.6063C130.039 83.107 125.106 83.0876 124.301 83.4463C123.784 83.6531 123.207 83.6531 122.689 83.4463L122.062 82.4299L116.066 82.9411L115.431 82.9949L109.528 83.4987L109.122 83.533L108.035 83.6167Z" fill="#565387"/>
<path opacity="0.1" d="M132.066 88.2085C133.808 89.0575 135.47 86.0472 136.252 84.3491C135.186 84.2475 133.412 84.0502 132.225 83.7931C131.437 85.1025 130.397 87.3939 132.066 88.2085Z" fill="black"/>
<path d="M126.835 67.8697C126.872 68.0754 126.944 68.2735 127.046 68.4557C127.684 69.7606 129.556 72.4436 129.556 72.4436C130.112 72.7919 130.582 73.2622 130.931 73.8188C131.439 74.6857 131.588 76.7185 131.588 76.7185C131.588 76.7185 132.724 81.2311 133.263 81.8589C133.532 82.1728 133.412 82.3597 133.225 82.4688C132.843 82.6811 132.519 82.984 132.282 83.3507C131.497 84.6122 130.246 87.1114 132.007 87.9694C134.399 89.1353 136.641 83.0248 136.641 83.0248C136.641 83.0248 136.192 78.6901 136.073 77.9427C135.953 77.1954 135.237 74.1162 135.237 74.1162C135.237 74.1162 134.729 72.8009 134.43 71.8741C134.131 70.9474 133.234 69.8712 133.234 69.8712C133.234 69.8712 131.62 66.6441 131.171 66.1657C130.964 65.943 130.672 65.6635 130.424 65.4273C130.125 65.1538 129.892 64.9401 129.892 64.9401C129.892 64.9401 126.805 67.1538 126.835 67.8697Z" fill="#EE8E9E"/>
<path d="M106.574 114.44L112.015 116.861C112.015 116.861 119.069 117.011 120.294 116.682C121.52 116.353 121.251 114.978 119.637 114.709C118.022 114.44 117.634 113.722 117.096 113.393C116.732 113.172 115.444 111.739 114.644 110.83C114.259 110.392 113.987 110.082 113.987 110.082C113.987 110.082 112.94 107.302 110.042 107.93C109.512 108.046 109.024 108.304 108.631 108.677C107.069 110.123 106.933 112.985 106.933 112.985L106.574 114.44Z" fill="#434175"/>
<path opacity="0.1" d="M108.698 84.0233L109.401 84.4478C113.159 86.7108 123.405 92.8482 123.967 92.7989C124.116 92.7869 124.556 92.7196 125.163 92.621L125.681 92.5358L125.701 92.5014C126.003 91.976 126.233 91.4125 126.385 90.8258C127.015 88.4357 123.913 86.6062 123.913 86.6062L123.255 86.095C122.508 84.8364 117.127 83.6466 117.127 83.6466L116.433 83.1803L116.064 82.9322L115.966 82.8664L115.124 82.3014L110.91 82.6003L109.658 83.4045L109.526 83.4897L109.061 83.7886L108.698 84.0233Z" fill="black"/>
<path opacity="0.1" d="M108.627 108.667C109.77 112.624 114.551 111.332 114.551 111.332L114.64 110.83C114.255 110.392 113.983 110.082 113.983 110.082C113.983 110.082 112.936 107.302 110.038 107.93C109.509 108.043 109.021 108.297 108.627 108.667Z" fill="black"/>
<path d="M107.377 90.7062C109.141 90.7062 113.683 92.8287 113.683 92.8287C114.61 93.5462 115.866 93.307 115.866 93.307C115.866 93.307 113.653 95.5491 113.713 96.4759C113.773 97.4026 112.459 98.9272 112.459 98.9272L108.393 106.967C108.692 112.676 114.55 111.093 114.55 111.093L114.789 109.748C115.148 109.568 115.686 107.775 115.686 107.775C115.686 107.775 115.686 107.057 116.045 106.848C116.404 106.639 117.151 104.486 117.151 104.486C117.151 104.486 118.765 101.766 118.676 101.407C118.586 101.048 119.842 99.2262 119.842 99.2262C119.842 99.2262 121.964 97.1335 121.874 96.7599C121.785 96.3862 123.578 94.4729 123.578 94.4729C124.227 93.9697 124.767 93.3396 125.164 92.6209C125.469 92.0945 125.702 91.5294 125.856 90.9409C126.363 89.0157 124.445 87.4581 123.679 86.926C123.493 86.796 123.38 86.7272 123.38 86.7272L122.722 86.216C122.383 85.6435 121.078 85.0845 119.768 84.6466C118.821 84.3312 117.864 84.0771 117.253 83.9246C116.837 83.8289 116.589 83.7662 116.589 83.7662L115.895 83.2998L115.652 83.1369L115.429 82.9874L114.58 82.4209L112.706 82.5539L110.366 82.7198L109.115 83.53L108.517 83.9156L106.181 85.4104C106.181 85.4104 106.12 85.9858 106.101 86.7556C106.101 86.8154 106.101 86.8752 106.101 86.938C106.072 88.5074 106.24 90.7062 107.377 90.7062Z" fill="#565387"/>
<path d="M116.374 57.2287L117.002 59.4708C117.002 59.4708 118.108 63.3272 118.227 63.5963C118.347 63.8653 121.247 66.5857 121.366 66.6455C121.486 66.7053 123.064 67.6007 123.064 67.6007C123.064 67.6007 123.19 62.6681 123.064 61.2346C123.054 60.9193 123.08 60.6038 123.142 60.2944C123.332 59.1704 123.815 57.5217 124.215 56.2512C124.55 55.1884 124.827 54.3902 124.827 54.3902C124.827 54.3902 117.833 54.0913 118.072 54.7789C118.162 55.0389 118.133 55.4724 118.045 55.9089C117.896 56.6249 117.597 57.3453 117.414 57.2885C117.232 57.2478 117.046 57.2272 116.86 57.2272C116.609 57.2198 116.374 57.2287 116.374 57.2287Z" fill="#EE8E9E"/>
<path opacity="0.1" d="M118.051 55.9089C118.906 56.6223 119.968 57.0409 121.079 57.1026C122.191 57.1642 123.293 56.8656 124.221 56.2512C124.556 55.1884 124.832 54.3902 124.832 54.3902C124.832 54.3902 117.839 54.0913 118.078 54.7789C118.167 55.0389 118.139 55.4724 118.051 55.9089Z" fill="black"/>
<path d="M126.538 51.761C126.538 52.3094 126.451 52.8544 126.279 53.3753C126.236 53.5098 126.186 53.642 126.13 53.7714C125.727 54.725 125.048 55.5358 124.179 56.099C123.311 56.6622 122.293 56.9518 121.258 56.9304C120.224 56.909 119.219 56.5776 118.375 55.9789C117.53 55.3803 116.885 54.5421 116.522 53.5726C116.316 53.0239 116.207 52.444 116.199 51.8582C116.199 51.8268 116.199 51.7939 116.199 51.7625C116.187 51.076 116.312 50.3941 116.567 49.7565C116.822 49.1189 117.201 48.5384 117.682 48.0488C118.163 47.5592 118.737 47.1704 119.371 46.9049C120.004 46.6395 120.683 46.5028 121.37 46.5028C122.057 46.5028 122.736 46.6395 123.369 46.9049C124.003 47.1704 124.577 47.5592 125.058 48.0488C125.539 48.5384 125.918 49.1189 126.173 49.7565C126.428 50.3941 126.553 51.076 126.541 51.7625L126.538 51.761Z" fill="#EE8E9E"/>
<path opacity="0.1" d="M116.374 57.2287L117.002 59.4708C117.002 59.4708 118.108 63.3272 118.227 63.5963C118.347 63.8653 121.247 66.5857 121.366 66.6455C121.486 66.7053 123.064 67.6007 123.064 67.6007C123.064 67.6007 123.19 62.6681 123.064 61.2346C123.054 60.9193 123.08 60.6038 123.142 60.2944L122.736 61.9521L122.766 65.2704L123.005 65.4497L122.467 66.2569V65.659C122.467 65.659 120.553 63.8055 120.254 63.0283C119.955 62.251 118.879 60.843 118.879 60.843C118.879 60.843 117.654 58.7832 117.624 58.4245C117.601 58.145 117.086 57.4978 116.86 57.2287C116.609 57.2197 116.374 57.2287 116.374 57.2287Z" fill="black"/>
<path opacity="0.1" d="M126.835 67.8697C126.872 68.0754 126.944 68.2734 127.046 68.4556C127.701 68.3884 129.926 67.9728 130.417 65.4288C130.118 65.1553 129.884 64.9415 129.884 64.9415C129.884 64.9415 126.805 67.1537 126.835 67.8697Z" fill="black"/>
<path opacity="0.1" d="M106.096 86.9455C106.694 86.518 107.274 85.9365 107.616 85.7751C108.124 85.5359 108.901 84.7587 108.901 84.7587C108.901 84.7587 109.099 84.6241 109.401 84.4478C109.955 84.1219 110.865 83.6511 111.562 83.5928C112.185 83.5405 114.252 83.4074 115.897 83.3058L118.025 83.1742C118.025 83.1742 119.968 82.4867 120.805 82.9351C121.405 83.2354 122.037 83.4661 122.689 83.6227C122.689 83.6227 122.689 83.5569 122.689 83.4448L122.061 82.4284L115.43 82.9934L114.58 82.4209L110.366 82.7198L109.115 83.53L108.036 83.6227L108.519 83.9216L106.182 85.4163C106.182 85.4163 106.109 86.0845 106.096 86.9455Z" fill="black"/>
<path d="M105.229 87.2041C105.546 87.1094 105.843 86.9574 106.105 86.7557C106.703 86.3297 107.278 85.7483 107.62 85.5883C108.129 85.3492 108.906 84.5719 108.906 84.5719C108.906 84.5719 110.49 83.4957 111.567 83.406C111.866 83.3821 112.472 83.3388 113.211 83.2909C113.949 83.2431 114.855 83.1848 115.65 83.1414L116.918 83.0622L118.022 82.9935C118.022 82.9935 119.965 82.3059 120.803 82.7543C121.402 83.0546 122.034 83.2853 122.686 83.4419C122.686 83.4419 122.716 81.3493 122.955 80.4823C123.194 79.6154 123.523 78.0325 123.523 78.0325C123.523 78.0325 123.792 75.8501 124.061 74.8636C124.33 73.8771 125.375 68.3765 125.913 68.0178C126.451 67.659 126.75 68.2868 126.75 68.2868C126.75 68.2868 130.337 68.227 130.397 64.2824C130.397 64.2824 128.723 62.6083 128.604 62.1898C128.484 61.7713 126.9 60.2168 126.9 60.2168C126.9 60.2168 126.003 58.5427 124.986 58.5128C124.506 58.4851 124.024 58.5001 123.547 58.5576L122.686 62.0702L122.716 65.3885L122.955 65.5679L122.417 66.3751V65.7772C122.417 65.7772 120.504 63.9237 120.205 63.1464C119.906 62.3692 118.829 60.9611 118.829 60.9611C118.829 60.9611 117.604 58.9014 117.574 58.5427C117.544 58.1839 116.707 57.2228 116.707 57.2228C116.538 57.2032 116.368 57.2032 116.199 57.2228C116.123 57.2285 116.047 57.2178 115.976 57.1914C115.493 57.0367 114.979 57.0079 114.481 57.1077C113.448 57.3215 111.876 57.7146 111.446 58.1839C110.788 58.9014 109.831 59.589 108.755 62.5784L114.553 64.6711L114.048 65.6157L109.434 74.3868C109.434 74.3868 109.284 74.6364 109.073 74.9623C108.804 75.3853 108.444 75.9368 108.208 76.2403C107.789 76.7784 107.909 78.4824 107.909 78.4824C107.909 78.4824 107.819 79.2895 107.52 79.5885C107.221 79.8874 107.281 80.9935 107.281 80.9935L106.504 83.8933C106.504 83.8933 105.786 84.551 105.786 84.8499C105.786 85.1489 105.218 85.9859 105.218 85.9859C105.218 85.9859 104.357 87.4194 105.229 87.2041Z" fill="#434175"/>
<path opacity="0.1" d="M135.833 89.3625C135.833 89.3625 133.951 89.9888 133.441 90.8857C132.931 91.7825 135.833 89.3625 135.833 89.3625Z" fill="black"/>
<path opacity="0.1" d="M134.877 87.3895C134.817 87.4792 132.297 90.0068 132.455 90.6167C132.614 91.2265 134.877 87.3895 134.877 87.3895Z" fill="black"/>
<path opacity="0.1" d="M121.037 89.1831C121.037 89.1831 118.233 90.5074 117.988 91.0904C117.743 91.6733 121.037 89.1831 121.037 89.1831Z" fill="black"/>
<path opacity="0.1" d="M120.858 90.8856C120.858 90.8856 118.317 91.9618 117.976 92.2309C117.636 92.4999 120.858 90.8856 120.858 90.8856Z" fill="black"/>
<path opacity="0.1" d="M119.692 93.183C119.692 93.183 118.57 94.02 117.949 93.3624C117.329 92.7047 119.692 93.183 119.692 93.183Z" fill="black"/>
<path opacity="0.1" d="M123.913 71.3674C123.853 71.4571 120.117 78.1834 119.13 78.6916C118.144 79.1998 123.913 71.3674 123.913 71.3674Z" fill="black"/>
<path opacity="0.1" d="M123.728 73.9086C123.728 74.058 120.081 81.8591 119.483 81.9487C118.885 82.0384 123.728 73.9086 123.728 73.9086Z" fill="black"/>
<path opacity="0.1" d="M109.863 78.9292C109.863 78.9292 108.102 82.6914 107.412 82.9052C106.721 83.1189 109.863 78.9292 109.863 78.9292Z" fill="black"/>
<path opacity="0.1" d="M109.564 77.2566C109.564 77.2566 108.957 78.5704 108.588 78.5704C108.218 78.5704 109.564 77.2566 109.564 77.2566Z" fill="black"/>
<path opacity="0.1" d="M126.538 51.761C126.538 52.3095 126.451 52.8544 126.279 53.3753C126.236 53.5098 126.186 53.642 126.13 53.7714C125.866 53.7307 125.616 53.6209 125.408 53.4531C125.186 53.3027 125.001 53.1045 124.865 52.8731C124.763 52.6265 124.675 52.3745 124.601 52.1183C124.482 51.829 124.287 51.5769 124.038 51.3879C123.788 51.199 123.493 51.0801 123.182 51.0436C123.354 51.3425 123.081 51.7386 122.744 51.7909C122.408 51.8432 122.081 51.6415 121.848 51.3918C121.614 51.1422 121.448 50.8388 121.218 50.5892C120.988 50.3395 120.659 50.1407 120.321 50.1901C120.023 50.2349 119.794 50.4621 119.544 50.631C119.295 50.7999 118.946 50.9135 118.707 50.7327C118.573 50.6325 118.507 50.4621 118.378 50.353C118.048 50.0765 117.534 50.362 117.29 50.7192C116.915 51.2723 116.692 51.6071 116.199 51.8567C116.199 51.8253 116.199 51.7924 116.199 51.761C116.187 51.0746 116.312 50.3926 116.567 49.755C116.822 49.1174 117.201 48.5369 117.682 48.0473C118.163 47.5578 118.737 47.1689 119.371 46.9035C120.004 46.638 120.683 46.5013 121.37 46.5013C122.057 46.5013 122.736 46.638 123.369 46.9035C124.003 47.1689 124.577 47.5578 125.058 48.0473C125.539 48.5369 125.918 49.1174 126.173 49.755C126.428 50.3926 126.553 51.0746 126.541 51.761H126.538Z" fill="black"/>
<path d="M117.29 50.5698C117.533 50.2111 118.047 49.9256 118.378 50.2036C118.506 50.3112 118.572 50.4816 118.707 50.5833C118.946 50.7641 119.296 50.6505 119.544 50.4816C119.792 50.3127 120.023 50.0855 120.321 50.0407C120.657 49.9884 120.985 50.1902 121.218 50.4398C121.451 50.6894 121.615 50.9928 121.847 51.2425C122.079 51.4921 122.406 51.6909 122.744 51.64C123.082 51.5892 123.354 51.1916 123.182 50.8927C123.492 50.9292 123.788 51.0481 124.037 51.237C124.286 51.426 124.48 51.6782 124.599 51.9674C124.674 52.2235 124.762 52.4754 124.863 52.7222C124.999 52.9533 125.185 53.1509 125.407 53.3007C125.681 53.5025 126.014 53.6714 126.349 53.6131C126.684 53.5548 126.968 53.1647 126.813 52.8657C126.919 53.0287 127.149 52.8015 127.183 52.6101C127.259 52.19 127.236 51.7579 127.114 51.3486C126.95 50.7925 126.603 50.2425 126.736 49.6775C126.842 49.2291 127.224 48.9107 127.455 48.5146C127.866 47.812 127.754 46.8704 127.258 46.2246C126.998 45.9096 126.668 45.6601 126.294 45.4963C125.92 45.3324 125.513 45.2588 125.106 45.2815C124.881 45.3063 124.655 45.3103 124.43 45.2934C124.055 45.2381 123.736 44.9945 123.437 44.7628L120.931 42.8107C120.652 42.5647 120.332 42.3713 119.985 42.2397C119.632 42.1306 119.207 42.1679 118.938 42.4295C118.469 42.8989 118.766 43.706 118.578 44.3413C118.415 44.8913 117.89 45.265 117.348 45.4504C116.805 45.6357 116.224 45.6776 115.665 45.8121C115.499 45.8396 115.344 45.912 115.216 46.0214C115.072 46.2006 115.002 46.4286 115.021 46.6581C115.017 47.2203 115.15 47.775 115.409 48.2739C115.699 48.8314 116.157 49.4039 115.997 50.0123C115.91 50.3337 115.662 50.5803 115.444 50.8314C114.971 51.3755 114.811 52.1767 115.702 51.8986C116.565 51.6296 116.805 51.2813 117.29 50.5698Z" fill="#434175"/>
<g opacity="0.1">
<path opacity="0.1" d="M127.182 52.0256C127.146 52.2169 126.917 52.4441 126.81 52.2812C126.959 52.5801 126.681 52.9673 126.346 53.0286C126.011 53.0898 125.679 52.9165 125.404 52.7162C125.183 52.5658 124.997 52.3676 124.862 52.1362C124.736 51.9015 124.696 51.6295 124.597 51.3814C124.478 51.0923 124.283 50.8403 124.034 50.6514C123.785 50.4625 123.489 50.3435 123.179 50.3067C123.352 50.6056 123.077 51.0032 122.741 51.054C122.405 51.1048 122.077 50.9045 121.844 50.6549C121.611 50.4053 121.445 50.1034 121.215 49.8523C120.985 49.6011 120.656 49.4038 120.318 49.4532C120.019 49.4995 119.79 49.7252 119.541 49.8941C119.291 50.063 118.943 50.1781 118.704 49.9972C118.569 49.8956 118.505 49.7252 118.376 49.6176C118.044 49.3396 117.53 49.6251 117.287 49.9823C116.804 50.6938 116.563 51.045 115.705 51.3156C115.424 51.4038 115.248 51.3844 115.152 51.2992C114.965 51.7311 115.05 52.1108 115.705 51.9045C116.563 51.634 116.804 51.2842 117.287 50.5727C117.53 50.214 118.044 49.9285 118.376 50.2065C118.505 50.3141 118.569 50.4845 118.704 50.5862C118.944 50.767 119.293 50.6534 119.541 50.4845C119.789 50.3156 120.02 50.0884 120.318 50.0436C120.654 49.9913 120.982 50.1931 121.215 50.4427C121.448 50.6923 121.612 50.9957 121.844 51.2453C122.076 51.495 122.403 51.6938 122.741 51.6429C123.079 51.5921 123.352 51.1945 123.179 50.8956C123.49 50.9318 123.785 51.0506 124.035 51.2396C124.284 51.4286 124.478 51.6809 124.597 51.9703C124.672 52.2266 124.76 52.4786 124.862 52.7251C124.997 52.956 125.183 53.1537 125.404 53.3036C125.679 53.5054 126.011 53.6743 126.346 53.616C126.681 53.5577 126.965 53.1676 126.81 52.8686C126.917 53.0316 127.146 52.8043 127.182 52.613C127.228 52.3551 127.237 52.0918 127.209 51.8313C127.204 51.8961 127.195 51.9608 127.182 52.0256Z" fill="black"/>
<path opacity="0.1" d="M115.991 49.4487C115.991 49.4397 115.991 49.4337 115.999 49.4247C116.162 48.8179 115.7 48.2454 115.411 47.6879C115.208 47.2944 115.082 46.8657 115.04 46.4248C115.029 46.503 115.023 46.5819 115.023 46.661C115.019 47.2231 115.153 47.7776 115.411 48.2768C115.614 48.6579 115.891 49.0466 115.991 49.4487Z" fill="black"/>
<path opacity="0.1" d="M127.453 47.93C127.221 48.3261 126.84 48.6459 126.734 49.0929C126.691 49.2813 126.691 49.4769 126.734 49.6653C126.845 49.2274 127.218 48.9105 127.447 48.5189C127.664 48.1365 127.746 47.6918 127.677 47.2573C127.648 47.4941 127.571 47.7227 127.453 47.93Z" fill="black"/>
</g>
<path opacity="0.1" d="M109.079 74.9622C109.118 75.1273 109.149 75.2945 109.17 75.4629C109.17 75.4629 111.532 80.9934 111.831 81.3208C111.922 81.4224 112.269 81.9187 112.705 82.5599L113.206 83.2983C114.103 84.6436 115.118 86.1637 115.118 86.1637L117.336 88.1009C117.336 88.1009 122.148 88.485 123.677 86.9245C123.491 86.7945 123.378 86.7257 123.378 86.7257L122.72 86.2145C122.381 85.642 121.076 85.083 119.766 84.6451C118.556 84.654 117.565 84.7527 117.565 84.7527L117.251 83.9231L116.922 83.0577L115.243 78.6602C115.243 78.6602 114.164 73.1012 113.805 72.8307C113.447 72.5602 113.538 71.7246 113.538 71.7246C113.538 71.7246 114.194 69.3629 113.955 69.0341C113.716 68.7052 114.344 66.2853 114.344 66.2853C114.282 66.0485 114.185 65.8222 114.057 65.6141L109.442 74.3852C109.442 74.3852 109.285 74.6363 109.079 74.9622Z" fill="black"/>
<path d="M114.4 66.1075C114.4 66.1075 113.773 68.5274 114.012 68.8563C114.251 69.1851 113.593 71.5468 113.593 71.5468C113.593 71.5468 113.505 72.3838 113.862 72.6529C114.22 72.9219 115.3 78.4823 115.3 78.4823L117.616 84.5809C117.616 84.5809 124.862 83.8634 124.116 86.1354C123.37 88.4074 117.39 87.929 117.39 87.929L115.178 85.9859C115.178 85.9859 112.188 81.4718 111.889 81.143C111.59 80.8141 109.229 75.2851 109.229 75.2851C109.229 75.2851 109.109 74.179 108.601 73.611C108.093 73.043 108.481 72.0819 108.481 72.0819C108.481 72.0819 107.854 64.8534 108.511 63.9864C109.169 63.1195 113.713 63.5066 114.4 66.1075Z" fill="#EE8E9E"/>
<path opacity="0.1" d="M110.695 61.5634L108.812 62.6994C108.812 62.6994 108.274 64.5229 107.855 64.7621C107.855 64.7621 111.622 62.6695 114.461 67.481C114.461 67.481 114.371 66.8547 114.76 66.5558C115.148 66.2568 115.059 64.9714 115.059 64.9714C115.162 64.7683 115.252 64.5585 115.328 64.3436C115.597 63.6859 114.198 59.9192 110.695 61.5634Z" fill="black"/>
<path d="M110.635 61.4439L108.752 62.5799C108.752 62.5799 108.213 64.4034 107.795 64.6426C107.795 64.6426 111.562 62.55 114.4 67.3615C114.4 67.3615 114.31 66.7352 114.699 66.4363C115.088 66.1373 114.998 64.8518 114.998 64.8518C115.101 64.6487 115.191 64.439 115.267 64.2241C115.542 63.5664 114.131 59.7997 110.635 61.4439Z" fill="#434175"/>
<path d="M93.8515 113.791C96.9522 113.791 99.4657 111.123 99.4657 107.831C99.4657 104.54 96.9522 101.872 93.8515 101.872C90.7509 101.872 88.2373 104.54 88.2373 107.831C88.2373 111.123 90.7509 113.791 93.8515 113.791Z" fill="#FBD56F"/>
<path opacity="0.1" d="M93.8515 113.791C96.9522 113.791 99.4657 111.123 99.4657 107.831C99.4657 104.54 96.9522 101.872 93.8515 101.872C90.7509 101.872 88.2373 104.54 88.2373 107.831C88.2373 111.123 90.7509 113.791 93.8515 113.791Z" fill="black"/>
<path d="M94.8193 113.791C97.9199 113.791 100.433 111.182 100.433 107.964C100.433 104.747 97.9199 102.138 94.8193 102.138C91.7186 102.138 89.2051 104.747 89.2051 107.964C89.2051 111.182 91.7186 113.791 94.8193 113.791Z" fill="#FBD56F"/>
<path d="M13.4731 111.106C17.3027 111.106 20.4072 110.582 20.4072 109.934C20.4072 109.287 17.3027 108.763 13.4731 108.763C9.64355 108.763 6.53906 109.287 6.53906 109.934C6.53906 110.582 9.64355 111.106 13.4731 111.106Z" fill="#1990F2"/>
<path d="M16.3404 108.017C16.6394 107.74 16.9159 107.419 17.0026 107.018C17.0893 106.618 16.9189 106.148 16.5407 106.003C16.1162 105.84 15.6618 106.135 15.318 106.432C14.9743 106.73 14.5811 107.068 14.1312 107.005C14.3627 106.795 14.5358 106.529 14.6338 106.233C14.7318 105.936 14.7512 105.619 14.6903 105.313C14.6725 105.187 14.6208 105.068 14.5408 104.969C14.3061 104.718 13.8786 104.82 13.5961 105.024C12.6993 105.655 12.4497 106.873 12.4452 107.969C12.354 107.573 12.4302 107.162 12.4287 106.755C12.4272 106.349 12.3151 105.9 11.9803 105.682C11.7669 105.568 11.5272 105.512 11.2853 105.519C10.8817 105.504 10.4333 105.544 10.1582 105.839C9.81594 106.207 9.90413 106.821 10.2016 107.225C10.499 107.628 10.9489 107.879 11.369 108.159C11.7029 108.358 11.9879 108.63 12.203 108.954C12.2287 109.002 12.2492 109.052 12.2643 109.103H14.7919C15.3547 108.813 15.8756 108.447 16.3404 108.017Z" fill="#1990F2"/>
<path d="M63.4258 44.7791L69.0938 41.9391L71.1864 43.8568L71.6842 45.2275L72.2073 47.5309L71.7469 48.5398L68.1222 49.2005C68.1222 49.2005 66.191 49.0884 65.8921 49.2379C65.5931 49.3873 64.3734 49.6459 64.3734 49.6459L63.4258 47.3126V44.7791Z" fill="#FBD56F"/>
</g>
<defs>
<linearGradient id="paint0_linear" x1="125.71" y1="116.895" x2="125.71" y2="41.555" gradientUnits="userSpaceOnUse">
<stop stop-color="#808080" stop-opacity="0.25"/>
<stop offset="0.54" stop-color="#808080" stop-opacity="0.12"/>
<stop offset="1" stop-color="#808080" stop-opacity="0.1"/>
</linearGradient>
<clipPath id="clip0">
<rect width="167.111" height="120" fill="white"/>
</clipPath>
</defs>
</svg>
