<svg width="209" height="156" viewBox="0 0 209 156" fill="none" xmlns="http://www.w3.org/2000/svg">
<path d="M182 156C196.912 156 209 154.433 209 152.5C209 150.567 196.912 149 182 149C167.088 149 155 150.567 155 152.5C155 154.433 167.088 156 182 156Z" fill="#3F3D56"/>
<path d="M81.5395 5.95605H0V56.8247H81.5395V5.95605Z" fill="#F2F2F2"/>
<path d="M87 1H5V52H87V1Z" stroke="#3F3D56" stroke-width="2" stroke-miterlimit="10"/>
<path d="M58.437 38.7715C60.8956 36.313 62.5699 33.1806 63.2482 29.7705C63.9265 26.3603 63.5783 22.8257 62.2478 19.6134C60.9172 16.4012 58.664 13.6556 55.7731 11.7239C52.8821 9.79226 49.4833 8.76123 46.0063 8.76123V26.3409L58.437 38.7715Z" fill="#3F3D56"/>
<path d="M46.0064 8.76123C42.099 8.7617 38.3031 10.0638 35.2182 12.4618C32.1332 14.8598 29.935 18.2172 28.9707 22.0037C28.0063 25.7902 28.3308 29.79 29.8928 33.3716C31.4549 36.9531 34.1655 39.9123 37.5966 41.7818L46.0064 26.3409V8.76123Z" fill="#1890FF"/>
<path d="M58.4371 38.7715L46.0065 26.3408L37.5967 41.7817C40.9303 43.5954 44.7611 44.2823 48.5171 43.7398C52.2732 43.1972 55.753 41.4544 58.4371 38.7715Z" fill="#575A89"/>
<path d="M11.5948 41.3022H8.22852V44.6686H11.5948V41.3022Z" fill="#1890FF"/>
<path d="M16.4576 41.3022H13.0913V44.6686H16.4576V41.3022Z" fill="#3F3D56"/>
<path d="M21.3199 41.3022H17.9536V44.6686H21.3199V41.3022Z" fill="#575A89"/>
<path d="M80.2304 42.0503H66.3911V42.6113H80.2304V42.0503Z" fill="#3F3D56"/>
<path d="M80.2304 43.7334H66.3911V44.2945H80.2304V43.7334Z" fill="#3F3D56"/>
<path d="M80.2304 45.4165H66.3911V45.9776H80.2304V45.4165Z" fill="#3F3D56"/>
<path d="M72.0019 76.8354H25.6216V127.704H72.0019V76.8354Z" fill="#F2F2F2"/>
<path d="M77 72H30V123H77V72Z" stroke="#3F3D56" stroke-width="2" stroke-miterlimit="10"/>
<path d="M35.2287 117.103H32.728V119.604H35.2287V117.103Z" fill="#1890FF"/>
<path d="M38.841 117.103H36.3403V119.604H38.841V117.103Z" fill="#3F3D56"/>
<path d="M42.4528 117.103H39.9521V119.604H42.4528V117.103Z" fill="#575A89"/>
<path d="M70.5057 118.189H60.7808V118.583H70.5057V118.189Z" fill="#3F3D56"/>
<path d="M70.5057 119.372H60.7808V119.766H70.5057V119.372Z" fill="#3F3D56"/>
<path d="M70.5057 120.555H60.7808V120.949H70.5057V120.555Z" fill="#3F3D56"/>
<path d="M53.4868 80.9497V85.0641C55.9281 85.0641 58.3145 85.788 60.3443 87.1443C62.3741 88.5006 63.9562 90.4283 64.8904 92.6837C65.8246 94.9391 66.0691 97.4209 65.5928 99.8153C65.1165 102.21 63.941 104.409 62.2147 106.135L65.124 109.044C67.4257 106.743 68.9931 103.81 69.6281 100.618C70.2631 97.4255 69.9372 94.1164 68.6916 91.1092C67.4459 88.102 65.3366 85.5317 62.6301 83.7233C59.9237 81.9149 56.7418 80.9497 53.4868 80.9497Z" fill="#3F3D56"/>
<path d="M65.1241 109.045L62.2148 106.135C60.1045 108.246 57.3008 109.52 54.3229 109.722C51.3451 109.924 48.395 109.04 46.0191 107.233L43.5288 110.51C46.6972 112.918 50.6308 114.097 54.6013 113.827C58.5717 113.558 62.3101 111.859 65.1241 109.045Z" fill="#575A89"/>
<path d="M41.1437 97.4072C41.1437 94.1336 42.4441 90.9941 44.7589 88.6793C47.0737 86.3645 50.2132 85.0641 53.4868 85.0641V80.9497C50.0416 80.9497 46.6833 82.0308 43.8852 84.0408C41.0871 86.0508 38.9903 88.8882 37.8905 92.1531C36.7906 95.418 36.7431 98.9458 37.7547 102.239C38.7662 105.532 40.7858 108.425 43.5288 110.51L46.019 107.233C44.5028 106.083 43.2735 104.597 42.4276 102.893C41.5818 101.188 41.1423 99.3103 41.1437 97.4072Z" fill="#1890FF"/>
<path d="M174.23 27.1813C174.23 27.1813 173.467 32.8499 175.429 33.504C177.391 34.158 176.846 39.1726 176.846 39.1726L170.96 43.6421L165.727 44.0781L164.419 37.3194L165.182 35.5752C165.182 35.5752 168.125 32.0868 166.054 28.4894C163.983 24.892 174.23 27.1813 174.23 27.1813Z" fill="#FFB9B9"/>
<path opacity="0.1" d="M174.23 27.1813C174.23 27.1813 173.467 32.8499 175.429 33.504C177.391 34.158 176.846 39.1726 176.846 39.1726L170.96 43.6421L165.727 44.0781L164.419 37.3194L165.182 35.5752C165.182 35.5752 168.125 32.0868 166.054 28.4894C163.983 24.892 174.23 27.1813 174.23 27.1813Z" fill="black"/>
<path d="M168.779 71.3308L161.911 87.4646C161.911 87.4646 156.57 84.4123 153.409 84.7393C150.247 85.0663 146.323 81.2509 146.323 81.2509L150.247 62.2829L157.551 42.1157L167.689 48.5474L168.779 71.3308Z" fill="#575A89"/>
<path opacity="0.1" d="M168.779 71.3308L161.911 87.4646C161.911 87.4646 156.57 84.4123 153.409 84.7393C150.247 85.0663 146.323 81.2509 146.323 81.2509L150.247 62.2829L157.551 42.1157L167.689 48.5474L168.779 71.3308Z" fill="black"/>
<path d="M179.571 139.899V145.132H174.666L175.429 139.027L179.571 139.899Z" fill="#575A89"/>
<path d="M192.326 130.851L195.923 133.031L193.307 139.027L190.582 138.7L187.965 134.994L192.326 130.851Z" fill="#575A89"/>
<path d="M180.552 69.8047L186.984 84.9573C186.984 84.9573 184.695 101.745 184.804 103.162C184.913 104.579 185.022 105.124 184.477 106.324C183.932 107.523 183.714 108.286 184.041 109.703C184.368 111.12 184.477 111.665 184.259 112.21C184.041 112.755 182.515 135.212 181.751 136.738C180.988 138.264 182.187 140.771 181.424 140.989C180.661 141.207 174.993 140.662 174.666 139.354C174.339 138.046 175.756 134.885 174.993 133.904C174.23 132.922 175.102 97.6027 174.012 95.2044C172.921 92.8062 160.93 90.6259 160.93 90.6259C160.93 90.6259 159.84 83.6492 160.494 82.5591C161.148 81.4689 162.02 74.6012 162.02 74.6012L180.552 69.8047Z" fill="#2F2E41"/>
<path d="M174.23 144.259C174.23 144.259 177.282 140.662 179.898 144.259C179.898 144.259 180.116 148.511 181.969 149.383C183.823 150.255 182.951 153.744 180.334 153.853C177.718 153.962 174.339 154.398 174.23 152.98C174.121 151.563 174.666 150.691 173.685 150.255C172.703 149.819 173.685 147.312 173.685 147.312L174.23 144.259Z" fill="#2F2E41"/>
<path d="M174.557 92.152C174.557 92.152 174.448 100.001 173.685 101.091C172.922 102.181 172.486 102.835 172.922 104.034C173.358 105.233 174.012 107.414 173.685 107.85C173.358 108.286 174.012 110.575 174.012 110.575C174.012 110.575 182.406 114.608 186.33 123.002C186.33 123.002 190.364 129.652 191.563 129.761C192.762 129.87 194.179 128.998 193.525 131.505C192.871 134.012 190.364 137.283 188.51 136.956C186.657 136.629 185.24 133.467 185.24 133.467C185.24 133.467 170.742 118.751 169.215 118.315C167.689 117.879 163.329 114.39 162.566 112.21C161.803 110.03 160.167 91.8249 160.93 90.6258C161.694 89.4267 164.528 87.7915 164.528 87.7915L174.557 92.152Z" fill="#2F2E41"/>
<path d="M193.416 130.415C193.416 130.415 200.175 130.633 200.284 132.268C200.393 133.903 197.449 143.605 197.885 145.895C198.321 148.184 194.506 153.417 191.999 152.326C189.491 151.236 191.454 145.568 191.454 145.568C191.454 145.568 188.946 137.828 189.382 137.719C189.819 137.61 194.179 136.302 193.961 134.994C193.743 133.685 193.416 130.415 193.416 130.415Z" fill="#2F2E41"/>
<path d="M169.161 33.0131C172.893 33.0131 175.919 29.9871 175.919 26.2543C175.919 22.5216 172.893 19.4956 169.161 19.4956C165.428 19.4956 162.402 22.5216 162.402 26.2543C162.402 29.9871 165.428 33.0131 169.161 33.0131Z" fill="#FFB9B9"/>
<path d="M175.974 36.6654C175.974 36.6654 172.267 40.5898 169.542 39.9358C166.817 39.2817 165.4 34.5942 165.4 34.5942L160.494 33.7221C160.494 33.7221 157.006 49.2018 157.006 50.7279C157.006 52.2541 160.494 68.7149 160.494 71.6582C160.494 74.6015 157.66 76.3457 162.02 76.2367C166.381 76.1276 164.31 74.7105 170.632 74.6015C176.955 74.4925 177.936 75.9096 179.244 73.6204C180.136 72.1268 181.238 70.7686 182.515 69.5869L180.225 61.5201L179.898 38.7366C179.898 38.7366 177.103 33.2861 175.83 33.7221C175.83 33.7221 176.519 36.1204 175.974 36.6654Z" fill="#1890FF"/>
<path d="M174.631 32.7578C174.631 32.7578 180.443 33.3949 182.078 34.5941C183.714 35.7932 188.292 36.6653 188.183 37.5374C188.074 38.4095 182.842 50.8368 182.842 50.8368C182.842 50.8368 180.443 60.6479 182.515 62.9371C184.586 65.2263 192.326 90.19 191.017 92.2612C189.709 94.3325 185.567 85.9386 185.567 85.9386C185.567 85.9386 180.007 67.9516 176.955 64.8993C173.903 61.847 173.685 45.3862 173.685 44.6231C173.685 43.8601 174.631 32.7578 174.631 32.7578Z" fill="#575A89"/>
<path d="M166.13 34.0221C166.13 34.0221 158.968 31.3236 156.461 32.4137C153.954 33.5038 152.427 33.7218 152.427 33.7218L151.555 44.405C151.555 44.405 151.228 59.7756 148.394 63.482C145.56 67.1884 143.707 82.6681 144.143 84.1942C144.579 85.7204 143.379 88.3367 145.233 87.6826C147.086 87.0285 152.209 71.9849 152.209 71.9849C152.209 71.9849 152.209 63.373 155.262 60.9747C158.314 58.5765 163.329 48.6564 163.547 46.2582C163.765 43.8599 165.836 37.2102 165.836 37.2102L166.13 34.0221Z" fill="#575A89"/>
<path d="M190.69 68.3874C190.69 68.3874 187.42 74.492 186.984 75.5821C186.548 76.6723 183.496 84.0851 179.135 82.4499C174.775 80.8147 183.387 72.8568 183.387 72.8568L185.349 66.2071C185.349 66.2071 190.472 65.117 190.69 68.3874Z" fill="#FFB9B9"/>
<path d="M153.518 33.7216H152.427C152.427 33.7216 151.337 32.8495 150.029 33.3946C148.721 33.9397 145.669 33.1766 145.669 33.5036C145.669 33.8307 142.289 32.5225 140.872 33.1766C139.455 33.8307 134.332 34.0487 134.332 34.0487C134.332 34.0487 132.26 39.2812 133.677 40.2623C135.095 41.2435 137.166 40.4804 138.147 41.2434C139.128 42.0065 140.981 41.1344 141.635 42.1155C142.289 43.0966 144.688 44.8408 145.233 43.7507C145.778 42.6606 144.688 41.6795 146.977 42.8786C149.266 44.0777 152.864 44.0777 152.864 44.0777L153.518 33.7216Z" fill="#575A89"/>
<path d="M169.77 21.2607C168.855 21.0494 167.906 21.2836 166.979 21.4354C166.053 21.5872 165.032 21.6373 164.249 21.1204C163.67 20.7387 163.314 20.1072 162.98 19.4998C162.841 19.2829 162.748 19.0394 162.707 18.7848C162.668 18.3355 162.954 17.9257 163.257 17.5921C164.667 16.0427 166.727 15.1947 168.804 14.9253C170.511 14.7039 172.292 14.8522 173.868 15.5438C175.445 16.2354 176.801 17.5019 177.421 19.1083C177.706 19.9304 177.885 20.786 177.951 21.6538C178.045 22.2922 178.057 22.94 177.987 23.5815C177.904 24.0571 177.779 24.5244 177.613 24.9781L176.586 28.0791C176.513 28.3721 176.375 28.6451 176.183 28.8784C176.084 28.9926 175.951 29.0719 175.803 29.1042C175.656 29.1365 175.502 29.1201 175.365 29.0576C175.447 28.7208 175.459 28.3708 175.401 28.0289C175.369 27.8586 175.287 27.7017 175.165 27.5786C175.043 27.4555 174.887 27.3718 174.717 27.3382C174.338 27.2981 174.015 27.5915 173.656 27.7179C173.483 27.7691 173.301 27.784 173.123 27.7616C172.944 27.7393 172.772 27.6802 172.617 27.588C172.462 27.4959 172.328 27.3727 172.223 27.2263C172.118 27.0798 172.045 26.9132 172.008 26.737C171.951 26.3825 172.046 26.003 171.912 25.6701C171.754 25.28 171.337 25.0756 171.023 24.7953C170.737 24.5312 170.532 24.1909 170.433 23.8144C170.333 23.4378 170.344 23.0407 170.462 22.6698C170.546 22.4117 170.783 22.2944 170.736 21.9979C170.674 21.609 170.1 21.3371 169.77 21.2607Z" fill="#2F2E41"/>
<path d="M141.198 45.0425H94.8179V95.9112H141.198V45.0425Z" fill="#F2F2F2"/>
<path d="M146 40H100V91H146V40Z" stroke="#3F3D56" stroke-width="2" stroke-miterlimit="10"/>
<path d="M103.981 43.3594V82.259H141.572" stroke="#3F3D56" stroke-width="2" stroke-miterlimit="10"/>
<path d="M114.454 68.6069H106.039V82.0722H114.454V68.6069Z" fill="#575A89"/>
<path d="M126.611 59.4429H118.195V82.072H126.611V59.4429Z" fill="#3F3D56"/>
<path d="M138.767 48.7827H130.351V82.0718H138.767V48.7827Z" fill="#1890FF"/>
<path d="M105.921 85.3101H103.42V87.8107H105.921V85.3101Z" fill="#1890FF"/>
<path d="M109.533 85.3101H107.033V87.8107H109.533V85.3101Z" fill="#3F3D56"/>
<path d="M113.145 85.3101H110.645V87.8107H113.145V85.3101Z" fill="#575A89"/>
<path d="M141.198 86.396H131.473V86.7903H141.198V86.396Z" fill="#3F3D56"/>
<path d="M141.198 87.5791H131.473V87.9734H141.198V87.5791Z" fill="#3F3D56"/>
<path d="M141.198 88.7617H131.473V89.156H141.198V88.7617Z" fill="#3F3D56"/>
<path d="M135.458 34.0428C137.446 34.1292 138.923 35.9318 138.708 37.9097C138.513 39.7016 137.794 41.9314 135.531 42.7879C131.497 44.3141 131.715 35.7022 132.478 35.3751C132.987 35.1571 133.787 33.9701 135.458 34.0428Z" fill="#FFB9B9"/>
<path d="M186.984 36.9551L188.183 37.5375C188.183 37.5375 190.799 42.879 190.908 43.6421C191.017 44.4052 192.762 47.2395 192.108 48.0026C191.454 48.7657 190.472 50.7279 191.126 51.491C191.781 52.2541 193.307 55.3064 193.307 56.3965C193.307 57.4866 191.672 60.4299 192.762 60.757C193.852 61.084 193.525 65.3354 193.307 65.6625C193.089 65.9895 190.254 71.3311 190.254 71.3311C190.254 71.3311 189.709 65.2264 184.368 67.7337C184.368 67.7337 183.932 64.6814 184.368 64.4634C184.804 64.2453 185.894 62.9372 185.022 62.7192C184.15 62.5011 182.951 59.8849 183.169 59.5578C183.387 59.2308 183.932 58.7947 183.387 58.4677C182.842 58.1407 182.406 56.2875 182.515 55.9604C182.624 55.6334 181.315 54.1072 181.315 54.1072L186.984 36.9551Z" fill="#575A89"/>
</svg>
