<svg width="186" height="120" viewBox="0 0 186 120" fill="none" xmlns="http://www.w3.org/2000/svg">
<g clip-path="url(#clip0)">
<path d="M185.605 118.644H0V120H185.605V118.644Z" fill="#85848B"/>
<path d="M147.047 94.6946C147.047 95.7379 140.965 98.7796 133.742 98.7796C126.518 98.7796 120.889 95.7379 120.889 94.6946C120.889 93.6512 126.744 93.9872 133.975 93.9872C141.206 93.9872 147.047 93.6495 147.047 94.6946Z" fill="#504F60"/>
<path opacity="0.2" d="M147.047 94.6946C147.047 95.7379 140.965 98.7795 133.742 98.7795C126.518 98.7795 120.889 95.7379 120.889 94.6946" fill="black"/>
<path d="M74.2984 75.5502C75.4708 75.7005 76.6875 75.796 77.8104 75.4317C77.9872 75.3769 78.1818 75.2549 78.1641 75.078C78.1514 75.0138 78.1242 74.9533 78.0845 74.9012C77.6612 74.2663 77.3056 73.5889 77.0235 72.88C77.0123 72.843 76.9893 72.8107 76.9581 72.788C76.9215 72.7748 76.8814 72.7748 76.8449 72.788C76.3267 72.9242 75.8793 73.2584 75.3647 73.4016C75.1024 73.4736 74.8285 73.494 74.5584 73.4618C74.3249 73.4352 74.0066 73.2425 73.7944 73.2672C73.9147 74.04 74.2082 74.7615 74.2984 75.5502Z" fill="#1990F2"/>
<path d="M96.472 73.5926C97.2447 73.0621 98.0458 72.505 98.502 71.6863C98.5346 71.6373 98.5535 71.5805 98.5569 71.5218C98.5491 71.464 98.5265 71.4092 98.4914 71.3627C98.0568 70.6718 97.4973 70.0679 96.8415 69.5819C96.4994 69.8236 96.1903 70.109 95.922 70.4307C95.7275 70.6359 95.1899 70.9613 95.1846 71.2743C95.1846 71.4511 95.3897 71.6562 95.4852 71.8048C95.6143 71.9958 95.7363 72.1903 95.853 72.3883C95.9202 72.4856 96.5338 73.5537 96.472 73.5926Z" fill="#1990F2"/>
<path d="M78.8944 77.918C78.9082 78.1002 78.8582 78.2815 78.7529 78.4309C78.6704 78.5139 78.5682 78.5747 78.4559 78.6077C76.8166 79.1948 74.9191 78.4627 73.2834 79.041C72.9474 79.1594 72.6291 79.331 72.2913 79.4441C71.8886 79.5652 71.4732 79.6388 71.0534 79.6634C70.4752 79.7182 69.8934 79.7536 69.3134 79.7695C68.8727 79.8007 68.4298 79.7619 68.0012 79.6546C67.7869 79.5997 67.5866 79.5004 67.4132 79.363C67.2398 79.2255 67.0974 79.0532 66.995 78.857C66.9061 78.6812 66.8884 78.4779 66.9455 78.2894C66.9712 78.2248 67.0076 78.1649 67.0534 78.1126C67.1642 77.9882 67.2944 77.8825 67.4389 77.7996L68.0419 77.4105C68.3247 77.2106 68.6319 77.0477 68.9561 76.926C69.1949 76.8482 69.4478 76.8146 69.69 76.7491C70.5371 76.5016 71.1843 75.8296 71.7855 75.1841L72.6061 74.3088C72.6828 74.2125 72.7801 74.1345 72.8908 74.0807C73.0046 74.0427 73.1255 74.0312 73.2445 74.0471C74.0415 74.104 74.8111 74.3619 75.4815 74.7969C75.6528 74.9254 75.8378 75.0345 76.0332 75.1222C76.5142 75.3097 77.1314 75.1682 77.5752 74.9313C77.7857 74.8181 77.7397 74.7544 77.8281 74.5528C77.9165 74.3512 78.1322 74.2221 78.3197 74.406C78.3762 74.4696 78.4163 74.5462 78.4364 74.6289C78.6132 75.2124 78.5461 75.8402 78.5461 76.4521C78.5409 76.5477 78.5528 76.6435 78.5814 76.735C78.6265 76.8272 78.6804 76.9148 78.7423 76.9967C78.7549 77.0184 78.7662 77.0408 78.7759 77.0639C78.8841 77.3348 78.9248 77.6279 78.8944 77.918Z" fill="#514E7F"/>
<path d="M78.8944 77.918C78.9082 78.1002 78.8582 78.2815 78.7529 78.4309C78.6704 78.5139 78.5682 78.5747 78.4558 78.6077C76.8166 79.1948 74.9191 78.4627 73.2834 79.041C72.9474 79.1594 72.6291 79.331 72.2913 79.4441C71.8886 79.5652 71.4732 79.6388 71.0534 79.6634C70.4752 79.7182 69.8934 79.7536 69.3134 79.7695C68.8727 79.8007 68.4298 79.7619 68.0012 79.6546C67.7869 79.5997 67.5866 79.5004 67.4132 79.363C67.2398 79.2255 67.0974 79.0532 66.995 78.857C66.9061 78.6812 66.8884 78.4779 66.9455 78.2894C66.9712 78.2247 67.0076 78.1649 67.0534 78.1126C67.1489 78.3124 67.2178 78.5776 67.278 78.6731C67.3592 78.8146 67.4697 78.9372 67.602 79.0327C67.7343 79.1281 67.8855 79.1942 68.0454 79.2266C68.2848 79.2413 68.5248 79.2107 68.7528 79.1365C70.2382 78.7686 71.8174 78.7633 73.2445 78.2063C73.7343 78.0135 74.2011 77.7571 74.7157 77.6404C75.2303 77.5237 75.7768 77.5555 76.3073 77.5113C77.1455 77.4441 77.9572 77.1912 78.783 77.0586C78.8896 77.3317 78.9279 77.6268 78.8944 77.918Z" fill="#464353"/>
<path d="M100.226 73.4848C100.149 74.1073 99.7542 74.6431 99.3209 75.0976C98.8877 75.552 98.3978 75.9605 98.053 76.4839C97.6286 77.1329 97.4376 77.9376 96.8859 78.4857C96.6741 78.6851 96.4361 78.8547 96.1785 78.9897C95.89 79.16 95.5848 79.3004 95.2678 79.4088C94.4437 79.6723 93.556 79.6122 92.6948 79.5485C92.4152 79.5459 92.1384 79.4925 91.8778 79.3912C91.7592 79.3309 91.6457 79.2611 91.5383 79.1825C91.3224 79.0495 91.1407 78.8678 91.0078 78.652C90.9425 78.5346 90.9242 78.3968 90.9565 78.2665C91.0057 78.1229 91.0903 77.994 91.2023 77.8916C91.3961 77.69 91.6041 77.5027 91.8248 77.331C92.1275 77.1356 92.4003 76.8974 92.6347 76.6237C92.7785 76.4074 92.8843 76.1682 92.9477 75.9163C93.073 75.4751 93.1495 75.0214 93.1758 74.5635C93.1749 74.2592 93.2063 73.9557 93.2695 73.6581C93.4004 73.1912 93.747 72.7739 93.7081 72.2911C93.6924 72.222 93.6985 72.1497 93.7258 72.0842C93.7669 72.0331 93.8244 71.9975 93.8885 71.9834C94.1587 71.8757 94.4437 71.8096 94.7338 71.7872C94.8792 71.7771 95.0252 71.7995 95.1609 71.8527C95.2967 71.9059 95.419 71.9886 95.5189 72.0948C95.6392 72.2399 95.7187 72.4485 95.8956 72.5051C95.9832 72.529 96.0751 72.5327 96.1644 72.5157C96.5994 72.4715 97.0592 72.4167 97.4022 72.1355C97.5608 71.9933 97.6882 71.8198 97.7765 71.6259C97.8647 71.4321 97.9119 71.2221 97.9151 71.0091C97.9151 70.8482 97.8426 70.6802 98.0919 70.6554C98.2794 70.6306 98.4279 70.8322 98.5234 70.956C98.8682 71.4176 99.2219 71.9003 99.351 72.4627C99.4012 72.4432 99.4545 72.433 99.5084 72.4326C99.6187 72.4316 99.7276 72.4573 99.8258 72.5075C99.924 72.5577 100.009 72.6309 100.072 72.7209C100.213 72.949 100.268 73.22 100.226 73.4848Z" fill="#514E7F"/>
<path d="M100.226 73.4847C100.148 74.1072 99.7537 74.643 99.3204 75.0975C98.8872 75.552 98.3973 75.9604 98.0525 76.4839C97.6281 77.1329 97.4371 77.9375 96.8854 78.4857C96.6736 78.685 96.4356 78.8546 96.178 78.9897C95.8895 79.1599 95.5843 79.3003 95.2673 79.4088C94.4433 79.6723 93.5555 79.6121 92.6944 79.5485C92.4148 79.5458 92.138 79.4924 91.8774 79.3911C91.7587 79.3308 91.6452 79.261 91.5378 79.1824C91.322 79.0495 91.1403 78.8678 91.0073 78.6519C91.1731 78.5722 91.354 78.5288 91.5378 78.5246C91.9198 78.5458 92.1992 78.9065 92.5653 79.018C93.0869 79.1753 93.6068 78.8075 94.1356 78.682C94.4804 78.6006 94.8429 78.6218 95.1842 78.5051C95.4686 78.3952 95.7314 78.236 95.9605 78.0347C96.2745 77.8102 96.5539 77.5409 96.7899 77.2354C96.9858 76.9299 97.1488 76.6045 97.2762 76.2646C97.5554 75.6132 97.8841 74.9842 98.2594 74.3831C98.3149 74.2879 98.382 74.2 98.4592 74.1213C98.5423 74.0453 98.6361 73.9923 98.7298 73.9251C99.0835 73.658 99.2302 73.2177 99.354 72.7862C99.3875 72.6551 99.4344 72.5277 99.4937 72.406C99.604 72.4051 99.7129 72.4308 99.8111 72.481C99.9094 72.5311 99.994 72.6043 100.058 72.6943C100.21 72.9278 100.27 73.2095 100.226 73.4847Z" fill="#464353"/>
<path d="M63.1448 18.3505C63.585 18.6803 63.9472 19.1029 64.2059 19.5883C64.4534 20.0729 65.8805 23.8324 65.7974 24.3789C66.2625 23.9102 68.0963 23.8342 68.5667 23.3656C68.763 23.1693 69.8222 22.1896 69.9814 21.9615C70.1405 21.7334 71.3218 21.2542 71.4509 21.0137C71.9336 20.1489 68.0273 16.8721 68.5278 16.018C68.5554 15.9788 68.5697 15.9316 68.5684 15.8836C68.557 15.8433 68.5343 15.8071 68.503 15.7793C68.1829 15.4521 67.7585 15.2488 67.373 15.0065C66.9875 14.7642 66.6161 14.4265 66.5118 13.9808C66.1442 14.1501 65.8067 14.3782 65.5127 14.6564C64.7959 15.2706 64.0915 15.8972 63.3995 16.5361C63.1289 16.7872 62.6055 17.1215 62.4799 17.4804C62.3314 17.866 62.8867 18.14 63.1448 18.3505Z" fill="#A1616A"/>
<path d="M69.4689 16.9586C68.8695 17.3614 68.3094 17.8196 67.796 18.3273C67.3115 18.8066 66.8517 19.3618 66.735 20.032C66.6855 20.2955 66.6925 20.5626 66.6519 20.8296C66.475 21.9879 65.4741 22.8367 65.032 23.9207C64.904 24.2553 64.8098 24.6018 64.7509 24.9552C64.6266 25.6251 64.5586 26.3041 64.5475 26.9853C64.5369 27.6449 65.1841 28.0994 65.4211 28.7148C65.658 29.3301 65.7217 29.9632 65.8419 30.5945C66.0683 31.7864 66.4839 32.9359 66.903 34.0782C67.7748 36.4868 70.6006 43.1447 71.4724 45.555C74.1445 44.8848 81.2569 43.3445 83.623 41.9316C84.4116 41.4612 78.1498 36.1543 78.9933 35.7882C79.0416 35.7807 79.0874 35.7621 79.1272 35.7339C79.167 35.7056 79.1996 35.6685 79.2226 35.6255C79.2456 35.5824 79.2583 35.5346 79.2596 35.4858C79.2609 35.4371 79.2509 35.3886 79.2303 35.3444C78.3868 31.6556 75.7484 28.6246 74.5512 25.033C74.1356 23.7863 73.3894 22.7217 72.8235 21.5369C72.3107 20.4635 72.0366 19.277 71.4229 18.2566C71.3072 18.0464 71.1558 17.8579 70.9755 17.6996C70.8225 17.5822 70.657 17.482 70.4822 17.4007C70.132 17.2309 69.8066 17.1302 69.4689 16.9586Z" fill="#514E7F"/>
<path d="M63.2867 17.9313C65.5965 17.9313 67.4689 16.0589 67.4689 13.7491C67.4689 11.4393 65.5965 9.56689 63.2867 9.56689C60.9769 9.56689 59.1045 11.4393 59.1045 13.7491C59.1045 16.0589 60.9769 17.9313 63.2867 17.9313Z" fill="#A1616A"/>
<path d="M67.5415 15.7137C67.7499 15.5214 68.0118 15.3969 68.2924 15.3565C68.5731 15.3161 68.8594 15.3617 69.1136 15.4873C69.3965 15.6341 69.6441 15.9312 69.5804 16.2424L71.6547 16.2742C71.9849 16.2652 72.315 16.2955 72.638 16.3644C72.963 16.4352 73.2532 16.6172 73.4585 16.879C73.4832 16.9126 73.5115 16.9533 73.554 16.9586C73.5885 16.9591 73.6222 16.9479 73.6495 16.9268C73.9686 16.7667 74.328 16.7052 74.6822 16.7499C75.8033 16.8224 76.8396 17.383 77.7185 18.0833C77.877 18.1922 78 18.3454 78.0722 18.5236C78.1447 18.7588 78.058 19.0541 78.249 19.2221C78.249 21.1673 78.9174 22.9852 79.3631 24.8809C79.4427 25.2187 79.7663 25.5175 79.9908 25.7828C80.2683 26.0769 80.4948 26.4151 80.6611 26.7837C81.0395 27.7669 80.5178 28.9234 80.8856 29.9102C81.0413 30.3275 81.3419 30.6706 81.593 31.0331C81.924 31.4517 82.1333 31.9534 82.1978 32.4832C82.2137 32.7201 82.1836 32.9588 82.1978 33.1905C82.2215 33.5091 82.2808 33.8241 82.3746 34.1295C82.5255 34.7001 82.6835 35.2701 82.8485 35.8395C83.1173 36.7591 83.4675 37.7511 84.2915 38.241C82.3021 38.5787 80.2048 38.9094 78.3091 38.218C78.0447 38.1278 77.7937 38.0023 77.5629 37.8449C76.8785 37.3568 76.5478 36.5221 76.2525 35.7334C75.9236 34.8492 75.5894 33.9491 75.5222 33.0084C75.5228 32.7091 75.4805 32.4114 75.3966 32.1242C75.2039 31.6113 74.6893 31.3019 74.2224 31.0172C73.6952 30.7283 73.2176 30.357 72.8077 29.9172C72.6043 29.6958 72.4485 29.4349 72.35 29.1508C72.2514 28.8667 72.2122 28.5654 72.2348 28.2656C72.2701 27.9738 72.3851 27.6926 72.3957 27.3991C72.4063 27.1055 72.2754 26.7695 71.9943 26.6917C70.546 26.2532 69.8545 24.5379 69.5327 23.0595C69.3938 22.2954 69.3316 21.5194 69.347 20.7429L69.3276 19.2345C69.1277 19.0527 68.9669 18.8321 68.8551 18.5861C68.7432 18.3402 68.6825 18.074 68.6768 17.8039C68.696 17.6463 68.693 17.4868 68.668 17.33C68.598 17.1383 68.4841 16.9657 68.3355 16.826C68.0157 16.4978 67.748 16.1227 67.5415 15.7137Z" fill="#464353"/>
<path d="M63.0866 20.4955C63.0389 20.9624 63.145 21.4416 63.0406 21.8996C63 22.0765 62.9292 22.2533 62.8779 22.4178C62.7212 23.077 62.789 23.7697 63.0707 24.386C63.352 24.9962 63.6888 25.5792 64.0769 26.1278C64.2082 26.3151 64.3162 26.5175 64.3987 26.7308C64.4656 26.9548 64.5072 27.1855 64.5225 27.4187C64.6249 28.3552 64.7892 29.2838 65.0141 30.1986C65.2122 30.9908 67.4616 37.7637 67.985 38.3915C68.08 38.5305 68.224 38.6284 68.3882 38.6656C68.5066 38.67 68.6243 38.6458 68.7312 38.5948L69.7923 38.1881C69.8825 38.1605 69.9661 38.1148 70.0381 38.0537C70.1375 37.9375 70.1915 37.7893 70.1902 37.6364C70.2662 36.7734 68.0115 29.9528 67.725 29.1376C66.8585 26.676 65.7056 24.3028 65.1415 21.7546C64.9841 21.0473 64.901 19.9579 64.3828 19.3938C64.1689 19.1604 64.2414 19.2594 63.9849 19.3815C63.8554 19.4377 63.7301 19.5033 63.6101 19.5777C63.46 19.6821 63.3351 19.8186 63.2445 19.9774C63.154 20.1362 63.1 20.3132 63.0866 20.4955Z" fill="#464353"/>
<path d="M66.3065 25.1657C66.5912 26.6706 66.8847 28.1719 67.1765 29.6768L71.3286 28.5893C71.3622 28.1542 71.1306 27.751 70.975 27.3514C70.5965 26.4018 70.5877 25.3443 70.2818 24.3681C70.0501 23.6254 69.6469 22.9428 69.4294 22.1948C69.3039 21.7598 69.2402 21.3106 69.1164 20.8703C68.9836 20.4379 68.8206 20.0154 68.6283 19.6059C68.3953 19.0121 68.0913 18.4486 67.7229 17.9277C67.1924 18.1258 66.6265 18.3557 66.3241 18.8349C66.1691 19.1049 66.0805 19.408 66.066 19.7191C65.9935 20.651 66.3312 21.5883 66.2198 22.5149C66.1051 23.3974 66.1343 24.2926 66.3065 25.1657Z" fill="#1990F2"/>
<path d="M71.398 45.1837C71.6315 46.0679 71.2937 46.9981 71.0178 47.8734C70.6025 49.1919 70.3193 50.5484 70.1725 51.923C70.1545 52.2728 70.0842 52.6179 69.9639 52.9469C69.833 53.2422 69.6102 53.4915 69.4581 53.7727C69.0408 54.5119 69.0514 55.4138 69.1416 56.259C69.2017 56.8161 69.2919 57.3713 69.4033 57.9195C69.5395 58.5898 69.7075 59.29 69.5112 59.9443C69.8401 59.8718 70.0629 60.298 70.0417 60.6322C70.0205 60.9664 69.9126 61.3396 70.0735 61.6278C70.4802 61.7764 70.4838 62.3352 70.4714 62.7684C70.4781 63.5196 70.5731 64.2675 70.7543 64.9966C71.3697 67.9556 72.0229 70.9065 72.7137 73.849C74.208 74.3124 75.9534 74.7951 77.3787 74.1532C77.6439 74.0347 77.9092 73.8455 77.9693 73.559C77.9848 73.4046 77.9655 73.2487 77.9127 73.1028L77.2372 70.6447C77.0727 70.0506 76.9083 69.437 76.9949 68.8269C77.0604 68.3724 77.2584 67.8825 77.0356 67.4811C76.9596 67.3432 76.8393 67.2353 76.7509 67.1045C76.3972 66.5863 76.5829 65.8931 76.6112 65.2654C76.6222 65.1244 76.6127 64.9827 76.5829 64.8445C76.5345 64.6831 76.4668 64.5281 76.3813 64.3829C75.823 63.2991 75.555 62.0892 75.6032 60.871C75.6243 60.7155 75.603 60.5572 75.5413 60.4129C75.4984 60.3534 75.46 60.2907 75.4264 60.2255C75.4 60.112 75.4131 59.9928 75.4635 59.8877C75.2608 59.734 75.0779 59.5558 74.9189 59.3572C75.0169 59.2963 75.0999 59.2138 75.1614 59.1161C75.223 59.0183 75.2615 58.9079 75.2741 58.7931C75.2867 58.6783 75.2731 58.5621 75.2342 58.4534C75.1953 58.3446 75.1322 58.2461 75.0497 58.1653C75.1218 58.1508 75.1885 58.1166 75.2424 58.0664C75.2962 58.0163 75.3351 57.9522 75.3547 57.8813C75.3743 57.8104 75.3738 57.7355 75.3534 57.6648C75.333 57.5941 75.2933 57.5305 75.2389 57.481C75.1523 57.4209 75.0373 57.3943 74.9754 57.3041C74.88 57.1733 74.9578 56.9911 75.0356 56.8514L75.4476 56.107C75.7553 55.5535 75.8243 54.8691 76.1549 54.3386C76.6289 53.5658 76.9383 52.7046 77.2443 51.8523L78.4344 48.5684L79.2355 49.2634C79.5023 49.4672 79.7259 49.7221 79.8933 50.0131C80.0072 50.3008 80.0793 50.6033 80.1073 50.9115C80.4008 52.694 81.522 54.2396 81.9375 55.9956C82.0295 56.3864 82.0914 56.7966 82.316 57.1308C82.3963 57.2335 82.4685 57.3423 82.5317 57.4562C82.5902 57.6301 82.6207 57.8121 82.6219 57.9956C82.659 58.3548 82.7729 58.7017 82.956 59.013C83.1391 59.3242 83.387 59.5924 83.6829 59.7993C84.0773 60.0699 84.5671 60.2556 84.7811 60.6835C84.8239 60.816 84.8833 60.9426 84.9579 61.0602C85.1489 61.2901 85.5609 61.3166 85.6423 61.6048C85.6882 61.7658 85.6034 61.9585 85.6935 62.1C85.7448 62.1654 85.8125 62.2161 85.8898 62.2467L87.041 62.8215C88.3284 63.4652 88.9863 64.9435 89.9359 66.0205C90.2638 66.3712 90.5542 66.7553 90.8024 67.1664C91.2126 67.9002 91.4019 68.8216 92.0951 69.2884C92.2814 69.385 92.451 69.511 92.5973 69.6615C92.8148 69.948 92.7352 70.3494 92.7547 70.7102C92.7741 71.0709 93.05 71.5006 93.393 71.391C93.2728 71.8279 93.2728 72.2892 93.393 72.7261C94.8992 72.6488 96.3355 72.067 97.4709 71.0745C97.8069 70.7809 98.1305 70.406 98.134 69.9604C98.1392 69.8835 98.122 69.8067 98.0845 69.7393C98.0165 69.6523 97.9269 69.5846 97.8246 69.543C96.7476 68.9595 96.424 67.6067 95.8794 66.5085C95.4037 65.5395 94.6999 64.7048 94.111 63.8047C92.8307 61.8683 91.9571 59.5252 90.0208 58.2467C89.5946 57.9655 89.0994 57.7162 88.8855 57.2511C88.767 56.9911 88.7528 56.6941 88.6591 56.4253C88.5654 56.1565 88.3408 55.8948 88.0543 55.8948C88.2135 55.5057 88.1816 55.0318 88.1923 54.6109C88.2031 54.4241 88.1816 54.2369 88.1286 54.0574C88.055 53.8644 87.9595 53.6804 87.8439 53.5092C87.3387 52.6538 87.0861 51.6728 87.1153 50.6798C87.1295 50.1688 87.2197 49.6418 87.0658 49.1537C86.988 48.9079 86.8518 48.6833 86.7581 48.4464C86.6169 48.017 86.5423 47.5685 86.5371 47.1166L86.431 45.4171C86.4149 44.8512 86.3415 44.2883 86.2117 43.7372C85.858 42.418 85.5043 36.8918 84.293 36.2693C83.0817 35.6469 81.0003 39.8998 79.6369 39.9829C79.0337 40.008 78.4377 40.1231 77.8685 40.3242C76.9613 40.6638 76.2009 41.2968 75.46 41.9158L72.9524 44.0219C72.4219 44.4587 71.9834 44.876 71.398 45.1837Z" fill="#464353"/>
<path d="M59.3625 9.10546C59.9142 8.35213 60.8621 7.95248 61.7958 7.91888C62.7295 7.88528 63.649 8.17883 64.4854 8.5944C64.7323 8.73479 64.9962 8.84295 65.2706 8.91624C65.7127 9.00643 66.2043 8.88618 66.604 9.09308C67.1345 9.37425 67.237 10.0904 67.1911 10.6846C67.1451 11.2788 67.0337 11.9384 67.3502 12.453C67.4625 12.5997 67.5647 12.7539 67.6561 12.9145C67.7923 13.2205 67.7127 13.5741 67.6314 13.8977C67.4245 13.7209 67.3078 13.4539 67.1239 13.2488C66.94 13.0436 66.6199 12.9057 66.3918 13.0595C66.1636 13.2134 66.1672 13.4928 66.1548 13.7439C66.1424 13.995 66.0788 14.2956 65.8418 14.377C65.7428 14.3995 65.6394 14.3918 65.5448 14.3549C65.4502 14.3181 65.3689 14.2537 65.3113 14.1701C64.9063 13.6749 65.069 12.8845 64.6676 12.3858C64.4395 12.1028 64.0593 11.9649 63.8488 11.6678C63.6826 11.4344 63.6402 11.1373 63.4952 10.8862C63.3502 10.6351 63.0124 10.4512 62.7878 10.6245C62.7112 10.6977 62.6472 10.7832 62.5986 10.8774C62.4585 11.078 62.2549 11.2255 62.0207 11.2961C61.7865 11.3667 61.5353 11.3562 61.3077 11.2664C61.1338 11.1597 60.9457 11.0781 60.7489 11.0241C60.6201 11.0177 60.492 11.0474 60.3792 11.1099C60.2664 11.1724 60.1733 11.2652 60.1105 11.3778C59.9836 11.6028 59.9223 11.8589 59.9337 12.117C59.9337 12.4707 59.9973 12.8473 59.7957 13.1303C59.7191 13.2368 59.6231 13.328 59.5128 13.3991C59.2175 13.5883 58.8054 13.7156 58.5331 13.4999C58.4408 13.4139 58.3721 13.3056 58.3337 13.1855C58.2953 13.0653 58.2885 12.9373 58.3138 12.8137C58.3669 12.5676 58.4366 12.3254 58.5225 12.0887C58.6781 11.5405 58.4747 10.9233 58.6445 10.407C58.8223 9.94195 59.064 9.50391 59.3625 9.10546Z" fill="#464353"/>
<path d="M61.6031 21.5813C61.5765 21.7101 61.5901 21.8441 61.642 21.965C61.6946 22.0474 61.7661 22.1159 61.8507 22.1648C62.4453 22.5353 63.1217 22.7545 63.8206 22.8032C63.9157 22.8048 64.0091 22.8291 64.093 22.8739C64.2592 22.9836 64.2698 23.2276 64.2079 23.4221C64.1254 23.6056 64.0826 23.8045 64.0824 24.0057C64.1336 24.3753 64.5722 24.5362 64.9418 24.591C65.4599 24.6565 66.0276 24.6229 66.4378 24.2993C66.7157 24.0458 66.9276 23.7283 67.055 23.3744C68.07 21.0419 68.4255 18.4636 69.4529 16.1382C69.5308 15.9864 69.5828 15.8226 69.6067 15.6537C69.6176 15.5691 69.6056 15.4832 69.572 15.4048C69.5384 15.3264 69.4845 15.2585 69.4158 15.208C69.2248 15.0896 68.9277 15.1568 68.7986 14.9711C68.7349 14.8774 68.742 14.75 68.6854 14.651C68.5669 14.4406 68.2557 14.4742 68.0435 14.3522C67.8773 14.2637 67.7623 14.0816 67.5767 14.0462C67.4855 14.0411 67.3944 14.0573 67.3106 14.0935C67.2268 14.1297 67.1526 14.185 67.0939 14.2549C66.4909 14.8172 66.1743 15.6148 65.8383 16.3681C65.3253 17.5228 64.7247 18.6366 64.0417 19.6997C64.1213 19.5759 63.6597 18.6387 63.4793 18.598C63.1628 18.5344 62.7578 19.0896 62.5863 19.2965C62.048 19.9491 61.707 20.7417 61.6031 21.5813Z" fill="#1990F2"/>
<path opacity="0.1" d="M68.0274 14.5166C67.9004 14.5187 67.7755 14.5494 67.6619 14.6063C67.5483 14.6633 67.449 14.745 67.3713 14.8455C67.1821 15.0913 67.145 15.4167 67.0972 15.7297C66.9363 16.7213 66.5824 17.6718 66.0557 18.5273" fill="black"/>
<path opacity="0.1" d="M68.9291 15.2222C68.7538 15.2261 68.5825 15.2756 68.4321 15.3658C68.2817 15.456 68.1574 15.5839 68.0715 15.7368C67.9544 16.0149 67.8816 16.3097 67.8557 16.6103C67.7041 17.2769 67.4117 17.9034 66.998 18.4477" fill="black"/>
<path d="M110.956 49.7937V47.5974C110.956 45.9806 110.313 44.4302 109.17 43.2871C108.027 42.144 106.476 41.5018 104.859 41.5018H18.1223C16.5054 41.5018 14.9548 42.144 13.8114 43.2871C12.668 44.4302 12.0254 45.9806 12.0249 47.5974V51.647L110.956 49.7937Z" fill="#33323D"/>
<path d="M42.2515 38.9272C42.2515 38.9272 42.0039 54.2873 44.7272 59.3413C47.4505 64.3953 48.6176 86.3815 48.6176 86.3815C48.6176 86.3815 77.1662 89.3347 97.0604 82.8447C116.955 76.3548 159.286 73.7005 159.286 73.7005L152.152 25.6202C152.152 25.6202 116.91 23.3602 96.8624 32.9218C76.8143 42.4834 42.2515 38.9272 42.2515 38.9272Z" fill="#8DD070"/>
<path opacity="0.1" d="M42.2515 38.9272C42.2515 38.9272 42.0039 54.2873 44.7272 59.3413C47.4505 64.3953 48.6176 86.3815 48.6176 86.3815C48.6176 86.3815 77.1662 89.3347 97.0604 82.8447C116.955 76.3548 159.286 73.7005 159.286 73.7005L152.152 25.6202C152.152 25.6202 116.91 23.3602 96.8624 32.9218C76.8143 42.4834 42.2515 38.9272 42.2515 38.9272Z" fill="black"/>
<path d="M48.5702 44.5382C48.5702 44.5382 47.6772 57.2122 49.9177 61.2617C52.1583 65.3113 52.2626 83.3894 52.2626 83.3894C52.2626 83.3894 77.9553 84.5813 96.2314 78.3601C114.508 72.139 152.913 68.1036 152.913 68.1036L148.549 28.7838C148.549 28.7838 116.771 28.4567 98.2244 37.2136C79.6777 45.9706 48.5702 44.5382 48.5702 44.5382Z" fill="#8DD070"/>
<path opacity="0.1" d="M97.9418 71.1609C101.597 70.7056 103.769 63.9805 102.793 56.14C101.816 48.2996 98.061 42.3127 94.4053 42.7681C90.7496 43.2234 88.5778 49.9485 89.5544 57.789C90.531 65.6294 94.2862 71.6163 97.9418 71.1609Z" fill="black"/>
<path opacity="0.2" d="M132.831 2.198C132.831 2.198 98.5936 10.863 82.4483 26.1152C66.3031 41.3674 32.3149 48.5895 32.3149 48.5895C32.3149 48.5895 36.7925 63.2829 40.934 67.2582C45.0755 71.2335 52.9306 91.8032 52.9306 91.8032C52.9306 91.8032 81.0071 85.8508 97.9481 73.5642C114.889 61.2775 154.372 45.7601 154.372 45.7601L132.831 2.198Z" fill="black"/>
<path d="M31.8008 46.3897C31.8008 46.3897 36.2765 61.0849 40.4145 65.0602C44.5525 69.0355 52.4112 89.6034 52.4112 89.6034C52.4112 89.6034 80.4912 83.6529 97.4339 71.3662C114.377 59.0796 153.856 43.5674 153.856 43.5674L132.315 0C132.315 0 98.0794 8.66503 81.9341 23.9172C65.7889 39.1695 31.8008 46.3897 31.8008 46.3897Z" fill="#8DD070"/>
<path opacity="0.1" d="M31.8008 46.3897C31.8008 46.3897 36.2765 61.0849 40.4145 65.0602C44.5525 69.0355 52.4112 89.6034 52.4112 89.6034C52.4112 89.6034 80.4912 83.6529 97.4339 71.3662C114.377 59.0796 153.856 43.5674 153.856 43.5674L132.315 0C132.315 0 98.0794 8.66503 81.9341 23.9172C65.7889 39.1695 31.8008 46.3897 31.8008 46.3897Z" fill="black"/>
<path d="M39.5303 49.792C39.5303 49.792 42.5701 62.13 45.9459 65.2954C49.3218 68.4607 54.9646 85.6316 54.9646 85.6316C54.9646 85.6316 79.782 78.88 95.2676 67.3502C110.753 55.8204 146.071 40.211 146.071 40.211L129.853 4.11499C129.853 4.11499 99.51 13.5528 84.5442 27.5795C69.5785 41.6062 39.5303 49.792 39.5303 49.792Z" fill="#8DD070"/>
<path opacity="0.1" d="M94.6946 59.9793C98.0342 58.4242 98.0376 51.3571 94.7022 44.1946C91.3668 37.032 85.9557 32.4863 82.6161 34.0415C79.2766 35.5966 79.2732 42.6637 82.6086 49.8262C85.944 56.9888 91.3551 61.5344 94.6946 59.9793Z" fill="black"/>
<path opacity="0.1" d="M113.298 51.9495V112.958C113.298 113.651 113.161 114.337 112.896 114.977C112.631 115.618 112.242 116.199 111.752 116.689C111.262 117.179 110.681 117.567 110.04 117.832C109.4 118.097 108.714 118.234 108.021 118.233H17.3036C15.9048 118.233 14.5636 117.677 13.5747 116.688C12.5858 115.699 12.0303 114.357 12.0303 112.958V45.7991C14.6298 46.7646 14.6298 46.7646 17.3036 46.6833H108.021C109.419 46.6833 110.759 47.2378 111.749 48.2251C112.738 49.2124 113.295 50.5518 113.298 51.9495Z" fill="black"/>
<path d="M113.298 52.7258V113.735C113.297 115.134 112.741 116.476 111.752 117.465C110.762 118.454 109.42 119.01 108.021 119.01H17.3036C15.9048 119.009 14.5636 118.453 13.5747 117.464C12.5858 116.475 12.0303 115.133 12.0303 113.735V46.5736C14.6298 47.5374 14.6298 47.5374 17.3036 47.4578H108.021C109.419 47.4578 110.76 48.0125 111.749 49.0002C112.739 49.9879 113.296 51.3278 113.298 52.7258Z" fill="#504F60"/>
<path opacity="0.1" d="M113.04 75.2814V94.7918H94.1179C91.5534 94.7573 89.1057 93.7143 87.3044 91.8886C85.5031 90.0629 84.4932 87.6013 84.4932 85.0366C84.4932 82.4719 85.5031 80.0103 87.3044 78.1846C89.1057 76.3589 91.5534 75.3159 94.1179 75.2814H113.04Z" fill="black"/>
<path d="M113.298 74.7615V94.2755H94.3762C91.8117 94.2409 89.364 93.198 87.5627 91.3723C85.7614 89.5466 84.7515 87.085 84.7515 84.5202C84.7515 81.9555 85.7614 79.4939 87.5627 77.6682C89.364 75.8425 91.8117 74.7995 94.3762 74.765L113.298 74.7615Z" fill="#33323D"/>
<path opacity="0.1" d="M95.2833 88.8413C97.384 88.8413 99.087 87.1383 99.087 85.0375C99.087 82.9368 97.384 81.2338 95.2833 81.2338C93.1825 81.2338 91.4795 82.9368 91.4795 85.0375C91.4795 87.1383 93.1825 88.8413 95.2833 88.8413Z" fill="black"/>
<path d="M95.5416 88.325C97.6423 88.325 99.3453 86.622 99.3453 84.5212C99.3453 82.4204 97.6423 80.7174 95.5416 80.7174C93.4408 80.7174 91.7378 82.4204 91.7378 84.5212C91.7378 86.622 93.4408 88.325 95.5416 88.325Z" fill="#1990F2"/>
<path d="M146.142 74.5935C146.292 76.2222 145.06 77.8031 145.419 79.3982C145.496 79.7395 145.643 80.0613 145.696 80.4062C145.845 81.354 145.281 82.2506 144.741 83.0428L140.108 89.8404C139.923 90.1393 139.7 90.4137 139.447 90.6574C138.563 91.4461 137.233 91.3648 136.069 91.6C135.251 91.766 134.479 92.1075 133.806 92.6009C133.778 92.6249 133.76 92.6588 133.756 92.6957C133.752 92.7325 133.762 92.7694 133.784 92.7989C133.977 93.0608 134.232 93.2703 134.526 93.4084C134.82 93.5465 135.144 93.6087 135.468 93.5894C135.59 93.7503 135.468 93.9855 135.291 94.1004C135.042 94.2773 134.701 94.3197 134.651 94.7406C134.633 94.8875 134.663 95.0362 134.736 95.165C134.923 95.4509 135.213 95.6531 135.546 95.7291C137.15 96.219 138.883 95.3578 140.083 94.1853C141.284 93.0129 142.145 91.5328 143.323 90.3391C143.976 89.6795 144.717 89.1136 145.389 88.4735C146.729 87.1967 147.771 85.6441 148.777 84.0897C149.079 83.6211 149.383 83.1401 149.511 82.5972C149.638 82.0543 149.578 81.5061 149.721 80.9809C149.909 80.2912 150.413 79.743 150.832 79.1648C151.654 78.033 152.202 76.6484 152.094 75.2549C151.986 73.8614 151.122 72.4838 149.806 72.0099C149.398 71.8462 148.948 71.8189 148.524 71.9321C147.985 72.0983 147.587 72.544 147.219 72.9701L146.335 73.987C146.114 74.2101 145.94 74.4745 145.822 74.765C145.765 74.911 145.752 75.0701 145.783 75.2234C145.814 75.3768 145.889 75.5178 145.999 75.6298" fill="#FBBEBE"/>
<path opacity="0.05" d="M146.142 74.5935C146.292 76.2222 145.06 77.8031 145.419 79.3982C145.496 79.7395 145.643 80.0613 145.696 80.4062C145.845 81.354 145.281 82.2506 144.741 83.0428L140.108 89.8404C139.923 90.1393 139.7 90.4137 139.447 90.6574C138.563 91.4461 137.233 91.3648 136.069 91.6C135.251 91.766 134.479 92.1075 133.806 92.6009C133.778 92.6249 133.76 92.6588 133.756 92.6957C133.752 92.7325 133.762 92.7694 133.784 92.7989C133.977 93.0608 134.232 93.2703 134.526 93.4084C134.82 93.5465 135.144 93.6087 135.468 93.5894C135.59 93.7503 135.468 93.9855 135.291 94.1004C135.042 94.2773 134.701 94.3197 134.651 94.7406C134.633 94.8875 134.663 95.0362 134.736 95.165C134.923 95.4509 135.213 95.6531 135.546 95.7291C137.15 96.219 138.883 95.3578 140.083 94.1853C141.284 93.0129 142.145 91.5328 143.323 90.3391C143.976 89.6795 144.717 89.1136 145.389 88.4735C146.729 87.1967 147.771 85.6441 148.777 84.0897C149.079 83.6211 149.383 83.1401 149.511 82.5972C149.638 82.0543 149.578 81.5061 149.721 80.9809C149.909 80.2912 150.413 79.743 150.832 79.1648C151.654 78.033 152.202 76.6484 152.094 75.2549C151.986 73.8614 151.122 72.4838 149.806 72.0099C149.398 71.8462 148.948 71.8189 148.524 71.9321C147.985 72.0983 147.587 72.544 147.219 72.9701L146.335 73.987C146.114 74.2101 145.94 74.4745 145.822 74.765C145.765 74.911 145.752 75.0701 145.783 75.2234C145.814 75.3768 145.889 75.5178 145.999 75.6298" fill="black"/>
<path d="M149.648 116.522C148.637 117.139 147.376 117.176 146.2 117.033C146.011 117.01 145.786 116.996 145.669 117.142C145.493 117.354 145.701 117.673 145.917 117.837C146.611 118.358 147.426 118.693 148.285 118.812C149.052 118.92 149.826 118.972 150.601 118.965C152.723 119.003 154.846 119.038 156.934 118.734C157.058 118.724 157.178 118.69 157.288 118.631C157.422 118.537 157.516 118.394 157.549 118.233C157.693 117.689 157.417 117.105 156.999 116.727C156.582 116.348 156.046 116.138 155.523 115.934L153.684 115.218C153.252 115.05 152.561 114.605 152.092 114.64C151.212 114.704 150.379 116.094 149.648 116.522Z" fill="#3F3D56"/>
<path opacity="0.05" d="M149.648 116.522C148.637 117.139 147.376 117.176 146.2 117.033C146.011 117.01 145.786 116.996 145.669 117.142C145.493 117.354 145.701 117.673 145.917 117.837C146.611 118.358 147.426 118.693 148.285 118.812C149.052 118.92 149.826 118.972 150.601 118.965C152.723 119.003 154.846 119.038 156.934 118.734C157.058 118.724 157.178 118.69 157.288 118.631C157.422 118.537 157.516 118.394 157.549 118.233C157.693 117.689 157.417 117.105 156.999 116.727C156.582 116.348 156.046 116.138 155.523 115.934L153.684 115.218C153.252 115.05 152.561 114.605 152.092 114.64C151.212 114.704 150.379 116.094 149.648 116.522Z" fill="black"/>
<path d="M150.938 92.1075C150.172 93.1261 149.38 94.302 149.569 95.5629C149.671 96.2419 150.052 96.8414 150.331 97.4692C150.709 98.3215 150.908 99.2376 151.102 100.15C151.389 101.483 151.677 102.82 151.852 104.175C152.052 105.704 151.113 110.131 151.026 111.671C151.005 112.042 150.961 112.444 150.702 112.711C150.602 112.817 150.467 112.902 150.421 113.04C150.394 113.173 150.416 113.311 150.483 113.429C150.915 114.401 151.797 115.126 152.782 115.54C153.767 115.954 156.142 116.668 157.215 116.706C157.357 116.721 157.5 116.702 157.633 116.651C157.775 116.564 157.888 116.435 157.954 116.281C158.724 114.81 157.985 109.579 157.995 107.918C158.006 106.534 158.333 105.158 158.273 103.775C158.223 102.665 157.919 101.579 157.818 100.472C157.641 98.6575 157.974 96.8343 158.308 95.0412C158.563 93.6654 158.819 92.2896 159.146 90.9315C159.346 90.1021 159.578 89.2657 160.031 88.546C160.384 87.9748 160.881 87.4973 161.293 86.9544C162.437 85.4551 162.945 83.5661 162.708 81.6953C162.683 81.5185 160.055 82.362 159.824 82.4628C158.878 82.863 158.009 83.4222 157.252 84.1162C156.644 84.6962 156.165 85.4708 155.633 86.1198C154.879 87.0381 154.135 87.963 153.401 88.8943C152.563 89.9589 151.742 91.03 150.938 92.1075Z" fill="#464353"/>
<path opacity="0.05" d="M150.938 92.0457C150.172 93.0642 149.38 94.242 149.569 95.5011C149.671 96.1819 150.052 96.7814 150.331 97.4091C150.709 98.2597 150.908 99.1775 151.102 100.088C151.389 101.423 151.677 102.76 151.852 104.113C152.052 105.644 151.113 110.069 151.026 111.609C151.005 111.98 150.961 112.384 150.702 112.651C150.602 112.755 150.467 112.84 150.421 112.978C150.394 113.111 150.416 113.249 150.483 113.367C150.915 114.341 151.797 115.065 152.782 115.489C153.767 115.913 156.142 116.283 157.215 116.318C157.357 116.334 157.5 116.315 157.633 116.263C157.776 116.177 157.888 116.049 157.954 115.896C158.724 114.424 157.985 109.53 157.995 107.867C158.006 106.481 158.333 105.107 158.273 103.722C158.223 102.612 157.919 101.526 157.818 100.421C157.641 98.6045 157.974 96.7814 158.308 94.9882C158.563 93.6142 158.819 92.2384 159.146 90.8785C159.346 90.0492 159.578 89.2127 160.031 88.493C160.384 87.9218 160.881 87.4444 161.293 86.9015C162.437 85.4023 162.945 83.5131 162.708 81.6423C162.683 81.4655 160.055 82.309 159.824 82.4098C158.879 82.8113 158.009 83.3711 157.252 84.065C156.644 84.6433 156.165 85.4178 155.633 86.0668C154.879 86.9852 154.135 87.9106 153.401 88.8431C152.563 89.8994 151.742 90.9669 150.938 92.0457Z" fill="black"/>
<path d="M142.418 69.6739C144.788 69.6739 146.71 67.7524 146.71 65.3821C146.71 63.0117 144.788 61.0902 142.418 61.0902C140.047 61.0902 138.126 63.0117 138.126 65.3821C138.126 67.7524 140.047 69.6739 142.418 69.6739Z" fill="#FBBEBE"/>
<path d="M146.283 65.2017C146.68 65.8342 147.2 66.3803 147.812 66.8075C148.424 67.2347 149.116 67.5341 149.846 67.688L149.523 68.864C148.964 70.8835 148.336 73.0197 146.777 74.4202C146.953 73.7359 146.727 73.0055 146.342 72.4114C145.956 71.8172 145.415 71.3503 144.884 70.8888L142.414 68.7491C142.343 68.691 142.283 68.6203 142.237 68.5404C142.176 68.3895 142.176 68.2209 142.237 68.07C142.552 67.0903 143.45 66.4785 144.182 65.8171C144.55 65.4751 144.878 65.0931 145.16 64.6783C145.654 63.9745 145.96 64.6818 146.283 65.2017Z" fill="#FBBEBE"/>
<path d="M136.764 61.0672L136.667 60.2608C137.344 60.4377 137.988 59.8612 138.421 59.2652C138.854 58.6693 139.256 57.9673 139.915 57.7179C140.717 57.4173 141.565 57.8948 142.331 58.2979C143.188 58.7736 144.129 59.0798 145.102 59.1998C145.257 59.205 145.411 59.2299 145.56 59.2741C146.059 59.4509 146.296 60.0769 146.368 60.6446C146.441 61.2122 146.421 61.8152 146.667 62.321C146.844 62.7047 147.173 62.9894 147.374 63.3679C147.905 64.3829 147.392 65.7711 147.946 66.7667L146.57 65.5058C146.444 65.3909 146.267 65.2706 146.128 65.3679C146.018 65.4457 146.009 65.6137 145.965 65.7481C145.832 66.1407 145.341 66.2574 144.985 66.1018C144.63 65.9462 144.37 65.6084 144.101 65.3007C143.493 64.5827 142.768 63.9514 141.919 63.6455C141.547 63.5064 141.15 63.448 140.753 63.4743C140.357 63.5005 139.971 63.6107 139.62 63.7976C138.978 64.1601 138.508 65.0054 137.721 65.0354C136.642 65.0761 136.193 63.0672 135.694 62.2732C135.877 62.1359 136.005 61.9388 136.057 61.7164C136.109 61.4939 136.08 61.2604 135.977 61.0566C136.05 61.0265 136.748 60.9434 136.764 61.0672Z" fill="#464353"/>
<path d="M83.6796 35.9758C83.3348 36.2825 83.016 36.6173 82.7265 36.9767C82.435 37.3411 82.2799 37.7958 82.2879 38.2623C82.2894 38.3976 82.3327 38.5291 82.4117 38.639C82.4521 38.6915 82.5078 38.7302 82.5712 38.7495C82.6347 38.7689 82.7025 38.7679 82.7654 38.7468C82.8364 38.7106 82.8972 38.6571 82.9422 38.5912C83.1291 38.3666 83.3274 38.1518 83.5364 37.9475C83.6124 37.8715 83.7132 37.7919 83.8158 37.8202C83.8617 37.8365 83.903 37.8638 83.936 37.8998C84.055 38.0026 84.1416 38.1378 84.1854 38.2888C84.2473 38.5594 84.0899 38.8299 83.9113 39.0422C83.7327 39.2544 83.5222 39.4577 83.4497 39.7247C83.4223 39.7953 83.4223 39.8735 83.4497 39.944C83.4839 39.995 83.5317 40.0355 83.5877 40.0607C83.8409 40.2002 84.1217 40.2822 84.4101 40.3012C84.6986 40.3201 84.9877 40.2755 85.257 40.1704C85.6107 40.0271 85.9254 39.7813 86.2897 39.654C86.4475 39.6108 86.6003 39.5516 86.746 39.4772C86.8502 39.4078 86.9396 39.3185 87.0091 39.2144C87.0786 39.1103 87.1268 38.9935 87.1509 38.8706C87.1969 38.6252 87.2058 38.3742 87.1775 38.1261C87.1334 37.1655 86.9277 36.2191 86.5691 35.3268C86.5484 35.2692 86.513 35.2181 86.4666 35.1783C86.4134 35.1458 86.352 35.1293 86.2897 35.1305C85.837 35.0828 85.0943 34.8511 84.6575 35.0191C84.5047 35.1029 84.3729 35.2202 84.272 35.3622C84.1907 35.4524 83.6796 35.8573 83.6796 35.9758Z" fill="#A1616A"/>
<path d="M83.5363 35.5761C83.5363 35.1446 83.0058 34.1031 83.8493 34.0341C83.8493 33.5726 83.1968 33.2861 83.3188 32.7962C83.3577 32.6336 83.4957 32.5009 83.5116 32.3347C83.5646 31.8625 82.7123 31.6061 82.8538 31.1534C82.9068 30.9766 83.0943 30.874 83.1349 30.699C83.2304 30.2905 82.5001 30.1083 82.4859 29.6892C82.4859 29.5477 82.5655 29.4151 82.5584 29.2737C82.5584 29.0968 82.4046 28.9624 82.3197 28.8086C82.0987 28.4142 82.2065 27.8041 81.8033 27.6008C82.0704 27.6238 82.157 27.2276 82.0474 26.9854C81.9377 26.7431 81.7132 26.5327 81.7114 26.2639C81.7246 26.1665 81.7246 26.0677 81.7114 25.9703C81.6371 25.7122 81.2145 25.6909 81.1437 25.4398C81.1346 25.3434 81.1316 25.2466 81.1349 25.1498C81.1066 24.95 80.9015 24.8227 80.7087 24.7661C80.5085 24.7321 80.3158 24.6632 80.1393 24.5627C80.0155 24.469 79.8723 24.3134 79.7397 24.3859C79.6901 24.4159 79.6654 24.4725 79.6282 24.515C79.4691 24.7006 79.1649 24.6193 78.9651 24.4831C78.3745 24.0817 78.0809 23.362 77.9554 22.6599C77.8298 21.9579 77.8333 21.2329 77.676 20.5379C77.628 20.3213 77.5641 20.1085 77.485 19.9013C77.4178 19.7244 77.202 19.4468 77.1879 19.2682C77.1561 18.8615 77.9978 19.1391 78.3179 19.1798C78.6286 19.2101 78.9359 19.2693 79.2357 19.3566C79.5556 19.4775 79.8691 19.615 80.1747 19.7687C81.4514 20.3328 82.9935 20.4017 84.0191 21.3496C84.3569 21.6608 84.6416 22.0693 85.0801 22.2108C85.2813 22.2493 85.4797 22.3007 85.6743 22.3646C86.1606 22.5927 86.2367 23.2382 86.5019 23.7051C86.5853 23.8283 86.6581 23.9585 86.7194 24.0941C86.7705 24.254 86.7945 24.4214 86.7902 24.5892L86.8273 25.8147C86.8874 27.8678 86.9475 29.9262 86.7283 31.9669C86.6575 32.6406 86.5514 33.3338 86.7513 33.9811C86.8043 34.1579 86.8786 34.3241 86.9281 34.5027C86.9718 34.7121 86.9943 34.9254 86.9953 35.1393L87.0236 35.9333C87.0334 35.9951 87.0195 36.0583 86.9847 36.1102C86.9551 36.1342 86.9205 36.1512 86.8835 36.1601C86.8465 36.169 86.8079 36.1695 86.7707 36.1615C85.6655 36.0624 84.5479 35.44 83.5045 35.8166" fill="#464353"/>
<path d="M133.974 96.585C141.197 96.585 147.053 95.7386 147.053 94.6946C147.053 93.6506 141.197 92.8042 133.974 92.8042C126.751 92.8042 120.895 93.6506 120.895 94.6946C120.895 95.7386 126.751 96.585 133.974 96.585Z" fill="#504F60"/>
<path d="M145.226 94.7864C144.996 93.8015 144.853 92.9367 144.853 92.9367C144.853 92.9367 144.906 91.8651 144.425 91.0605V90.7917V88.8111C144.562 88.4515 144.729 88.1042 144.925 87.7731C145.279 87.1506 144.925 84.8694 144.925 84.8694C144.925 84.8694 143.604 81.6527 143.924 79.612C144.244 77.5713 141.212 70.5509 141.212 70.5509C141.23 69.8738 141.326 69.2011 141.496 68.5456C141.529 68.4078 141.542 68.2661 141.535 68.1247C141.535 68.107 141.535 68.0911 141.535 68.0734C141.535 68.0557 141.535 68.084 141.535 68.0893C141.489 66.7436 140.425 64.2219 140.425 64.2219L140.568 59.4155C140.568 59.4155 141.247 56.5861 140.14 52.7752C139.753 51.4472 139.505 50.3844 139.348 49.5639C139.33 49.4719 139.312 49.387 139.298 49.2968C141.578 48.9432 143.32 48.6602 143.32 48.6602C143.32 48.6602 141.997 43.127 141.104 42.1579C140.211 41.1888 139.496 38.1455 139.496 38.1455C139.496 38.1455 139.031 34.2391 139.783 33.0968C140.534 31.9544 140.641 29.9844 140.641 29.9844C140.641 29.9844 142.354 28.7466 142.57 28.186C142.786 27.6254 143.141 26.3876 143.141 25.7315C143.141 25.0754 142.927 24.4936 142.998 24.14C143.068 23.7863 142.497 22.4795 142.784 21.857C142.858 21.6658 142.896 21.4626 142.897 21.2575C142.898 21.2516 142.898 21.2457 142.897 21.2398C142.9 20.6951 142.849 20.1514 142.747 19.6165C142.251 19.1979 141.672 18.8888 141.049 18.7093L141.012 18.5608L140.915 18.1717C140.86 18.1358 140.804 18.1028 140.747 18.0727V17.9312L140.731 17.3689L140.999 16.1063C141.53 13.9099 138.596 13.5828 138.596 13.5828C138.418 13.2459 138.122 12.9865 137.765 12.8542C137.176 12.6473 137.668 16.1575 137.942 16.391C138.149 16.5678 138.789 17.6607 139.098 18.2018L139.148 18.2902C139.1 18.3337 139.055 18.381 139.014 18.4317L139.125 19.1938L139.143 19.3105C138.948 19.552 138.79 19.8207 138.674 20.1081C138.674 20.1081 139.205 20.6952 139.104 21.3459C139.003 21.9967 139.268 22.8225 139.281 22.8667C139.249 22.8296 138.872 22.4229 138.495 22.5219C138.119 22.6209 137.067 22.9375 137.067 22.9375C137.067 22.9375 136.281 23.0754 136.359 23.2487C136.437 23.422 135.829 24.1824 135.829 24.1824L133.717 22.1806C133.696 22.1205 133.673 22.0604 133.655 22.0038C133.569 21.7152 133.51 21.4192 133.479 21.1196C133.709 21.0649 133.935 20.9934 134.154 20.9056C134.376 20.8294 134.576 20.7008 134.738 20.5307C134.952 20.2778 134.992 19.9348 135.079 19.62C135.245 19.0046 135.61 18.4582 135.862 17.8729C136.291 16.8838 136.429 15.7933 136.26 14.7287C136.228 14.4006 136.117 14.0852 135.937 13.8091C135.592 13.3352 134.966 13.1425 134.511 12.764C134.057 12.3856 133.763 11.8073 133.233 11.5262C132.754 11.2698 132.172 11.2998 131.631 11.3882C130.574 11.5625 129.559 11.9319 128.637 12.4775C128.329 12.6544 127.99 12.8719 127.636 12.8065C127.332 12.7516 127.105 12.5094 126.914 12.276C126.917 12.2663 126.92 12.2568 126.923 12.2477C126.915 12.239 126.907 12.2296 126.9 12.2194C126.677 12.716 126.564 13.2556 126.571 13.8003C126.571 13.8852 126.571 13.9771 126.582 14.0532V14.1416C126.582 14.1663 126.582 14.1911 126.582 14.2141C126.582 14.2518 126.577 14.2893 126.566 14.3255C126.522 14.4337 126.454 14.5308 126.368 14.6102C126.303 14.6839 126.244 14.7626 126.191 14.8454C126.191 14.8171 126.209 14.7888 126.219 14.7588C126.085 14.9557 126.009 15.1869 126 15.4254C125.99 15.5991 126.047 15.7699 126.159 15.9029C126.265 16.0057 126.381 16.0981 126.504 16.1788C126.462 16.4122 126.441 16.6489 126.44 16.8861C126.444 17.5893 126.63 18.2796 126.979 18.8902C127.327 19.5007 127.828 20.011 128.432 20.3716C128.456 20.4299 128.479 20.49 128.502 20.5484C128.773 21.2558 128.976 22.0869 128.886 22.8473C128.886 22.9021 128.87 22.9587 128.861 23.0135C128.853 23.0683 128.808 23.0719 128.785 23.1019C128.785 23.1019 125.296 23.1373 124.476 22.3946C123.655 21.6519 122.403 24.2107 122.403 24.2107C122.403 24.2107 121.153 24.453 120.902 24.2107C120.651 23.9684 119.188 24.1771 119.188 24.1771C118.589 23.6442 117.81 23.3597 117.008 23.3813C116.522 23.0123 115.986 22.7145 115.416 22.4971L115.378 22.483C115.126 22.3913 114.857 22.3575 114.591 22.384C114.591 22.384 112.875 20.9693 112.375 20.2053C111.874 19.4414 109.492 16.6208 109.482 16.6085V16.4723L109.455 16.062C109.384 16.0731 109.313 16.0791 109.241 16.0797C109.229 16.0391 109.211 15.9913 109.194 15.9365C109.056 15.5363 108.887 15.1478 108.688 14.7747C108.688 14.7747 108.688 14.2565 108.838 14.1257C108.988 13.9948 108.776 12.0938 108.776 12.0938C108.776 12.0938 107.231 8.48103 105.846 11.1778C105.846 11.1778 103.229 12.9232 105.425 14.9568C105.425 14.9568 106.309 15.3812 106.426 15.7172C106.507 15.9347 106.805 16.5448 107.004 16.9551L107.095 17.1319L107.07 17.1531L107.102 17.4927L107.116 17.6235C106.702 17.8587 106.421 18.0921 106.49 18.2672C106.612 18.5668 106.695 18.8805 106.739 19.2009C106.739 19.2009 109.777 23.0064 110.17 24.6316C110.17 24.6316 118.317 29.4734 120.996 29.8182L120.522 32.232C120.453 32.887 120.417 33.5451 120.416 34.2038C120.451 34.7219 120.094 37.0738 120.094 37.0738C120.094 37.0738 119.629 40.5328 119.236 41.0173C118.844 41.5018 118.914 43.5761 118.914 43.5761C118.822 44.5692 118.644 45.5524 118.384 46.5152C117.991 47.8291 118.276 49.456 118.276 49.456C118.276 49.456 116.92 52.5683 120.17 50.4587C120.17 50.4587 121.761 50.3596 123.604 50.296C123.604 50.3561 123.604 50.418 123.604 50.4728C123.604 50.7098 123.604 50.9662 123.592 51.235C123.567 53.0175 123.556 55.4791 123.638 57.3323C123.781 60.618 124.782 67.1203 124.782 67.1203V70.3935C124.717 70.7005 124.685 71.0135 124.686 71.3272C124.665 72.4789 124.972 73.6129 125.57 74.5969L125.822 76.7756C125.822 76.7756 126.409 78.2115 126.419 79.0745C126.417 79.144 126.409 79.2132 126.395 79.2814C126.372 79.3912 126.362 79.5034 126.366 79.6156C126.333 80.6059 126.929 82.9755 126.929 82.9755C126.929 82.9755 126.964 85.361 127.321 85.5007C127.627 85.6192 126.913 86.8747 126.7 87.2355C126.695 87.2134 126.691 87.191 126.688 87.1683L126.644 87.239C126.57 87.4321 126.532 87.6371 126.532 87.8438C126.512 88.0067 126.539 88.172 126.609 88.3204C126.679 88.4687 126.79 88.5942 126.929 88.682C127.608 89.0976 127.972 89.4424 127.395 89.5804C127.183 89.6133 126.973 89.6576 126.766 89.713C126.766 89.6865 126.745 89.6582 126.736 89.6334C126.654 89.6652 126.587 89.7241 126.544 89.8001C126.501 89.8762 126.486 89.9647 126.501 90.0508C126.506 90.3313 126.578 90.6065 126.711 90.8536C127.282 92.1339 127.678 92.622 127.678 92.622L127.952 92.5919C127.912 92.6966 127.859 92.7959 127.793 92.8872C127.689 93.0355 127.551 93.1568 127.39 93.2409C127.24 93.3305 127.074 93.3877 126.9 93.4089C126.707 93.4152 126.516 93.4622 126.342 93.5469C126.168 93.6316 126.013 93.7521 125.889 93.9005C125.535 94.362 125.309 94.9898 126.013 95.5415L128.568 96.4257C128.568 96.4257 132.964 96.9969 132.731 96.0102C132.497 95.0234 132.356 94.1604 132.356 94.1604C132.375 93.558 132.254 92.9593 132.002 92.4115C131.956 92.3221 131.904 92.2359 131.846 92.1533L132.002 92.1374C132.002 92.1374 132.324 89.957 132.752 89.5432C132.851 89.4477 132.874 89.3664 132.851 89.3169C132.895 89.1984 132.782 89.1294 132.639 89.0888L132.607 89.1754C132.467 89.1449 132.324 89.1289 132.181 89.1277C132.181 89.1277 132.037 87.9871 132.502 87.5715C132.54 87.5241 132.567 87.4695 132.583 87.4111C132.598 87.3527 132.602 87.2917 132.593 87.232C132.596 87.0755 132.58 86.9191 132.543 86.7669C132.539 86.7767 132.533 86.7861 132.527 86.7952C132.294 85.7589 131.502 84.1126 131.502 84.1126C131.502 84.1126 131.466 83.0763 131.753 82.6607C132.039 82.2451 131.716 77.0231 131.716 77.0231C131.716 77.0231 131.823 74.4997 131.502 73.3237C131.18 72.1477 131.894 70.7631 131.894 70.7631C131.894 70.7631 131.894 70.7366 131.894 70.6888V70.6712L131.853 70.2733C131.852 70.2815 131.852 70.2898 131.853 70.298C131.781 69.6296 131.645 68.4182 131.544 67.8594C131.401 67.0637 131.581 63.2617 131.581 63.2617L132.223 61.6348L133.367 64.4376L134.582 68.1724C134.582 68.1724 135.183 68.9611 135.197 69.764C135.197 69.8029 135.197 69.8418 135.197 69.8807C135.188 69.9634 135.183 70.0467 135.183 70.13C135.162 70.6019 135.291 71.0684 135.553 71.4616C135.553 71.4616 135.875 73.23 136.375 73.6738C136.876 74.1177 136.876 74.9878 136.876 74.9878C136.876 74.9878 137.482 77.5484 137.76 77.994C138 78.3724 138.013 79.4087 138.011 79.7323C138.011 79.7906 138.011 79.8242 138.011 79.8242C138.011 79.8242 138.096 80.7403 138.092 81.5077C138.092 81.6032 138.092 81.6952 138.092 81.7818C138.093 81.7754 138.093 81.7689 138.092 81.7624C138.092 81.9721 138.067 82.181 138.018 82.3848L138.007 82.4202C138.007 82.376 138.007 82.3336 138.02 82.2911C137.895 82.8123 137.836 83.3469 137.843 83.8827C137.827 84.8022 137.967 85.8915 138.524 86.5352C139.489 87.6422 140.096 87.5043 140.096 87.5043C140.096 87.5043 139.633 88.8872 139.06 89.1648C139.038 89.175 139.018 89.1881 138.999 89.2037C138.999 89.1754 138.989 89.1489 138.985 89.1224C138.921 89.1913 138.873 89.2729 138.842 89.3618C138.812 89.4508 138.8 89.5451 138.808 89.6387C138.768 90.247 139.152 91.2302 139.516 91.6883C139.651 91.8207 139.817 91.9179 139.999 91.9712C139.97 91.9915 139.94 92.0098 139.908 92.026C139.845 92.0609 139.779 92.0922 139.712 92.1197C139.619 92.1592 139.521 92.1849 139.42 92.1958C139.226 92.201 139.036 92.2475 138.861 92.3323C138.687 92.4171 138.533 92.5381 138.409 92.6874C138.055 93.1472 137.829 93.7749 138.533 94.3267L141.088 95.2109C141.088 95.2109 145.456 95.7714 145.226 94.7864Z" fill="url(#paint0_linear)"/>
<path d="M128.442 96.4204L125.966 95.5362C125.284 94.9845 125.501 94.3567 125.846 93.8952C125.965 93.748 126.114 93.6279 126.283 93.5431C126.452 93.4583 126.637 93.4107 126.826 93.4036C126.993 93.3822 127.154 93.3249 127.298 93.2356C127.455 93.1503 127.589 93.0291 127.69 92.8819C127.871 92.5952 127.968 92.264 127.972 91.9252C127.972 91.9252 130.688 91.1294 131.431 91.9252C131.563 92.0693 131.674 92.2319 131.759 92.408C132.006 92.9573 132.127 93.5548 132.113 94.1569C132.113 94.1569 132.251 95.0199 132.476 96.0066C132.7 96.9934 128.442 96.4204 128.442 96.4204Z" fill="#2D293D"/>
<path d="M140.545 95.2003L138.069 94.3161C137.387 93.7644 137.604 93.1366 137.949 92.6768C138.067 92.5291 138.215 92.4086 138.384 92.3237C138.553 92.2389 138.738 92.1916 138.927 92.1852C139.025 92.1752 139.12 92.1495 139.21 92.1092C139.275 92.0816 139.339 92.0503 139.401 92.0155C140.092 91.6353 140.075 90.7016 140.075 90.7016C140.075 90.7016 142.789 89.9058 143.534 90.7016C143.633 90.8094 143.72 90.928 143.793 91.0552C144.259 91.8599 144.207 92.9333 144.207 92.9333C144.207 92.9333 144.345 93.798 144.561 94.783C144.777 95.768 140.545 95.2003 140.545 95.2003Z" fill="#2D293D"/>
<path opacity="0.1" d="M131.432 91.9236C131.565 92.0676 131.676 92.2303 131.761 92.4064L127.694 92.8785C127.874 92.5919 127.972 92.2606 127.975 91.9218C127.975 91.9218 130.689 91.1278 131.432 91.9236Z" fill="black"/>
<path opacity="0.1" d="M143.797 91.0588V91.8209C143.164 92.8625 140.103 92.6344 139.213 92.1127C139.279 92.0851 139.343 92.0538 139.404 92.019C140.096 91.6388 140.078 90.7051 140.078 90.7051C140.078 90.7051 142.793 89.9094 143.537 90.7051C143.637 90.8129 143.724 90.9315 143.797 91.0588Z" fill="black"/>
<path d="M144.279 87.7732C144.09 88.1053 143.929 88.4525 143.797 88.8112V91.5434C143.103 92.684 139.508 92.3038 139.022 91.6813C138.536 91.0588 138.028 89.439 138.575 89.1578C139.121 88.8767 139.577 87.4973 139.577 87.4973C139.577 87.4973 138.988 87.6353 138.055 86.5283C137.121 85.4213 137.399 82.9668 137.572 82.3797C137.745 81.7926 137.572 79.8208 137.572 79.8208C137.572 79.8208 137.607 78.4362 137.331 77.987C137.056 77.5379 136.467 74.9808 136.467 74.9808C136.467 74.9808 136.467 74.1161 135.982 73.6669C135.498 73.2177 135.186 71.4529 135.186 71.4529C134.903 71.0119 134.781 70.4864 134.842 69.9657C134.944 69.101 134.253 68.1672 134.253 68.1672L133.077 64.4307L131.97 61.6296L131.347 63.2547C131.347 63.2547 131.17 67.0585 131.314 67.8525C131.457 68.6465 131.667 70.7579 131.667 70.7579C131.667 70.7579 130.976 72.1408 131.287 73.3168C131.598 74.4927 131.485 77.0197 131.485 77.0197C131.485 77.0197 131.796 82.24 131.519 82.6555C131.241 83.0711 131.277 84.1091 131.277 84.1091C131.277 84.1091 132.691 87.1507 132.246 87.5663C131.8 87.9819 131.934 89.1225 131.934 89.1225C131.934 89.1225 132.902 89.1225 132.488 89.538C132.074 89.9536 131.761 92.1322 131.761 92.1322L127.579 92.6221C127.579 92.6221 127.197 92.1393 126.643 90.8537C126.09 89.5681 126.746 89.7131 127.303 89.5734C127.86 89.4337 127.508 89.0906 126.85 88.6751C126.192 88.2595 126.574 87.3258 126.574 87.3258C126.574 87.3258 127.577 85.6317 127.23 85.4938C126.884 85.3558 126.85 82.9685 126.85 82.9685C126.85 82.9685 126.159 80.1391 126.332 79.3717C126.505 78.6042 125.779 76.7792 125.779 76.7792L125.536 74.6006C124.796 73.3643 124.526 71.9029 124.776 70.4838V67.1239C124.776 67.1239 123.807 60.6234 123.669 57.3377C123.581 55.2334 123.605 52.3615 123.634 50.5702C123.651 49.5657 123.669 48.8991 123.669 48.8991L138.608 47.3429C138.608 47.3429 138.594 48.0326 138.879 49.5622C139.033 50.3827 139.271 51.4455 139.646 52.7736C140.718 56.5773 140.062 59.412 140.062 59.412L139.922 64.2202C139.922 64.2202 141.236 67.4351 140.96 68.5421C140.793 69.1994 140.7 69.8732 140.681 70.551C140.681 70.551 143.62 77.5715 143.309 79.6122C142.997 81.6529 144.276 84.8695 144.276 84.8695C144.276 84.8695 144.626 87.1507 144.279 87.7732Z" fill="#464353"/>
<path opacity="0.05" d="M135.739 69.7569L140.287 69.1504C140.287 69.1504 137.711 71.7799 135.739 69.7569Z" fill="black"/>
<path opacity="0.1" d="M139.629 64.7065C139.629 64.7065 139.785 66.3158 138.8 66.9205C138.8 66.9205 140.563 66.6447 139.629 64.7065Z" fill="black"/>
<path opacity="0.1" d="M139.349 59.5889C139.349 59.5889 135.547 62.7189 134.164 62.4589C132.782 62.199 139.349 59.5889 139.349 59.5889Z" fill="black"/>
<path opacity="0.1" d="M130.101 71.2247C130.101 71.2247 127.213 71.8808 127.126 73.0409C127.04 74.2009 130.101 71.2247 130.101 71.2247Z" fill="black"/>
<path opacity="0.05" d="M130.736 85.6476C130.736 85.6476 126.656 86.408 127.814 86.9261C128.973 87.4443 130.876 87.8598 130.876 87.8598C130.876 87.8598 132.193 87.9288 130.736 85.6476Z" fill="black"/>
<g opacity="0.05">
<path opacity="0.05" d="M126.991 87.7502C126.888 87.6861 126.801 87.5997 126.737 87.4975C126.672 87.3952 126.631 87.2797 126.618 87.1595L126.575 87.2321C126.575 87.2321 126.195 88.1658 126.853 88.5796C126.927 88.6273 127 88.675 127.065 88.721C127.187 88.698 127.318 88.6804 127.443 88.6485C128 88.5106 127.649 88.1658 126.991 87.7502Z" fill="black"/>
<path opacity="0.05" d="M132.246 87.4725C132.359 87.3699 132.356 87.1047 132.287 86.7651C132.11 87.0322 132.059 87.4495 132.055 87.766C132.098 87.6562 132.163 87.5563 132.246 87.4725Z" fill="black"/>
<path opacity="0.05" d="M131.619 70.2679C131.468 70.677 131.376 71.1049 131.343 71.5394C131.422 71.2392 131.528 70.9468 131.659 70.6658L131.619 70.2679Z" fill="black"/>
<path opacity="0.05" d="M140.963 68.4537C140.99 68.3295 141.002 68.2025 141 68.0753C140.949 68.3335 140.913 68.5722 140.887 68.7827C140.91 68.6748 140.934 68.5722 140.963 68.4537Z" fill="black"/>
<path opacity="0.05" d="M131.521 82.5635C131.578 82.4787 131.61 82.1922 131.624 81.7943C131.496 82.1022 131.428 82.4317 131.424 82.7651C131.448 82.6943 131.481 82.6266 131.521 82.5635Z" fill="black"/>
<path opacity="0.05" d="M132.37 89.0853C132.156 89.779 131.996 90.4886 131.894 91.2074L127.712 91.6901C127.712 91.6901 127.33 91.2074 126.777 89.9218C126.732 89.8225 126.692 89.7209 126.658 89.6176C126.407 89.7326 126.304 89.9925 126.637 90.7511C127.19 92.0314 127.574 92.5195 127.574 92.5195L131.756 92.035C131.756 92.035 132.068 89.8563 132.481 89.4408C132.694 89.2409 132.563 89.1366 132.37 89.0853Z" fill="black"/>
<path opacity="0.05" d="M126.853 82.8748C126.853 82.8748 126.886 85.2603 127.233 85.3982C127.41 85.0039 127.525 84.629 127.369 84.5671C127.015 84.4292 126.989 82.0418 126.989 82.0418C126.989 82.0418 126.297 79.2125 126.471 78.445C126.644 77.6775 125.917 75.8525 125.917 75.8525L125.675 73.6739C124.935 72.4376 124.665 70.9762 124.915 69.5571V66.1972C124.915 66.1972 123.945 59.6967 123.808 56.4111C123.719 54.3067 123.744 51.4349 123.772 49.6435C123.772 49.3199 123.783 49.0334 123.788 48.7911L123.67 48.8035C123.67 48.8035 123.65 49.4684 123.634 50.4746C123.606 52.266 123.579 55.1378 123.67 57.2404C123.808 60.5261 124.775 67.0284 124.775 67.0284V70.3883C124.527 71.807 124.797 73.2676 125.537 74.5033L125.777 76.6819C125.777 76.6819 126.504 78.514 126.331 79.2761C126.158 80.0383 126.853 82.8748 126.853 82.8748Z" fill="black"/>
<path opacity="0.05" d="M139.164 90.7582C138.824 90.2663 138.598 89.7053 138.501 89.1154C138.075 89.5009 138.564 90.9969 139.031 91.5911C139.514 92.2136 143.111 92.5938 143.806 91.4514V90.7936C142.863 91.7184 139.62 91.3471 139.164 90.7582Z" fill="black"/>
<path opacity="0.05" d="M144.42 86.85C144.23 87.1822 144.068 87.5294 143.935 87.8881V88.378C144.015 88.2011 144.126 87.9641 144.289 87.6847C144.398 87.4124 144.45 87.1204 144.441 86.827C144.441 86.827 144.425 86.8429 144.42 86.85Z" fill="black"/>
<path opacity="0.05" d="M139.376 87.3965C139.508 87.1301 139.622 86.8554 139.718 86.5742C139.718 86.5742 139.129 86.7121 138.195 85.6051C137.516 84.8005 137.477 83.2797 137.574 82.2859C137.398 82.8748 137.123 85.3293 138.057 86.4363C138.667 87.1595 139.129 87.3505 139.376 87.3965Z" fill="black"/>
<path opacity="0.05" d="M137.572 79.7271C137.633 80.4085 137.656 81.0927 137.641 81.7767C137.659 81.6687 137.682 81.5618 137.712 81.4566C137.889 80.8677 137.712 78.8978 137.712 78.8978C137.712 78.8978 137.747 77.5131 137.47 77.064C137.192 76.6148 136.614 74.0542 136.614 74.0542C136.614 74.0542 136.614 73.1894 136.129 72.7403C135.645 72.2911 135.334 70.5263 135.334 70.5263C135.048 70.0861 134.923 69.5607 134.98 69.0391C135.084 68.1743 134.393 67.2406 134.393 67.2406L133.217 63.5058L132.11 60.7047L131.486 62.3316C131.486 62.3316 131.486 62.5367 131.464 62.8621L131.97 61.5411L133.077 64.337L134.253 68.0718C134.253 68.0718 134.945 69.0055 134.84 69.8702C134.783 70.3919 134.908 70.9173 135.194 71.3574C135.194 71.3574 135.505 73.1258 135.99 73.5714C136.474 74.017 136.472 74.8853 136.472 74.8853C136.472 74.8853 137.061 77.4442 137.337 77.8916C137.613 78.3389 137.572 79.7271 137.572 79.7271Z" fill="black"/>
</g>
<path d="M140.476 16.1009L140.216 17.3636L140.232 17.9259L140.242 18.3397L138.799 18.4882L138.638 18.1894C138.34 17.6483 137.719 16.5483 137.519 16.3786C137.252 16.1558 136.776 12.6438 137.342 12.8524C137.691 12.987 137.977 13.246 138.145 13.5792C138.145 13.5792 140.987 13.9046 140.476 16.1009Z" fill="#FFCDD3"/>
<path opacity="0.1" d="M140.243 18.3398L138.8 18.4883L138.639 18.1895C138.833 17.9685 139.097 17.8217 139.388 17.7739C139.678 17.7262 139.976 17.7806 140.23 17.9277L140.243 18.3398Z" fill="black"/>
<path d="M140.607 19.0242L138.704 19.4646L138.664 19.1816L138.556 18.4195C138.556 18.4195 139.309 17.415 140.398 18.1683L140.494 18.5556L140.607 19.0242Z" fill="#1990F2"/>
<path d="M109.784 16.2389L107.752 17.3283L107.575 16.9463C107.382 16.5413 107.094 15.9312 107.015 15.7084C106.894 15.3724 106.047 14.948 106.047 14.948C103.925 12.9162 106.454 11.169 106.454 11.169C107.794 8.47224 109.283 12.085 109.283 12.085C109.283 12.085 109.492 13.9896 109.345 14.1169C109.199 14.2442 109.199 14.7659 109.199 14.7659C109.392 15.1396 109.556 15.5281 109.688 15.9277C109.75 16.1205 109.784 16.2389 109.784 16.2389Z" fill="#FFCDD3"/>
<path opacity="0.1" d="M109.784 16.239L107.752 17.3284L107.575 16.9464C107.862 16.7059 108.878 15.8854 109.213 15.919C109.372 15.9389 109.533 15.943 109.694 15.9314C109.75 16.1206 109.784 16.239 109.784 16.239Z" fill="black"/>
<path d="M109.991 16.8526L107.708 17.9773L107.662 17.4875L107.63 17.148C107.63 17.148 108.953 16.0144 109.343 16.0586C109.541 16.0873 109.742 16.0873 109.939 16.0586L109.966 16.4689L109.991 16.8526Z" fill="#1990F2"/>
<path d="M134.943 24.4884C134.943 24.4884 124.991 25.6113 126.851 25.0066C128.145 24.5839 128.66 23.7687 128.768 22.8491C128.856 22.0834 128.658 21.2576 128.398 20.5503C128.164 19.9227 127.868 19.3203 127.514 18.7518C127.514 18.7518 135.118 14.5678 133.599 18.3716C133.365 18.947 133.219 19.5545 133.168 20.1736C133.122 20.7888 133.188 21.4072 133.364 21.9986C133.651 22.9582 134.197 23.8199 134.943 24.4884Z" fill="#FFCDD3"/>
<path opacity="0.1" d="M133.593 18.3662C133.359 18.9416 133.214 19.5492 133.162 20.1682C132.446 20.7712 131.66 20.7306 130.651 20.7306C129.876 20.7306 129.017 20.918 128.398 20.5449C128.164 19.9174 127.868 19.3149 127.514 18.7464C127.514 18.7464 135.116 14.5625 133.593 18.3662Z" fill="black"/>
<path d="M130.516 20.996C132.789 20.996 134.631 19.1536 134.631 16.881C134.631 14.6083 132.789 12.766 130.516 12.766C128.244 12.766 126.401 14.6083 126.401 16.881C126.401 19.1536 128.244 20.996 130.516 20.996Z" fill="#FFCDD3"/>
<path opacity="0.1" d="M134.943 24.4884C134.943 24.4884 124.991 25.6113 126.851 25.0066C128.145 24.5839 128.66 23.7687 128.768 22.8491C129.263 22.3186 130.259 21.9243 130.89 21.7192C131.474 21.5229 132.104 21.5124 132.694 21.6891C132.926 21.759 133.146 21.8614 133.35 21.9933C133.64 22.9564 134.191 23.8202 134.943 24.4884Z" fill="black"/>
<path opacity="0.1" d="M140.607 19.0242L138.704 19.4645L138.664 19.1816C138.867 18.9018 139.152 18.6915 139.48 18.5795C139.807 18.4675 140.161 18.4591 140.494 18.5556L140.607 19.0242Z" fill="black"/>
<path opacity="0.1" d="M109.991 16.8525L107.708 17.9772L107.662 17.4874C108.402 17.0898 109.17 16.7487 109.961 16.467L109.991 16.8525Z" fill="black"/>
<path opacity="0.1" d="M138.879 49.5657C135.022 50.1811 129.54 50.9663 128.67 50.701C127.947 50.4818 125.641 50.5047 123.634 50.5737C123.651 49.5693 123.669 48.9026 123.669 48.9026L138.608 47.3464C138.608 47.3464 138.594 48.0361 138.879 49.5657Z" fill="black"/>
<path d="M142.724 48.6603C142.724 48.6603 130.032 50.839 128.67 50.4287C127.309 50.0184 120.315 50.4623 120.315 50.4623C117.167 52.572 118.481 49.4596 118.481 49.4596C118.481 49.4596 118.205 47.8345 118.585 46.5206C118.841 45.5559 119.015 44.5717 119.107 43.578C119.107 43.578 119.038 41.502 119.418 41.0174C119.799 40.5329 120.249 37.0757 120.249 37.0757C120.249 37.0757 120.594 34.7238 120.561 34.2057C120.527 33.6875 120.663 32.2339 120.663 32.2339L121.114 29.813C118.52 29.4682 110.635 24.6264 110.635 24.6264C110.255 23.0012 107.316 19.1975 107.316 19.1975C107.273 18.8776 107.191 18.5641 107.073 18.2638C106.866 17.7103 109.979 16.6033 109.979 16.6033C109.979 16.6033 112.295 19.4327 112.78 20.2001C113.264 20.9676 114.923 22.3788 114.923 22.3788C115.181 22.3523 115.441 22.3862 115.684 22.4778L115.724 22.4902C116.28 22.7084 116.801 23.0063 117.272 23.3744C118.051 23.3559 118.808 23.6412 119.381 24.1701C119.381 24.1701 120.796 23.9615 121.042 24.2037C121.288 24.446 122.494 24.2037 122.494 24.2037C122.494 24.2037 123.703 21.6449 124.499 22.3876C125.295 23.1303 128.67 23.095 128.67 23.095C129.12 22.4973 130.214 22.0693 130.899 21.8571C131.482 21.6616 132.112 21.6511 132.702 21.827C132.957 21.903 133.196 22.0227 133.41 22.1807L135.463 24.1861C135.463 24.1861 136.05 23.4239 135.981 23.2524C135.912 23.0808 136.672 22.9411 136.672 22.9411C136.672 22.9411 137.675 22.6299 138.055 22.5256C138.435 22.4212 138.784 22.8332 138.816 22.8704C138.803 22.8262 138.543 21.9862 138.639 21.3496C138.734 20.713 138.223 20.1117 138.223 20.1117C139.433 17.1373 142.165 19.6272 142.165 19.6272C142.165 19.6272 142.476 21.2523 142.2 21.8748C141.924 22.4973 142.476 23.8112 142.407 24.1578C142.338 24.5044 142.547 25.0915 142.547 25.7493C142.547 26.4071 142.193 27.6503 141.993 28.2038C141.794 28.7573 140.126 30.0022 140.126 30.0022C140.126 30.0022 140.022 31.974 139.295 33.1146C138.568 34.2552 139.024 38.1562 139.024 38.1562C139.024 38.1562 139.716 41.1996 140.58 42.1686C141.445 43.1377 142.724 48.6603 142.724 48.6603Z" fill="#3F3D56"/>
<path opacity="0.1" d="M124.223 25.9048C124.223 25.9048 123.843 24.7642 123.496 24.667C123.152 24.5404 122.817 24.3903 122.494 24.2178L122.716 23.7916C122.716 23.7916 124.014 24.1453 124.223 24.529C124.432 24.9128 124.223 25.9048 124.223 25.9048Z" fill="black"/>
<path opacity="0.1" d="M117.272 23.3814C117.203 23.7351 114.124 24.0375 114.124 24.0375L115.68 22.4778L115.719 22.4919C116.277 22.7113 116.8 23.011 117.272 23.3814Z" fill="black"/>
<path d="M108.366 18.911C108.518 18.911 108.642 18.7875 108.642 18.6351C108.642 18.4828 108.518 18.3593 108.366 18.3593C108.213 18.3593 108.09 18.4828 108.09 18.6351C108.09 18.7875 108.213 18.911 108.366 18.911Z" fill="#575988"/>
<path d="M108.719 19.4646C108.872 19.4646 108.995 19.3411 108.995 19.1887C108.995 19.0364 108.872 18.9128 108.719 18.9128C108.567 18.9128 108.443 19.0364 108.443 19.1887C108.443 19.3411 108.567 19.4646 108.719 19.4646Z" fill="#575988"/>
<path d="M109.066 19.9756C109.218 19.9756 109.342 19.852 109.342 19.6997C109.342 19.5473 109.218 19.4238 109.066 19.4238C108.914 19.4238 108.79 19.5473 108.79 19.6997C108.79 19.852 108.914 19.9756 109.066 19.9756Z" fill="#575988"/>
<path d="M109.429 20.5273C109.581 20.5273 109.705 20.4038 109.705 20.2515C109.705 20.0991 109.581 19.9756 109.429 19.9756C109.276 19.9756 109.153 20.0991 109.153 20.2515C109.153 20.4038 109.276 20.5273 109.429 20.5273Z" fill="#575988"/>
<path d="M142.027 20.446C142.151 20.446 142.251 20.3454 142.251 20.2214C142.251 20.0974 142.151 19.9968 142.027 19.9968C141.903 19.9968 141.802 20.0974 141.802 20.2214C141.802 20.3454 141.903 20.446 142.027 20.446Z" fill="#575988"/>
<path d="M142.062 20.957C142.186 20.957 142.287 20.8564 142.287 20.7324C142.287 20.6084 142.186 20.5078 142.062 20.5078C141.938 20.5078 141.837 20.6084 141.837 20.7324C141.837 20.8564 141.938 20.957 142.062 20.957Z" fill="#575988"/>
<path d="M142.092 21.4663C142.216 21.4663 142.317 21.3657 142.317 21.2417C142.317 21.1176 142.216 21.0171 142.092 21.0171C141.968 21.0171 141.868 21.1176 141.868 21.2417C141.868 21.3657 141.968 21.4663 142.092 21.4663Z" fill="#575988"/>
<path opacity="0.1" d="M124.235 35.2773C124.201 35.2367 131.998 45.0812 138.05 39.3923C138.055 39.3941 128.493 40.6903 124.235 35.2773Z" fill="black"/>
<path opacity="0.1" d="M119.761 40.3949C119.761 40.3949 124.426 40.5222 124.914 41.8644V43.2614C124.781 43.3351 124.632 43.3738 124.48 43.3738C124.328 43.3738 124.179 43.3351 124.046 43.2614C123.576 43.0068 120.755 41.5744 119.761 42.2641V40.3949Z" fill="black"/>
<path d="M119.848 40.3949C119.848 40.3949 124.31 40.5169 124.777 41.7972V43.127C124.649 43.1976 124.506 43.2347 124.361 43.2347C124.216 43.2347 124.073 43.1976 123.945 43.127C123.496 42.8865 120.8 41.5196 119.848 42.1774V40.3949Z" fill="#3F3D56"/>
<path opacity="0.1" d="M122.308 30.2657C122.784 31.3689 123.392 32.4109 124.117 33.3692C124.905 34.4285 125.861 35.3525 126.946 36.1049C126.946 36.1049 122.385 30.9059 122.308 30.2657Z" fill="black"/>
<path opacity="0.1" d="M120.782 24.8457C120.782 24.8457 121.56 28.2056 123.565 29.3462L120.782 24.8457Z" fill="black"/>
<path opacity="0.1" d="M119.588 25.1852C119.569 25.1234 118.897 27.8378 122.173 29.3462C122.173 29.3462 120.782 28.8741 119.588 25.1852Z" fill="black"/>
<path opacity="0.1" d="M139.958 22.9322C139.906 22.9322 141.574 23.9932 142.028 24.4883C142.028 24.4883 140.943 22.8614 139.958 22.9322Z" fill="black"/>
<path d="M129.404 20.6104C129.405 20.7002 129.424 20.7888 129.461 20.8708C129.497 20.9527 129.551 21.0262 129.617 21.0865C129.684 21.1469 129.762 21.1928 129.847 21.2213C129.932 21.2498 130.022 21.2604 130.112 21.2523C131.365 21.3301 132.672 21.3849 133.825 20.8986C134.041 20.8214 134.236 20.6928 134.391 20.5237C134.596 20.2709 134.637 19.9278 134.72 19.613C134.883 18.9976 135.229 18.4512 135.479 17.8659C135.9 16.877 136.042 15.791 135.887 14.727C135.854 14.4009 135.747 14.0867 135.572 13.8092C135.24 13.3335 134.633 13.1408 134.193 12.7623C133.753 12.3839 133.47 11.8057 132.955 11.5245C132.492 11.2663 131.924 11.2981 131.403 11.3866C130.376 11.5608 129.393 11.93 128.506 12.4741C128.207 12.6509 127.88 12.8685 127.537 12.803C127.236 12.7464 127.017 12.4936 126.829 12.2566C126.588 12.8225 126.487 13.4382 126.534 14.0515C126.547 14.1415 126.544 14.2331 126.525 14.3221C126.482 14.4296 126.416 14.5267 126.333 14.6068C126.023 14.9604 125.83 15.5352 126.136 15.8994C126.269 16.0568 126.474 16.1435 126.603 16.3044C126.835 16.5926 126.757 17.0117 126.752 17.3796C126.739 17.508 126.771 17.6369 126.844 17.7439C126.911 17.8062 126.992 17.8502 127.081 17.8716C127.17 17.893 127.263 17.891 127.351 17.8659C127.526 17.8131 127.71 17.7957 127.892 17.8146C128.084 17.8769 128.25 18.0014 128.363 18.1683C128.934 18.9128 129.16 19.7227 129.404 20.6104Z" fill="#2D293D"/>
<g opacity="0.1">
<path opacity="0.1" d="M134.538 20.2107C134.382 20.3798 134.188 20.5084 133.972 20.5856C132.812 21.0684 131.507 21.0136 130.258 20.9393C130.124 20.9406 129.992 20.911 129.871 20.8527C129.68 20.7413 129.608 20.5078 129.549 20.2956C129.305 19.4114 129.081 18.5998 128.501 17.8623C128.389 17.6922 128.223 17.5646 128.03 17.4998C127.848 17.4827 127.665 17.5001 127.489 17.5511C127.401 17.5765 127.308 17.5787 127.219 17.5577C127.131 17.5366 127.049 17.4929 126.982 17.4309C126.909 17.3239 126.877 17.195 126.89 17.0666C126.89 16.6952 126.973 16.2797 126.741 15.9914C126.612 15.8305 126.407 15.7438 126.274 15.5847C126.188 15.4673 126.135 15.3288 126.121 15.1836C126.107 15.0385 126.132 14.8923 126.195 14.7606C125.974 15.1143 125.88 15.5582 126.136 15.8623C126.269 16.0197 126.474 16.1064 126.603 16.2673C126.835 16.5573 126.757 16.9746 126.752 17.3424C126.738 17.4707 126.77 17.5996 126.842 17.7067C126.909 17.7694 126.991 17.8136 127.08 17.835C127.17 17.8563 127.263 17.8542 127.351 17.8287C127.526 17.776 127.71 17.7585 127.892 17.7775C128.084 17.8398 128.249 17.9642 128.363 18.1311C128.941 18.8685 129.167 19.6785 129.411 20.5662C129.44 20.7846 129.549 20.9845 129.717 21.1268C129.838 21.1852 129.972 21.2143 130.106 21.2116C131.36 21.2894 132.667 21.346 133.82 20.858C134.036 20.7813 134.231 20.6525 134.386 20.4831C134.464 20.3835 134.523 20.2709 134.562 20.1506C134.564 20.1736 134.552 20.1931 134.538 20.2107Z" fill="black"/>
<path opacity="0.1" d="M126.534 14.2142C126.59 14.1539 126.632 14.0829 126.66 14.0055C126.676 13.9161 126.676 13.8245 126.66 13.735C126.625 13.2308 126.691 12.7248 126.852 12.246L126.829 12.2195C126.587 12.7845 126.486 13.3998 126.534 14.0126C126.539 14.0797 126.539 14.1471 126.534 14.2142Z" fill="black"/>
</g>
<path opacity="0.1" d="M128.67 23.1037C128.67 23.1037 133.811 23.7863 134.273 23.0135L128.67 23.1037Z" fill="black"/>
<path opacity="0.1" d="M138.664 20.9764C138.664 20.9764 141.521 20.9764 142.149 22.0516L138.664 20.9764Z" fill="black"/>
<path d="M154.651 116.495C153.803 117.253 152.702 117.664 151.565 117.648C151.275 117.648 150.874 117.703 150.872 117.993C150.879 118.078 150.908 118.16 150.957 118.23C151.316 118.828 151.882 119.273 152.548 119.48C153.167 119.668 153.829 119.636 154.474 119.602L156.358 119.505C156.711 119.485 157.065 119.468 157.419 119.424C157.772 119.379 158.158 119.307 158.527 119.247C159.436 119.118 160.354 119.075 161.27 119.119C161.514 119.128 161.801 119.119 161.946 118.943C162.091 118.766 162.016 118.428 161.962 118.163C161.848 117.616 161.962 117.043 161.857 116.495C161.68 115.533 160.847 114.796 159.935 114.447C159.086 114.126 157.583 113.756 156.78 114.294C155.933 114.858 155.415 115.8 154.651 116.495Z" fill="#3F3D56"/>
<path d="M156.522 84.2647C156.689 85.0552 157.454 85.66 157.475 86.4664C157.495 87.1136 157.033 87.6565 156.701 88.21C156.388 88.7833 156.123 89.3819 155.91 89.9996C155.285 91.6078 154.508 93.1532 153.59 94.615C153.148 95.3224 152.653 96.0775 152.754 96.8998C152.824 97.2843 152.96 97.6539 153.155 97.9926L154.482 100.628C154.772 101.154 154.999 101.712 155.159 102.292C155.274 102.792 155.284 103.31 155.352 103.819C155.56 105.436 156.319 107.063 155.87 108.629C155.831 108.764 155.693 108.926 155.585 108.833C156.024 109.652 156.376 110.476 156.342 111.404C156.324 111.89 156.176 112.398 156.354 112.851C156.43 113.04 156.563 113.217 156.561 113.42C156.561 113.554 156.499 113.68 156.485 113.811C156.448 114.184 156.791 114.495 157.147 114.614C157.502 114.732 157.889 114.723 158.248 114.831C158.938 115.038 159.431 115.632 160.017 116.044C160.617 116.458 161.325 116.688 162.054 116.707C162.158 116.718 162.263 116.697 162.354 116.647C162.406 116.602 162.448 116.546 162.477 116.483C162.505 116.42 162.52 116.352 162.521 116.283C162.553 115.953 162.503 115.62 162.376 115.313C162.249 115.007 162.048 114.736 161.792 114.525C161.68 114.455 161.587 114.358 161.521 114.242C161.488 114.14 161.48 114.032 161.497 113.926C161.603 112.476 161.577 111.02 161.419 109.575C161.347 109.118 161.324 108.654 161.35 108.191C161.387 107.805 161.504 107.423 161.461 107.04C161.419 106.656 161.223 106.306 161.108 105.936C160.903 105.278 160.959 104.571 160.931 103.883C160.896 102.688 160.621 101.513 160.349 100.346C160.241 99.8883 160.123 99.4091 159.799 99.0696C159.523 98.7813 159.078 98.5054 159.182 98.1217C159.24 97.9803 159.326 97.8521 159.435 97.745C159.563 97.5843 159.657 97.3992 159.711 97.201C159.765 97.0028 159.778 96.7956 159.75 96.5921C159.866 96.6217 159.989 96.6101 160.098 96.5592C160.206 96.5082 160.294 96.4211 160.346 96.3127C162.499 95.2959 164.236 93.2622 165.01 91.0075C165.056 90.8401 165.126 90.6804 165.219 90.5336C165.419 90.2542 165.766 90.134 166.073 89.9801C167.039 89.4938 167.705 88.5831 168.317 87.6918C168.671 87.1755 169.025 86.6414 169.184 86.0331C169.268 85.6397 169.307 85.2381 169.302 84.8359L169.357 82.7581C169.369 82.6213 169.356 82.4834 169.318 82.3513C169.266 82.228 169.189 82.1162 169.094 82.0224C168.505 81.4005 167.733 80.9839 166.89 80.8341C166.324 80.7333 165.746 80.7527 165.173 80.705C164.063 80.613 162.966 80.2682 161.856 80.3513C160.11 80.4804 158.556 81.69 157.734 83.2355C157.445 83.7802 157.141 84.2541 156.522 84.2647Z" fill="#464353"/>
<path d="M146.831 70.7544C146.855 71.0752 146.812 71.3974 146.704 71.7005C146.568 71.9905 146.227 72.2169 145.928 72.0984C146.018 71.895 145.779 71.6634 145.556 71.6881C145.447 71.7134 145.345 71.7649 145.26 71.8382C145.174 71.9115 145.108 72.0044 145.067 72.109C144.919 72.406 144.869 72.7422 144.925 73.0692C144.996 73.4759 145.231 73.8668 145.169 74.2752C145.12 74.6148 144.87 74.9525 145.003 75.2673C145.089 75.4111 145.197 75.5406 145.323 75.651C145.498 75.8663 145.583 76.1403 145.562 76.4167C145.54 76.6931 145.414 76.9507 145.208 77.1365L148.554 77.2037C148.432 77.7625 148.683 78.3337 148.969 78.8306C149.772 80.1967 150.88 81.3584 152.206 82.2245C153.533 83.0907 155.042 83.6377 156.616 83.8227C156.531 83.8724 156.458 83.9403 156.402 84.0216C156.347 84.103 156.31 84.1956 156.294 84.2929C156.279 84.3902 156.285 84.4898 156.313 84.5843C156.341 84.6788 156.389 84.766 156.455 84.8395C156.727 85.1101 157.189 85.0765 157.53 84.9014C157.871 84.7263 158.138 84.4363 158.45 84.2117C158.999 83.8224 159.669 83.6418 160.34 83.7024C160.759 83.7431 161.166 83.8793 161.587 83.9005C162.825 83.9659 163.886 83.0747 165.078 82.7104C165.946 82.4434 166.931 82.4433 167.659 81.9005C167.974 81.667 168.232 81.2833 168.14 80.9049C168.064 80.6874 167.944 80.4881 167.787 80.3195C167.368 79.7766 167.12 79.1241 166.819 78.507C166.224 77.2851 165.404 76.1861 164.402 75.2673C163.646 74.6064 162.845 73.999 162.004 73.4494C161.801 73.2994 161.584 73.1686 161.357 73.0586C161.063 72.9295 160.738 72.8676 160.473 72.7049C160.08 72.4574 159.854 72.0206 159.551 71.6687C158.888 70.8941 157.87 70.5387 157.053 69.9304C156.504 69.5219 156.02 68.9843 155.366 68.788C155.047 68.6907 154.71 68.6837 154.391 68.5882C153.668 68.3689 153.141 67.727 152.432 67.467C151.871 67.2619 151.252 67.3149 150.664 67.2424C150 67.1606 149.366 66.9191 148.816 66.5386C148.638 66.3943 148.44 66.2785 148.227 66.1956C147.33 65.9232 147.258 67.5926 147.166 68.1708C147.047 69.0303 146.831 69.8844 146.831 70.7544Z" fill="#1990F2"/>
<path d="M147.705 76.3531C147.855 77.9835 146.624 79.5627 146.983 81.1595C147.059 81.499 147.206 81.8227 147.259 82.1675C147.409 83.1136 146.844 84.0101 146.304 84.8024L141.671 91.6018C141.485 91.9003 141.263 92.1747 141.01 92.4188C140.125 93.2057 138.796 93.1261 137.632 93.3595C136.815 93.5275 136.043 93.8688 135.369 94.3604C135.338 94.3839 135.318 94.4183 135.313 94.4563C135.308 94.4944 135.317 94.5329 135.34 94.5638C135.532 94.8254 135.787 95.0348 136.081 95.1728C136.374 95.3109 136.698 95.3733 137.022 95.3543C137.144 95.5134 137.022 95.7504 136.854 95.8653C136.606 96.0422 136.263 96.0828 136.214 96.5055C136.197 96.6523 136.227 96.8008 136.299 96.9299C136.486 97.2148 136.776 97.4163 137.109 97.4922C138.713 97.9838 140.446 97.1209 141.646 95.9484C142.847 94.776 143.708 93.2959 144.886 92.104C145.538 91.4426 146.279 90.8785 146.951 90.2384C148.292 88.9598 149.335 87.409 150.34 85.8546C150.642 85.3859 150.948 84.9049 151.073 84.362C151.199 83.8192 151.141 83.2692 151.284 82.744C151.471 82.0561 151.975 81.5061 152.394 80.9296C153.217 79.7979 153.767 78.4132 153.657 77.018C153.547 75.6227 152.684 74.2469 151.369 73.773C150.961 73.6109 150.511 73.5836 150.087 73.6952C149.547 73.8614 149.149 74.3071 148.782 74.735L147.897 75.7501C147.682 75.9748 147.513 76.2398 147.401 76.5299C147.344 76.6761 147.33 76.8355 147.361 76.9892C147.393 77.1429 147.468 77.2843 147.577 77.3964" fill="#FBBEBE"/>
<path d="M150.053 69.6651C149.445 69.7005 148.775 69.7606 148.345 70.1956C148.165 70.3954 148.019 70.6236 147.914 70.8711C147.496 71.7217 147.09 72.6112 147.06 73.5591C147.035 74.3159 147.254 75.0569 147.369 75.8049C147.465 76.4274 147.222 77.0622 147.176 77.6918C147.931 77.4601 148.929 77.1454 149.613 76.7545C150.08 76.4875 150.531 76.1834 151.04 76.0136C151.767 75.7713 152.985 76.1904 153.677 76.5264C153.714 76.0419 153.35 75.1966 153.389 74.7103C153.394 74.5056 153.43 74.3029 153.496 74.109C153.6 73.904 153.722 73.7092 153.862 73.5273C154.126 73.0993 154.247 72.5991 154.208 72.0981C154.17 71.5972 153.974 71.1213 153.648 70.7385C153.035 70.0488 152.075 69.7907 151.159 69.6775C150.582 69.6106 150 69.5905 149.42 69.6174" fill="#1990F2"/>
</g>
<defs>
<linearGradient id="paint0_linear" x1="124.886" y1="96.5849" x2="124.886" y2="10.1716" gradientUnits="userSpaceOnUse">
<stop stop-color="#808080" stop-opacity="0.25"/>
<stop offset="0.54" stop-color="#808080" stop-opacity="0.12"/>
<stop offset="1" stop-color="#808080" stop-opacity="0.1"/>
</linearGradient>
<clipPath id="clip0">
<rect width="185.605" height="120" fill="white"/>
</clipPath>
</defs>
</svg>
