<svg width="152" height="80" viewBox="0 0 152 80" fill="none" xmlns="http://www.w3.org/2000/svg">
<g clip-path="url(#clip0)">
<path d="M80.9192 37.5521C80.4919 37.7866 80.0094 37.9021 79.5222 37.8864C79.3312 37.8864 78.9133 37.8864 78.2207 37.7909V39.7491C78.8171 39.9036 79.4317 39.9759 80.0476 39.9641C80.9027 39.9955 81.7437 39.739 82.4357 39.2357C83.178 38.6227 83.7565 37.8349 84.1192 36.9432L89.4804 24.8596H86.9491L83.7013 32.776L80.5491 24.8596H77.9819L82.3879 35.2596L81.9342 36.2745C81.7338 36.7937 81.3797 37.2395 80.9192 37.5521Z" fill="#141927"/>
<path d="M93.445 34.2687C93.8634 34.8292 94.4183 35.2731 95.0569 35.5583C95.7536 35.8761 96.5122 36.0351 97.2778 36.024C97.994 36.0521 98.7075 35.9223 99.3679 35.6437C100.028 35.3651 100.619 34.9446 101.099 34.412C102.136 33.3217 102.706 31.869 102.687 30.3643C102.711 29.6089 102.582 28.8565 102.307 28.1525C102.032 27.4486 101.617 26.8077 101.087 26.2687C100.589 25.7418 99.9871 25.325 99.3187 25.0453C98.6502 24.7656 97.9306 24.6292 97.2062 24.6449H97.2898C96.5899 24.6165 95.8929 24.748 95.2515 25.0294C94.6101 25.3108 94.0413 25.7346 93.5883 26.2687V19.224H91.2002V35.821H93.3972V34.2687H93.445ZM94.448 27.7613C94.7634 27.4534 95.1371 27.2113 95.5471 27.0494C95.9571 26.8874 96.3953 26.8088 96.836 26.818C97.2808 26.8102 97.7225 26.8941 98.1333 27.0646C98.5442 27.2352 98.9155 27.4886 99.2241 27.809C99.5472 28.1443 99.7994 28.5412 99.9656 28.9762C100.132 29.4111 100.209 29.8751 100.191 30.3404C100.212 30.8133 100.137 31.2855 99.9712 31.7288C99.805 32.172 99.5509 32.577 99.2241 32.9195C98.9224 33.2512 98.5532 33.5145 98.1413 33.6916C97.7294 33.8687 97.2843 33.9556 96.836 33.9464C95.9548 33.9771 95.097 33.6596 94.448 33.0628C94.1023 32.7179 93.8348 32.3027 93.6638 31.8453C93.4928 31.3879 93.4223 30.8991 93.4569 30.412C93.4238 29.9251 93.4951 29.4367 93.666 28.9796C93.837 28.5224 94.1035 28.1071 94.448 27.7613Z" fill="#141927"/>
<path d="M72.5016 50.7225C71.8901 50.7004 71.2808 50.8069 70.7131 51.0352C70.1454 51.2635 69.6319 51.6085 69.206 52.0478V50.9732H66.9971V61.8747H69.3851V55.3672C69.3686 55.0351 69.4217 54.7031 69.541 54.3926C69.6602 54.0821 69.843 53.8 70.0777 53.5643C70.3167 53.3301 70.6009 53.1469 70.9128 53.0258C71.2248 52.9047 71.5581 52.8482 71.8926 52.8598C72.2177 52.8515 72.5411 52.9097 72.8429 53.0308C73.1447 53.152 73.4186 53.3335 73.6478 53.5643C73.8768 53.8103 74.054 54.0999 74.1689 54.4157C74.2838 54.7316 74.334 55.0674 74.3165 55.4031V61.8747H76.7045V55.0807C76.7598 53.9331 76.3706 52.8084 75.618 51.9404C75.2173 51.5244 74.7312 51.2002 74.1932 50.9899C73.6553 50.7797 73.0781 50.6884 72.5016 50.7225Z" fill="#141927"/>
<path d="M84.4538 50.7103C83.7081 50.7103 82.9697 50.8579 82.2814 51.1447C81.593 51.4315 80.9683 51.8518 80.4432 52.3813C79.9182 52.9109 79.5031 53.5391 79.2221 54.2298C78.9411 54.9206 78.7997 55.6601 78.806 56.4058C78.7864 57.161 78.9261 57.9118 79.2162 58.6092C79.5063 59.3067 79.9402 59.9351 80.4896 60.4536C81.0461 60.9888 81.7028 61.4088 82.422 61.6895C83.1412 61.9702 83.9088 62.1061 84.6807 62.0894C86.3169 62.1053 87.8943 61.4795 89.0747 60.3461L87.9642 58.7581C87.0967 59.5645 85.9605 60.0198 84.7762 60.0357C83.9187 60.0575 83.0783 59.7928 82.3881 59.2834C81.7253 58.7603 81.2961 57.9963 81.1941 57.1581H89.3971C89.5142 56.6817 89.5664 56.1917 89.5523 55.7013C89.5726 55.0357 89.4535 54.3732 89.2027 53.7563C88.9518 53.1394 88.5747 52.5818 88.0956 52.1193C87.6181 51.6465 87.0483 51.2774 86.4216 51.0349C85.795 50.7925 85.1251 50.682 84.4538 50.7103ZM81.1941 55.367C81.3561 54.6001 81.7778 53.9126 82.3881 53.4207C82.9533 52.9452 83.6674 52.6832 84.406 52.6804C85.1409 52.6635 85.8543 52.9284 86.4001 53.4207C86.6557 53.6743 86.8556 53.9783 86.9872 54.3134C87.1188 54.6485 87.1791 55.0073 87.1642 55.367H81.1941Z" fill="#141927"/>
<path d="M110.699 36.0476C112.335 36.0635 113.912 35.4377 115.093 34.3043L113.97 32.7163C113.103 33.5315 111.96 33.988 110.77 33.9939C109.913 34.0157 109.072 33.751 108.382 33.2416C107.719 32.7185 107.29 31.9545 107.188 31.1163H115.343C115.485 30.6436 115.557 30.153 115.558 29.6596C115.579 28.9939 115.459 28.3314 115.209 27.7145C114.958 27.0976 114.581 26.54 114.101 26.0775C113.628 25.615 113.068 25.2513 112.453 25.0074C111.838 24.7634 111.181 24.6442 110.519 24.6566C109.771 24.655 109.029 24.8017 108.337 25.0883C107.645 25.3748 107.017 25.7955 106.488 26.3262C105.96 26.8568 105.542 27.4868 105.258 28.1798C104.975 28.8729 104.831 29.6152 104.836 30.364C104.819 31.1177 104.959 31.8666 105.247 32.5634C105.534 33.2602 105.964 33.8896 106.507 34.4118C107.062 34.9492 107.719 35.3706 108.438 35.6514C109.158 35.9323 109.926 36.067 110.699 36.0476ZM108.31 27.3909C108.88 26.917 109.599 26.6591 110.34 26.6625C111.069 26.6501 111.775 26.9098 112.322 27.3909C112.586 27.641 112.796 27.943 112.938 28.278C113.079 28.6129 113.15 28.9735 113.146 29.3372H107.176C107.323 28.5758 107.728 27.8883 108.322 27.3909H108.31Z" fill="#141927"/>
<path d="M97.4092 59.964C96.8416 60.014 96.2736 59.871 95.7973 59.558C95.6049 59.371 95.4576 59.1427 95.3666 58.8903C95.2755 58.6379 95.2432 58.3681 95.2719 58.1013V52.9909H98.5316V50.973H95.2719V48.1312H92.8839V50.973H91.1167V52.9909H92.8958V58.2924C92.8575 58.8139 92.9339 59.3375 93.1195 59.8264C93.3052 60.3153 93.5956 60.7576 93.9704 61.1222C94.816 61.7824 95.8725 62.1134 96.9436 62.0536C97.6031 62.0356 98.2591 61.9516 98.9018 61.8028V59.8446C98.2451 59.9162 97.7913 59.964 97.4451 59.964H97.4092Z" fill="#141927"/>
<path d="M113.278 57.9701L109.887 50.7223H109.087L105.755 58.0656L102.854 50.9731H100.358L105.242 62.0537H106.042L109.493 54.8417L112.932 62.0537H113.755L118.627 50.9731H116.132L113.278 57.9701Z" fill="#141927"/>
<path d="M125.099 50.7223C124.337 50.7059 123.581 50.8421 122.873 51.1231C122.166 51.4041 121.522 51.824 120.979 52.3582C120.445 52.8847 120.021 53.5121 119.732 54.2039C119.442 54.8957 119.293 55.6381 119.293 56.388C119.293 57.1379 119.442 57.8803 119.732 58.5721C120.021 59.2639 120.445 59.8913 120.979 60.4179C122.089 61.4763 123.565 62.0668 125.099 62.0668C126.633 62.0668 128.108 61.4763 129.218 60.4179C129.76 59.8945 130.19 59.2675 130.485 58.5741C130.779 57.8807 130.93 57.1352 130.93 56.382C130.93 55.6289 130.779 54.8834 130.485 54.19C130.19 53.4966 129.76 52.8696 129.218 52.3462C128.673 51.8159 128.029 51.3992 127.321 51.1204C126.614 50.8416 125.859 50.7063 125.099 50.7223ZM127.487 58.8895C126.835 59.5255 125.961 59.8815 125.051 59.8815C124.141 59.8815 123.266 59.5255 122.615 58.8895C122.295 58.5597 122.044 58.1688 121.878 57.7401C121.712 57.3113 121.633 56.8536 121.648 56.394C121.628 55.9302 121.704 55.4673 121.87 55.0339C122.036 54.6006 122.29 54.206 122.615 53.8746C123.245 53.2319 124.103 52.8631 125.003 52.8477C125.9 52.8529 126.759 53.2136 127.391 53.8507C127.713 54.1841 127.965 54.5791 128.131 55.0119C128.297 55.4448 128.375 55.9067 128.358 56.3701C128.403 57.2908 128.091 58.1931 127.487 58.8895Z" fill="#141927"/>
<path d="M135.272 52.3819V50.961H133.086V61.8505H135.474V56.0237C135.455 55.6115 135.526 55.2 135.683 54.8183C135.839 54.4366 136.078 54.094 136.382 53.8147C137.017 53.2763 137.831 52.9951 138.663 53.0266H139.367V50.9729C139.083 50.8967 138.79 50.8606 138.495 50.8654C137.875 50.8383 137.258 50.9622 136.697 51.2263C136.135 51.4904 135.646 51.887 135.272 52.3819Z" fill="#141927"/>
<path d="M120.084 30.0057C120.063 29.5934 120.134 29.1817 120.291 28.7999C120.448 28.418 120.687 28.0755 120.991 27.7967C121.627 27.258 122.439 26.9731 123.272 26.9967H123.988V24.955C123.7 24.8796 123.403 24.8435 123.105 24.8475C122.487 24.8246 121.874 24.9518 121.316 25.2179C120.759 25.4841 120.275 25.8814 119.905 26.3759V24.955H117.708V35.8206H120.096V30.0057H120.084Z" fill="#141927"/>
<path d="M141.528 45.2416H143.881V61.8625H141.528V45.2416Z" fill="#141927"/>
<path d="M146.722 55.7373L151.152 50.9731H148.251L143.952 55.7253L148.74 61.8507H151.57L146.722 55.7373Z" fill="#141927"/>
<path d="M76.6209 24.9313H73.7075L69.4209 29.6955L74.2089 35.8328H77.0388L72.191 29.7193L76.6209 24.9313Z" fill="#141927"/>
<path d="M66.9971 19.2119H69.3493V35.8327H66.9971V19.2119Z" fill="#141927"/>
<path d="M23.8804 40.0119L53.7311 57.1104C53.971 57.2546 54.245 57.3323 54.5248 57.3356C54.8047 57.3388 55.0804 57.2675 55.3236 57.1289C55.5667 56.9903 55.7686 56.7894 55.9084 56.5469C56.0483 56.3045 56.121 56.0291 56.1192 55.7492V24.2507C56.1227 23.9704 56.0508 23.6942 55.911 23.4512C55.7712 23.2081 55.5687 23.0071 55.3246 22.8692C55.0804 22.7313 54.8037 22.6615 54.5234 22.6672C54.2431 22.6728 53.9694 22.7538 53.7311 22.9015L23.8804 40.0119Z" fill="#31CB9E"/>
<path d="M53.0985 15.3314L32.6925 0.322437C32.4804 0.160313 32.2316 0.0529774 31.9682 0.00992989C31.7047 -0.0331176 31.4347 -0.0105486 31.182 0.075639C30.9294 0.161827 30.7019 0.308974 30.5196 0.504057C30.3374 0.69914 30.2061 0.93614 30.1373 1.19408L22.6865 34.6269L52.9194 17.9105C53.1494 17.7922 53.3451 17.6165 53.4874 17.4005C53.6297 17.1845 53.714 16.9354 53.732 16.6774C53.75 16.4193 53.7012 16.1609 53.5902 15.9273C53.4792 15.6936 53.3099 15.4925 53.0985 15.3433" fill="#31CB9E"/>
<path d="M32.6686 79.6896L53.0985 64.6807C53.3099 64.5296 53.4794 64.327 53.5908 64.0922C53.7022 63.8574 53.7519 63.598 53.7352 63.3387C53.7185 63.0793 53.6358 62.8285 53.4952 62.6099C53.3545 62.3914 53.1604 62.2123 52.9313 62.0896L22.6865 45.3732L30.1373 78.806C30.1991 79.0658 30.3244 79.3061 30.5021 79.5055C30.6798 79.7048 30.9042 79.8568 31.1551 79.948C31.4061 80.0392 31.6758 80.0665 31.94 80.0277C32.2041 79.9888 32.4545 79.885 32.6686 79.7254" fill="#31CB9E"/>
<path d="M16.1196 39.4029L23.8808 3.0925C23.9401 2.7917 23.9082 2.48006 23.7894 2.19747C23.6705 1.91487 23.47 1.67417 23.2135 1.50619C22.9571 1.33821 22.6563 1.25058 22.3497 1.25452C22.0432 1.25846 21.7448 1.3538 21.4927 1.52832L1.61212 16.7761C1.10871 17.1623 0.701311 17.6596 0.421704 18.2291C0.142098 18.7987 -0.00215877 19.4252 0.00018406 20.0597V58.7462C-0.0114615 59.3908 0.12832 60.029 0.408286 60.6097C0.688251 61.1904 1.10059 61.6972 1.61212 62.0895L21.3972 77.2776C21.6493 77.4521 21.9477 77.5474 22.2542 77.5514C22.5608 77.5553 22.8615 77.4677 23.118 77.2997C23.3745 77.1317 23.575 76.891 23.6938 76.6084C23.8127 76.3258 23.8445 76.0142 23.7853 75.7134L16.1196 39.4029Z" fill="#31CB9E"/>
</g>
<defs>
<clipPath id="clip0">
<rect width="151.57" height="80" fill="white"/>
</clipPath>
</defs>
</svg>
