<svg width="147" height="44" viewBox="0 0 147 44" fill="none" xmlns="http://www.w3.org/2000/svg">
<path d="M82.5683 22.1377V31.804L77.9518 31.7818C77.9518 28.6399 77.9518 25.4974 77.9518 22.3544L77.9153 21.0366C77.9153 19.1381 76.76 17.7063 75.0025 17.5655C74.6157 17.533 74.2263 17.5716 73.8535 17.6794C73.2519 17.8219 72.7106 18.1502 72.3067 18.6176C72.1671 18.7868 72.0495 18.9728 71.9565 19.1713C71.7404 19.6601 71.6174 20.1848 71.5936 20.7186C71.5825 20.8673 71.5745 21.016 71.5698 21.1663C71.5698 21.3751 71.5698 21.5824 71.5698 21.7849C71.5698 25.1167 71.5698 28.4479 71.5698 31.7787H66.9739C66.9739 28.4479 66.9765 25.1167 66.9818 21.7849C66.9818 21.5824 66.9818 21.3751 66.9739 21.1663C66.9739 21.0176 66.9628 20.8689 66.9501 20.7217C66.9263 20.1871 66.8038 19.6615 66.5888 19.1713C66.4947 18.973 66.3765 18.7871 66.2369 18.6176C65.8332 18.1508 65.2926 17.8226 64.6918 17.6794C64.3185 17.5714 63.9285 17.5328 63.5412 17.5655C61.7836 17.7048 60.6299 19.1365 60.6283 21.0366L60.5919 22.3544C60.5919 25.4974 60.5919 28.6399 60.5919 31.7818L55.9769 31.804V22.1377C55.9769 21.6773 55.9849 21.2137 56.0086 20.7502C56.0086 20.6474 56.0197 20.5493 56.0261 20.448C56.194 17.9168 57.2004 15.7573 59.4223 14.4362C61.3462 13.2893 63.8597 12.9317 66.0166 13.5978C67.3938 14.0249 68.294 14.8492 69.2306 15.906L69.2813 15.9661L69.3305 15.906C70.2671 14.8492 71.1672 14.0249 72.546 13.5978C74.695 12.9317 77.2149 13.2893 79.1404 14.4362C81.3591 15.7588 82.3686 17.9168 82.5382 20.448C82.5382 20.5493 82.5493 20.649 82.554 20.7502C82.5604 21.2137 82.5683 21.6773 82.5683 22.1377Z" fill="white"/>
<path d="M71.5935 22.3607C71.5935 25.5016 71.5935 28.642 71.5935 31.7818H71.5602C71.5602 28.4511 71.5602 25.1198 71.5602 21.788C71.5602 21.5855 71.5602 21.3782 71.5602 21.1694C71.5602 21.0191 71.5713 20.8704 71.584 20.7217L71.595 20.7454L71.5935 22.3607Z" fill="white"/>
<path d="M142.507 18.4323V25.9107C142.507 27.8519 143.911 27.8851 146.577 27.7443V31.9494C140.204 32.6692 137.86 30.8419 137.86 25.9123V18.4323H134.73V13.9773H137.862V11.7877L142.507 7.13965V13.9773H146.577V18.4307L142.507 18.4323Z" fill="white"/>
<path d="M97.8411 13.9585L93.8585 25.9979L89.1976 13.9585H84.1389L91.4971 31.2962C90.6366 33.7341 89.2784 34.7672 86.795 34.734V39.0324C91.391 39.2808 94.4021 37.0248 96.2658 31.8673L102.797 13.9585H97.8411Z" fill="white"/>
<path d="M132.079 13.9585H127.451V31.8673H132.079V13.9585Z" fill="white"/>
<path d="M121.592 16.2146C119.905 14.3873 117.825 13.4555 115.412 13.4555C112.903 13.4555 110.958 14.3145 109.6 16.0674V6.78711H109.472L104.971 11.2801V31.8753H109.599V29.7601C110.965 31.513 112.901 32.372 115.41 32.372C117.811 32.372 119.897 31.4782 121.591 29.6525C123.314 27.8252 124.174 25.5692 124.174 22.9177C124.174 20.2662 123.315 18.0418 121.592 16.2146ZM118.115 26.5627C117.18 27.4962 115.997 27.9618 114.564 27.9597C113.138 27.9597 111.947 27.4962 111.012 26.5627C110.077 25.5956 109.611 24.3779 109.613 22.9098C109.613 21.4385 110.077 20.2203 111.012 19.2901C111.947 18.3234 113.131 17.8662 114.564 17.8662C115.997 17.8662 117.18 18.3298 118.115 19.2901C119.084 20.2235 119.542 21.4385 119.542 22.9098C119.542 24.3811 119.084 25.5961 118.115 26.5627Z" fill="white"/>
<path d="M129.746 4.96826L126.336 8.36377L129.742 11.7721L133.152 8.37656L129.746 4.96826Z" fill="white"/>
<path d="M44.0876 22.0016L35.826 30.2551H35.8165C34.0101 28.4477 31.8643 27.0136 29.5019 26.0352C27.1395 25.0568 24.607 24.5531 22.0494 24.5531C19.4917 24.5531 16.9592 25.0568 14.5968 26.0352C12.2344 27.0136 10.0886 28.4477 8.28217 30.2551H8.26791L0 22.0016L22.0478 0L44.0876 22.0016Z" fill="white"/>
<path d="M33.3871 32.6886L22.0558 44.0002L10.7086 32.6886C12.1914 31.1947 13.9573 30.0105 15.9033 29.2049C17.8493 28.3992 19.9364 27.9884 22.0431 27.9962C22.8013 27.9958 23.5586 28.0487 24.3094 28.1544C27.7514 28.6314 30.941 30.2245 33.3871 32.6886Z" fill="white"/>
</svg>
