<svg width="24" height="24" viewBox="0 0 24 24" fill="none" xmlns="http://www.w3.org/2000/svg">
<path fill-rule="evenodd" clip-rule="evenodd" d="M6.34327 3.34315C4.843 4.84341 4.00015 6.87819 4.00012 8.99988L4 9L10.0964 17.6813C9.86726 17.8695 9.66602 18.0916 9.50031 18.3413C9.17201 18.8361 8.99793 19.4172 9.00013 20.011C8.9964 20.4054 9.07153 20.7967 9.22111 21.1617C9.37069 21.5267 9.5917 21.8582 9.87117 22.1366C10.1506 22.415 10.4829 22.6348 10.8485 22.783C11.2141 22.9313 11.6056 23.0049 12.0001 22.9997C12.5939 22.9997 13.1743 22.8235 13.6679 22.4934C14.1615 22.1633 14.546 21.6941 14.7727 21.1453C14.9994 20.5965 15.0582 19.9928 14.9415 19.4105C14.8249 18.8283 14.5381 18.2938 14.1174 17.8747C14.0492 17.8067 13.9779 17.7423 13.9039 17.6815L20 9H20.0001C20.0001 6.87827 19.1573 4.84344 17.657 3.34315C16.1567 1.84286 14.1219 1 12.0001 1C9.87839 1 7.84356 1.84286 6.34327 3.34315ZM11.3501 17.0712L5.70003 9H11.5V17.042C11.4498 17.0504 11.3999 17.0602 11.3501 17.0712ZM12.5 17.042C12.5262 17.0464 12.5524 17.0512 12.5785 17.0563C12.6025 17.061 12.6265 17.066 12.6503 17.0713L18.3 9H12.5V17.042Z" fill="#1890FF"/>
</svg>
