<svg width="24" height="24" viewBox="0 0 24 24" fill="none" xmlns="http://www.w3.org/2000/svg">
<path fill-rule="evenodd" clip-rule="evenodd" d="M12 1C5.95 1 1 5.95 1 12C1 16.8813 4.1625 21.0063 8.49375 22.45C9.04375 22.5188 9.25 22.2437 9.25 21.9C9.25 21.625 9.25 20.9375 9.25 20.0438C6.15625 20.7313 5.5375 18.6 5.5375 18.6C5.05625 17.3625 4.3 17.0187 4.3 17.0187C3.26875 16.3312 4.36875 16.3312 4.36875 16.3312C5.46875 16.4 6.0875 17.4312 6.0875 17.4312C7.05 19.0812 8.63125 18.6 9.31875 18.325C9.3875 17.6375 9.73125 17.1562 10.0063 16.8813C7.53125 16.6062 4.9875 15.6438 4.9875 11.45C4.9875 10.2812 5.4 9.25 6.0875 8.49375C5.95 8.21875 5.60625 7.11875 6.225 5.60625C6.225 5.60625 7.11875 5.33125 9.25 6.70625C10.1438 6.43125 11.0375 6.3625 12 6.3625C12.9625 6.3625 13.8562 6.5 14.75 6.70625C16.8813 5.2625 17.775 5.60625 17.775 5.60625C18.3937 7.11875 17.9813 8.21875 17.9125 8.49375C18.6 9.25 19.0125 10.2125 19.0125 11.45C19.0125 15.6438 16.4688 16.6062 13.9937 16.8813C14.4062 17.225 14.75 17.9125 14.75 18.9438C14.75 20.3875 14.75 21.625 14.75 21.9688C14.75 22.2437 14.9563 22.5875 15.5063 22.5187C19.8375 21.0063 23 16.8813 23 12C23 5.95 18.05 1 12 1Z" fill="#1890FF"/>
</svg>
