<svg width="24" height="24" viewBox="0 0 24 24" fill="none" xmlns="http://www.w3.org/2000/svg">
<path fill-rule="evenodd" clip-rule="evenodd" d="M18.8774 16.1276L23 12.0008L12.002 1L1 12.0008L5.12574 16.1276H5.13286C6.03427 15.2238 7.10506 14.5068 8.2839 14.0176C9.46275 13.5284 10.7265 13.2766 12.0028 13.2766C13.279 13.2766 14.5428 13.5284 15.7216 14.0176C16.9005 14.5068 17.9713 15.2238 18.8727 16.1276H18.8774ZM12.0061 23.0001L17.6605 17.3443C16.4399 16.1123 14.8482 15.3157 13.1306 15.0772C12.756 15.0243 12.3781 14.9979 11.9997 14.9981C10.9485 14.9942 9.90699 15.1996 8.93593 15.6024C7.96487 16.0052 7.08369 16.5974 6.34375 17.3443L12.0061 23.0001Z" fill="#1890FF"/>
</svg>
