<svg width="210" height="262" viewBox="0 0 210 262" fill="none" xmlns="http://www.w3.org/2000/svg">
<path fill-rule="evenodd" clip-rule="evenodd" d="M86.1107 62.7864V72.6248L81.4074 72.603C81.4046 69.4048 81.4031 66.2074 81.4003 63.0078L81.3635 61.6668C81.3621 59.7335 80.1863 58.2769 78.396 58.1344C77.9859 58.1027 77.5935 58.1422 77.2244 58.2501C77.0731 58.2853 76.9246 58.334 76.7776 58.3939C76.3456 58.5716 75.9489 58.8473 75.6491 59.2061C75.5034 59.3817 75.3861 59.5692 75.292 59.7688C75.0615 60.2482 74.9625 60.7918 74.9215 61.3446C74.9095 61.4955 74.9024 61.6478 74.8982 61.8C74.8904 62.0123 74.8904 62.2238 74.8904 62.4304C74.894 65.8217 74.8954 69.2116 74.8982 72.6016H70.2111C70.2139 69.2116 70.2168 65.8217 70.2196 62.4304C70.2196 62.2238 70.2182 62.0123 70.2111 61.8C70.2069 61.6492 70.1991 61.4983 70.1878 61.3474C70.1461 60.7932 70.0478 60.2482 69.8187 59.7688C69.7232 59.5692 69.6052 59.3817 69.4602 59.2061C69.1604 58.8473 68.7645 58.5716 68.331 58.3939C68.1854 58.334 68.0355 58.2853 67.8856 58.2501C67.5172 58.1422 67.1234 58.1027 66.7133 58.1344C64.923 58.2769 63.7472 59.7335 63.7458 61.6668L63.709 63.0078C63.7062 66.2074 63.7041 69.4048 63.7012 72.603L59 72.6248V62.7864C59.0014 62.3176 59.0085 61.8452 59.0318 61.3749C59.0368 61.2712 59.0438 61.1697 59.0495 61.0675C59.2213 58.4877 60.2458 56.2921 62.5098 54.9455C64.4705 53.7786 67.0378 53.4141 69.229 54.0923C70.6325 54.5281 71.5503 55.3664 72.5041 56.4416L72.555 56.5036L72.6052 56.4416C73.559 55.3664 74.4761 54.5281 75.881 54.0923C78.0715 53.4141 80.6388 53.7786 82.5995 54.9455C84.8628 56.2921 85.8887 58.4877 86.0605 61.0675C86.0669 61.1697 86.0726 61.2712 86.0768 61.3749C86.1001 61.8452 86.1079 62.3176 86.1107 62.7864Z" fill="#333333"/>
<path fill-rule="evenodd" clip-rule="evenodd" d="M74.8981 72.6015C74.8952 69.2116 74.8938 65.8217 74.891 62.4303C74.891 62.2238 74.891 62.0129 74.8981 61.8C74.9023 61.6477 74.9101 61.4954 74.9214 61.3445" fill="#333333"/>
<mask id="mask0" mask-type="alpha" maskUnits="userSpaceOnUse" x="139" y="47" width="13" height="26">
<path fill-rule="evenodd" clip-rule="evenodd" d="M139.257 47.5227H151.326V72.9253H139.257V47.5227Z" fill="white"/>
</mask>
<g mask="url(#mask0)">
<path fill-rule="evenodd" clip-rule="evenodd" d="M147.18 59.0145V66.6263C147.18 68.6012 148.61 68.6357 151.326 68.4919V72.7716C144.834 73.5048 142.448 71.64 142.448 66.6263V59.0145H139.257V54.4809H142.448V52.2529L147.18 47.5227V54.4809H151.326V59.0145H147.18Z" fill="#333333"/>
</g>
<path fill-rule="evenodd" clip-rule="evenodd" d="M101.67 54.4616L97.6124 66.7155L92.8631 54.4616H87.7086L95.207 72.1078C94.3295 74.5889 92.9387 75.6416 90.4159 75.607V79.9812C95.0974 80.2343 98.1681 77.938 100.067 72.6888L106.721 54.4616H101.67Z" fill="#333333"/>
<path fill-rule="evenodd" clip-rule="evenodd" d="M131.841 72.6887H136.556V54.4615H131.841V72.6887Z" fill="#333333"/>
<path fill-rule="evenodd" clip-rule="evenodd" d="M122.328 67.2899C121.375 68.2396 120.169 68.7113 118.709 68.7113C117.249 68.7183 116.043 68.2396 115.09 67.2899C114.137 66.3056 113.665 65.0689 113.665 63.5721C113.665 62.0752 114.137 60.8379 115.09 59.8881C116.043 58.9039 117.249 58.4322 118.709 58.4322C120.169 58.4322 121.375 58.9039 122.328 59.8881C123.315 60.8379 123.788 62.0752 123.788 63.5721C123.788 65.0689 123.315 66.3056 122.328 67.2899ZM125.871 56.7577C124.15 54.8992 122.033 53.9487 119.579 53.9487C117.023 53.9487 115.042 54.8237 113.658 56.6075V47.1625H113.528V47.1696L108.942 51.7412V72.6955H113.658V70.543C115.049 72.3268 117.023 73.2018 119.579 73.2018C122.026 73.2018 124.15 72.293 125.871 70.4337C127.626 68.5745 128.503 66.2781 128.503 63.5784C128.503 60.8795 127.626 58.6169 125.871 56.7577Z" fill="#333333"/>
<path fill-rule="evenodd" clip-rule="evenodd" d="M130.705 48.7715L134.179 45.316L137.65 48.7849L134.175 52.2411L130.705 48.7715Z" fill="#333333"/>
<path fill-rule="evenodd" clip-rule="evenodd" d="M105.182 0L127.638 22.3927L119.221 30.7942H119.206C115.601 27.2146 110.659 24.9901 105.182 24.9901C99.7051 24.9901 94.7557 27.2146 91.1504 30.7942H91.1356L82.7258 22.3927L105.182 0Z" fill="#333333"/>
<path fill-rule="evenodd" clip-rule="evenodd" d="M116.735 33.2698L105.19 44.7827L105.186 44.7862L93.6294 33.2698C96.5623 30.3141 100.664 28.4859 105.178 28.4937H105.183C105.966 28.4923 106.737 28.5466 107.491 28.6516C111.089 29.1543 114.311 30.8267 116.735 33.2698Z" fill="#333333"/>
<path d="M74.1 250.9C74 252.4 74.1 253.8 74.3 255.2C74.6 256.1 77.5 257.3 79.5 256.6C81.1 256.1 82.4 255.1 83.4 253.8C84 252.8 86.4 251.6 86.9 250.5C87.8 248.8 86.1 247.4 84.6 247.1C82.9 246.8 81.2 247.3 79.9 248.5C78.6 249.9 74.1 250.9 74.1 250.9Z" fill="#555B5E"/>
<path d="M58.3999 246.3C58.2999 247.8 58.3999 249.2 58.5999 250.6C58.8999 251.5 61.7999 252.7 63.7999 252C65.3999 251.5 66.6999 250.5 67.6999 249.2C68.3999 248.2 70.6999 247 71.1999 245.9C72.0999 244.2 70.3999 242.8 68.8999 242.5C67.1999 242.2 65.4999 242.7 64.1999 243.9C62.8999 245.2 58.3999 246.3 58.3999 246.3Z" fill="#555B5E"/>
<path d="M58.1 202.7C57.8 206.1 58 209.6 58.7 212.9C59.7 218.2 58.7 243.3 58.4 246.6C58.4 246.6 60.1 250.6 64.2 246.9C64.2 237.2 67.8 220.2 66.6 209.7C65.4 199.1 58.1 202.7 58.1 202.7Z" fill="#A7735F"/>
<path d="M58.4 204.2C58.6 204.8 59.2 210.4 67.7 213.8C72.4 216.2 73 220.4 73.4 224C73.7 227.6 73.7 250.9 74.1 251.6C74.4 252.3 75.9 255 79.5 251.6C79.8 241.6 81.5 207.5 80.8 203.3C80.1 199.1 57.9 202.3 58.4 204.2Z" fill="#A7735F"/>
<path d="M58.0999 202.7L57.2 224.7C57.2 224.7 64.1 229.3 68.5 225.2C68.3 223.8 68.6999 215.7 68.6999 215.7L69.9 226.8C69.9 226.8 77.2999 231.7 82.1999 226.3C81.6999 219.6 81.0999 208.1 81.0999 208.1C81.0999 208.1 61.4999 211.7 58.0999 202.7Z" fill="#1990F2"/>
<path d="M61.8 174.3C61.8 174.3 57.6 174.5 57.3 178.5C57 182.5 60.7 184.7 65 184.1C69.3 183.4 61.8 174.3 61.8 174.3Z" fill="#A7735F"/>
<path d="M72.1 171.5C72.1 171.5 79.3 173.6 82.2 178.1C83.3 179.9 83.4 185.4 81.9 189C80.4 192.6 81.9 205.5 81.3 208.1C80.7 210.7 73.4 212 69.1 211.3C64.8 210.6 58.1 207.7 58.3 202.7C58.7 188.5 58.7 181.6 59.3 178.2C59.7 176.2 60.7 174.3 62.1 172.8C62.1 172.7 64.5 170 72.1 171.5Z" fill="#3CBCF7"/>
<path d="M67.7999 150.4C70.2999 149.8 72.8999 150.1 75.1999 151.3C78.4999 153.4 78.9999 155.7 78.9999 158.9C78.9999 162.1 79.0999 166.9 77.4999 170.5C75.7999 174.1 68.5999 171.1 66.3999 169.7C64.1999 168.3 61.8999 162.6 62.0999 158.2C62.2999 153.8 63.7999 151.2 67.7999 150.4Z" fill="#A7735F"/>
<path d="M64.8 168C65.6 169.5 66.1 171 66.5 172.6C66.5 173.9 69 175.4 72.5 174.8C76 174.2 76.2 173.4 76.2 173.4C75.3 172 74.5 170.5 74.1 168.9C73.5 166.9 64.8 168 64.8 168Z" fill="#A7735F"/>
<path d="M78.7 156.6C78.7 156.6 77.9 150.9 76.7 148.9C73.3 147.6 66.2 148.3 63.6 150.9C61.7 152.6 60.8 157.5 60.8 157.5C60.8 157.5 60.3 161.2 63.4 166.3C64.2 167.4 64.9 168.6 65.4 169.9C66 169.7 69.2 171.8 72.3 169.9L73.7 165.7C73.7 165.7 71.1 161.7 72.8 160.3C74.5 158.9 75.1 161.7 75.1 161.7L75.7 160.3L74.6 156.5L78.7 156.6Z" fill="#555A5D"/>
<path d="M81.7 179.4C81.7 179.4 79.5 177.2 76.8 180C74 182.8 76.2 187.1 79.9 188.3C83.6 189.5 91.6 188.6 95 185.8C98.4 183 93.7 170.7 90.4 168.2C89.8 166.7 89.2 165.2 88.4 163.7C87.6 162.4 85 161.1 84.8 161.8C84.6 163.4 84.8 165 85.3 166.6C84.8 166.4 83 166.4 83 166.9C83 167.4 83.9 168.2 85.5 168.3C86.4 168.4 87.2 168.8 87.8 169.6C87.8 169.6 91.6 177.9 90.9 180.7C89.5 182 86.3 182.3 81.7 179.4Z" fill="#A7735F"/>
<path d="M138.1 212.7C138.6 214.6 138.4 215.6 136.9 217.5C135.5 219.4 135.7 220.6 134.2 221.9C132.7 223.2 128.6 223.7 127.7 222C126.8 220.3 128 218.1 129.8 216.2C130.8 215.2 131.4 213.8 131.5 212.3C133.8 211.3 137.6 210.8 138.1 212.7Z" fill="#6E4739"/>
<path d="M122.9 208C123.7 208.3 124.1 209.9 123.8 211.5C123.5 213.1 122.6 213.1 121.3 214.6C120 216.1 120.4 217 118.6 217.9C116.8 218.8 113.2 219.1 112.9 216.9C112.6 214.7 113.7 213.2 115.6 211.8C116.7 211 117.5 209.8 117.8 208.4C119.3 207.4 121.3 207.2 122.9 208Z" fill="#6E4739"/>
<path d="M125.9 171.4C124 176.9 124.9 207 123.4 210C121.9 212.2 118.1 210.7 117.9 209.1C117.4 202.7 117 166.8 117 166.8C118.8 166.1 125.3 167.5 125.9 171.4Z" fill="#0083FF"/>
<path d="M138.1 166.6C138.8 170.7 138.6 203.2 138.3 213.2C134.7 216.6 131.8 213.9 131.4 213.2C131.1 212.5 131.1 190.9 130.7 187.3C130.4 183.7 129.7 179.6 125 177.1C121.5 175.1 118.7 171.9 117.2 168.1C116.7 166.3 137.4 162.5 138.1 166.6Z" fill="#1990F2"/>
<path d="M121.2 151.6C119.8 154.8 115 158.8 113.8 159.5C112.6 160.2 111.9 157.9 108.9 156.5C105.9 155.1 101.3 150.7 100.1 150.7C98.9001 150.7 96.6001 150.2 96.4001 148.6C96.2001 147.7 96.4001 146.8 96.9001 146.1C96.9001 146.1 95.5001 144.9 96.9001 144C98.3001 143.1 100.6 144.9 100.6 144.9V143.7C100.6 142.4 100.9 142 101.9 141.2C102.8 140.7 101.8 143.1 102.5 143.7C103.2 144.4 101.9 145.7 102.5 146.1C103.4 147.6 105.2 148.8 106.9 149.2C108.9 149.8 110.8 150.7 112.4 152C112.4 152 112.9 150.4 114.3 144.6C115.7 138.8 119.2 137.7 119.2 137.7C125.3 142.1 122.6 148.3 121.2 151.6Z" fill="#E0A082"/>
<path d="M120.2 136.1C120.2 136.1 117.7 137.3 117.3 139C116.5 142.4 116.3 145.8 116.7 149.3C117 151.5 116.2 160.8 116.2 165.8C116.2 170.8 122.8 173.7 127.1 174.4C131.4 175.1 138.3 174 138.8 171.5C139.3 168.9 138.3 155.8 139.8 152.2C141.1 148.7 141.2 144.9 140.1 141.3C139.2 139.4 131 133.9 131 133.9C122.8 134.7 120.2 136.1 120.2 136.1Z" fill="#0D47A7"/>
<path d="M140 163.7C140 166.5 140.4 172 141.2 173.2C140.8 173.6 140.4 174.1 140 174.6C139.8 175.8 139.6 176.9 139.6 178.1C139.6 179.4 140.9 178.2 140.9 178.2C140.9 178.2 141.3 181.6 141.9 182.1C142.6 182.6 144.2 181.5 144.6 178.8C144.9 176.9 144.5 175 143.7 173.3C144.5 171.3 144.6 166.6 144.8 163.8C145.1 161 143.5 154.4 143.5 151.6C143.8 147.8 142.6 144.1 140.1 141.2C139.3 140.8 138.3 140.9 137.5 141.4C135.8 142.1 135 145.4 135.8 151.6C136.6 157.8 140 160.9 140 163.7Z" fill="#E0A082"/>
<path d="M128.6 114.3C124.1 113.4 120.2 116.4 119.4 121.4C118.6 126.4 119.8 132.3 121.1 133.6C122.7 134.9 124.8 135.2 126.7 134.5C128.6 133.9 132.1 132.5 133.4 128.7C136.9 118 133.2 115.2 128.6 114.3Z" fill="#E0A082"/>
<path d="M131.2 128.9C131.1 130.8 131 132.8 131.1 134.7C130.2 136.7 127.5 137.5 125.8 137.5C124.2 137.6 123.4 136.6 123.5 135.9C123.5 135.3 123.8 133.7 123.9 133.1C123.9 133 123.9 132.9 123.9 132.8L131.2 128.9Z" fill="#E0A082"/>
<path d="M121.9 129L120.5 130.3L119.1 129.8C119.1 129.8 120.6 131.4 121 131.4C121.6 131.2 122.1 131 122.6 130.7C124.2 132 126.4 131.9 127.9 130.6L125.9 130.8C125.9 130.8 124.5 129.4 123.9 129.4C123.4 129.4 123 129.5 122.5 129.6L121.9 129Z" fill="#915F4A"/>
<path d="M133.1 117.9C128.5 118.5 123.9 118.8 119.2 118.6C119 119.8 118.8 121.1 118.7 122.3C123.8 124.8 135.5 121.9 135.5 121.9L133.1 117.9Z" fill="white"/>
<path d="M124 117.7L122.9 118.8L121.5 118.3C120.9 120.5 120.2 122.6 119.3 124.7C118.8 125.3 116.4 125.8 116.4 125.8C116.8 125.5 117.1 125 117.3 124.5C117.5 123.9 117.1 119.5 117.3 118.1C117.9 115.9 119.6 114.2 121.7 113.5C123 113.3 124.4 113.3 125.7 113.5L130.2 112.9C131.9 113.5 133.2 114.7 134 116.3C134.9 118.9 135.4 121.6 135.5 124.3C135.4 125.3 135.8 126.4 136.5 127.1L134.3 126.3L135.1 127.3C134.1 127.4 133.2 127.4 132.2 127.3C130.9 127.1 130.1 126.1 128.8 124.8C129.3 125.7 130 126.6 130.7 127.5C130.7 127.5 127.5 126.8 126.7 125.9C125.1 124.3 124 119.2 124 119.2V117.7Z" fill="#915F4A"/>
<path d="M194.4 239.7C194.3 239.8 194.2 239.9 194 240H193.9L193.6 240.1L193.4 240.2C193.3 240.2 193.2 240.3 193.2 240.3L193 240.4L192.8 240.5L192.6 240.6L192.4 240.7L192.2 240.8L192 240.9L191.9 241L191.7 241.1L191.5 241.2L191.3 241.3H191L190.8 241.4L190.6 241.5L190.4 241.6L190.2 241.7H190L189.8 241.8L189.6 241.9L189.4 242H189.1H188.9L188.6 242.1H188.4L188.1 242.2H187.9L187.6 242.3H187.5L187.2 242.4H187L186.7 242.5H186.5L186.1 242.6H186L185.5 242.7L185.1 242.8H185H184.7H184.5H184.2H184.1H183.9H183.4H183.2H182.6H182.5H182H181.8H181.4H181.2H180.8H179.4H179.1H178.9H178.6H178.4H178.1H177.9H177.6H177.4H177.1H176.9H176.6H177H176.7H176.5C176.4 242.8 176.3 242.8 176.2 242.8H176L175.7 242.7H175.5H175.2H175L174.7 242.6H174.5L174 242.5L173.6 242.4H173.5L173.2 242.3H173L172.7 242.2L172.5 242.1L172.3 242L172.1 241.9L171.8 241.8L171.6 241.7L171.2 241.6H171.1L170.6 241.4H170.5L170 241.2V241.3L169.5 241.1H169.4L169.1 241L169 240.9L168.8 240.8L168.7 240.7L168.5 240.6L168.4 240.5L168 240.4L167.8 240.3L167.6 240.2L167.5 240.1L167.3 240H167.1L166.8 239.8L166.5 239.6L166.4 239.5L166.2 239.4L166.1 239.3L165.8 239.1L165.5 238.9L165.4 238.8C165.3 238.8 165.3 238.7 165.2 238.7L165.1 238.6L164.9 238.4L164.8 238.3L164.5 238.1H164.4L164.3 238L164.2 237.9L164 237.8V237.7L163.8 237.5L163.6 237.3L163.5 237.2L163.3 237H163.2L163 236.8V236.7L162.8 236.5L162.6 236.3L162.5 236V235.9C162.4 235.8 162.4 235.8 162.4 235.7L162.3 235.5V235.4L162 235.2L161.9 235L161.8 234.9L161.7 234.7V234.6L161.6 234.4V234.3L161.5 234.1C161.5 234 161.4 233.9 161.4 233.9C161.4 233.8 161.3 233.7 161.3 233.7C161.3 233.7 161.3 233.7 161.3 233.6L161.2 233.4C161.2 233.3 161.2 233.2 161.1 233.2C161.1 233.1 161.1 233.2 161.1 233.1C161.1 233 161.1 233 161.1 232.9C161.1 232.8 161.1 232.9 161.1 232.9V232.7V232.6C161.1 232.5 161.1 232.4 161.1 232.4C161.1 232.3 161.1 232.3 161.1 232.2C161.1 232.2 161.1 232.2 161.1 232.1V231.9V237.3C161.1 237.4 161.1 237.5 161.1 237.5V237.6V237.7V237.8C161.1 237.9 161.1 238 161.1 238V238.2C161.1 238.3 161.1 238.3 161.1 238.4C161.1 238.4 161.1 238.4 161.1 238.5C161.1 238.6 161.1 238.7 161.2 238.7C161.2 238.8 161.2 238.7 161.2 238.7V238.8V238.9C161.2 238.9 161.2 238.9 161.2 239L161.3 239.2C161.3 239.3 161.4 239.4 161.4 239.4C161.4 239.4 161.4 239.4 161.4 239.5V239.6V239.7V239.8L161.5 240V240.1L161.6 240.3V240.4L161.7 240.6L161.8 240.8V240.9L161.9 241.1L162 241.3C162.1 241.4 162.1 241.5 162.2 241.5L162.4 241.7C162.5 241.8 162.5 241.8 162.6 241.9V242L162.8 242.2L162.9 242.3C162.9 242.4 163 242.4 163 242.5L163.1 242.6L163.3 242.8L163.5 243L163.6 243.1L163.8 243.3L163.9 243.4L164.1 243.6H164.2L164.5 243.8L164.6 243.9L164.8 244.1L164.9 244.2L165.1 244.4L165.2 244.5L165.5 244.7L165.8 244.9L165.9 245L166 245.1L166.1 245.2L166.2 245.3L166.5 245.5L166.8 245.7L166.9 245.8C167 245.8 167.1 245.9 167.1 245.9L167.2 246L167.4 246.1L167.6 246.2L167.7 246.3H167.8L167.9 246.4L168.1 246.5L168.2 246.6L168.4 246.7L168.5 246.8L168.8 246.9H168.9L169.4 247.1L169.5 247.2L170 247.4H170.1L171 247H171.1L171.5 247.1H171.6H171.7L172 247.2L172.2 247.3L172.5 247.4H172.6H172.7L173 247.5H173.2L173.5 247.6H173.6L174 247.7L174.5 247.8H174.7L175 247.9H175.2H175.5H175.7H176H176.2H176.5H176.6H176.8H177.1H177.3H177.6H177.7H177.8H178.1H178.3H178.6H178.8H179.1H179.3H179.6H182H182.4H182.6H183.1H183.2H183.8H184L184.7 248.1H184.8H184.9H185H185.3H185.4H185.7H185.8L186.2 248L186.7 247.9H186.8L187.2 247.8H187.4L187.7 247.7H187.9L188.2 247.6H188.3L188.6 247.5H188.8L189.1 247.4L189.3 247.3L189.6 247.2L189.8 247.1L190.1 247L190.3 246.9L190.5 246.7L190.7 246.6L190.9 246.5L191.1 246.4L191.3 246.3L191.5 246.2L191.7 246.1L191.9 246L192.1 245.9L192.3 245.8L192.5 245.7L192.7 245.6L192.9 245.5L193.1 245.4L193.3 245.3L193.5 245.2L193.7 245.1L193.9 245L194.1 244.9L194.3 244.8L194.6 244.7L194.7 244.6L195.1 244.4C198.9 242.2 200.8 239.3 200.8 236.4V231C200.1 234.7 198.2 237.6 194.4 239.7Z" fill="#0083FF"/>
<path d="M194.3 223.7C202 228.1 202 235.3 194.4 239.7C186.8 244.1 174.4 244.1 166.8 239.7C159.2 235.3 159.1 228.1 166.7 223.7C174.3 219.3 186.7 219.3 194.3 223.7Z" fill="#1990F2"/>
<path d="M191.8 225.2C188.8 223.4 184.7 222.5 180.5 222.5C176.3 222.5 172.2 223.5 169.2 225.2C166.2 227 164.5 229.3 164.5 231.8C164.5 234.3 166.2 236.6 169.2 238.4C172.2 240.2 176.3 241.1 180.5 241.1C184.7 241.1 188.8 240.1 191.8 238.4C194.8 236.7 196.5 234.3 196.5 231.8C196.6 229.3 194.9 226.9 191.8 225.2ZM191.2 237.9C185.4 241.3 175.9 241.3 170 237.9C164.1 234.5 164.1 229 169.9 225.6C175.7 222.2 185.2 222.2 191.1 225.6C197 229 197 234.5 191.2 237.9Z" fill="white"/>
<path d="M179.2 232.8C181.2 233.3 182.6 234.3 183.3 235.5L175.7 237.5L173 232.8C175.1 232.3 177.2 232.3 179.2 232.8Z" fill="white"/>
<path d="M185.4 224.5L190.4 233.7L184.8 235.2C184 233.7 182.3 232.5 179.9 231.8C177.4 231.2 174.9 231.2 172.4 231.9L170.5 228.5L185.4 224.5Z" fill="white"/>
<path d="M202 231.6L201.6 231.8L201.5 231.9L201.2 232L201 232.1L200.8 232.2L200.6 232.3L200.4 232.4L200.2 232.5L200 232.6L199.8 232.7L199.6 232.8L199.4 232.9L199.2 233H199L198.8 233.1L198.6 233.2L198.4 233.3L198.2 233.4L198 233.5L197.8 233.6L197.6 233.7L197.4 233.8L197.2 233.9L197 234L196.7 234.1L196.5 234.2L196.2 234.3L196 234H195.7H195.5L195.2 234.1H195.1L194.8 234.2H194.6L194.3 234.3H194.1L193.7 234.4H193.6L193.1 234.5L192.7 234.6H192.6H192.3H192.2H191.9H191.8C191.7 234.6 191.7 234.6 191.6 234.6L191.1 234.7H190.9H190.3H190.2H190H189.8H189.4H186.9H186.6H186.4H186.1H185.9H185.6H185.4H185.1H185H184.7H184.5H184.2H184H183.7H183.5H183.2H183H182.7H182.5L182.2 234.6H182L181.5 234.5L181.1 234.4H181L180.7 234.3H180.5L180.3 234H180.1L179.8 233.9L179.6 233.8L179.3 233.7L179.1 233.6L178.7 233.5H178.6L178.1 233.3H178L177.5 233.1L177.4 233L177 232.9H176.9L176.6 232.8L176.5 232.7L176.3 232.6L176.2 232.5L176 232.4L175.9 232.3L175.7 232.2L175.5 232.1L175.3 232H175L174.8 231.9L174.7 231.8L174.4 231.6L174 231.4L173.9 231.3L173.7 231.2L173.6 231.1L173.3 231L173 230.8L172.9 230.7L172.7 230.5L172.6 230.4L172.4 230.2L172.3 230.1L172 229.9V230L171.8 229.8L171.7 229.7L171.5 229.5L171.4 229.4L171.2 229.2L171 229L170.8 228.8C170.8 228.8 170.8 228.8 170.7 228.7C170.6 228.6 170.6 228.6 170.5 228.5V228.4C170.4 228.3 170.4 228.2 170.3 228.2L170.1 228C170.1 228 170.1 227.9 170 227.8L169.9 227.6L169.8 227.4V227.3L169.7 227.1C169.7 227 169.6 226.9 169.6 226.9V226.8L169.5 226.6V226.5L169.4 226.3V226.2C169.4 226.1 169.4 226.1 169.3 226C169.3 226 169.3 226 169.3 225.9C169.3 225.8 169.2 225.7 169.2 225.7L169.1 225.5C169.1 225.4 169.1 225.5 169.1 225.4L169 225.2C169 225.1 169 225 168.9 225C168.8 225 168.9 225 168.9 224.9C168.9 224.9 168.9 224.8 168.9 224.7C168.9 224.6 168.9 224.7 168.9 224.7V224.5V224.4C168.9 224.3 168.9 224.2 168.9 224.2C168.9 224.1 168.9 224.1 168.9 224V223.9C168.9 223.8 168.9 223.7 168.9 223.7V229C168.9 229.1 168.9 229.2 168.9 229.2V229.3V229.4C168.9 229.5 168.9 229.6 168.9 229.6V229.7V229.9V230.1C168.9 230.1 168.9 230.1 168.9 230.2C168.9 230.3 168.9 230.4 169 230.4C169 230.5 169 230.4 169 230.4V230.5V230.6C169 230.6 169 230.6 169 230.7C169 230.8 169.1 230.9 169.1 230.9C169.1 231 169.2 231.1 169.2 231.1C169.2 231.2 169.2 231.2 169.2 231.2V231.3V231.4V231.5C169.2 231.5 169.2 231.6 169.3 231.7V231.8C169.3 231.9 169.4 231.9 169.4 232V232.1C169.4 232.2 169.5 232.3 169.5 232.3L169.6 232.5V232.6C169.6 232.7 169.7 232.8 169.7 232.8C169.7 232.9 169.8 232.9 169.8 233V233.1L170 233.3L170.2 233.5C170.3 233.6 170.3 233.6 170.4 233.7V233.8L170.6 234L170.7 234.1L170.9 234.3L171 234.4L171.2 234.6L171.4 234.8L171.5 234.9L171.7 235.1L171.8 235.2C171.9 235.3 171.9 235.3 172 235.4H172.1L172.4 235.6L172.5 235.7L172.7 235.9L172.8 236L173 236.2C173 236.2 173.1 236.2 173.1 236.3L173.4 236.5L173.7 236.7L173.8 236.8L173.9 236.9L174 237L174.1 237.1L174.4 237.3L174.7 237.5L174.8 237.6L175 237.7L175.1 237.8L175.3 237.9L175.4 238L175.5 238.1H175.6L175.7 238.2L175.9 238.3L176 238.4L176.2 238.5L176.3 238.6L176.6 238.7H176.7L177.2 238.9L177.3 239L177.8 239.2H177.9L178.4 239.4H178.5L178.9 239.5H179H179.1L179.4 239.6L179.6 239.7L179.9 239.8H180H180.1L180.4 239.9H180.6L180.9 240H181L181.4 240.1L181.9 240.2H182.1L182.4 240.3H182.6H182.9H183.1H183.4H183.6H183.9H184H184.2H184.5H184.7H185H185.1H185.2H185.5H185.7H186H186.1H186.2H186.5H186.7H187H187.2H187.5H188.9H189.3H189.5H189.9H190.1H190.6H190.7H191.3H191.5H192H192.1H192.2H192.3H192.6H192.8H193.1H193.2L193.6 240.2L194.1 240.1H194.2L194.6 240H194.8L195.1 239.9H195.3L195.6 239.8H195.7L196 239.7H196.2L196.5 239.6H196.7L197 239.5L197.2 239.4L197.5 239.3L197.7 239.2L197.9 239.1L198.1 239L198.3 238.9L198.5 238.8L198.7 238.7L198.9 238.6L199.1 238.5L199.3 238.4L199.5 238.3L199.7 238.2L199.9 238.1L200.1 238L200.3 237.9L200.5 237.8L200.7 237.7L200.9 237.6L201.1 237.5L201.3 237.4L201.5 237.3L201.7 237.2L202 237.1L202.1 237L202.5 236.8C206.4 234.9 208.3 232 208.3 229.1V223.6C207.6 226.5 205.7 229.4 202 231.6Z" fill="#0083FF"/>
<path d="M201.9 215.6C209.6 220 209.6 227.2 202 231.6C194.4 236 182 236 174.4 231.6C166.8 227.2 166.7 220 174.3 215.6C181.9 211.2 194.2 211.1 201.9 215.6Z" fill="#1990F2"/>
<path d="M199.4 217C196.4 215.2 192.3 214.3 188.1 214.3C183.9 214.3 179.8 215.3 176.8 217C173.8 218.7 172.1 221.1 172.1 223.6C172.1 226.1 173.8 228.4 176.8 230.2C179.8 232 183.9 232.9 188.1 232.9C192.3 232.9 196.4 231.9 199.4 230.2C202.4 228.5 204.1 226.1 204.1 223.6C204.1 221.1 202.4 218.8 199.4 217ZM198.7 229.7C192.9 233.1 183.4 233.1 177.5 229.7C171.6 226.3 171.6 220.8 177.4 217.4C183.2 214 192.7 214 198.6 217.4C204.5 220.8 204.5 226.3 198.7 229.7Z" fill="white"/>
<path d="M186.8 224.6C188.8 225.1 190.2 226.1 190.9 227.3L183.3 229.3L180.7 224.6C182.6 224.1 184.7 224.1 186.8 224.6Z" fill="white"/>
<path d="M193 216.3L198 225.5L192.4 227C191.6 225.5 189.9 224.3 187.5 223.6C185 223 182.4 223 180 223.6L178.1 220.2L193 216.3Z" fill="white"/>
<path d="M196.1 221.3L195.7 221.5L195.6 221.6L195.3 221.7L195.1 221.8L194.9 221.9L194.7 222L194.5 222.1L194.3 222.2L194.1 222.3L193.9 222.4L193.7 222.5L193.5 222.6L193.3 222.7L193.1 222.8L192.9 222.9L192.7 223L192.5 223.1L192.3 223.2L192.1 223.3L191.9 223.4L191.7 223.5L191.5 223.6L191.3 223.7L191 223.4L190.7 223.5L190.5 223.6L190.2 223.7L190 223.8L189.7 223.9H189.5L189.2 224H189.1L188.8 224.1H188.6L188.5 224H188.3L187.9 224.1H187.8L187.3 224.2H187H186.9H186.6H186.4H186.1H186H185.8H185.3H185.1H184.5H184.4H183.9H183.7H183.3H180.9H180.6H180.4H180.1H179.9H179.6C179.5 224.2 179.5 224.2 179.4 224.2H179.1H178.9H178.6H178.4H178.1H177.9H177.6H177.4L177.1 224.1H176.9H176.6H176.4L176.1 224H175.9H175.8L175.4 223.9H175.3L175 223.8H174.8L174.5 223.7L174.3 223.6L174 223.5L173.8 223.4L173.5 223.3L173.3 223.2H173H172.9L172.4 223H172.3L171.8 222.8L171.7 222.7L171.2 222.5H171.1L170.8 222.4L170.7 222.3L170.5 222.2L170.4 222.1L170.2 222L170.1 221.9L169.9 221.8L169.7 221.7L169.5 221.6L169.4 221.5L169.2 221.4L169.1 221.3L168.8 221.1L168.5 220.9L168.4 220.8L168.2 220.7L168.1 220.6C168 220.5 167.9 220.5 167.8 220.4C167.7 220.3 167.6 220.3 167.5 220.2L167.4 220.1L167.2 219.9L167.1 219.8L166.9 219.6L166.8 219.5L166.5 219.3H166.4L166.2 219.1C166.2 219.1 166.1 219.1 166.1 219L165.9 218.8L165.8 218.7L165.6 218.5L165.4 218.3L165.3 218.2L165.1 218L165 217.9C164.9 217.8 164.9 217.8 164.8 217.7L164.6 217.5L164.4 217.3C164.3 217.2 164.3 217.1 164.2 217.1V217L164.1 216.8L164 216.6V217C163.9 216.9 163.9 216.9 163.9 216.8C163.9 216.7 163.8 216.6 163.8 216.6L163.6 216.4C163.6 216.3 163.5 216.3 163.5 216.2V216.1L163.4 215.9V215.8L163.3 215.6V215.5L163.2 215.3C163.2 215.2 163.1 215.1 163.1 215.1V215C163.1 214.9 163.1 214.9 163 214.8C163 214.8 163 214.8 163 214.7L162.9 214.5C162.9 214.5 162.9 214.5 162.9 214.4C162.9 214.3 162.9 214.3 162.9 214.2C162.9 214.1 162.9 214 162.9 214C162.9 213.9 162.9 213.8 162.9 213.8C162.9 213.7 162.9 213.7 162.9 213.6C162.9 213.6 162.9 213.6 162.9 213.5C162.9 213.4 162.9 213.3 162.9 213.3V218.7C162.9 218.8 162.9 218.9 162.9 218.9C162.9 218.9 162.9 218.9 162.9 219V219.1C162.9 219.2 162.9 219.2 162.9 219.2C162.9 219.3 162.9 219.4 162.9 219.4V219.5C162.9 219.6 162.9 219.6 162.9 219.7C162.9 219.7 162.9 219.8 162.9 219.9C162.9 220 162.9 219.9 162.9 220C162.9 220.1 162.9 220.2 163 220.2V220.3V220.4C163 220.4 163 220.4 163 220.5C163 220.6 163 220.7 163.1 220.7C163.1 220.8 163.2 220.9 163.2 220.9C163.2 221 163.2 221 163.2 221V221.1V221.2V221.3L163.3 221.5V221.6L163.4 221.8V221.9L163.5 222.1L163.6 222.3V222.4C163.6 222.5 163.7 222.6 163.7 222.6C163.7 222.7 163.8 222.7 163.8 222.8V222.9C163.9 223 163.9 223.1 164 223.1L164.2 223.3C164.3 223.4 164.3 223.4 164.4 223.5V223.6L164.6 223.8L164.7 223.9L164.9 224.1L165 224.2L165.2 224.4C165.3 224.5 165.3 224.5 165.4 224.6L165.5 224.7L165.7 224.9L165.8 225L166 225.2H166.1L166.4 225.4L166.5 225.5L166.7 225.7L166.8 225.8L167 226L167.1 226.1L167.4 226.3L167.7 226.5L167.8 226.6L167.9 226.7L168 226.8L168.1 226.9L168.4 227.1L168.7 227.3L168.8 227.4L169 227L169.1 227.1L169.3 227.2L169.5 227.3L169.6 227.4H169.7L169.8 227.5L170 227.6L170.1 227.7L170.3 227.8L170.4 227.9L170.7 228H170.8C171 228.1 171.1 228.1 171.3 228.2L171.4 228.3L171.9 228.5H172L172.5 228.7H172.6L173 228.8H173.1H173.2L173.5 228.9L173.7 229L174 229.1H174.1H174.2L174.5 229.2H174.7L175 229.3H175.1L175.5 229.4L176 229.5H176.2L176.5 229.6H176.7H177H177.2H177.5H177.7H178H178.1H178.3H178.6H178.8H179.1H179.2H179.3H179.6H179.8H180.1H180.2H180.3H180.6H181H181.3H183.2H183.6H183.8H184.2H184.4H184.9H185H185.6H185.8L186.3 229.9H186.4H186.5H186.6H186.9H187.1H187.4H187.5L187.9 229.8L188.4 229.7H188.5C188.6 229.7 188.8 229.7 188.9 229.6H189.1L189.4 229.5H189.6L189.9 229.4H190L190.3 229.3H190.5L190.8 229.2H191L191.3 229.1L191.5 229L191.8 228.9L192 228.8L192.2 228.6L192.4 228.5L192.6 228.4L192.8 228.3L193 228.2L193.2 228.1L193.4 228L193.6 227.9L193.8 227.8L194 227.7L194.2 227.6L194.4 227.5L194.6 227.4L194.8 227.3L195 227.2L195.2 227.1L195.4 227L195.6 226.9L195.8 226.8C195.9 226.8 195.9 226.7 196 226.7L196.3 226.6L196.4 226.5L196.8 226.3C200.6 224.1 202.5 221.2 202.5 218.3V212.8C201.8 216.2 199.9 219.1 196.1 221.3Z" fill="#0083FF"/>
<path d="M196 205.2C203.7 209.6 203.7 216.8 196.1 221.2C188.5 225.6 176.1 225.6 168.5 221.2C160.9 216.8 160.8 209.6 168.4 205.2C176 200.8 188.3 200.8 196 205.2Z" fill="#1990F2"/>
<path d="M193.5 206.7C190.5 204.9 186.4 204 182.2 204C178 204 173.9 205 170.9 206.7C167.9 208.5 166.2 210.8 166.2 213.3C166.2 215.8 167.9 218.1 170.9 219.9C174 221.7 178 222.6 182.2 222.6C186.4 222.6 190.5 221.6 193.5 219.9C196.5 218.1 198.2 215.8 198.2 213.3C198.2 210.8 196.6 208.4 193.5 206.7ZM192.9 219.4C187.1 222.8 177.6 222.8 171.7 219.4C165.8 216 165.8 210.5 171.6 207.1C177.4 203.7 186.9 203.7 192.8 207.1C198.7 210.5 198.7 216 192.9 219.4Z" fill="white"/>
<path d="M180.9 214.3C182.9 214.9 184.3 215.8 185 217L177.4 219L174.8 214.3C176.7 213.8 178.9 213.8 180.9 214.3Z" fill="white"/>
<path d="M187.1 206L192.1 215.2L186.5 216.7C185.7 215.2 184 214 181.5 213.3C179 212.7 176.5 212.7 174 213.4L172.1 210L187.1 206Z" fill="white"/>
<path d="M200.8 216.6L200.4 216.8L200.3 216.9L200 217L199.8 217.1L199.6 217.2L199.4 217.3L199.2 217.4L199 217.5L198.8 217.6L198.6 217.7L198.4 217.8L198.2 217.9L198 218L197.8 218.1L197.6 218.2L197.4 218.3L197.2 218.4L197 218.5L196.8 218.6L196.6 218.7L196.4 218.8L196.2 218.9L196 219L195.8 219.1L195.5 219.2L195.3 219.3L195 219.4L194.8 219.5L194.5 219.6H194.3L194 219.7H193.9L193.6 219.8H193.4L193.1 219.9H192.9L192.5 220H192.4L191.9 220.1L191.5 220.2H191.4H191.1H191H190.7H190.6H190.4H189.9H189.7L189.1 220.3H189H188.5H188.3H187.9H187.7H187.3H185.4H185.1H184.9H185H184.8H184.5H184.3H184H183.8H183.5H183.3H183H182.8H182.5H182.3H182H181.8H181.5H181.3L181 220.2H180.8L180.3 220.1L179.9 220H179.8L179.5 219.9H179.3L179 219.8L178.8 219.7L178.5 219.6L178.3 219.5L178 219.4L177.8 219.2L177.4 219.1H177.3L176.8 218.9H176.7C176.5 218.8 176.4 218.8 176.2 218.7L176.1 218.6L175.6 218.4H175.5L175.2 218.3L175.1 218.2L174.9 218.1L174.8 218L174.6 217.9L174.5 217.8L174.3 217.7L174.1 217.6L173.9 217.5L173.8 217.4L173.6 217.3L173.5 217.2L173.2 217L172.9 216.8L172.8 216.7L172.6 216.6L172.5 216.5L172.2 216.3L171.9 216.1L171.8 216L171.6 215.8L171.5 215.7L171.3 215.5L171.2 215.4L170.9 215.2H170.8L170.6 215L170.5 214.9L170.3 214.7L170.2 214.6L170 214.4L169.8 214.2L169.7 214.1C169.6 214 169.6 214 169.6 213.9L169.5 213.8C169.4 213.7 169.4 213.7 169.3 213.6L169.1 213.4L168.9 213.2L168.7 213V212.9C168.6 212.8 168.6 212.8 168.6 212.7C168.5 212.6 168.5 212.5 168.5 212.5V212.4L168.4 212.2L168.3 212V211.9L168.2 211.7V211.6L168.1 211.4V211.3C168.1 211.2 168.1 211.2 168 211.1C168 211.1 168 211.1 168 211C168 210.9 167.9 210.8 167.9 210.8L167.8 210.6C167.8 210.5 167.8 210.6 167.8 210.5L167.7 210.3C167.7 210.3 167.7 210.3 167.7 210.2C167.7 210.1 167.7 210 167.6 210C167.6 210 167.6 210 167.6 209.9C167.6 209.8 167.6 209.8 167.6 209.7V209.5V209.4C167.6 209.3 167.6 209.2 167.6 209.2C167.6 209.1 167.6 209.1 167.6 209V208.9C167.6 208.8 167.6 208.7 167.6 208.7V214.1C167.6 214.2 167.6 214.3 167.6 214.3V214.4V214.5V214.6C167.6 214.7 167.6 214.8 167.6 214.8V214.9V215.1C167.6 215.1 167.6 215.2 167.6 215.3C167.6 215.4 167.6 215.3 167.6 215.4C167.6 215.5 167.6 215.6 167.7 215.6C167.8 215.6 167.7 215.6 167.7 215.6V215.7V215.8V215.9C167.7 216 167.8 216.1 167.8 216.1L167.9 216.3V216.4V216.5V216.6V216.7L168 216.9V217C168 217.1 168.1 217.1 168.1 217.2V217.3C168.1 217.4 168.2 217.5 168.2 217.5L168.3 217.7V217.8L168.4 218C168.4 218.1 168.5 218.1 168.5 218.2V218.3L168.7 218.5L168.9 218.7L169.1 218.9V219L169.3 219.2L169.4 219.3L169.6 219.5L169.7 219.6L169.9 219.8L170.1 220L170.2 220.1L170.4 220.3L170.5 220.4L170.7 220.6H170.8L171.1 220.8L171.2 220.9L171.4 221.1L171.5 221.2L171.7 221.4L171.8 221.5L172.1 221.7L172.4 221.9L172.5 222L172.6 222.1L172.7 222.2L172.8 222.3L173.1 222.5L173.4 222.7L173.5 222.8L173.7 222.9L173.8 223L174 223.1L174.2 223.2L174.3 223.3H174.4L174.5 223.4L174.7 223.5L175 223L175.2 223.1L175.3 223.2L175.6 223.3H175.7C175.9 223.4 176 223.4 176.2 223.5L176.3 223.6L176.8 223.8H176.9L177.4 224H177.5L177.9 224.1H178H178.1L178.4 224.2L178.6 224.3L178.9 224.4H179H179.1L179.4 224.5H179.6L179.9 224.6H180L180.4 224.7L180.9 224.8H181.1L181.4 224.9H181.6H181.9H182.1H182.4H182.6H182.9H183H183.2H183.5H183.7H184H184.1H184.2H184.5H184.7H185H185.1H185.2H185.5H185.7H186H187.9H188.3H188.5C188.6 224.9 188.8 224.9 188.9 224.9H189.1H189.6H189.7H190.3H190.5H191H191.1H191.2H191.3H191.6H191.8H192.1H192.2L192.6 224.8L193.1 224.7H193.2C193.3 224.7 193.5 224.7 193.6 224.6H193.8L194.1 224.5H194.3L194.6 224.4H194.7L195 224.3H195.2L195.5 224.2L195.7 224.1L196 224L196.2 223.9L196.5 223.8L196.7 223.7L196.9 223.6L197.1 223.5L197.3 223.4L197.5 223.3L197.7 223.2L197.9 223.1L198.1 223L198.3 222.9L198.5 222.8L198.7 222.7L198.9 222.6L199.1 222.5L199.3 222.4L199.5 222.3L199.7 222.2L199.9 222.1L200.1 222L200.3 221.9L200.5 221.8L200.7 221.7L201 221.6L201.1 221.5L201.5 221.3C205.3 219.1 207.2 216.2 207.2 213.3V207.8C206.5 211.5 204.6 214.4 200.8 216.6Z" fill="#0083FF"/>
<path d="M200.7 200.6C208.4 205 208.4 212.2 200.8 216.6C193.2 221 180.8 221 173.2 216.6C165.6 212.2 165.5 205 173.1 200.6C180.7 196.2 193 196.1 200.7 200.6Z" fill="#1990F2"/>
<path d="M198.2 202C195.2 200.2 191.1 199.3 186.9 199.3C182.7 199.3 178.6 200.3 175.6 202C172.6 203.8 170.9 206.1 170.9 208.6C170.9 211.1 172.6 213.4 175.6 215.2C178.6 217 182.7 217.9 186.9 217.9C191.1 217.9 195.2 216.9 198.2 215.2C201.2 213.4 202.9 211.1 202.9 208.6C202.9 206.1 201.3 203.8 198.2 202ZM197.6 214.7C191.8 218.1 182.3 218.1 176.4 214.7C170.5 211.3 170.5 205.8 176.3 202.4C182.1 199 191.6 199 197.5 202.4C203.4 205.8 203.4 211.4 197.6 214.7Z" fill="white"/>
<path d="M185.6 209.6C187.6 210.1 189 211.1 189.7 212.3L182.1 214.3L179.5 209.6C181.4 209.1 183.6 209.1 185.6 209.6Z" fill="white"/>
<path d="M191.8 201.3L196.8 210.5L191.3 212C190.5 210.5 188.8 209.3 186.4 208.6C183.9 208 181.4 208 178.9 208.7L177 205.3L191.8 201.3Z" fill="white"/>
<path d="M180.7 244.3V244.2C180.7 244.1 180.7 244 180.7 243.9C180.7 243.8 180.7 243.8 180.7 243.7C180.7 243.6 180.7 243.5 180.7 243.5C180.7 243.5 180.7 243.4 180.7 243.3V243.1V242.9C180.7 242.8 180.7 242.7 180.7 242.7V242.4C180.7 242.3 180.7 242.2 180.7 242.2C180.7 242.2 180.7 242.1 180.7 242V241.8C180.7 241.7 180.7 241.7 180.7 241.6V241.4V241.2V241C180.7 240.9 180.7 240.9 180.7 240.8C180.7 240.7 180.7 240.7 180.7 240.6C180.7 240.5 180.7 240.5 180.7 240.4L180.6 240.2C180.6 240.1 180.6 240.1 180.6 240L180.5 239.8L180.4 239.6L180.3 239.4C180.3 239.3 180.3 239.3 180.2 239.2C180.2 239.1 180.2 239.1 180.1 239C180.1 238.9 180.1 238.9 180 238.8C180 238.7 180 238.6 179.9 238.6C179.9 238.5 179.9 238.5 179.8 238.4L179.9 238C179.9 237.9 179.9 237.9 179.8 237.8L179.7 237.6L179.6 237.4C179.6 237.3 179.6 237.2 179.5 237.2L179.4 237C179.4 236.9 179.3 236.8 179.3 236.8L179.2 236.6L179.1 236.4C179.1 236.3 179.1 236.3 179 236.2L178.9 236L178.8 235.8L179 235.4L178.9 235.2C178.9 235.1 178.8 235.1 178.8 235L178.7 234.8C178.7 234.7 178.6 234.6 178.6 234.6L178.5 234.4L178.4 234.2C178.4 234.1 178.3 234.1 178.3 234L178.2 233.8L178.1 233.6L178 233.4V233.1C178 233 177.9 232.9 177.9 232.9L177.8 232.7L177.7 232.5L177.6 232.3L177.5 232.1L177.4 231.9L177.3 231.6L177.2 231.4L177 231.3L176.9 231.1L176.8 230.9C176.8 230.8 176.7 230.8 176.7 230.7C176.7 230.6 176.6 230.6 176.6 230.5L176.5 230.3C176.5 230.2 176.4 230.2 176.4 230.1L176.3 229.9L176 229.7L175.9 229.5L175.7 229.3L175.6 229.2L175.4 228.9L175.1 228.8C175 228.7 174.9 228.6 174.9 228.5L174.7 228L174.6 227.9L174.4 227.7L174.3 227.6L174.1 227.4L174 227.3L173.8 227.1L173.7 227L173.5 226.8L173.4 226.7L173.1 226.4L173 226.3V225.9L172.9 225.8L172.7 225.6L172.6 225.5L172.4 225.3L172.3 225.2L172.1 225L172 224.8L171.7 224.5L171.6 224.4L171.4 224.2L171.3 224.1L171.1 223.9L171 223.8L170.9 223.7L170.8 223.6L170.7 223.5L170.5 223.3L170.4 223.2L170.1 223H170L169.7 222.7L169.6 222.6L169.4 222.4L169.3 222.3L169.1 222.1L169 222L168.8 221.9L168.7 221.8L168.6 221.7L168.5 221.6L168.3 221.4L168.1 221.3L167.9 221.1L167.8 221L167.5 220.8L167.4 220.7L167 220.5L166.7 220.3L166.6 220.2L166.3 220.1H166.2L165.9 219.9H165.8L165.5 219.8H165.4L165.1 219.7L164.9 219.6H164.8L164.6 219.5L164.4 219.4L164.2 219.3L164 219.2L163.8 219.1H163.6L163.4 219H163.3L163.1 218.9H163L162.7 218.8L162.4 218.7H162.3H162.1H162H161.8H161.7H161.5H161.4H161.2H160.3H160.2H160H159.9H159.7H159.6H159.5H159.3H159.2L159 218.8H158.9L158.6 218.9H158.5L158.3 219H158.2L158 219.1H157.9L157.7 219.2H157.6L157.4 219.3H157.3L157 219.4L152.3 222.1L152.6 222H152.7L152.9 221.9H153L153.2 221.8H153.3L153.5 221.7H153.6L153.8 221.6H153.9C154 221.6 154.1 221.5 154.2 221.5H154.3L154.5 221.4H154.6H154.8H154.9H155.1H155.2H155.4H155.5H155.7H156.5H156.7H156.8H157H157.1H157.3H157.4H157.6H157.7L158 221.5L158.3 221.6H158.4L158.6 221.7H158.7L158.9 221.8L159 221.9L159.2 222L159.4 222.1L159.6 222.2L159.8 222.3L160 222.4L160.3 222.5L160.6 222.6H160.7L161 222.7H161.1L161.4 222.9H161.5L161.8 223H161.9L162.2 223.2L162.6 223.4L162.7 223.5L163 224L163.1 224.1C163.2 224.2 163.3 224.2 163.3 224.3L163.5 224.4L163.7 224.6L163.9 224.7L164 224.8L164.2 224.9L164.3 225L164.5 225.2L164.6 225.3L164.8 225.5L164.9 225.6L165.2 225.9L165.3 226L165.6 226.2L165.7 226.3L165.9 226.5L166 226.6L166.2 226.8L166.3 226.9L166.5 227.1L166.6 227.2L166.8 227.4L166.9 227.5L167.2 227.8L167.3 227.9L167.5 228.1L167.6 228.2L167.8 228.4L167.9 228.5L168.1 228.7L168.2 228.8C168.3 228.9 168.3 229 168.4 229L168.5 229.1L168.8 229.4L168.9 229.5L169.1 229.7L169.2 229.8L169.4 230L169.5 230.1L169.7 230.3L169.8 230.4L170 230.6L170.1 230.7L170.4 231.1L170.6 231.4L170.7 231.5L170.9 231.8C170.9 231.9 171 231.9 171 232L171.2 232.2L171.3 232.4C171.4 232.5 171.4 232.6 171.4 232.6L171.5 232.8L171.6 233L171.7 233.2L171.8 233.4L171.9 233.6L172 233.8C172 233.9 172 234 172.1 234L172.2 234.2L172.3 234.4C172.4 234.5 172.4 234.6 172.4 234.7C172.4 234.8 172.5 234.8 172.5 234.9L172.6 235.1C172.6 235.2 172.7 235.2 172.7 235.3L172.8 235.5L172.9 235.7C172.9 235.8 173 235.9 173 235.9L173.1 236.1C173.1 236.2 173.2 236.3 173.2 236.3L173.3 236.5C173.3 236.6 173.4 236.7 173.4 236.7L173.5 236.9L173.6 237.1L173.7 237.3C173.7 237.4 173.8 237.5 173.8 237.5L173.9 237.7L174 238C174 238.1 174.1 238.1 174.1 238.2C174.1 238.3 174.2 238.4 174.2 238.4L174.3 238.6L174.4 238.8L174.5 239C174.5 239.1 174.6 239.2 174.6 239.2L174.7 239.4L174.8 239.6C174.8 239.7 174.9 239.7 174.9 239.8C174.9 239.9 174.9 240 175 240C175 240.1 175 240.1 175.1 240.2C175.1 240.3 175.2 240.3 175.2 240.4C175.2 240.5 175.2 240.5 175.3 240.6C175.3 240.7 175.3 240.8 175.4 240.8C175.4 240.9 175.4 240.9 175.5 241C175.6 241.1 175.5 241.2 175.6 241.2L175.7 241.4C175.7 241.5 175.7 241.5 175.8 241.6L175.9 241.8L176 242L176.1 242.2L176.2 242.4C176.2 242.5 176.2 242.5 176.2 242.6C176.2 242.7 176.2 242.8 176.2 242.8C176.2 242.9 176.2 242.9 176.2 243C176.2 243.1 176.2 243.2 176.2 243.2V243.4C176.2 243.5 176.2 243.6 176.2 243.6V243.8V244C176.2 244.1 176.2 244.1 176.2 244.2C176.2 244.3 176.2 244.4 176.2 244.4C176.2 244.5 176.2 244.5 176.2 244.6C176.2 244.7 176.2 244.8 176.2 244.8C176.2 244.9 176.2 244.9 176.2 245V245.2V245.4V245.6C176.2 245.7 176.2 245.7 176.2 245.8V246C176.2 246.1 176.2 246.1 176.2 246.2C176.2 246.3 176.2 246.4 176.2 246.5V246.6C176.2 246.7 176.2 246.9 176.2 247C176.2 251.4 174.6 254.5 172.2 255.9L176.9 253.2C179.4 251.8 180.9 248.7 180.9 244.3C180.7 244.6 180.7 244.4 180.7 244.3Z" fill="#0083FF"/>
<path d="M162.2 223.5C169.9 227.9 176 238.6 176 247.5C176 256.4 169.7 259.9 162.1 255.4C154.5 250.9 148.3 240.2 148.3 231.4C148.3 222.6 154.6 219.1 162.2 223.5Z" fill="#1990F2"/>
<path d="M170.2 234.8C168.1 231.1 165.2 228.1 162.2 226.3C159.2 224.5 156.3 224.3 154.2 225.5C152 226.7 150.8 229.3 150.8 232.8C150.8 236.3 152 240.3 154.1 244C156.2 247.7 159.1 250.7 162.1 252.5C165.1 254.3 168 254.5 170.1 253.3C172.2 252.1 173.5 249.5 173.5 246C173.5 242.5 172.4 238.5 170.2 234.8ZM162.1 251.7C156.3 248.3 151.5 240 151.5 233.3C151.5 226.6 156.3 223.8 162.2 227.2C168.1 230.6 172.8 238.8 172.8 245.6C172.8 252.3 168 255 162.1 251.7Z" fill="white"/>
<path d="M154 237.1L162.3 229.3L170.3 241.1L167.2 244C166 242.2 164.2 240.8 162.2 240.2C160.4 239.7 158.4 240.2 157.1 241.5L154 237.1Z" fill="white"/>
<path d="M158.1 243.3C159.2 242.2 160.8 241.8 162.3 242.2C164 242.7 165.5 243.8 166.4 245.3L162.1 249.3L158.1 243.3Z" fill="white"/>
<path d="M185.5 196.3V198.4L183 197V194.9L185.5 196.3Z" fill="#171F28"/>
<path d="M184.8 200.1V202.2C183.2 202.5 181.4 202.3 180.1 201.5C179.2 201 178.8 200.3 178.8 199.6V197.5C178.8 198.2 179.2 198.9 180.1 199.4C181.4 200.2 183.2 200.4 184.8 200.1Z" fill="#171F28"/>
<path d="M206.1 208.1V210.1L203 209.7V207.6L206.1 208.1Z" fill="#171F28"/>
<path d="M203 207.6V209.7L201.8 210.4V208.3L203 207.6Z" fill="#171F28"/>
<path d="M199.2 208.5V210.5L184.8 202.1V200.1L199.2 208.5Z" fill="#171F28"/>
<path d="M201.8 208.3V210.4L200.8 211V209L201.8 208.3Z" fill="#171F28"/>
<path d="M206.9 209.9V211.9L206.1 210.1V208.1L206.9 209.9Z" fill="#171F28"/>
<path d="M208.4 209.4V211.5C208.4 212.2 208 212.9 207.1 213.4V211.3C208 210.8 208.4 210.1 208.4 209.4Z" fill="#171F28"/>
<path d="M207.2 211.3L207.3 213.2L207 213.4V211.3H207.1H207.2Z" fill="#171F28"/>
<path d="M207 211.3V213.4C205.2 214.4 202.4 214.4 200.6 213.3C199.6 212.7 199.1 211.9 199.1 211.2V209.1C199.1 209.9 199.7 210.7 200.6 211.2C202.3 212.3 205.2 212.3 207 211.3Z" fill="#171F28"/>
<path d="M207.1 207.5C208.9 208.5 208.9 210.2 207.1 211.3H207C205.2 212.3 202.4 212.3 200.6 211.2C199.3 210.5 198.7 209.3 199.2 208.4L184.8 200C183.2 200.3 181.4 200.1 180.1 199.3C179.1 198.7 178.8 198 178.8 197.2L181.2 198.6L184.5 198.2H184.6L185.4 196.2L183 194.8C184.3 194.8 185.6 195 186.6 195.5C187.9 196.2 188.2 197.3 187.7 198.2L202.1 206.6C203.8 206.4 205.8 206.8 207.1 207.5ZM205.7 210.6L206.9 209.9L206.1 208.1L203 207.6L201.8 208.3L200.8 208.9L201.6 210.7L203.9 211L204.6 211.1L205.7 210.6Z" fill="#354960"/>
<path d="M184.6 232.6L180.7 234.8V260L184.6 257.9V232.6Z" fill="#F8B37A"/>
<path d="M178.5 233.5L180.7 234.8V260L178.5 258.8V233.5Z" fill="#AC723E"/>
<path d="M171 233.3L183.9 225.9L189.6 229.2L176.8 236.6L171 233.3Z" fill="#616169"/>
<path d="M171 233.3V238.2L176.7 241.5L176.8 236.6L171 233.3Z" fill="#383840"/>
<path d="M189.6 229.2V234.1L176.7 241.5L176.8 236.6L189.6 229.2Z" fill="#44444E"/>
<path d="M177.3 231.7V231.2L181.5 229.3L183.5 230V230.5L179.4 232.9L177.3 231.7Z" fill="#C99163"/>
<path d="M177.3 231.2L181.5 228.8L183.5 230L179.4 232.4L177.3 231.2Z" fill="#F8B37A"/>
<path d="M31.7001 220.5L4.80005 236.1V235.1L1.80005 235.3V249.5C1.80005 250.1 2.20005 250.6 2.80005 250.9L16.1 258.6C17.3 259.1 18.6 259.1 19.8 258.6L19.9 258.5C20 258.5 20.1 258.4 20.2001 258.4L48.9001 241.9C49.5 241.6 49.9001 241 49.9001 240.5V226.3L46.9001 226L45.9001 226.5L36.1 220.8C36 220.7 35.9 220.7 35.8 220.6H35.7001C35.1001 220.3 34.4001 220.2 33.7001 220.2C33.1 220.1 32.4001 220.3 31.7001 220.5Z" fill="#125AC4"/>
<path d="M31.7001 217.2L2.80005 233.9C2.20005 234.2 1.80005 234.8 1.80005 235.3C1.80005 235.8 2.20005 236.4 2.80005 236.7L16.1 244.4C17.3 244.9 18.6 244.9 19.8 244.4L19.9 244.3C20 244.3 20.1 244.2 20.2001 244.2L48.8 227.7C49.4 227.4 49.8 226.8 49.8 226.3C49.8 225.8 49.4 225.3 48.8 224.9L35.9001 217.5C35.8001 217.4 35.7 217.4 35.6 217.3H35.5C34.9001 217 34.2001 216.9 33.5 216.9C33.1 216.7 32.4001 216.9 31.7001 217.2Z" fill="#454346"/>
<path d="M31.9 218.5L4.1 234.6V233.5L1 233.8V238C1 238.6 1.4 239.1 2 239.5L15.7 247.4H15.8C16.4 247.7 17.1 247.8 17.7 247.8C18.4 247.8 19 247.7 19.6 247.4L19.7 247.3C19.8 247.3 19.9 247.2 20 247.1L49.5 230C50.1 229.6 50.5 229.1 50.5 228.5V224.3L47.4 224L46.3 224.5L36.1 218.6C36 218.5 35.9 218.5 35.8 218.4C35.2 218.1 34.5 218 33.8 218C33.3 218 32.6 218.2 31.9 218.5Z" fill="#1990F2"/>
<path d="M31.9 215L2.09998 232.3C1.49998 232.6 1.09998 233.2 1.09998 233.8C1.09998 234.4 1.49998 234.9 2.09998 235.3L15.8 243.2H15.9C16.5 243.5 17.2 243.6 17.8 243.6C18.5 243.6 19.1 243.5 19.7 243.2L19.8 243.1L20.1 243L49.6 225.9C50.2 225.5 50.6 225 50.6 224.4C50.6 223.8 50.2 223.3 49.6 222.9L36.3 215.2C36.2 215.1 36.1 215.1 36 215C35.4 214.7 34.7 214.6 34 214.6C33.3 214.6 32.6 214.7 31.9 215Z" fill="#125AC4"/>
<path d="M16.3 230.9L10.4 234.3V233.9L9.40002 234V235.4C9.40002 235.6 9.60002 235.8 9.70002 235.9L14.1 238.5C14.3 238.6 14.5 238.6 14.7 238.6C14.9 238.6 15.1 238.6 15.3 238.5H15.4L21.8 234.8C22 234.7 22.1 234.5 22.1 234.3V232.9L21.1 232.8L20.8 232.9L17.5 231L17.4 230.9C17.2 230.8 17 230.7 16.8 230.8C16.8 230.7 16.5 230.8 16.3 230.9Z" fill="#2E5A8B"/>
<path d="M16.3 229.7L9.8 233.5C9.6 233.6 9.5 233.8 9.5 234C9.5 234.2 9.7 234.4 9.8 234.5L14.2 237.1C14.4 237.2 14.6 237.2 14.8 237.2C15 237.2 15.2 237.2 15.4 237.1H15.5L21.9 233.4C22.1 233.3 22.2 233.1 22.2 232.9C22.2 232.7 22 232.5 21.9 232.4L17.6 229.9H17.5C17.3 229.8 17.1 229.8 16.9 229.8C16.8 229.6 16.6 229.6 16.3 229.7Z" fill="#567AA1"/>
<path d="M35.1 220L29.3 223.4V223L28.3 223.1V224.5C28.3 224.7 28.4 224.9 28.6 225L33 227.6C33.2 227.7 33.4 227.7 33.6 227.7C33.8 227.7 34.0001 227.7 34.2001 227.6C34.2001 227.6 34.3 227.6 34.3 227.5L40.7001 223.8C40.9001 223.7 41 223.5 41 223.3V221.9L40 221.8L39.8 222L36.5 220.1C36.5 220.1 36.4001 220.1 36.4001 220C36.2001 219.9 36.0001 219.9 35.7001 219.9C35.5001 219.9 35.3 219.9 35.1 220Z" fill="#0B3F9C"/>
<path d="M35.1 218.9L28.6 222.7C28.4 222.8 28.3 223 28.3 223.2C28.3 223.4 28.4 223.6 28.6 223.7L33 226.3C33.2 226.4 33.4 226.4 33.6 226.4C33.8 226.4 34.0001 226.4 34.2001 226.3L34.3 226.2L40.7001 222.5C40.9001 222.4 41 222.2 41 222C41 221.8 40.9001 221.6 40.7001 221.5L36.6 219L36.5 218.9C36.3 218.8 36.1 218.7 35.8 218.8C35.5 218.7 35.3 218.8 35.1 218.9Z" fill="#1990F2"/>
<path d="M16.3 230.9L10.4 234.3V233.9L9.40002 234V235.4C9.40002 235.6 9.60002 235.8 9.70002 235.9L14.1 238.5C14.3 238.6 14.5 238.6 14.7 238.6C14.9 238.6 15.1 238.6 15.3 238.5H15.4L21.8 234.8C22 234.7 22.1 234.5 22.1 234.3V232.9L21.1 232.8L20.8 232.9L17.5 231L17.4 230.9C17.2 230.8 17 230.7 16.8 230.8C16.8 230.7 16.5 230.8 16.3 230.9Z" fill="#0B3F9C"/>
<path d="M16.3 229.7L9.8 233.5C9.6 233.6 9.5 233.8 9.5 234C9.5 234.2 9.7 234.4 9.8 234.5L14.2 237.1C14.4 237.2 14.6 237.2 14.8 237.2C15 237.2 15.2 237.2 15.4 237.1H15.5L21.9 233.4C22.1 233.3 22.2 233.1 22.2 232.9C22.2 232.7 22 232.5 21.9 232.4L17.6 229.9H17.5C17.3 229.8 17.1 229.8 16.9 229.8C16.8 229.6 16.6 229.6 16.3 229.7Z" fill="#1990F2"/>
<path d="M27.8999 249.8L24.2999 251.9L24.4999 252L24.1999 252.5L23.4999 252.1C23.3999 252 23.2999 251.9 23.3999 251.8V248.6C23.3999 248.5 23.4999 248.3 23.4999 248.2C23.5999 248.1 23.5999 248 23.6999 247.9H23.7999L27.6999 245.6C27.7999 245.5 27.9999 245.5 28.0999 245.6L28.7999 246L28.5999 246.5L28.3999 246.6V249C28.3999 249.1 28.2999 249.3 28.2999 249.4C28.1999 249.6 28.0999 249.7 27.8999 249.8Z" fill="#0B3F9C"/>
<path d="M28.5 250.1L24.5 252.4C24.4 252.5 24.4 252.5 24.3 252.5C24.2 252.5 24.1 252.5 24 252.4C23.9 252.3 24 252.2 24 252.2V249C24 248.9 24 248.7 24.1 248.6C24.2 248.5 24.3 248.4 24.3 248.3C24.3 248.3 24.3 248.3 24.4 248.3L28.4 246C28.5 245.9 28.6 245.9 28.7 246C28.8 246.1 28.9 246.2 28.8 246.3V249.4C28.8 249.5 28.7 249.7 28.7 249.8C28.7 249.9 28.6 250 28.5 250.1Z" fill="#1990F2"/>
<path d="M44.4 240.3L40.8 242.4L41 242.5L40.6 243L39.9 242.6C39.8 242.5 39.7 242.4 39.8 242.3V239.2C39.8 239.1 39.8 238.9 39.9 238.8C40 238.7 40 238.6 40.1 238.5V238.4H40.2L44.1 236.1C44.2 236 44.4 236 44.5 236.1L45.2 236.5L45 237L44.8 237.2V239.6C44.8 239.7 44.7 239.9 44.7 240C44.6 240.1 44.5 240.2 44.4 240.3Z" fill="#0B3F9C"/>
<path d="M45 240.6L41 242.9C40.9 243 40.8 243 40.6 243C40.5 242.9 40.4 242.8 40.5 242.7V239.5C40.5 239.4 40.6 239.2 40.6 239.1C40.7 239 40.8 238.9 40.9 238.8H41L44.9 236.5C45 236.4 45.1 236.4 45.2 236.4C45.3 236.5 45.4 236.6 45.3 236.7V239.8C45.3 239.9 45.2 240.1 45.2 240.2C45.2 240.4 45.1 240.5 45 240.6Z" fill="#1990F2"/>
<path d="M35 213.9L13.5 226.3C13.4 226.3 13.4 226.4 13.4 226.5V233.7C13.4 233.8 13.5 233.8 13.5 233.9L15.3 234.9C15.4 234.9 15.4 234.9 15.5 234.9V228.1L15.6 227.7H15.7L32.1 218.3V222.9C32.1 223 32.2 223 32.2 223.1L34 224.1C34.1 224.1 34.2 224.1 34.2 224.1V217.3L34.3 216.9L37.1 215.3C37.2 215.3 37.2 215.2 37.2 215.1C37.2 215 37.1 214.9 37.1 214.9L35.4 213.9C35.3 213.9 35.2 213.9 35.2 213.8C35.2 213.8 35.1 213.8 35 213.9Z" fill="#333333"/>
<path d="M34.4 224C34.5 224 34.6 224 34.6 224L37.2 222.5C37.3 222.5 37.3 222.4 37.3 222.3V217.5V215.1L15.9 227.5C15.9 227.5 15.9 227.5 15.8 227.5C15.7 227.6 15.7 227.6 15.7 227.7C15.7 227.8 15.6 227.9 15.6 228V234.9C15.7 234.9 15.8 234.9 15.8 234.9L18.4 233.4C18.5 233.3 18.5 233.3 18.5 233.2V228.7L34.4 219.5V224Z" fill="#4D4D4D"/>
</svg>
